<svg width="361" height="62" viewBox="0 0 361 62" fill="none" xmlns="http://www.w3.org/2000/svg">
<path d="M328.434 17.4275C327.801 16.6275 317.072 5.91901 316.486 5.48871C316.409 5.52315 316.306 5.53978 316.247 5.59916C312.717 9.12311 309.19 12.651 305.667 16.1813C305.607 16.2411 305.588 16.3409 305.542 16.4374C305.734 16.7969 306.053 17.0419 306.331 17.3198C314.183 25.1769 322.039 33.0316 329.894 40.8866C330.089 41.081 330.279 41.2813 330.482 41.4674C330.611 41.5857 330.759 41.6827 330.902 41.792C331.306 41.577 331.553 41.2603 331.83 40.9836C339.731 33.0874 347.629 25.1884 355.527 17.2901C355.678 17.1389 355.836 16.992 355.978 16.8329C356.095 16.7023 356.193 16.5562 356.332 16.3753C356.075 16.1025 355.853 15.8555 355.618 15.6212C353.434 13.434 351.248 11.2493 349.062 9.06334C348.002 8.00322 346.943 6.94112 345.879 5.88536C345.712 5.72068 345.58 5.48554 345.293 5.50692C344.518 6.12644 333.852 16.821 333.438 17.3942C333.521 17.7458 333.825 17.931 334.057 18.1642C336.389 20.5061 338.728 22.8409 341.063 25.1796C341.296 25.4128 341.513 25.6618 341.755 25.9227C341.598 26.1083 341.49 26.2532 341.365 26.3803C340.741 27.0081 340.113 27.6312 339.448 28.2943C339.167 28.0255 338.921 27.7999 338.685 27.5643C336.347 25.2283 334.012 22.8892 331.671 20.5564C331.439 20.3252 331.245 20.0354 330.909 19.9147C330.566 20.0572 330.369 20.3418 330.136 20.5746C327.665 23.0376 325.201 25.5074 322.731 27.9705C322.5 28.2001 322.306 28.4847 321.996 28.6066C321.094 27.8584 320.118 26.8482 319.729 26.252C320.406 25.486 321.169 24.7834 321.896 24.0463C322.604 23.3266 323.322 22.6168 324.037 21.9027C324.772 21.1668 325.515 20.4376 326.242 19.6938C326.965 18.9535 327.746 18.2679 328.434 17.4275ZM300.721 16.4572C300.809 16.3258 300.862 16.213 300.944 16.1303C306.089 10.9773 311.235 5.82677 316.409 0.649696C316.764 0.797356 316.959 1.07763 317.187 1.30485C321.474 5.58688 325.758 9.87248 330.044 14.1565C330.301 14.4138 330.565 14.6636 330.862 14.9506C331.059 14.8002 331.237 14.6917 331.382 14.5492C331.995 13.9502 332.598 13.3414 333.204 12.735C337.012 8.92637 340.821 5.11739 344.63 1.3096C344.845 1.09465 345.068 0.887611 345.299 0.664345C345.668 0.830212 345.889 1.12949 346.143 1.38284C350.884 6.11932 355.623 10.859 360.362 15.5982C360.492 15.7281 360.625 15.8543 360.749 15.9897C361.08 16.3504 361.081 16.4723 360.742 16.8373C360.554 17.0392 360.355 17.2292 360.16 17.4239C351.547 26.0367 342.934 34.6494 334.322 43.2626C334.02 43.5638 333.724 43.871 333.396 44.2051C333.505 44.3817 333.583 44.5396 333.691 44.6746C333.804 44.8171 333.946 44.9383 334.076 45.0681C337.581 48.5739 341.086 52.0804 344.595 55.5826C344.827 55.8146 345.023 56.1016 345.343 56.2175C345.948 55.7825 355.713 46.0368 356.28 45.3025C356.193 44.9692 355.894 44.7819 355.665 44.5515C352.943 41.8201 350.214 39.0954 347.488 36.3683C347.253 36.1327 347.023 35.892 346.757 35.6193C347.486 34.7726 348.265 34.0541 349.056 33.2707C349.243 33.4195 349.416 33.5343 349.56 33.6784C353.22 37.3326 356.878 40.9896 360.531 44.6501C360.721 44.8393 360.973 44.9937 361 45.3761C360.878 45.5218 360.736 45.7157 360.57 45.8872C355.571 51.0389 345.966 60.5582 345.274 61.0332C342.906 58.6644 340.529 56.2864 338.151 53.9093C335.772 51.5325 333.399 49.151 330.987 46.7517C330.793 46.8839 330.636 46.9682 330.507 47.0846C330.28 47.2897 330.071 47.5133 329.854 47.7299C325.613 51.9711 321.371 56.2128 317.129 60.4529C316.936 60.6457 316.734 60.8293 316.56 60.9952C316.483 60.9865 316.453 60.9865 316.425 60.979C316.396 60.9711 316.362 60.9635 316.342 60.9433C311.251 55.8652 306.161 50.7859 301.071 45.7058C300.985 45.6199 300.902 45.5293 300.828 45.4331C300.793 45.3884 300.785 45.3242 300.712 45.1271C304.714 41.1348 308.761 37.0978 312.786 33.0834C313.433 33.4444 314.621 34.5928 315.257 35.4475C313.623 37.0824 311.981 38.7248 310.338 40.3673C308.72 41.9859 307.101 43.6042 305.468 45.2387C305.641 45.4533 305.745 45.6025 305.869 45.7332C308.252 48.2429 315.74 55.6594 316.475 56.2314C316.624 56.1174 316.801 56.0101 316.943 55.8676C320.646 52.1703 324.346 48.469 328.045 44.7669C328.172 44.639 328.28 44.4925 328.425 44.3215C328.313 44.162 328.225 44.0076 328.11 43.8762C327.948 43.6929 327.767 43.5266 327.594 43.3532C318.852 34.6106 310.109 25.8684 301.367 17.1255C301.153 16.9113 300.946 16.6904 300.721 16.4572Z" fill="#0A4F9D"/>
<path d="M218.935 1.18797C220.356 1.11077 221.664 1.15986 223.034 1.15511C223.228 1.44448 223.436 1.74019 223.627 2.04619C227.981 9.02919 232.332 16.0134 236.685 22.9976C239.614 27.6968 242.543 32.3953 245.473 37.0934C245.665 37.4014 245.83 37.7315 246.12 38.009C246.467 37.84 246.577 37.5067 246.747 37.2367C248.323 34.7226 249.89 32.2029 251.459 29.684C257.204 20.4676 262.948 11.2512 268.693 2.03511C268.87 1.75127 269.056 1.47378 269.219 1.2232C270.258 1.10048 272.59 1.12146 273.274 1.2517C273.295 1.27426 273.321 1.29406 273.335 1.32018C273.349 1.34552 273.358 1.37798 273.358 1.40767C273.367 21.2063 273.376 41.0053 273.383 60.8043C273.383 60.9242 273.358 61.0442 273.34 61.2021C272.66 61.4523 271.955 61.3062 271.268 61.3252C270.571 61.3442 269.87 61.3668 269.125 61.2888C269.093 61.0739 269.052 60.9017 269.045 60.7271C269.032 60.4219 269.039 60.1151 269.039 59.8095C269.039 43.6821 269.039 27.5547 269.037 11.4273C269.037 11.039 269.079 10.6447 268.963 10.1724C268.815 10.2651 268.697 10.3011 268.641 10.3807C268.43 10.6807 268.238 10.9942 268.043 11.3054C260.95 22.6009 253.857 33.8968 246.764 45.1923C246.587 45.4738 246.404 45.7517 246.219 46.0383C245.86 45.8194 245.74 45.492 245.565 45.2149C242.129 39.7864 238.699 34.3544 235.267 28.9232C231.526 23.0011 227.784 17.0778 224.04 11.1569C223.851 10.8577 223.7 10.5224 223.344 10.2374C223.289 10.4143 223.234 10.5168 223.23 10.6217C223.217 10.9582 223.22 11.2947 223.22 11.6316C223.22 27.7586 223.22 43.886 223.218 60.0138C223.218 60.4057 223.275 60.8063 223.124 61.2362C222.688 61.404 222.228 61.3157 221.781 61.3296C221.323 61.3438 220.863 61.3419 220.404 61.33C219.953 61.3185 219.493 61.3902 218.997 61.2433C218.976 61.0561 218.946 60.8819 218.939 60.7065C218.929 60.4615 218.935 60.2164 218.935 59.9718C218.935 40.8153 218.935 21.6584 218.935 2.50104V1.18797Z" fill="#0A4F9D"/>
<path d="M66.961 5.18387C66.9001 5.36201 66.8458 5.44633 66.8458 5.53065C66.8391 22.6077 66.836 39.684 66.836 56.7606C66.836 56.8782 66.8803 56.9954 66.9017 57.1015C67.2599 57.3228 67.6364 57.2555 67.9966 57.2559C71.3017 57.2614 74.6067 57.2678 77.9122 57.2563C80.6757 57.2472 83.4079 56.9657 86.0847 56.2448C90.3078 55.1079 94.0352 53.0966 97.1031 49.9479C100.704 46.2529 102.717 41.7666 103.599 36.7316C104.012 34.3707 104.1 31.9912 104.009 29.599C103.908 26.9535 103.485 24.3641 102.667 21.8496C100.573 15.4133 96.5438 10.6369 90.3968 7.72213C86.7438 5.99024 82.8549 5.229 78.8381 5.15973C75.136 5.09599 71.4323 5.14033 67.7294 5.13993C67.4875 5.13993 67.2461 5.16685 66.961 5.18387ZM62.5504 61.3099C62.5159 61.0732 62.4835 60.9552 62.4835 60.8372C62.4831 41.0699 62.4846 21.303 62.4894 1.53561C62.4894 1.44892 62.5286 1.36301 62.5634 1.21852C62.7902 1.19596 63.0246 1.15202 63.2589 1.15084C64.6971 1.1449 66.1353 1.14767 67.5734 1.14767C71.4901 1.14767 75.4071 1.12787 79.3234 1.15281C84.2677 1.18488 88.9789 2.2454 93.3571 4.57385C100.333 8.28307 104.864 14.0191 107.194 21.5266C108.237 24.8859 108.626 28.339 108.569 31.8507C108.502 35.9938 107.773 40.0074 106.129 43.8192C102.461 52.3203 96.1063 57.7487 87.2022 60.2149C85.43 60.7058 83.6126 60.9501 81.7876 61.1618C80.414 61.3218 79.0408 61.3325 77.6639 61.3325C73.013 61.3325 68.362 61.3329 63.7106 61.3317C63.3476 61.3313 62.9846 61.3186 62.5504 61.3099Z" fill="#0A4F9D"/>
<path d="M150.795 39.6283C151 39.6528 151.204 39.6952 151.409 39.7007C157.002 39.8385 175.891 39.7629 176.754 39.597C176.811 39.1501 176.563 38.7788 176.412 38.3916C172.908 29.3866 169.396 20.3847 165.886 11.3816C165.309 9.8999 164.744 8.41304 164.155 6.93687C164.06 6.69936 164.054 6.37158 163.708 6.28331C163.438 6.55249 163.367 6.92421 163.236 7.2599C159.979 15.6062 156.727 23.955 153.474 32.3033C152.652 34.4116 151.826 36.5184 151.011 38.6295C150.894 38.932 150.687 39.2241 150.795 39.6283ZM178.506 43.7492C178.324 43.735 178.115 43.7076 177.905 43.7037C172.448 43.5972 149.966 43.6518 148.929 43.7801C148.107 45.6458 147.405 47.5994 146.64 49.5264C145.861 51.4867 145.094 53.4518 144.323 55.4152C143.564 57.3494 142.806 59.2836 142.041 61.2336C141.267 61.4276 140.502 61.3096 139.747 61.327C138.991 61.3445 138.233 61.3528 137.499 61.31C137.468 61.1727 137.428 61.1042 137.446 61.0586C145.302 41.319 153.162 21.5814 161.024 1.84451C161.112 1.62125 161.227 1.40827 161.335 1.17709H166.183C166.341 1.52822 166.515 1.88014 166.661 2.24354C168.813 7.63755 170.961 13.0339 173.112 18.4295C178.669 32.3726 184.227 46.3152 189.779 60.2598C189.9 60.5634 190.108 60.8528 190.051 61.2099C189.421 61.3647 186.885 61.4015 185.518 61.2689C185.391 60.9696 185.244 60.6394 185.111 60.3037C183.091 55.1528 181.073 50.0007 179.047 44.8517C178.904 44.4875 178.82 44.0889 178.506 43.7492Z" fill="#0A4F9D"/>
<path d="M0.10068 1.14786H33.0835C33.2541 1.90198 33.2873 3.77322 33.1674 5.02453C33.0134 5.05898 32.8451 5.11993 32.6741 5.13062C32.3689 5.14883 32.0621 5.13775 31.7561 5.13775C23.0666 5.13815 14.377 5.13774 5.68747 5.13893C5.29399 5.13893 4.9005 5.15358 4.46664 5.16269C4.41794 5.37804 4.36173 5.54588 4.3455 5.71768C4.32571 5.93026 4.33758 6.14561 4.33758 6.35978C4.33758 13.3056 4.33679 20.2509 4.33956 27.1967C4.33956 27.5597 4.29246 27.9291 4.42309 28.3166C4.60004 28.3519 4.77343 28.4081 4.94959 28.4176C5.28528 28.4354 5.62215 28.4286 5.95903 28.4286C13.9143 28.429 21.8695 28.4275 29.8247 28.433C30.2431 28.4334 30.6778 28.3518 31.0661 28.5458C31.2047 29.2509 31.2253 31.3754 31.103 32.3477C30.9434 32.3805 30.7712 32.4363 30.5963 32.4474C30.3219 32.4652 30.0456 32.4542 29.7705 32.4542C21.7234 32.4542 13.676 32.4538 5.62888 32.4561C5.23856 32.4565 4.84112 32.4126 4.40924 32.5393C4.38469 32.7332 4.3459 32.9074 4.34313 33.0828C4.33442 33.6639 4.33758 34.245 4.33758 34.8266C4.33758 41.8947 4.33679 48.9624 4.33956 56.0309C4.33956 56.3935 4.29523 56.7628 4.41755 57.1476C4.60202 57.184 4.7762 57.239 4.95275 57.2485C5.28844 57.2664 5.62572 57.2592 5.9622 57.2592C14.7741 57.2596 23.5859 57.2588 32.3982 57.2624C32.8174 57.2624 33.2489 57.201 33.6381 57.3649C33.7944 58.1365 33.7984 60.4297 33.642 61.2681C33.4853 61.2875 33.3107 61.3188 33.1349 61.3279C32.9215 61.3394 32.707 61.3326 32.4924 61.3326C22.0896 61.3326 11.6864 61.333 1.28312 61.3307C0.892402 61.3307 0.494958 61.375 0.116514 61.2634C0.0694066 61.1434 0.0092357 61.0607 0.0092357 60.9784C0.0021102 41.1821 -0.000660835 21.3859 0.000130887 1.59003C0.000130887 1.47563 0.0504053 1.36123 0.10068 1.14786Z" fill="#0A4F9D"/>
</svg>
