<svg width="282" height="136" viewBox="0 0 282 136" fill="none" xmlns="http://www.w3.org/2000/svg">
<path d="M46.3146 11.5181C46.2181 11.4515 46.139 11.3576 46.0847 11.2484C45.9165 10.912 45.7802 10.5658 45.674 10.2122C45.5009 9.62586 45.4144 9.0175 45.4144 8.394V6.86309C45.4144 3.3363 48.2837 0.467002 51.8082 0.467002H59.6883C63.2154 0.467002 66.0847 3.3363 66.0847 6.86309V8.394C66.0847 9.02007 65.9982 9.62843 65.8225 10.2122C65.7185 10.5633 65.5823 10.9097 65.4144 11.2436C65.3598 11.355 65.2758 11.4515 65.1744 11.5181H64.2668C63.9697 11.3004 63.866 10.8971 64.0343 10.5558L64.0365 10.551C64.0662 10.415 64.1182 10.3111 64.1825 10.2319C64.1851 10.2245 64.1876 10.2194 64.1899 10.2122C64.4224 9.63586 64.5412 9.02492 64.5412 8.394V6.86309C64.5412 4.18687 62.3645 2.01019 59.6883 2.01019H51.8082C49.1345 2.01019 46.9576 4.18687 46.9576 6.86309V8.394C46.9576 9.02721 47.0741 9.63586 47.3089 10.2122C47.3534 10.3285 47.4054 10.4421 47.4622 10.5558C47.633 10.8971 47.5268 11.3004 47.2323 11.5181H46.3146Z" fill="#7F3131"/>
<path d="M33.2828 105.015V117.122H7.02124V105.015H13.0666C13.6278 105.015 14.0902 104.553 14.0902 103.991V80.2407H26.1969V103.991C26.1969 104.553 26.6596 105.015 27.2209 105.015H33.2828Z" fill="#7F3131"/>
<path d="M33.2827 74.6587H7.02112V62.552H33.2827V74.6587Z" fill="#7F3131"/>
<path d="M168.746 105.015V117.122H142.484V105.015H148.53C149.091 105.015 149.554 104.553 149.554 103.991V73.4979H161.66V103.991C161.66 104.553 162.123 105.015 162.684 105.015H168.746Z" fill="#7F3131"/>
<path d="M168.746 74.6587H142.484V62.552H168.746V74.6587Z" fill="#7F3131"/>
<path d="M83.7367 83.7758V99.3345H71.6298V96.9064C71.6298 96.3449 71.1679 95.8825 70.6061 95.8825H64.561V83.7758H83.7367Z" fill="#7F3131"/>
<path d="M48.3583 89.8369C48.3583 98.1943 55.1631 105.016 63.5371 105.016H83.7367V117.122H63.5371C48.4902 117.122 36.2516 104.884 36.2516 89.8369C36.2516 74.7903 48.4902 62.5517 63.5371 62.5517H83.7367V74.6581H63.5371C55.1631 74.6581 48.3583 81.4632 48.3583 89.8369Z" fill="#7F3131"/>
<path d="M136.86 97.3354V117.122H124.753V102.769C124.753 102.505 124.637 102.241 124.456 102.042L103.215 80.8188C102.935 80.5218 102.489 80.4389 102.109 80.6043C101.729 80.7526 101.481 81.1327 101.481 81.5457V117.122H89.3745V62.5517H102.076L136.86 97.3354Z" fill="#7F3131"/>
<path d="M136.859 62.5519V89.4409L124.753 77.3342V62.5519H136.859Z" fill="#7F3131"/>
<path d="M204.166 62.5517V117.122H192.06V75.6823C192.06 75.1208 191.598 74.6584 191.036 74.6584H174.371V62.5517H204.166Z" fill="#7F3131"/>
<path d="M221.856 74.6587H209.749V62.552H221.856V74.6587Z" fill="#7F3131"/>
<path d="M239.601 75.682V103.991C239.601 104.553 240.063 105.015 240.624 105.015H274.979V117.122H227.494V62.5514H274.979V74.6581H240.624C240.063 74.6581 239.601 75.1205 239.601 75.682Z" fill="#7F3131"/>
<path d="M267.91 95.8818H245.183V83.7751H267.91V95.8818Z" fill="#7F3131"/>
<path d="M64.7249 10.6731C64.714 10.6731 64.7035 10.9676 64.6935 10.9628C64.6589 10.9453 64.6446 10.9033 64.6621 10.8688C65.0473 10.0959 65.2427 9.26306 65.2427 8.39335V6.86159C65.2427 3.7995 62.7513 1.30807 59.6889 1.30807H51.809C48.7467 1.30807 46.2555 3.7995 46.2555 6.86159V8.39335C46.2555 9.26306 46.4509 10.0959 46.8359 10.8685C46.8533 10.9031 46.839 10.945 46.8045 10.9625C46.7702 10.9796 46.7279 10.9653 46.7105 10.9308C46.3155 10.1388 46.115 9.28505 46.115 8.39335V6.86159C46.115 3.7221 48.6695 1.16784 51.809 1.16784H59.6889C62.8287 1.16784 65.3829 3.7221 65.3829 6.86159V8.39335C65.3829 9.28505 65.1827 10.139 64.7877 10.9311C64.7754 10.9556 64.7506 10.6731 64.7249 10.6731Z" fill="#7F3131"/>
<path d="M23.0489 26.7861C22.6307 26.7861 22.2903 26.4457 22.2903 26.0275V24.0916C22.2903 20.4957 25.2161 17.5696 28.8126 17.5696H79.7283C83.3245 17.5696 86.2503 20.4957 86.2503 24.0916V25.9036C86.2503 26.322 85.9099 26.6622 85.4917 26.6622C85.0736 26.6622 84.7331 26.322 84.7331 25.9036V24.0916C84.7331 21.332 82.4879 19.0868 79.7283 19.0868H28.8126C26.0527 19.0868 23.8075 21.332 23.8075 24.0916V26.0275C23.8075 26.4457 23.467 26.7861 23.0489 26.7861Z" fill="#7F3131"/>
<path d="M98.1053 44.1473C98.1053 48.188 94.8295 51.4637 90.7889 51.4637H67.7371C66.5001 51.4637 65.3751 50.7459 64.8541 49.624L56.918 32.5396C56.7055 32.0846 56.2625 31.8002 55.7607 31.8002H55.7507C55.2437 31.805 54.8007 32.0946 54.5956 32.557L47.0791 49.3521C46.5041 50.6368 45.228 51.4637 43.8205 51.4637H20.7076C16.6667 51.4637 13.3909 48.188 13.3909 44.1473V18.832C13.3909 14.8003 16.6732 11.5183 20.7076 11.5183H90.7915C94.8255 11.5183 98.1053 14.8003 98.1053 18.832V44.1473ZM65.0135 52.7004C65.1049 52.745 65.2066 52.7695 65.3128 52.7695H90.7915C95.5453 52.7695 99.4137 48.9037 99.4137 44.1473V18.832C99.4137 14.0714 95.5544 10.2124 90.7938 10.2124H20.7076C15.9455 10.2124 12.0851 14.0725 12.0851 18.8346V44.1473C12.0851 48.9037 15.9535 52.7695 20.7076 52.7695H46.5347C46.6409 52.7695 46.7423 52.745 46.8366 52.7004H46.9354L46.9774 52.609C47.0568 52.5422 47.1211 52.4602 47.163 52.3642L55.7607 33.1506L64.6896 52.3714C64.7342 52.4679 64.7984 52.5496 64.8775 52.6139L65.0135 52.7004Z" fill="#7F3131"/>
<path d="M102.085 43.5664C100.752 43.5664 99.6609 42.4756 99.6609 41.1421V25.4123C99.6609 24.0791 100.752 22.988 102.085 22.988C103.419 22.988 104.51 24.0791 104.51 25.4123V41.1421C104.51 42.4756 103.419 43.5664 102.085 43.5664Z" stroke="#7F3131" stroke-width="4.41733" stroke-miterlimit="10"/>
<path d="M9.44571 43.5664C8.11217 43.5664 7.02112 42.4756 7.02112 41.1421V25.4123C7.02112 24.0791 8.11217 22.988 9.44571 22.988C10.779 22.988 11.87 24.0791 11.87 25.4123V41.1421C11.87 42.4756 10.779 43.5664 9.44571 43.5664Z" stroke="#7F3131" stroke-width="4.41733" stroke-miterlimit="10"/>
<path d="M62.5427 53.0693C62.5093 52.8157 62.0997 52.6132 61.9075 52.5012C61.6285 52.3384 61.3271 52.2185 61.0455 52.06C60.1136 51.5356 59.2744 50.9455 58.5547 50.1486C57.8692 49.3897 57.3045 48.5189 56.8898 47.5844C56.5645 46.8503 57.0712 46.481 57.687 46.186C59.0414 45.5365 60.1233 44.594 61.1229 43.4889L58.1954 37.0451C58.2445 37.1642 58.2959 37.283 58.3439 37.4027C58.6261 38.1087 58.1771 38.5129 57.5067 38.5592C56.6922 38.6154 55.8659 38.6177 55.0524 38.55C54.0328 38.4649 53.5884 37.7849 54.0262 36.8469C54.0428 36.8115 54.0616 36.7775 54.0785 36.7424C53.4938 36.7001 53.3696 36.6224 52.9683 36.5947C52.4808 37.6215 52.252 38.903 51.7656 39.9301L52.5407 40.1877C52.5002 40.5348 51.5122 40.6953 51.4714 40.4525C51.4168 40.8212 51.1626 42.4941 51.1655 42.4881C51.4123 41.9531 51.7801 41.3996 52.252 40.9818C52.4425 40.813 52.7429 40.9084 52.8124 41.1531C52.8695 41.3548 52.9392 41.553 53.0126 41.7472C53.3256 42.8731 53.9014 42.7811 53.8997 42.7766C54.0197 42.7709 54.1328 42.6963 54.2147 42.6129C54.7014 42.1177 54.5446 41.2594 54.9342 40.685C55.2201 40.2637 55.7593 40.0732 56.268 40.0781C57.122 40.0861 58.2748 40.4262 58.7577 41.1837C59.0705 41.6744 59.1739 42.2816 59.133 42.8588C59.109 43.2041 59.0256 43.5469 58.8503 43.8454C58.1879 44.9727 56.8038 44.8944 55.7859 45.4457C55.3075 45.7044 54.8874 46.1497 54.8357 46.6912C54.7637 47.4481 55.3666 48.0071 55.7825 48.5557C56.4194 49.3963 57.1097 50.1809 57.8161 50.9609C58.4835 51.6981 59.1647 52.5064 59.9779 53.0899C60.107 53.1827 60.2415 53.267 60.3832 53.3404C60.7422 53.5269 61.1535 53.6237 61.5582 53.5966C61.8504 53.5766 62.6016 53.5175 62.5427 53.0693Z" fill="#7F3131"/>
<path d="M275 128.919H7" stroke="#7F3131" stroke-width="12.708" stroke-miterlimit="10" stroke-linecap="round"/>
</svg>
