<svg width="149" height="115" viewBox="0 0 149 115" fill="none" xmlns="http://www.w3.org/2000/svg">
<path d="M22.2902 103.857C20.6312 103.857 19.0282 103.901 17.4296 103.841C16.3662 103.801 15.5669 103.169 14.8907 102.381C13.9952 101.333 13.3549 100.118 12.7235 98.9043C11.4339 96.4191 10.2205 93.8959 8.42264 91.7108C7.56963 90.6742 6.56437 90.1234 5.20985 90.0764C4.55386 90.054 4.38147 90.2107 4.38595 90.8555C4.41282 94.1175 4.38595 97.3773 4.41282 100.637C4.41282 101.34 4.25833 101.595 3.51727 101.533C2.57394 101.48 1.62842 101.48 0.685094 101.533C0.192542 101.551 0 101.436 0 100.895C0.017911 93.9765 0.017911 87.0591 0 80.1425C0 79.6231 0.154482 79.4708 0.671662 79.4708C1.64557 79.5044 2.62396 79.5201 3.59563 79.4708C4.22923 79.435 4.42401 79.6119 4.41506 80.2656C4.377 82.856 4.44192 85.4486 4.37923 88.0368C4.35908 88.8853 4.62999 89.0577 5.40464 89.0174C6.65169 88.9525 7.90546 89.0174 9.15251 88.9928C10.6637 88.9502 11.8638 89.5502 12.8668 90.6339C13.6997 91.5294 14.3086 92.5929 14.9086 93.6519C15.1191 94.0213 15.3049 94.4041 15.502 94.7713C18.2446 100.046 18.2446 100.046 22.2902 103.857Z" fill="#0046AD"/>
<path d="M19.5655 77.017C17.5192 77.87 16.4311 79.529 15.4908 81.3492C14.9534 82.3903 14.3713 83.4157 13.8362 84.4546C12.9676 86.1158 11.5481 86.8972 9.73238 86.9531C8.01741 87.0069 6.30019 86.9643 4.4173 86.9643C5.1718 86.3419 6.02705 86.1852 6.63378 85.621C7.71292 84.5956 8.40249 83.306 9.14132 82.05C9.64283 81.197 10.1399 80.3395 10.5966 79.4619C11.4272 77.8723 12.7795 77.1088 14.5101 77.0417C16.1915 76.9655 17.8796 77.017 19.5655 77.017Z" fill="#F7A41C"/>
<path d="M28.2523 89.4965V89.754C28.2519 89.8334 28.2459 89.9127 28.2344 89.9913H20.7991C20.85 90.7201 21.1441 91.4107 21.6342 91.9525C22.0999 92.4436 22.7425 92.6884 23.5619 92.6869C24.1125 92.7146 24.6572 92.5621 25.1134 92.2525C25.5274 91.925 25.8453 91.4919 26.0336 90.9988L27.9949 91.2719C27.8662 91.7653 27.6591 92.2347 27.3814 92.6623C27.11 93.0745 26.77 93.4372 26.3761 93.7347C25.9593 94.0457 25.492 94.2828 24.9948 94.4354C24.4359 94.6043 23.8546 94.6873 23.2708 94.6817C22.6122 94.6861 21.9584 94.5677 21.3432 94.3325C20.7551 94.1086 20.2211 93.763 19.776 93.3182C19.3164 92.8521 18.9562 92.2976 18.717 91.6883C18.4451 90.9901 18.312 90.2456 18.3252 89.4965C18.3166 88.7711 18.4465 88.0507 18.708 87.374C18.9429 86.7653 19.3004 86.2112 19.7583 85.7464C20.2163 85.2815 20.7648 84.9157 21.37 84.6717C21.9955 84.4175 22.6651 84.2897 23.3402 84.2956C24.0768 84.2797 24.8084 84.4194 25.4873 84.7053C26.0752 84.9613 26.5995 85.3435 27.0232 85.8247C27.4404 86.3037 27.7537 86.8641 27.9434 87.4703C28.1522 88.1253 28.2565 88.809 28.2523 89.4965ZM26.0135 88.4577C25.9103 87.821 25.6186 87.2299 25.1761 86.7606C24.6956 86.327 24.0714 86.087 23.4242 86.087C22.777 86.087 22.1528 86.327 21.6723 86.7606C21.2342 87.2318 20.9459 87.8224 20.8439 88.4577H26.0135Z" fill="#0046AD"/>
<path d="M45.2722 88.0815V94.5541H42.8095V88.6457C42.8193 88.2609 42.764 87.8771 42.646 87.5106C42.5564 87.241 42.415 86.9916 42.2296 86.7763C42.0685 86.5972 41.8665 86.4597 41.6408 86.3755C41.4187 86.2967 41.1847 86.2566 40.949 86.2569C40.6894 86.2547 40.4309 86.2894 40.181 86.3598C39.9393 86.4246 39.7172 86.5476 39.534 86.7181C39.3289 86.9171 39.1753 87.1629 39.0862 87.4345C38.9655 87.8111 38.9102 88.2056 38.9228 88.6009V94.5541H36.4153V88.6099C36.4235 88.2517 36.372 87.8945 36.263 87.5532C36.1756 87.2833 36.0304 87.0358 35.8376 86.8278C35.6605 86.644 35.4449 86.5018 35.2063 86.4113C34.9609 86.3188 34.7005 86.2725 34.4383 86.2748C34.1835 86.2729 33.9301 86.3129 33.6883 86.3934C33.4501 86.4728 33.2339 86.607 33.057 86.7852C32.8577 86.9889 32.7049 87.2333 32.6092 87.5017C32.4842 87.8612 32.4266 88.2407 32.439 88.6211V94.5541H29.9561V84.4143H32.4816V86.0016C32.5505 85.8213 32.6447 85.6517 32.7614 85.4979C32.9205 85.2836 33.1107 85.0942 33.3256 84.9359C33.5846 84.7444 33.8686 84.5893 34.1697 84.4747C34.5345 84.3378 34.9219 84.2709 35.3115 84.2777C35.6786 84.2715 36.0444 84.3236 36.3951 84.4322C36.6946 84.5279 36.9767 84.6716 37.2302 84.8576C37.4776 85.0437 37.699 85.262 37.8884 85.5068C38.0888 85.7691 38.2657 86.0485 38.4168 86.3419C38.701 85.7534 39.1254 85.2437 39.6527 84.8576C40.269 84.4459 41.0012 84.2426 41.7415 84.2777C42.2094 84.2763 42.6721 84.3755 43.0983 84.5687C43.5196 84.7613 43.8997 85.0335 44.2177 85.3703C44.5467 85.719 44.8065 86.127 44.9834 86.5725C45.1774 87.0518 45.2756 87.5645 45.2722 88.0815Z" fill="#0046AD"/>
<path d="M53.3747 92.3802V94.1355C53.1787 94.2728 52.9627 94.3793 52.7344 94.4511C52.5202 94.5222 52.3009 94.5768 52.0784 94.6146C51.5036 94.7192 50.9131 94.7016 50.3455 94.5631C50.0817 94.4944 49.8291 94.388 49.5955 94.2474C49.398 94.1289 49.2224 93.9775 49.0761 93.7996C48.9438 93.6364 48.8297 93.4592 48.7358 93.2713C48.5226 92.83 48.4116 92.3463 48.4111 91.8563V86.2591H47.0812V84.7926C47.2487 84.7678 47.4141 84.7304 47.576 84.6807C47.7626 84.6231 47.9404 84.5403 48.1044 84.4344C48.3956 84.2567 48.6453 84.0185 48.8365 83.7359C49.0066 83.4882 49.1471 83.2215 49.2552 82.9411C49.3412 82.7244 49.4043 82.4993 49.4432 82.2694C49.4701 82.0702 49.4858 81.9425 49.4858 81.8843H50.8828C50.8828 82.3321 50.9008 82.7799 50.9008 83.2277C50.9008 83.6754 50.9008 84.1232 50.9187 84.571H53.2807V86.277H50.9343C50.9702 89.3801 50.9873 91.2048 50.9858 91.7511C50.9893 91.854 51.0005 91.9565 51.0194 92.0578C51.0462 92.2019 51.1184 92.3337 51.2254 92.4339C51.3545 92.573 51.5311 92.6585 51.7202 92.6735C51.927 92.6959 52.1357 92.6959 52.3426 92.6735C52.5452 92.6528 52.7449 92.6101 52.9381 92.5459L53.3747 92.3802Z" fill="#0046AD"/>
<path d="M64.1527 89.4965V89.754C64.1523 89.8334 64.1463 89.9127 64.1347 89.9913H56.6994C56.7513 90.7199 57.0453 91.4102 57.5345 91.9525C58.0017 92.4436 58.6443 92.6884 59.4622 92.6869C60.0129 92.7152 60.5578 92.5627 61.0138 92.2525C61.4285 91.9252 61.7471 91.4921 61.9362 90.9988L63.8974 91.2719C63.7678 91.7649 63.5608 92.2342 63.284 92.6623C63.0124 93.0751 62.6716 93.4379 62.2765 93.7347C61.8599 94.0462 61.3925 94.2832 60.8951 94.4354C60.337 94.6043 59.7565 94.6873 59.1734 94.6817C58.5147 94.6861 57.861 94.5677 57.2457 94.3325C56.6579 94.1082 56.1239 93.7627 55.6785 93.3182C55.2205 92.8518 54.8618 92.2973 54.624 91.6884C54.3522 90.9902 54.2191 90.2456 54.2322 89.4965C54.2236 88.7711 54.3535 88.0507 54.6151 87.374C54.849 86.7651 55.2059 86.2108 55.6635 85.7459C56.1211 85.281 56.6696 84.9153 57.2748 84.6717C57.9004 84.4177 58.5699 84.2899 59.245 84.2956C59.9823 84.2795 60.7147 84.4191 61.3944 84.7053C61.9819 84.9619 62.5061 85.344 62.9302 85.8247C63.3466 86.3043 63.6598 86.8645 63.8504 87.4703C64.0559 88.1259 64.1579 88.8095 64.1527 89.4965ZM61.9138 88.4577C61.8113 87.8212 61.5205 87.2301 61.0787 86.7606C60.5978 86.3268 59.9732 86.0868 59.3256 86.0868C58.6781 86.0868 58.0535 86.3268 57.5726 86.7606C57.136 87.2325 56.8486 87.8229 56.7465 88.4577H61.9138Z" fill="#0046AD"/>
<path d="M70.5648 92.763C70.8854 92.7767 71.2053 92.7241 71.5046 92.6086C71.804 92.493 72.0762 92.3169 72.3044 92.0913C72.7616 91.6248 73.0728 91.035 73.2 90.3943L75.2149 90.6182C75.1183 91.1775 74.9426 91.7202 74.6933 92.2302C74.4558 92.7155 74.1257 93.1498 73.7216 93.5086C73.3006 93.877 72.8147 94.164 72.2887 94.3548C71.6783 94.5689 71.0347 94.6727 70.3879 94.6616C69.6964 94.6689 69.0108 94.5348 68.373 94.2675C67.7809 94.0161 67.2473 93.6449 66.8057 93.1772C66.3585 92.7011 66.0086 92.142 65.7759 91.5316C65.2834 90.2142 65.2834 88.7631 65.7759 87.4457C66.0086 86.8305 66.3618 86.268 66.8147 85.7912C67.2642 85.3182 67.8019 84.9379 68.3976 84.6717C69.0322 84.3926 69.7193 84.2529 70.4126 84.262C71.0387 84.255 71.6606 84.3651 72.2462 84.5866C72.7803 84.7929 73.2715 85.0965 73.6948 85.4822C74.1125 85.866 74.4589 86.3208 74.7179 86.8255C74.9874 87.3522 75.1689 87.9194 75.2553 88.5047L73.2604 88.6927C73.1798 88.0033 72.8809 87.3577 72.4074 86.8502C72.1706 86.6148 71.8876 86.4313 71.5762 86.311C71.2648 86.1908 70.9318 86.1365 70.5984 86.1516C70.182 86.1417 69.7687 86.2259 69.3894 86.3979C69.0527 86.5591 68.7577 86.7959 68.5274 87.0897C68.287 87.3988 68.1104 87.7527 68.008 88.1308C67.8894 88.5579 67.8314 88.9995 67.8356 89.4428C67.8321 89.8848 67.8955 90.3249 68.0237 90.748C68.1371 91.1297 68.3226 91.4861 68.57 91.7981C68.7927 92.0939 69.0758 92.3389 69.4006 92.5167C69.764 92.6889 70.1628 92.7732 70.5648 92.763Z" fill="#0046AD"/>
<path d="M85.8988 94.5541H83.4763V88.5091C83.4754 88.2531 83.4323 87.9989 83.3487 87.7569C83.2667 87.5099 83.1366 87.2816 82.9659 87.0852C82.7811 86.8832 82.5572 86.7209 82.3076 86.6083C82.0097 86.4765 81.6863 86.4122 81.3606 86.4203C80.8276 86.4213 80.313 86.6154 79.912 86.9666C79.7153 87.1419 79.5581 87.3571 79.4508 87.5979C79.3344 87.8607 79.2764 88.1456 79.2807 88.433V94.5541H76.7888V80.9865H79.2784V86.3083C79.332 86.0292 79.4552 85.7681 79.6367 85.5494C79.841 85.2944 80.0861 85.075 80.3621 84.9001C80.6586 84.709 80.9794 84.5584 81.3158 84.4523C82.1107 84.2088 82.9646 84.242 83.7383 84.5463C84.1598 84.7122 84.5413 84.9655 84.8577 85.2896C85.1884 85.6323 85.4465 86.0382 85.6167 86.483C85.8123 86.9975 85.9081 87.5446 85.8988 88.095V94.5541Z" fill="#0046AD"/>
<path d="M97.4238 93.1147L101.073 82.7443H103.984L98.6351 96.3118H96.1947L90.8057 82.7443H93.7163L97.4238 93.1147Z" fill="#0046AD"/>
<path d="M110.611 94.7446C110.436 94.9793 110.242 95.1994 110.031 95.4029C109.806 95.6205 109.55 95.8045 109.272 95.9492C108.958 96.1111 108.626 96.2336 108.282 96.3141C107.866 96.4107 107.44 96.4565 107.013 96.4507C106.615 96.4526 106.22 96.3868 105.844 96.2559C105.487 96.1322 105.157 95.9406 104.873 95.6917C104.591 95.4484 104.362 95.1497 104.201 94.814C104.032 94.4574 103.947 94.0668 103.952 93.6722C103.948 93.3099 104.024 92.9511 104.176 92.6222C104.31 92.3328 104.494 92.0696 104.72 91.8453C104.941 91.6314 105.191 91.4504 105.464 91.308C105.726 91.1709 105.999 91.057 106.281 90.9677C106.554 90.8826 106.807 90.8154 107.04 90.7639L107.613 90.6363C108.193 90.5109 108.717 90.4124 109.18 90.3363C109.644 90.2602 110.105 90.1796 110.537 90.09C110.535 89.8483 110.504 89.6076 110.443 89.3736C110.382 89.1279 110.275 88.8961 110.127 88.6907C109.969 88.4778 109.764 88.3034 109.529 88.1803C109.234 88.0328 108.906 87.962 108.576 87.9743C108.275 87.9658 107.977 88.0271 107.705 88.1534C107.481 88.2652 107.279 88.417 107.109 88.6012C106.951 88.7742 106.829 88.9775 106.751 89.1989C106.674 89.4054 106.622 89.6204 106.597 89.8393L105.477 89.7363C105.119 89.7027 104.747 89.6736 104.358 89.6512C104.411 89.1564 104.549 88.6746 104.767 88.2273C104.981 87.7913 105.279 87.4023 105.645 87.0832C106.03 86.7523 106.472 86.495 106.95 86.3242C107.493 86.1355 108.064 86.043 108.638 86.0511C109.25 86.0382 109.859 86.1454 110.429 86.3668C110.907 86.5547 111.343 86.8363 111.71 87.1952C112.042 87.5239 112.305 87.915 112.485 88.3459C112.657 88.7532 112.747 89.1909 112.749 89.6333V93.9319C112.741 94.0256 112.754 94.1197 112.787 94.2078C112.819 94.2959 112.871 94.376 112.937 94.4424C113.057 94.5576 113.208 94.6354 113.371 94.6663C113.535 94.6965 113.703 94.6965 113.866 94.6663C114.004 94.6439 114.136 94.5911 114.251 94.5118V95.9447H114.267C114.081 96.1114 113.867 96.244 113.636 96.3365C113.357 96.4365 113.062 96.4828 112.767 96.473C112.458 96.482 112.151 96.4183 111.871 96.2872C111.419 96.0667 111.046 95.7117 110.803 95.2708C110.719 95.1036 110.654 94.927 110.611 94.7446ZM106.415 93.2782C106.407 93.4322 106.431 93.5862 106.483 93.7312C106.536 93.8761 106.617 94.0091 106.722 94.1222C106.932 94.3351 107.198 94.4835 107.49 94.5499C107.812 94.6233 108.146 94.6294 108.47 94.5678C108.807 94.5094 109.126 94.372 109.4 94.167C109.809 93.8936 110.127 93.5036 110.313 93.0476C110.478 92.5421 110.554 92.0118 110.537 91.4804C110.087 91.6092 109.628 91.7035 109.164 91.7625C108.712 91.8186 108.263 91.9039 107.821 92.0177C107.459 92.1057 107.114 92.2573 106.805 92.4655C106.678 92.5564 106.576 92.677 106.507 92.8169C106.439 92.9567 106.405 93.1113 106.411 93.267L106.415 93.2782Z" fill="#0046AD"/>
<path d="M118.333 94.1715C118.462 94.3102 118.638 94.3956 118.827 94.411C119.034 94.4334 119.243 94.4334 119.45 94.411C119.653 94.3902 119.854 94.3474 120.048 94.2834L120.482 94.1379V95.8932C120.289 96.03 120.076 96.1365 119.851 96.2088C119.64 96.2803 119.423 96.335 119.204 96.3723C118.629 96.4769 118.038 96.4593 117.471 96.3208C117.207 96.2521 116.954 96.1457 116.721 96.0051C116.522 95.8849 116.344 95.7338 116.192 95.5573C116.057 95.3948 115.939 95.2176 115.843 95.029C115.631 94.5873 115.52 94.1039 115.518 93.614V82.7443H118.044C118.044 83.1771 118.044 83.7316 118.044 84.4077C118.044 85.0794 118.044 85.807 118.062 86.5727C118.08 87.3384 118.073 88.1176 118.08 88.9012C118.086 89.6848 118.08 90.4057 118.08 91.0594V93.4886C118.084 93.5916 118.096 93.6941 118.116 93.7953C118.145 93.941 118.221 94.0731 118.333 94.1715Z" fill="#0046AD"/>
<path d="M124.456 94.1715C124.585 94.3102 124.762 94.3956 124.951 94.411C125.158 94.4334 125.366 94.4334 125.573 94.411C125.776 94.3902 125.977 94.3474 126.171 94.2834L126.605 94.1379V95.8932C126.412 96.0292 126.199 96.1355 125.974 96.2088C125.763 96.2803 125.547 96.335 125.327 96.3723C124.752 96.4736 124.163 96.453 123.596 96.3118C123.332 96.2431 123.08 96.1368 122.846 95.9962C122.647 95.8766 122.469 95.7253 122.318 95.5484C122.181 95.387 122.063 95.2095 121.969 95.02C121.755 94.5787 121.644 94.0951 121.644 93.605V82.7443H124.169C124.169 83.1771 124.169 83.7316 124.169 84.4077C124.169 85.0794 124.169 85.807 124.187 86.5727C124.205 87.3384 124.199 88.1176 124.205 88.9012C124.212 89.6848 124.205 90.4057 124.205 91.0594V93.4886C124.209 93.5917 124.221 93.6943 124.241 93.7953C124.27 93.9407 124.345 94.0727 124.456 94.1715Z" fill="#0046AD"/>
<path d="M137.11 91.2542V91.5117C137.11 91.5911 137.105 91.6704 137.094 91.749H129.657C129.709 92.4781 130.003 93.1687 130.494 93.7103C130.96 94.2013 131.602 94.4461 132.42 94.4446C132.971 94.4726 133.517 94.3201 133.973 94.0103C134.387 93.6821 134.705 93.2492 134.894 92.7565L136.855 93.0296C136.726 93.523 136.519 93.9924 136.241 94.42C135.97 94.8328 135.629 95.1957 135.234 95.4924C134.818 95.8045 134.35 96.0416 133.853 96.1932C133.294 96.3622 132.714 96.4452 132.131 96.4394C131.472 96.4438 130.818 96.3254 130.203 96.0902C129.615 95.866 129.081 95.5204 128.636 95.076C128.178 94.6091 127.818 94.0548 127.579 93.4461C127.307 92.7479 127.174 92.0034 127.187 91.2542C127.179 90.5288 127.309 89.8084 127.57 89.1318C127.804 88.5224 128.161 87.968 128.619 87.503C129.077 87.038 129.627 86.6725 130.232 86.4294C130.857 86.1754 131.526 86.0476 132.2 86.0533C132.935 86.0375 133.665 86.1763 134.343 86.4608C134.931 86.7168 135.455 87.099 135.879 87.5802C136.296 88.0592 136.609 88.6196 136.799 89.2258C137.009 89.8813 137.114 90.5659 137.11 91.2542ZM134.871 90.2154C134.77 89.5786 134.479 88.9872 134.036 88.5183C133.556 88.0847 132.931 87.8447 132.284 87.8447C131.637 87.8447 131.013 88.0847 130.532 88.5183C130.094 88.9895 129.806 89.5801 129.704 90.2154H134.871Z" fill="#0046AD"/>
<path d="M138.749 97.5656C138.866 97.6181 138.989 97.6528 139.116 97.6686C139.338 97.7028 139.564 97.7081 139.788 97.6843C140.023 97.6765 140.254 97.6195 140.466 97.5169C140.677 97.4143 140.865 97.2684 141.017 97.0887C141.306 96.7198 141.457 96.261 141.442 95.7924L137.589 86.1653H140.334L142.797 93.7394L145.219 86.1653H148L143.668 97.2186C143.386 97.9527 142.963 98.6244 142.423 99.1955C142.179 99.4384 141.889 99.6288 141.569 99.7551C141.249 99.8814 140.906 99.9408 140.562 99.9298C140.289 99.9298 139.974 99.9142 139.618 99.8873C139.318 99.8701 139.025 99.7941 138.756 99.6634L138.749 97.5656Z" fill="#0046AD"/>
<path d="M31.451 69.3289C31.451 47.3701 31.5025 25.9463 31.3839 4.52477C31.3704 2.01276 32.0287 1.44632 34.4511 1.47319C45.9791 1.6008 57.5115 1.5314 69.0551 1.5314C68.426 6.4211 68.2178 6.6114 63.6147 6.61364C55.7047 6.61364 47.7881 6.76589 39.8826 6.53528C36.9967 6.45244 36.5489 7.39501 36.5736 10.0123C36.7057 24.7351 36.3743 39.4646 36.7684 54.1785C36.9251 59.9481 35.1608 64.5601 31.451 69.3289Z" fill="#0046AD"/>
<path d="M118.951 69.3289C118.951 47.3701 118.899 25.9463 119.018 4.52477C119.031 2.01276 118.373 1.44632 115.953 1.47319C104.425 1.6008 92.8924 1.5314 81.3465 1.5314C81.9756 6.4211 82.1861 6.6114 86.787 6.61364C94.6969 6.61364 102.614 6.76589 110.519 6.53528C113.405 6.45244 113.853 7.39501 113.828 10.0123C113.696 24.7351 114.027 39.4646 113.633 54.1785C113.479 59.9481 115.252 64.5601 118.951 69.3289Z" fill="#0046AD"/>
<path d="M113.707 66.199C111.083 66.199 108.558 66.1811 106.023 66.2124C105.423 66.2124 105.22 65.8945 104.962 65.4512C99.1925 55.4681 93.3715 45.5073 87.6355 35.5018C87.0108 34.4115 86.3795 33.9615 85.1033 34.0309C83.6503 34.1092 82.4167 34.0712 80.9748 34.0309C80.5186 33.7528 80.0905 33.4311 79.6964 33.0704C78.5591 32.083 77.1889 31.8233 75.7874 32.6002C74.3858 33.3771 73.8015 34.5615 73.9381 36.0996C74.0746 37.6377 75.0866 38.5019 76.4523 38.9676C77.668 39.3773 78.8546 39.1915 79.7233 38.2041C80.0371 37.8381 80.4168 37.5343 80.8427 37.3086C81.7159 37.3086 82.5913 37.3086 83.4622 37.2839C84.3331 37.2593 84.9108 37.528 85.3473 38.2847C90.6579 47.5335 95.982 56.7733 101.438 66.2505C98.597 66.2505 95.9372 66.2774 93.2774 66.2303C92.7401 66.2303 92.6259 65.5788 92.3819 65.1781C88.6452 58.7391 84.8929 52.3068 81.2144 45.8364C80.7084 44.9409 80.1733 44.6857 79.1994 44.6633C77.5874 44.6274 75.8904 44.5737 72.888 44.6454C72.599 44.436 72.321 44.2118 72.0552 43.9737C70.9156 42.9864 69.5476 42.7266 68.1461 43.5035C66.7446 44.2804 66.1602 45.4625 66.2968 47.0029C66.4334 48.5432 67.4453 49.4052 68.811 49.8686C70.0267 50.2806 71.2134 50.0925 72.0798 49.1074C72.3991 48.7324 72.7894 48.4242 73.2283 48.2007C73.4298 48.2007 73.6313 48.1873 73.8328 48.1761C77.3792 48.0104 79.3113 48.8746 80.8853 52.0739C83.2316 56.8472 86.131 61.3429 88.8333 66.0221C88.2691 66.4318 87.6914 66.2908 87.1541 66.293C71.0238 66.3244 54.8927 66.3505 38.7609 66.3714C37.1825 66.3714 37.1802 66.3714 37.9191 65.084C50.2165 43.761 62.5146 22.4395 74.8134 1.11944C75.006 0.788083 75.2232 0.470163 75.5209 0L88.7997 23.0604C86.113 23.0604 83.6906 23.1096 81.2704 23.0335C80.3166 23.0044 79.8196 22.1917 79.383 21.4171C78.1628 19.2453 76.9202 17.0804 75.5456 14.6266C74.2022 16.9192 73 18.9543 71.8156 21.0051C64.7766 33.2025 57.7391 45.4021 50.703 57.604C49.9194 58.9652 49.915 58.9652 51.415 58.9764C57.8741 59.0189 64.3355 58.9182 70.7969 59.0144C71.1381 59.225 71.4454 59.4862 71.7081 59.7891C72.5723 60.7764 73.7612 60.9623 74.9769 60.5526C76.3426 60.0891 77.3546 59.2249 77.4911 57.6845C77.6277 56.1442 77.0098 54.9397 75.6418 54.1874C74.2739 53.4352 72.8723 53.6703 71.7328 54.6576C71.4161 54.9402 71.0827 55.2034 70.7342 55.4457C66.3416 55.4457 61.9511 55.4457 57.5629 55.4457H55.8032C62.4235 43.9961 68.9163 32.7502 75.5299 21.3096C76.3628 22.7425 77.1643 23.938 77.7688 25.2276C78.3039 26.3471 79.0651 26.6739 80.2673 26.6471C83.4018 26.5687 86.5362 26.6359 89.6549 26.6068C90.5035 26.6068 91.1035 26.8418 91.5446 27.6143C98.8478 40.3161 106.161 53.0135 113.486 65.7064C113.559 65.8206 113.6 65.9482 113.707 66.199Z" fill="#F7A41C"/>
<path d="M27.6449 106.996L27.4524 107.892C27.3119 107.752 27.1225 107.671 26.924 107.668C26.469 107.701 26.0312 107.855 25.6568 108.116C25.4452 108.24 25.2603 108.405 25.1128 108.602C25.0028 108.737 24.9386 108.904 24.9292 109.079C24.9292 109.361 25.1889 109.544 25.7038 109.632L26.6979 109.797C26.7737 109.807 26.8486 109.824 26.9218 109.846C26.9881 109.865 27.052 109.891 27.1121 109.925C27.1642 109.957 27.2092 110 27.2442 110.05C27.2793 110.109 27.2964 110.177 27.2934 110.245C27.2936 110.409 27.2585 110.571 27.1904 110.72C27.1219 110.874 27.0315 111.018 26.9218 111.147C26.8101 111.284 26.6839 111.407 26.5456 111.517C26.4116 111.623 26.2702 111.721 26.1225 111.808C25.8684 111.951 25.6034 112.074 25.3299 112.175C25.0195 112.293 24.6777 112.403 24.3045 112.506C23.9306 112.609 23.5344 112.701 23.1112 112.786C22.6881 112.871 22.2604 112.941 21.8239 113.01C21.3873 113.079 20.9507 113.117 20.5141 113.151C20.0775 113.185 19.6522 113.2 19.2424 113.2C18.165 113.209 17.089 113.12 16.0274 112.936C15.1587 112.778 14.3065 112.54 13.4818 112.224C13.2736 112.09 13.0699 111.958 12.8729 111.826C12.6758 111.694 12.4743 111.559 12.2728 111.418C12.0713 111.277 11.8654 111.129 11.6504 110.97C11.4355 110.811 11.2026 110.644 10.9788 110.46L11.0504 110.357C11.6874 110.684 12.3422 110.976 13.0117 111.23C13.6608 111.477 14.3248 111.682 14.9998 111.846C15.6798 112.01 16.3691 112.134 17.064 112.215C17.7873 112.297 18.5146 112.337 19.2424 112.336C19.7753 112.336 20.3373 112.311 20.9238 112.262C21.5104 112.213 22.0903 112.146 22.6612 112.061C23.2321 111.976 23.7806 111.873 24.3001 111.752C24.7692 111.646 25.2313 111.512 25.6837 111.349C25.8361 111.295 25.9855 111.233 26.1315 111.163C26.2575 111.102 26.3794 111.034 26.4964 110.957C26.5867 110.898 26.67 110.829 26.7449 110.751C26.7966 110.7 26.833 110.636 26.8501 110.565C26.8474 110.538 26.839 110.513 26.8255 110.49C26.812 110.466 26.7937 110.446 26.7718 110.431C26.6973 110.378 26.6099 110.346 26.5188 110.339L25.5919 110.223C24.8337 110.132 24.4538 109.855 24.4523 109.394C24.4523 108.998 24.7926 108.465 25.4732 107.8C26.0703 107.203 26.6531 106.905 27.2218 106.905C27.3664 106.916 27.5087 106.947 27.6449 106.996ZM21.5597 113.973L21.0962 114.622L20.4246 114.156L20.0149 114.727L19.3074 114.239L19.7708 113.583L20.4604 114.049L20.8634 113.485L21.5597 113.973Z" fill="#0046AD"/>
<path d="M31.3324 110.594C31.332 110.621 31.3261 110.647 31.3149 110.671C31.3037 110.695 31.2875 110.716 31.2674 110.733C31.2169 110.775 31.1593 110.806 31.0973 110.827C31.021 110.854 30.9422 110.872 30.8622 110.883C30.7768 110.894 30.6908 110.9 30.6047 110.901H30.3988C30.3307 111.636 30.0525 112.335 29.5972 112.916C29.4221 113.151 29.1945 113.343 28.9326 113.475C28.6707 113.607 28.3816 113.676 28.0882 113.677C27.6032 113.638 27.1249 113.539 26.6643 113.382L26.7763 113.272C26.9104 113.293 27.0458 113.305 27.1815 113.308C27.8181 113.301 28.4346 113.084 28.9345 112.69C29.4652 112.304 29.8615 111.761 30.0674 111.138L29.5636 110.386L29.9152 109.737C30.1928 110.019 30.4211 110.16 30.5868 110.16H30.8644C30.9739 110.158 31.0824 110.18 31.1824 110.225C31.2245 110.238 31.2614 110.264 31.2876 110.299C31.3138 110.335 31.3279 110.378 31.3279 110.422L31.3324 110.594Z" fill="#0046AD"/>
<path d="M39.4146 110.545C39.4134 110.599 39.3927 110.651 39.3564 110.691C39.3105 110.736 39.2566 110.774 39.1975 110.8C39.1251 110.831 39.0502 110.856 38.9736 110.874C38.8822 110.892 38.7892 110.901 38.696 110.901H33.8354C33.7727 111.031 33.7145 111.167 33.6607 111.306C33.607 111.445 33.5466 111.606 33.4839 111.79H33.4525C33.4283 111.758 33.408 111.723 33.3921 111.687C33.3728 111.639 33.3593 111.59 33.3518 111.539C33.3786 111.432 33.4077 111.329 33.4413 111.226C33.4782 111.115 33.5216 111.007 33.5712 110.901H33.3921C33.1285 110.914 32.8669 110.85 32.6398 110.715C32.4662 110.603 32.3421 110.428 32.2928 110.227H32.2659C32.1765 110.37 32.0611 110.494 31.9256 110.594C31.8034 110.682 31.6682 110.75 31.5249 110.796C31.3796 110.842 31.2293 110.872 31.0771 110.883C30.9204 110.883 30.7636 110.901 30.6047 110.901L30.8689 110.16C31.0239 110.161 31.1788 110.15 31.3323 110.129C31.4694 110.109 31.6024 110.067 31.7264 110.005C31.8665 109.936 31.9961 109.847 32.1114 109.741C32.2641 109.603 32.4063 109.453 32.5368 109.293L32.6174 109.316C32.6965 109.877 33.0301 110.158 33.6182 110.158C33.72 110.158 33.8217 110.151 33.9227 110.138C34.1553 109.778 34.4174 109.439 34.7063 109.123C34.9748 108.83 35.2685 108.56 35.5839 108.317C35.8187 108.142 36.0717 107.991 36.3384 107.87C36.5232 107.773 36.7261 107.717 36.934 107.704C37.087 107.704 37.2388 107.732 37.3817 107.787C37.519 107.837 37.6491 107.905 37.7691 107.988C37.8713 108.057 37.9619 108.142 38.0377 108.239C38.0952 108.305 38.1297 108.389 38.1362 108.476C38.1365 108.627 38.1192 108.777 38.0847 108.924C38.0245 109.174 37.9098 109.408 37.7489 109.609C37.6795 109.698 37.6048 109.782 37.525 109.862C37.4228 109.951 37.3091 110.027 37.187 110.086C37.034 110.166 36.8753 110.235 36.7123 110.292V110.323C37.0571 110.29 37.384 110.256 37.6594 110.218C37.914 110.184 38.1705 110.167 38.4273 110.164H38.931C39.0426 110.163 39.1524 110.191 39.249 110.247C39.2891 110.262 39.3241 110.288 39.3499 110.322C39.3757 110.356 39.3912 110.397 39.3945 110.44L39.4146 110.545ZM36.6944 108.51C36.5331 108.518 36.3745 108.555 36.2265 108.62C36.0144 108.706 35.8106 108.812 35.6175 108.935C35.3804 109.087 35.1558 109.258 34.9459 109.446C34.7077 109.656 34.4883 109.887 34.2899 110.135C34.5585 110.117 34.8003 110.097 35.0153 110.07C35.2302 110.043 35.425 110.014 35.6041 109.981C35.7832 109.947 35.9489 109.911 36.1011 109.869C36.2534 109.826 36.4034 109.779 36.5489 109.73C36.8233 109.643 37.0875 109.527 37.337 109.383C37.4678 109.313 37.5841 109.219 37.6795 109.105C37.6223 109.026 37.5587 108.951 37.4892 108.882C37.4137 108.809 37.3312 108.745 37.2429 108.689C37.1569 108.632 37.0644 108.586 36.9676 108.55C36.8802 108.522 36.7886 108.508 36.6966 108.51H36.6944Z" fill="#0046AD"/>
<path d="M42.4707 110.061C42.4686 110.115 42.4595 110.167 42.4439 110.218C42.4231 110.289 42.3984 110.358 42.37 110.426C42.3386 110.502 42.305 110.579 42.267 110.65C42.2305 110.727 42.1902 110.802 42.1461 110.874C41.9476 110.812 41.7532 110.737 41.564 110.65C41.3602 110.556 41.1587 110.46 40.9595 110.359C40.8377 110.368 40.7194 110.403 40.6125 110.462C40.4883 110.53 40.3597 110.589 40.2274 110.639C40.0379 110.713 39.8424 110.77 39.643 110.809C39.3285 110.867 39.0089 110.892 38.6893 110.885L38.9535 110.144C39.1734 110.149 39.3932 110.131 39.6094 110.09C39.7506 110.064 39.8892 110.025 40.0236 109.974C40.1176 109.938 40.2089 109.895 40.2968 109.846C40.3752 109.802 40.4609 109.772 40.5498 109.757C40.4871 109.557 40.3378 108.723 40.102 107.256C39.8662 105.789 39.7468 104.968 39.7438 104.793C39.7426 104.642 39.7754 104.492 39.8397 104.355C39.904 104.218 39.9982 104.097 40.1154 104.001L40.6371 104.793C40.5185 104.885 40.4236 105.003 40.3605 105.139C40.2974 105.274 40.2678 105.423 40.2744 105.572C40.2812 105.915 40.3111 106.257 40.3639 106.596C40.4222 107.021 40.5028 107.543 40.6057 108.163C40.6335 108.34 40.6716 108.514 40.7199 108.687C40.7499 108.804 40.8032 108.913 40.8766 109.009C40.9354 109.07 41.0034 109.12 41.0781 109.159C41.1657 109.205 41.2562 109.244 41.3491 109.278C41.4498 109.316 41.5528 109.352 41.6647 109.39C41.7767 109.428 41.8886 109.466 41.9961 109.511C42.1424 109.562 42.275 109.646 42.3834 109.757C42.4486 109.844 42.4797 109.953 42.4707 110.061Z" fill="#0046AD"/>
<path d="M43.8924 109.367C43.8585 109.894 43.7398 110.412 43.5409 110.901L43.4088 110.865C43.4491 110.643 43.4753 110.419 43.4871 110.193C43.4842 109.853 43.458 109.514 43.4088 109.177L43.0707 106.797C43.0326 106.593 43.0079 106.387 42.9968 106.179C43.0426 105.719 43.196 105.277 43.4446 104.887C43.4428 105.407 43.4735 105.927 43.5364 106.443L43.8073 108.458C43.8547 108.759 43.8831 109.063 43.8924 109.367Z" fill="#0046AD"/>
<path d="M51.986 110.552C51.9855 110.579 51.9794 110.606 51.9678 110.631C51.9562 110.655 51.9395 110.677 51.9188 110.695C51.8693 110.743 51.8107 110.78 51.7464 110.805C51.6746 110.837 51.5995 110.861 51.5225 110.876C51.4391 110.892 51.3544 110.901 51.2695 110.901C51.1275 110.904 50.9858 110.886 50.8486 110.849C50.7344 110.813 50.6332 110.743 50.5576 110.65C50.4647 110.528 50.3942 110.39 50.3493 110.243C50.279 110.018 50.2215 109.789 50.1769 109.558L49.7807 109.902C49.6963 109.977 49.5982 110.034 49.4919 110.07C49.3932 110.105 49.2895 110.122 49.1851 110.122C48.9346 110.128 48.6851 110.088 48.4485 110.005C48.2381 109.929 48.1306 109.838 48.1306 109.737C48.2024 109.502 48.3023 109.276 48.4284 109.065C48.6359 108.659 49.1105 108.286 49.8523 107.946V107.84C49.8698 107.549 49.9565 107.266 50.1053 107.014H50.1299L50.5486 109.24C50.5889 109.443 50.627 109.609 50.665 109.732C50.6912 109.84 50.7462 109.938 50.824 110.017C50.8973 110.086 50.9903 110.132 51.0904 110.146C51.2385 110.17 51.3883 110.18 51.5382 110.178C51.6497 110.175 51.7602 110.201 51.8583 110.254C51.9479 110.305 51.9949 110.366 51.9949 110.435L51.986 110.552ZM50.4546 106.038L50.0068 106.658L49.306 106.242L48.8941 106.806L48.2067 106.358L48.6232 105.714L49.3463 106.161L49.7628 105.611L50.4546 106.038ZM49.9531 108.313C49.4714 108.442 49.0553 108.746 48.7866 109.166C49.0703 109.262 49.3692 109.306 49.6687 109.296C49.8251 109.293 49.9785 109.253 50.1165 109.179L49.9531 108.313Z" fill="#0046AD"/>
<path d="M54.5002 110.594C54.5006 110.622 54.4943 110.65 54.4818 110.676C54.4694 110.701 54.4511 110.723 54.4286 110.74C54.3737 110.781 54.3124 110.813 54.2472 110.834C54.1695 110.86 54.0891 110.877 54.0077 110.885C53.9297 110.896 53.8512 110.901 53.7726 110.901C53.5511 110.903 53.3365 110.824 53.1703 110.677C53.0017 110.534 52.8794 110.344 52.8188 110.131H52.7987C52.6394 110.387 52.4103 110.593 52.1382 110.724C51.8614 110.841 51.5632 110.898 51.2628 110.892L51.5292 110.151C51.6654 110.152 51.8012 110.138 51.9345 110.111C52.0663 110.082 52.1925 110.032 52.3084 109.963C52.4447 109.883 52.5696 109.785 52.68 109.672C52.8247 109.527 52.9559 109.37 53.0718 109.202L53.1502 109.226C53.1749 109.35 53.2086 109.472 53.2509 109.591C53.286 109.699 53.3406 109.799 53.4121 109.887C53.4825 109.971 53.5704 110.039 53.6696 110.086C53.7873 110.138 53.9149 110.163 54.0435 110.16C54.0911 110.16 54.1384 110.166 54.1845 110.178C54.2368 110.19 54.2872 110.209 54.3346 110.234C54.3804 110.254 54.4221 110.283 54.4577 110.319C54.4731 110.333 54.4855 110.35 54.494 110.368C54.5025 110.387 54.5069 110.408 54.5069 110.429L54.5002 110.594ZM53.9316 112.108L53.495 112.779L52.8054 112.332L52.4226 112.896L51.7285 112.41L52.1472 111.79L52.8412 112.238L53.2442 111.66L53.9316 112.108Z" fill="#0046AD"/>
<path d="M58.5145 110.576C58.5149 110.604 58.509 110.631 58.4974 110.656C58.4857 110.681 58.4686 110.702 58.4473 110.72C58.3968 110.764 58.3383 110.798 58.275 110.82C58.2029 110.85 58.1278 110.871 58.0511 110.883C57.9672 110.895 57.8827 110.901 57.7981 110.901C57.453 110.906 57.1089 110.865 56.7749 110.778C56.4754 110.696 56.1906 110.567 55.9309 110.397C55.7709 110.505 55.5978 110.591 55.4159 110.655C55.2323 110.721 55.0436 110.773 54.8517 110.809C54.6667 110.844 54.4798 110.869 54.292 110.883C54.1084 110.883 53.9383 110.901 53.7793 110.901L54.0435 110.16H54.3614C54.4746 110.156 54.5875 110.146 54.6995 110.129C54.8045 110.114 54.9084 110.092 55.0107 110.064C55.0981 110.043 55.1813 110.007 55.257 109.958C55.235 109.906 55.2171 109.852 55.2032 109.797C55.1919 109.758 55.1851 109.717 55.1831 109.676C55.1939 109.35 55.2971 109.033 55.4808 108.763C55.9615 107.99 56.3921 107.603 56.7727 107.603C56.9585 107.603 57.1197 107.733 57.2563 107.995C57.3194 108.116 57.3704 108.244 57.4085 108.376C57.4447 108.505 57.4627 108.639 57.4622 108.774C57.4622 109.11 57.2764 109.506 56.9048 109.963C57.063 110.042 57.2332 110.094 57.4085 110.117C57.6256 110.15 57.8449 110.167 58.0645 110.167C58.1214 110.166 58.1781 110.174 58.2324 110.191C58.2833 110.205 58.3322 110.225 58.3779 110.252C58.4161 110.273 58.4509 110.3 58.4809 110.332C58.493 110.343 58.5028 110.356 58.5097 110.371C58.5166 110.385 58.5205 110.401 58.5212 110.417L58.5145 110.576ZM57.4667 105.664L57.0503 106.358L56.3562 105.928L55.951 106.493L55.2301 106.045L55.6398 105.409L56.401 105.837L56.766 105.23L57.4667 105.664ZM57.1018 109.105C57.0883 108.946 57.0181 108.796 56.904 108.684C56.7898 108.571 56.6392 108.503 56.4794 108.492C56.2702 108.501 56.0678 108.568 55.895 108.687C55.698 108.819 55.5973 108.933 55.5973 109.032C55.5973 109.255 55.7876 109.448 56.1682 109.632C56.7906 109.448 57.1018 109.273 57.1018 109.105Z" fill="#0046AD"/>
<path d="M61.0243 110.594C61.0242 110.623 61.0175 110.651 61.0046 110.676C60.9918 110.701 60.9732 110.723 60.9504 110.74C60.8955 110.781 60.8342 110.813 60.7691 110.834C60.6914 110.86 60.611 110.877 60.5295 110.885C60.4516 110.896 60.373 110.901 60.2944 110.901C60.0729 110.903 59.8583 110.824 59.6922 110.677C59.5236 110.534 59.4012 110.344 59.3406 110.131H59.3205C59.1582 110.389 58.9251 110.595 58.6488 110.724C58.372 110.841 58.0738 110.898 57.7734 110.892L58.0399 110.151C58.1767 110.152 58.3133 110.138 58.4473 110.111C58.5789 110.081 58.705 110.031 58.8212 109.963C58.9564 109.882 59.0806 109.784 59.1906 109.672C59.3341 109.525 59.4631 109.364 59.5757 109.193L59.6541 109.217C59.6788 109.341 59.7125 109.463 59.7548 109.582C59.7908 109.689 59.8454 109.79 59.916 109.878C59.9864 109.962 60.0743 110.03 60.1735 110.077C60.2919 110.129 60.4203 110.154 60.5496 110.151C60.5965 110.151 60.6431 110.157 60.6884 110.169C60.7413 110.181 60.7924 110.2 60.8407 110.225C60.8859 110.245 60.9269 110.274 60.9616 110.31C60.9773 110.324 60.99 110.34 60.9989 110.359C61.0078 110.378 61.0126 110.399 61.0131 110.42L61.0243 110.594ZM60.4601 112.108L60.0123 112.779L59.3227 112.332L58.9444 112.896L58.2548 112.419L58.6735 111.799L59.3675 112.247L59.7727 111.669L60.4601 112.108Z" fill="#0046AD"/>
<path d="M63.5341 110.594C63.534 110.623 63.5272 110.651 63.5144 110.676C63.5016 110.701 63.483 110.723 63.4602 110.74C63.4053 110.781 63.344 110.813 63.2788 110.834C63.2011 110.86 63.1208 110.877 63.0393 110.885C62.965 110.895 62.8903 110.9 62.8154 110.901C62.5938 110.903 62.3793 110.824 62.2131 110.677C62.0445 110.534 61.9222 110.344 61.8616 110.131H61.8415C61.6822 110.387 61.4531 110.593 61.181 110.724C60.9042 110.841 60.6059 110.898 60.3056 110.892L60.572 110.151C60.7082 110.152 60.844 110.138 60.9773 110.111C61.109 110.082 61.2353 110.032 61.3512 109.963C61.4874 109.883 61.6124 109.785 61.7228 109.672C61.8663 109.525 61.9952 109.364 62.1079 109.193L62.1863 109.217C62.211 109.341 62.2446 109.463 62.287 109.582C62.3221 109.69 62.3767 109.79 62.4482 109.878C62.5186 109.962 62.6064 110.03 62.7057 110.077C62.824 110.129 62.9525 110.154 63.0818 110.151C63.1286 110.151 63.1752 110.157 63.2206 110.169C63.2735 110.181 63.3246 110.2 63.3729 110.225C63.4181 110.245 63.459 110.274 63.4938 110.31C63.5095 110.324 63.5222 110.34 63.5311 110.359C63.5399 110.378 63.5448 110.399 63.5453 110.42L63.5341 110.594ZM62.5534 112.224L62.0833 112.896L61.4116 112.448L61.8594 111.792L62.5534 112.224Z" fill="#0046AD"/>
<path d="M63.0684 110.16C63.2531 110.161 63.437 110.136 63.6147 110.086C63.7723 110.045 63.9186 109.968 64.0423 109.862C64.2677 109.664 64.3804 109.259 64.3804 108.649C64.3744 107.874 64.2858 107.101 64.1162 106.345C64.0266 105.926 63.9617 105.606 63.9169 105.378C63.8864 105.243 63.8639 105.107 63.8498 104.97C63.8822 104.676 63.9971 104.398 64.1811 104.166L64.752 104.934C64.558 105.106 64.4391 105.347 64.4207 105.606C64.4207 105.655 64.4587 105.944 64.5393 106.477C64.5841 106.746 64.6177 107.003 64.6446 107.245C64.6711 107.482 64.6845 107.72 64.6849 107.959C64.6842 108.438 64.6445 108.915 64.5662 109.387C64.8647 109.114 65.1326 108.873 65.3699 108.662C65.5845 108.474 65.8087 108.298 66.0416 108.134C66.2179 108.006 66.4079 107.899 66.608 107.814C66.7727 107.742 66.9501 107.704 67.1297 107.702C67.2815 107.701 67.4324 107.724 67.5775 107.769C67.7151 107.812 67.8474 107.87 67.9715 107.943C68.0779 108.006 68.1726 108.088 68.2514 108.183C68.3165 108.255 68.3545 108.348 68.3588 108.445C68.3573 108.551 68.3468 108.656 68.3275 108.761C68.3076 108.879 68.2792 108.996 68.2424 109.11C68.2052 109.225 68.1596 109.337 68.1059 109.446C68.0577 109.547 67.9951 109.642 67.92 109.726C67.8078 109.844 67.6788 109.945 67.5372 110.026C67.3588 110.129 67.1723 110.217 66.9797 110.29L66.9931 110.314C67.3379 110.281 67.6514 110.247 67.9335 110.209C68.1776 110.176 68.4236 110.158 68.67 110.155H69.0865C69.139 110.155 69.1911 110.164 69.241 110.18C69.2939 110.195 69.345 110.216 69.3932 110.243C69.436 110.267 69.4746 110.298 69.5074 110.335C69.5329 110.365 69.5478 110.402 69.5499 110.442V110.572C69.5496 110.598 69.5439 110.625 69.5331 110.649C69.5224 110.673 69.5067 110.695 69.4872 110.713C69.4378 110.758 69.38 110.792 69.3171 110.814C69.2447 110.842 69.1697 110.862 69.0932 110.874C69.0075 110.889 68.9206 110.897 68.8335 110.896H62.8042L63.0684 110.16ZM66.9416 108.517C66.7716 108.53 66.6057 108.576 66.4536 108.653C66.2216 108.758 65.9972 108.88 65.7819 109.016C65.5401 109.166 65.2916 109.336 65.0364 109.531C64.7811 109.726 64.5483 109.925 64.3311 110.129C64.5348 110.115 64.7408 110.095 64.9513 110.068C65.1617 110.041 65.3655 110.005 65.567 109.97C65.7685 109.934 65.961 109.893 66.1468 109.849L66.6551 109.73C66.8024 109.695 66.9469 109.649 67.0872 109.591C67.2127 109.542 67.3353 109.485 67.4543 109.421C67.5502 109.368 67.6429 109.31 67.732 109.246C67.7918 109.206 67.8447 109.156 67.8887 109.099C67.8544 109.029 67.8064 108.968 67.7476 108.917C67.6723 108.847 67.5906 108.783 67.5036 108.727C67.4121 108.668 67.3155 108.618 67.2148 108.577C67.1321 108.541 67.0432 108.52 66.9528 108.517H66.9416Z" fill="#0046AD"/>
<path d="M72.0485 110.594C72.0484 110.623 72.0416 110.651 72.0288 110.676C72.016 110.701 71.9974 110.723 71.9746 110.74C71.9197 110.781 71.8584 110.813 71.7932 110.834C71.7162 110.86 71.6367 110.877 71.5559 110.885C71.4817 110.895 71.4069 110.9 71.332 110.901C71.1097 110.904 70.8942 110.824 70.7275 110.677C70.5598 110.533 70.4382 110.343 70.3783 110.131H70.3581C70.1951 110.388 69.9621 110.594 69.6865 110.724C69.4104 110.841 69.1129 110.898 68.8133 110.892L69.0775 110.151C69.2143 110.152 69.3509 110.138 69.485 110.111C69.6166 110.081 69.7428 110.032 69.8588 109.963C69.9944 109.882 70.1192 109.784 70.2305 109.672C70.3732 109.525 70.5014 109.364 70.6133 109.193L70.694 109.217C70.7169 109.341 70.7498 109.463 70.7925 109.582C70.8293 109.689 70.8838 109.789 70.9537 109.878C71.0244 109.963 71.1131 110.031 71.2134 110.077C71.331 110.129 71.4587 110.154 71.5873 110.151C71.6341 110.151 71.6807 110.157 71.7261 110.169C71.7789 110.181 71.8301 110.2 71.8783 110.225C71.9242 110.245 71.9659 110.274 72.0014 110.31C72.0166 110.324 72.0287 110.341 72.0372 110.36C72.0457 110.379 72.0502 110.399 72.0507 110.42L72.0485 110.594ZM71.5582 107.48L71.1104 108.125L70.4208 107.677L70.0044 108.241L69.3618 107.818L69.7715 107.146L70.488 107.594L70.8574 107.019L71.5582 107.48Z" fill="#0046AD"/>
<path d="M73.3717 108.781C73.3806 109.139 73.3422 109.498 73.2575 109.846C73.1962 110.091 73.0702 110.315 72.8926 110.493C72.7133 110.657 72.4926 110.769 72.2545 110.816C71.9471 110.877 71.6342 110.905 71.3209 110.901L71.585 110.16C71.6813 110.16 71.7866 110.16 71.8985 110.16C72.0104 110.16 72.1224 110.142 72.2298 110.129C72.3344 110.115 72.4378 110.094 72.5388 110.064C72.6253 110.04 72.7076 110.003 72.7828 109.954C72.8678 109.907 72.9392 109.839 72.9902 109.756C73.0411 109.673 73.07 109.579 73.0739 109.482C73.0739 109.412 73.047 109.199 72.9911 108.841C72.9351 108.483 72.8545 107.977 72.7425 107.323C72.5973 106.604 72.4912 105.878 72.4246 105.147C72.4515 104.647 72.5821 104.32 72.8164 104.166L73.3202 104.932C73.1907 105.01 73.0843 105.121 73.0119 105.254C72.9395 105.386 72.9037 105.536 72.9082 105.687C72.9176 105.857 72.9378 106.027 72.9687 106.195C73.009 106.448 73.0649 106.793 73.1411 107.225C73.2172 107.657 73.2732 108.004 73.3135 108.261C73.343 108.433 73.3624 108.607 73.3717 108.781Z" fill="#0046AD"/>
<path d="M75.2792 109.367C75.2464 109.894 75.1277 110.412 74.9277 110.901L74.7956 110.865C74.8375 110.643 74.8644 110.419 74.8762 110.194C74.8735 109.853 74.8466 109.514 74.7956 109.177L74.4575 106.797C74.4254 106.592 74.406 106.385 74.3993 106.177C74.4458 105.717 74.5992 105.275 74.8471 104.885C74.8475 105.405 74.8782 105.925 74.9389 106.441L75.212 108.456C75.2526 108.758 75.275 109.063 75.2792 109.367Z" fill="#0046AD"/>
<path d="M82.401 110.563C82.3992 110.591 82.3905 110.618 82.3757 110.642C82.3608 110.666 82.3403 110.685 82.316 110.699C82.2521 110.743 82.1829 110.779 82.11 110.805C82.0319 110.836 81.9509 110.86 81.8682 110.876C81.8041 110.89 81.7389 110.899 81.6734 110.901C81.4696 110.903 81.2659 110.889 81.0644 110.858C80.9048 110.835 80.7521 110.778 80.6167 110.691C80.4887 110.6 80.3868 110.477 80.3211 110.335C80.2408 110.145 80.1931 109.943 80.1801 109.737C80.1577 109.529 80.1219 109.229 80.0771 108.841C80.0323 108.454 79.9696 107.946 79.8935 107.359C79.7621 106.338 79.6965 105.774 79.6965 105.666C79.6965 105.503 79.8554 105.243 80.1734 104.89L80.5965 109.334C80.6048 109.49 80.6476 109.643 80.7219 109.782C80.7871 109.888 80.88 109.975 80.9905 110.032C81.1179 110.096 81.2562 110.135 81.398 110.146C81.557 110.162 81.7383 110.171 81.9398 110.171C81.9904 110.171 82.0407 110.177 82.0898 110.189C82.1421 110.2 82.1931 110.217 82.2421 110.238C82.2856 110.257 82.3251 110.283 82.3585 110.317C82.387 110.347 82.4029 110.387 82.4033 110.429L82.401 110.563Z" fill="#0046AD"/>
<path d="M84.9063 110.594C84.9063 110.622 84.8999 110.65 84.8874 110.675C84.875 110.701 84.857 110.723 84.8347 110.74C84.7792 110.781 84.7172 110.813 84.6511 110.834C84.5747 110.858 84.4959 110.874 84.416 110.881C84.3418 110.891 84.267 110.896 84.1921 110.896C83.9706 110.899 83.756 110.819 83.5899 110.673C83.4213 110.529 83.299 110.339 83.2384 110.126H83.2182C83.0558 110.384 82.8227 110.59 82.5466 110.72C82.2706 110.837 81.973 110.894 81.6734 110.888L81.9376 110.146C82.0744 110.147 82.211 110.134 82.3451 110.106C82.4767 110.077 82.6029 110.027 82.719 109.958C82.8548 109.878 82.9798 109.78 83.0906 109.667C83.2333 109.52 83.3615 109.36 83.4734 109.188L83.5541 109.213C83.5791 109.336 83.612 109.458 83.6526 109.578C83.6893 109.685 83.7446 109.785 83.816 109.873C83.8859 109.958 83.9739 110.026 84.0735 110.073C84.191 110.125 84.3188 110.15 84.4474 110.146C84.4942 110.146 84.5409 110.153 84.5862 110.164C84.6393 110.176 84.6905 110.195 84.7384 110.22C84.7843 110.241 84.826 110.27 84.8616 110.305C84.877 110.319 84.8894 110.336 84.8978 110.355C84.9063 110.374 84.9108 110.394 84.9108 110.415L84.9063 110.594ZM84.3377 112.108L83.9011 112.779L83.2115 112.332L82.8287 112.896L82.1391 112.419L82.5555 111.799L83.2518 112.247L83.6548 111.669L84.3377 112.108Z" fill="#0046AD"/>
<path d="M90.5483 109.031L90.3244 109.703H90.0468C89.9595 109.703 89.8587 109.703 89.7423 109.703L89.3595 109.681L88.9878 109.658C88.8826 109.658 88.793 109.658 88.7236 109.658C88.5874 109.659 88.4514 109.667 88.3161 109.683C88.1724 109.699 88.0296 109.723 87.8885 109.755C87.7484 109.784 87.6101 109.821 87.4743 109.867C87.3474 109.896 87.2232 109.936 87.1027 109.985L85.9519 110.561C85.8151 110.631 85.6719 110.688 85.5243 110.731C85.3726 110.773 85.2186 110.807 85.0631 110.832C84.9086 110.856 84.7563 110.872 84.6153 110.881C84.4742 110.89 84.3242 110.892 84.1921 110.892L84.4563 110.151C84.5839 110.151 84.716 110.151 84.8504 110.151C84.9847 110.151 85.128 110.131 85.278 110.111C85.428 110.09 85.587 110.059 85.7571 110.019C85.9273 109.979 86.1131 109.923 86.3101 109.853C87.04 109.599 87.4661 109.458 87.5885 109.43C87.4842 109.403 87.3818 109.369 87.2818 109.329L86.7086 109.105C86.4019 108.965 86.0715 108.884 85.7347 108.866C85.4582 108.879 85.1844 108.926 84.9198 109.007H84.8817C85.1056 108.353 85.5041 108.026 86.0997 108.026C86.3683 108.026 86.8556 108.194 87.5616 108.53C88.3364 108.873 89.1774 109.04 90.0244 109.02L90.5483 109.031ZM88.1773 111.532L87.7676 112.204L87.0959 111.805L87.5124 111.134L88.1773 111.532Z" fill="#0046AD"/>
<path d="M94.7663 110.601C94.7669 110.628 94.7616 110.655 94.7507 110.68C94.7399 110.704 94.7238 110.726 94.7036 110.744C94.6555 110.786 94.5991 110.818 94.5379 110.836C94.4652 110.86 94.3901 110.877 94.314 110.885C94.2257 110.896 94.1367 110.902 94.0476 110.901H93.7073C93.5537 111.534 93.3014 112.138 92.9595 112.692C92.4431 113.438 91.8378 113.812 91.1438 113.812C90.7654 113.812 90.2482 113.641 89.5945 113.297L89.7064 113.187C89.9563 113.292 90.2235 113.351 90.4945 113.359C91.181 113.348 91.8403 113.089 92.3505 112.629C92.9008 112.191 93.2816 111.576 93.4274 110.888H93.2035C93.0256 110.888 92.8478 110.88 92.6707 110.863C92.5263 110.848 92.3846 110.814 92.2498 110.76C92.098 110.704 91.9593 110.618 91.8423 110.507C91.7985 110.465 91.7634 110.414 91.7392 110.359C91.715 110.303 91.7021 110.243 91.7013 110.182C91.703 110.102 91.7135 110.021 91.7326 109.943C91.7576 109.847 91.7875 109.753 91.8222 109.661C91.8602 109.564 91.905 109.464 91.9565 109.361C92.008 109.258 92.0595 109.161 92.1177 109.067C92.1989 108.919 92.3032 108.784 92.4267 108.669C92.5095 108.59 92.6192 108.546 92.7334 108.546C92.9886 108.546 93.217 108.705 93.405 109.025C93.606 109.365 93.7176 109.75 93.7297 110.144H94.2984C94.409 110.142 94.519 110.16 94.623 110.198C94.6643 110.211 94.7001 110.238 94.7251 110.273C94.7501 110.309 94.763 110.352 94.7618 110.395L94.7663 110.601ZM93.2573 110.153C93.2153 109.942 93.1135 109.748 92.964 109.593C92.8711 109.493 92.7444 109.43 92.608 109.417C92.5142 109.421 92.4231 109.449 92.3438 109.499C92.3057 109.525 92.2718 109.556 92.2431 109.591C92.217 109.624 92.2027 109.664 92.2028 109.705C92.2028 109.835 92.3125 109.945 92.5274 110.037C92.6254 110.078 92.7274 110.109 92.8319 110.129C92.9727 110.15 93.1149 110.16 93.2573 110.16V110.153Z" fill="#0046AD"/>
<path d="M96.0895 108.781C96.099 109.14 96.0598 109.498 95.9731 109.846C95.9135 110.091 95.7881 110.315 95.6104 110.493C95.4306 110.658 95.209 110.769 94.9701 110.816C94.6634 110.877 94.3513 110.905 94.0387 110.901L94.3029 110.16C94.3992 110.16 94.5044 110.16 94.6163 110.16C94.7283 110.16 94.8402 110.142 94.9477 110.129C95.0523 110.115 95.1556 110.094 95.2566 110.064C95.3429 110.039 95.4252 110.002 95.5007 109.954C95.5856 109.907 95.657 109.839 95.708 109.756C95.759 109.673 95.7878 109.579 95.7917 109.482C95.7917 109.412 95.7649 109.199 95.7089 108.841C95.6529 108.483 95.5723 107.977 95.4604 107.323C95.3152 106.604 95.209 105.878 95.1425 105.147C95.1693 104.647 95.2999 104.32 95.5343 104.166L96.038 104.932C95.9085 105.01 95.8021 105.121 95.7297 105.254C95.6573 105.386 95.6216 105.536 95.6261 105.687C95.6355 105.857 95.6557 106.027 95.6865 106.195C95.7268 106.448 95.7828 106.793 95.8589 107.225C95.935 107.657 95.991 108.004 96.0313 108.261C96.0608 108.433 96.0802 108.607 96.0895 108.781Z" fill="#0046AD"/>
<path d="M100.831 110.601C100.832 110.628 100.827 110.655 100.816 110.68C100.805 110.704 100.789 110.726 100.769 110.744C100.721 110.786 100.664 110.818 100.603 110.836C100.53 110.86 100.455 110.877 100.379 110.885C100.291 110.896 100.202 110.902 100.113 110.901H99.7814C99.6278 111.534 99.3755 112.138 99.0336 112.692C98.5172 113.438 97.9119 113.812 97.2179 113.812C96.8395 113.812 96.3223 113.641 95.6686 113.297L95.7805 113.187C96.0304 113.292 96.2976 113.351 96.5686 113.359C97.2551 113.348 97.9144 113.089 98.4246 112.629C98.9748 112.191 99.3561 111.575 99.5038 110.888H99.2799C99.102 110.888 98.9241 110.88 98.747 110.863C98.6026 110.848 98.4609 110.814 98.3261 110.76C98.1744 110.704 98.0357 110.618 97.9186 110.507C97.8748 110.465 97.8398 110.414 97.8156 110.359C97.7914 110.303 97.7784 110.243 97.7776 110.182C97.7791 110.101 97.7904 110.021 97.8112 109.943C97.8344 109.847 97.8635 109.753 97.8985 109.661C97.9365 109.564 97.9813 109.464 98.0328 109.361C98.0843 109.258 98.1358 109.161 98.194 109.067C98.2752 108.919 98.3795 108.784 98.503 108.669C98.5858 108.59 98.6955 108.546 98.8097 108.546C99.0649 108.546 99.2933 108.705 99.4814 109.025C99.6823 109.365 99.794 109.75 99.806 110.144H100.375C100.485 110.142 100.595 110.16 100.699 110.198C100.741 110.211 100.776 110.238 100.801 110.273C100.826 110.309 100.839 110.352 100.838 110.395L100.831 110.601ZM99.3224 110.153C99.2804 109.942 99.1786 109.748 99.0291 109.593C98.9362 109.493 98.8095 109.43 98.6731 109.417C98.5793 109.421 98.4882 109.449 98.409 109.499C98.3709 109.525 98.3369 109.556 98.3082 109.591C98.2821 109.624 98.2679 109.664 98.2679 109.705C98.2679 109.835 98.3776 109.945 98.5925 110.037C98.6905 110.078 98.7926 110.109 98.897 110.129C99.0378 110.15 99.18 110.16 99.3224 110.16V110.153Z" fill="#0046AD"/>
<path d="M103.341 110.594C103.341 110.623 103.334 110.651 103.322 110.676C103.309 110.701 103.29 110.723 103.267 110.74C103.213 110.782 103.152 110.814 103.086 110.834C103.009 110.86 102.929 110.877 102.849 110.885C102.771 110.896 102.692 110.901 102.614 110.901C102.392 110.903 102.177 110.824 102.011 110.677C101.843 110.534 101.72 110.344 101.66 110.131H101.64C101.477 110.388 101.244 110.594 100.968 110.724C100.692 110.841 100.394 110.898 100.095 110.892L100.359 110.151C100.496 110.152 100.632 110.138 100.767 110.111C100.898 110.081 101.024 110.032 101.14 109.963C101.276 109.882 101.401 109.784 101.512 109.672C101.655 109.525 101.783 109.364 101.895 109.193L101.975 109.217C101.999 109.341 102.032 109.463 102.074 109.582C102.111 109.69 102.166 109.79 102.237 109.878C102.307 109.963 102.395 110.031 102.495 110.077C102.612 110.129 102.74 110.154 102.869 110.151C102.916 110.151 102.962 110.157 103.008 110.169C103.061 110.181 103.112 110.2 103.16 110.225C103.206 110.245 103.247 110.274 103.283 110.31C103.298 110.324 103.31 110.341 103.319 110.36C103.327 110.379 103.332 110.399 103.332 110.42L103.341 110.594ZM102.242 107.596L101.794 108.241L101.145 107.823L101.548 107.173L102.242 107.596Z" fill="#0046AD"/>
<path d="M109.923 110.601C109.923 110.63 109.914 110.659 109.899 110.684C109.883 110.709 109.862 110.73 109.836 110.744C109.771 110.787 109.699 110.818 109.623 110.836C109.537 110.86 109.449 110.876 109.359 110.885C109.281 110.895 109.201 110.9 109.122 110.901C108.959 110.906 108.796 110.887 108.638 110.845C108.512 110.807 108.391 110.752 108.28 110.679C108.177 110.61 108.077 110.536 107.982 110.455C107.859 110.357 107.691 110.232 107.479 110.043L106.764 109.437C106.616 109.311 106.46 109.194 106.296 109.087C106.144 108.989 105.999 108.902 105.849 108.823C105.88 108.938 105.895 109.056 105.893 109.175C105.9 109.405 105.859 109.633 105.773 109.846C105.695 110.027 105.577 110.187 105.428 110.314C105.271 110.446 105.093 110.55 104.902 110.621C104.684 110.703 104.459 110.762 104.23 110.798C103.973 110.842 103.714 110.869 103.453 110.881C103.176 110.897 102.893 110.903 102.6 110.903L102.867 110.162H103.44C103.634 110.162 103.827 110.149 104.015 110.131C104.203 110.113 104.382 110.091 104.557 110.061C104.72 110.033 104.881 109.991 105.038 109.936C105.47 109.779 105.688 109.582 105.688 109.34C105.682 109.185 105.63 109.034 105.538 108.908C105.402 108.723 105.238 108.56 105.052 108.427C104.63 108.109 104.151 107.874 103.641 107.735C103.27 107.267 103.084 106.909 103.084 106.656C103.091 106.399 103.195 106.153 103.375 105.969C103.503 105.835 103.642 105.711 103.789 105.597C103.968 105.456 104.192 105.297 104.461 105.122C105.038 104.75 105.636 104.409 106.252 104.102C106.944 103.752 107.75 103.385 108.67 103L108.43 103.768C107.582 104.14 106.836 104.483 106.191 104.798C105.551 105.111 104.998 105.405 104.53 105.673C103.714 106.148 103.305 106.463 103.305 106.618C103.305 106.75 103.529 106.891 103.948 107.041C104.78 107.347 105.568 107.761 106.292 108.273C106.375 108.331 106.547 108.463 106.807 108.669C107.067 108.875 107.418 109.159 107.861 109.517C107.981 109.619 108.106 109.715 108.235 109.804C108.346 109.88 108.463 109.948 108.585 110.005C108.701 110.06 108.824 110.102 108.95 110.129C109.084 110.156 109.22 110.17 109.357 110.169C109.489 110.164 109.62 110.191 109.74 110.247C109.785 110.265 109.823 110.296 109.851 110.336C109.878 110.376 109.893 110.423 109.894 110.471L109.923 110.601Z" fill="#0046AD"/>
<path d="M112.359 110.594C112.359 110.622 112.353 110.65 112.341 110.675C112.328 110.701 112.31 110.723 112.288 110.74C112.232 110.781 112.17 110.813 112.104 110.834C112.027 110.86 111.948 110.877 111.867 110.885C111.789 110.896 111.71 110.901 111.632 110.901C111.41 110.903 111.196 110.824 111.03 110.677C110.861 110.534 110.739 110.344 110.678 110.131H110.658C110.495 110.389 110.262 110.595 109.986 110.724C109.71 110.841 109.413 110.898 109.113 110.892L109.377 110.151C109.514 110.152 109.651 110.138 109.785 110.111C109.916 110.081 110.043 110.032 110.159 109.963C110.294 109.882 110.419 109.784 110.53 109.672C110.673 109.525 110.801 109.364 110.913 109.193L110.994 109.217C111.018 109.341 111.051 109.463 111.092 109.582C111.129 109.69 111.184 109.79 111.256 109.878C111.326 109.963 111.414 110.031 111.513 110.077C111.631 110.129 111.758 110.154 111.887 110.151C111.934 110.151 111.98 110.157 112.026 110.169C112.079 110.181 112.13 110.2 112.178 110.225C112.224 110.245 112.266 110.274 112.301 110.31C112.317 110.324 112.329 110.341 112.337 110.36C112.346 110.378 112.35 110.399 112.35 110.42L112.359 110.594ZM111.869 107.48L111.421 108.125L110.732 107.677L110.315 108.241L109.673 107.818L110.082 107.146L110.799 107.594L111.171 107.019L111.869 107.48Z" fill="#0046AD"/>
<path d="M113.685 108.781C113.693 109.14 113.654 109.498 113.568 109.846C113.507 110.091 113.381 110.315 113.203 110.493C113.024 110.657 112.803 110.769 112.565 110.816C112.258 110.877 111.945 110.905 111.632 110.901L111.896 110.16C111.992 110.16 112.097 110.16 112.212 110.16C112.326 110.16 112.435 110.142 112.541 110.129C112.645 110.116 112.749 110.094 112.85 110.064C112.936 110.04 113.018 110.003 113.094 109.954C113.179 109.907 113.25 109.839 113.301 109.756C113.352 109.673 113.381 109.579 113.385 109.482C113.385 109.412 113.358 109.199 113.304 108.841C113.25 108.483 113.165 107.977 113.056 107.323C112.909 106.604 112.803 105.878 112.738 105.147C112.762 104.648 112.894 104.321 113.127 104.166L113.631 104.932C113.502 105.011 113.396 105.122 113.324 105.254C113.251 105.387 113.215 105.536 113.219 105.687C113.229 105.857 113.249 106.027 113.28 106.195C113.32 106.448 113.376 106.793 113.452 107.225C113.528 107.657 113.584 108.004 113.624 108.261C113.655 108.433 113.676 108.607 113.685 108.781Z" fill="#0046AD"/>
<path d="M115.59 109.367C115.557 109.894 115.439 110.412 115.241 110.901L115.106 110.865C115.148 110.643 115.175 110.419 115.187 110.194C115.184 109.853 115.158 109.514 115.106 109.177L114.768 106.797C114.736 106.592 114.717 106.385 114.71 106.177C114.757 105.717 114.91 105.275 115.158 104.885C115.158 105.405 115.189 105.925 115.252 106.441L115.523 108.456C115.564 108.758 115.586 109.063 115.59 109.367Z" fill="#0046AD"/>
<path d="M136.237 106.996L136.044 107.892C135.903 107.751 135.713 107.671 135.514 107.668C135.06 107.701 134.623 107.856 134.249 108.116C134.037 108.241 133.852 108.406 133.703 108.602C133.594 108.738 133.531 108.905 133.521 109.079C133.521 109.361 133.779 109.544 134.296 109.632L135.29 109.797C135.366 109.807 135.441 109.824 135.514 109.846C135.58 109.865 135.644 109.891 135.704 109.925C135.756 109.957 135.801 110 135.836 110.05C135.87 110.109 135.887 110.177 135.885 110.245C135.886 110.409 135.851 110.571 135.782 110.72C135.712 110.873 135.622 111.017 135.514 111.147C135.402 111.284 135.276 111.407 135.138 111.517C135.003 111.624 134.861 111.721 134.712 111.808C134.459 111.951 134.195 112.074 133.922 112.175C133.612 112.293 133.27 112.403 132.897 112.506C132.523 112.609 132.126 112.701 131.703 112.786C131.28 112.871 130.852 112.941 130.416 113.01C129.979 113.079 129.543 113.117 129.104 113.151C128.665 113.185 128.244 113.2 127.834 113.2C126.757 113.209 125.681 113.12 124.619 112.936C123.751 112.778 122.899 112.54 122.074 112.224L121.463 111.826C121.266 111.696 121.066 111.559 120.865 111.418C120.663 111.277 120.455 111.129 120.242 110.97C120.03 110.811 119.795 110.644 119.571 110.46L119.642 110.357C120.279 110.684 120.934 110.976 121.604 111.23C122.253 111.477 122.917 111.682 123.592 111.846C124.272 112.01 124.961 112.134 125.656 112.215C126.379 112.297 127.107 112.337 127.834 112.336C128.367 112.336 128.929 112.311 129.516 112.262C130.102 112.213 130.682 112.146 131.253 112.061C131.824 111.976 132.373 111.873 132.892 111.752C133.361 111.646 133.823 111.512 134.276 111.349C134.428 111.295 134.578 111.233 134.723 111.163C134.85 111.102 134.971 111.034 135.088 110.957C135.179 110.898 135.262 110.829 135.337 110.751C135.389 110.7 135.425 110.636 135.442 110.565C135.439 110.538 135.431 110.512 135.417 110.489C135.403 110.466 135.384 110.446 135.362 110.431C135.288 110.377 135.201 110.346 135.111 110.339L134.184 110.223C133.424 110.132 133.044 109.855 133.044 109.394C133.044 108.998 133.385 108.465 134.065 107.8C134.662 107.203 135.244 106.905 135.812 106.905C135.957 106.916 136.1 106.946 136.237 106.996ZM130.152 113.973L129.688 114.622L129.017 114.156L128.607 114.727L127.899 114.239L128.363 113.583L129.052 114.049L129.455 113.485L130.152 113.973Z" fill="#0046AD"/>
<path d="M140.567 109.522C140.56 109.809 140.492 110.091 140.368 110.35C139.697 110.756 138.928 110.972 138.144 110.975C138.01 110.975 137.735 110.955 137.316 110.912L137.435 110.017C137.625 110.032 137.847 110.041 138.106 110.041C139.051 110.041 139.768 109.892 140.258 109.593C140.204 108.931 139.553 108.391 138.306 107.975L138.577 107.104C139.125 107.238 139.615 107.546 139.974 107.981C140.333 108.416 140.542 108.956 140.569 109.52L140.567 109.522Z" fill="#0046AD"/>
<path d="M142.513 109.367C142.48 109.894 142.362 110.412 142.163 110.901L142.031 110.865C142.072 110.643 142.098 110.419 142.11 110.194C142.107 109.853 142.08 109.514 142.031 109.177L141.693 106.797C141.659 106.592 141.639 106.385 141.633 106.177C141.679 105.717 141.833 105.275 142.08 104.885C142.08 105.405 142.112 105.925 142.174 106.441L142.445 108.456C142.486 108.758 142.508 109.063 142.513 109.367Z" fill="#0046AD"/>
<path d="M146.084 109.97C146.099 110.915 145.83 111.844 145.313 112.636C144.786 113.429 144.201 113.825 143.558 113.825C143.151 113.825 142.613 113.661 141.942 113.335L142.06 113.236C142.317 113.332 142.588 113.382 142.862 113.384C143.538 113.366 144.184 113.095 144.671 112.625C144.993 112.339 145.262 111.998 145.466 111.617C145.646 111.308 145.748 110.959 145.763 110.601C145.766 110.428 145.72 110.259 145.631 110.111C145.541 110.227 145.428 110.325 145.299 110.396C145.17 110.468 145.028 110.512 144.881 110.527C144.767 110.527 144.653 110.508 144.545 110.471C144.438 110.438 144.338 110.385 144.25 110.314C144.166 110.25 144.095 110.169 144.042 110.077C143.988 109.985 143.96 109.879 143.961 109.773C143.968 109.621 143.992 109.471 144.035 109.325C144.106 109.088 144.208 108.862 144.339 108.653C144.422 108.496 144.54 108.361 144.684 108.257C144.795 108.174 144.929 108.128 145.067 108.125C145.207 108.128 145.342 108.177 145.452 108.264C145.597 108.376 145.715 108.519 145.797 108.682C145.995 109.082 146.093 109.524 146.084 109.97ZM145.248 109.374C145.205 109.293 145.14 109.225 145.061 109.178C144.983 109.131 144.893 109.106 144.801 109.105C144.72 109.099 144.64 109.124 144.577 109.175C144.554 109.194 144.536 109.218 144.524 109.245C144.512 109.272 144.505 109.302 144.505 109.332C144.505 109.506 144.613 109.596 144.83 109.596C144.92 109.599 145.009 109.579 145.089 109.537C145.157 109.5 145.213 109.443 145.248 109.374Z" fill="#0046AD"/>
</svg>
