<svg width="276" height="78" viewBox="0 0 276 78" fill="none" xmlns="http://www.w3.org/2000/svg">
<path d="M265.71 42.0386C264.054 43.0001 262.542 44.1836 261.22 45.554C260.584 46.2065 259.992 46.9044 259.449 47.6401C261.124 48.1935 262.649 49.0843 263.941 50.2324C264.478 49.5601 265.07 48.9333 265.71 48.3607C267.022 47.1837 268.539 46.2258 270.199 45.554C271.99 44.8235 273.948 44.4215 276 44.4215V39.2764C272.254 39.2764 268.739 40.2832 265.71 42.0386ZM261.366 54.9437C260.847 56.4867 260.565 58.1397 260.565 59.8569H255.419C255.419 57.1815 255.934 54.6251 256.867 52.2773C258.664 52.6184 260.243 53.5862 261.366 54.9437Z" fill="url(#paint0_linear_23_368)"/>
<path d="M192.232 0.576889H175.342L209.513 34.7485H226.404L192.232 0.576889Z" fill="#1F3C85"/>
<path d="M192.232 68.9202H175.342L209.513 34.7488H226.404L192.232 68.9202Z" fill="#222850"/>
<path d="M230.843 38.5293L222.398 47.5288L234.037 59.9309H250.927L230.843 38.5293Z" fill="#0072BA"/>
<path d="M230.843 30.3091L250.927 10.2249H234.037L222.398 21.8637L230.843 30.3091Z" fill="#222850"/>
<path d="M40.8829 8.15491L22.9558 26.1404L16.35 19.5508L27.713 8.17193L40.8829 8.15491Z" fill="#222850"/>
<path d="M40.936 50.1569L27.7661 50.1736L10.6971 33.1481C10.468 32.9195 10.1376 32.8561 9.84536 32.9708C9.54022 33.0984 9.35033 33.3909 9.35061 33.7089L9.37146 50.197L0.053146 50.2085L0.000183105 8.20692L9.31823 8.19512L9.33112 18.3015C9.3314 18.5049 9.42031 18.7082 9.56053 18.8605L40.936 50.1569Z" fill="#222850"/>
<path d="M54.8912 18.2439L54.9189 40.0327C54.9194 40.4651 55.2754 40.8205 55.7078 40.8199L82.1494 40.7865L82.1612 50.1048L45.6132 50.1509L45.5602 8.1493L82.1083 8.1032L82.1201 17.4212L55.6782 17.4547C55.2457 17.4553 54.8906 17.8117 54.8912 18.2439Z" fill="#222850"/>
<path d="M76.688 24.4454L76.6998 33.7637L59.2074 33.7856L59.1956 24.4676L76.688 24.4454Z" fill="#222850"/>
<path d="M96.5447 26.9581V50.1677L86.8433 50.0135V17.4869L96.5447 26.9581Z" fill="#222850"/>
<path d="M128.832 8.04427L128.885 50.0456L119.567 50.0574L119.532 22.6751C119.532 22.3573 119.341 22.0654 119.049 21.9512C118.756 21.8244 118.413 21.8884 118.197 22.1175L107.862 32.4657L86.8477 11.4916L86.8433 8.09723L96.6191 8.08488L107.298 18.7371C107.604 19.0417 108.099 19.0411 108.404 18.7357L119.057 8.05662L128.832 8.04427Z" fill="#222850"/>
<path d="M170.115 7.99204L156.5 8.00905L155.329 8.0107L133.567 8.03814L133.579 17.3565L146.406 17.34C146.838 17.3394 147.194 17.6951 147.195 18.1275L147.235 50.0227L156.553 50.0109L156.512 17.3276L170.127 17.3104L170.115 7.99204Z" fill="#222850"/>
<path d="M184.944 17.1652L184.982 50.0225L175.281 49.8586L175.232 8.01731L184.944 17.1652Z" fill="#222850"/>
<path d="M10.6668 59.6291H6.95567V71.5H3.73605V59.6291H0V56.7534H10.6668V59.6291Z" fill="#222850"/>
<path d="M13.4934 65.2081H17.5733C17.2539 64.3479 16.6392 63.8564 15.5827 63.8564C14.4766 63.8564 13.8131 64.3726 13.4934 65.2081ZM20.8176 67.1005H13.2969C13.4196 68.5016 14.1569 69.3618 15.5827 69.3618C16.6642 69.3618 17.3768 68.8951 17.6471 68.1084H20.6702C20.1788 70.2465 18.3597 71.6968 15.6318 71.6968C12.3384 71.6968 10.1264 69.6566 10.1264 66.5846C10.1264 63.5123 12.3628 61.4477 15.5336 61.4477C18.7038 61.4477 20.8176 63.4876 20.8176 66.5599V67.1005Z" fill="#222850"/>
<path d="M22.317 66.5843C22.317 63.635 24.5043 61.4721 27.7977 61.4721C30.7471 61.4721 32.7623 63.1927 33.1802 65.6505H29.9359C29.6165 64.8147 28.8054 64.2738 27.7977 64.2494C26.446 64.2738 25.4628 65.257 25.4628 66.5843C25.4628 67.9116 26.446 68.8948 27.7977 68.9193C28.8054 68.8948 29.6165 68.354 29.9359 67.5181H33.1802C32.7623 69.976 30.7471 71.6965 27.7977 71.6965C24.5043 71.6965 22.317 69.5337 22.317 66.5843Z" fill="#222850"/>
<path d="M44.6582 65.2817V71.4998H41.5124V65.7981C41.5124 64.9376 40.8977 64.2494 40.013 64.2494C39.0545 64.2494 38.3419 65.0852 38.3419 65.9452V71.4998H35.1958V54.6643H38.3419V62.7747C39.0298 61.9636 40.013 61.4721 41.0945 61.4721C43.0853 61.4721 44.6582 63.1188 44.6582 65.2817Z" fill="#222850"/>
<path d="M56.7997 65.2817V71.4998H53.6783V65.7981C53.6783 64.9132 53.0392 64.2494 52.1299 64.2494C51.2205 64.2494 50.4831 64.9132 50.4831 65.7981V71.4998H47.3373V61.6688H50.4831V62.8732C51.1714 62.013 52.1546 61.4721 53.2851 61.4721C55.2268 61.4721 56.7997 63.1188 56.7997 65.2817Z" fill="#222850"/>
<path d="M66.631 66.5843C66.631 65.257 65.6233 64.2738 64.296 64.2494C62.9443 64.2738 61.9611 65.257 61.9611 66.5843C61.9611 67.9116 62.9443 68.8948 64.296 68.9193C65.6233 68.8948 66.631 67.9116 66.631 66.5843ZM58.8153 66.5843C58.8153 63.635 61.0026 61.4721 64.296 61.4721C67.5895 61.4721 69.7524 63.635 69.7524 66.5843C69.7524 69.5337 67.5895 71.6965 64.296 71.6965C61.0026 71.6965 58.8153 69.5337 58.8153 66.5843Z" fill="#222850"/>
<path d="M71.989 54.6643H75.135V71.5H71.989V54.6643Z" fill="#222850"/>
<path d="M85.1628 66.5843C85.1628 65.257 84.1552 64.2738 82.8279 64.2494C81.4759 64.2738 80.493 65.257 80.493 66.5843C80.493 67.9116 81.4759 68.8948 82.8279 68.9193C84.1552 68.8948 85.1628 67.9116 85.1628 66.5843ZM77.3472 66.5843C77.3472 63.635 79.5345 61.4721 82.8279 61.4721C86.1213 61.4721 88.2842 63.635 88.2842 66.5843C88.2842 69.5337 86.1213 71.6965 82.8279 71.6965C79.5345 71.6965 77.3472 69.5337 77.3472 66.5843Z" fill="#222850"/>
<path d="M97.8449 66.5843C97.8449 65.2817 96.7879 64.2494 95.4856 64.2494C94.1829 64.2494 93.1506 65.2817 93.1506 66.5843C93.1506 67.8869 94.1829 68.9192 95.4856 68.9192C96.7879 68.9192 97.8449 67.8869 97.8449 66.5843ZM100.942 71.598C100.942 75.2355 98.8034 77.4231 95.2153 77.4231C92.6345 77.4231 90.7913 76.2678 89.9801 74.2523L92.8556 73.0973C93.2244 74.0805 94.0844 74.6949 95.2153 74.6949C96.8129 74.6949 97.8205 73.5888 97.8205 71.77V70.4674C97.0093 71.2295 95.9279 71.6965 94.6991 71.6965C91.9709 71.6965 89.8328 69.4354 89.8328 66.5843C89.8328 63.7088 91.9709 61.4721 94.6991 61.4721C95.9035 61.4721 96.9599 61.9144 97.7711 62.652V61.6688H100.917L100.942 71.598Z" fill="#222850"/>
<path d="M103.916 61.6686H107.037V71.4995H103.916V61.6686ZM103.768 58.3016C103.768 57.3431 104.555 56.5808 105.489 56.5808C106.422 56.5808 107.209 57.3431 107.209 58.3016C107.209 59.2354 106.422 60.0219 105.489 60.0219C104.555 60.0219 103.768 59.2354 103.768 58.3016Z" fill="#222850"/>
<path d="M112.69 65.2081H116.77C116.45 64.3479 115.836 63.8564 114.779 63.8564C113.673 63.8564 113.01 64.3726 112.69 65.2081ZM120.014 67.1005H112.493C112.616 68.5016 113.353 69.3618 114.779 69.3618C115.861 69.3618 116.573 68.8951 116.844 68.1084H119.867C119.375 70.2465 117.556 71.6968 114.828 71.6968C111.535 71.6968 109.323 69.6566 109.323 66.5846C109.323 63.5123 111.559 61.4477 114.73 61.4477C117.9 61.4477 120.014 63.4876 120.014 66.5599V67.1005Z" fill="#222850"/>
<path d="M121.219 69.3372L123.529 68.1822C123.971 69.0177 124.66 69.2142 125.175 69.2142C125.692 69.2142 126.036 68.993 126.036 68.5998C126.036 68.256 125.741 68.0101 124.856 67.666C123.725 67.2481 121.759 66.5846 121.759 64.6182C121.759 62.947 123.185 61.4724 125.421 61.4724C126.798 61.4724 128.002 62.0376 128.739 62.775L127.166 64.5444C126.872 64.1758 126.281 63.8317 125.642 63.8317C125.102 63.8317 124.856 64.0776 124.856 64.3973C124.856 64.7658 125.2 64.9134 125.913 65.2081C127.314 65.749 128.936 66.5355 128.936 68.5016C128.936 70.3448 127.584 71.6968 125.372 71.6968C123.627 71.6968 121.808 70.8612 121.219 69.3372Z" fill="#222850"/>
<path d="M265.71 52.1491C264.093 54.2969 263.137 56.9688 263.137 59.8569C263.137 57.9921 262.472 56.2781 261.366 54.9437C260.243 53.5862 258.664 52.6184 256.867 52.2773C256.4 52.1878 255.915 52.1392 255.419 52.1392V46.9941C256.825 46.9941 258.182 47.2194 259.449 47.6401C261.124 48.1935 262.649 49.0843 263.941 50.2324C264.594 50.8081 265.189 51.4516 265.71 52.1491Z" fill="url(#paint1_linear_23_368)"/>
<path d="M267.479 50.2324C266.825 50.8081 266.231 51.4516 265.71 52.1491C264.093 54.2969 263.137 56.9688 263.137 59.8569H268.283C268.283 57.9921 268.948 56.2781 270.054 54.9437C269.472 53.2163 268.594 51.625 267.479 50.2324ZM276 46.9941V52.1392C275.505 52.1392 275.019 52.1878 274.553 52.2773C273.891 50.6149 273.019 49.0582 271.971 47.6401C273.238 47.2194 274.595 46.9941 276 46.9941Z" fill="url(#paint2_linear_23_368)"/>
<path d="M255.419 39.2764V44.4215C257.471 44.4215 259.43 44.8235 261.22 45.554C262.543 44.1836 264.054 43.0001 265.71 42.0386C262.681 40.2832 259.166 39.2764 255.419 39.2764ZM276 59.8569H270.855C270.855 58.1397 270.572 56.4867 270.054 54.9437C269.472 53.2163 268.594 51.625 267.479 50.2324C266.942 49.5601 266.35 48.9333 265.71 48.3607C267.022 47.1837 268.539 46.2258 270.199 45.554C270.836 46.2065 271.427 46.9044 271.971 47.6401C273.019 49.0582 273.891 50.6149 274.553 52.2773C275.485 54.6251 276 57.1815 276 59.8569Z" fill="url(#paint3_linear_23_368)"/>
<defs>
<linearGradient id="paint0_linear_23_368" x1="276" y1="49.5665" x2="255.419" y2="49.5665" gradientUnits="userSpaceOnUse">
<stop stop-color="#2E2E30"/>
<stop offset="0.237095" stop-color="#2E2E30"/>
<stop offset="1" stop-color="#2E2E30"/>
</linearGradient>
<linearGradient id="paint1_linear_23_368" x1="255.463" y1="46.9507" x2="265.753" y2="57.241" gradientUnits="userSpaceOnUse">
<stop stop-color="#2E2E30"/>
<stop offset="0.237095" stop-color="#2E2E30"/>
<stop offset="1" stop-color="#2E2E30"/>
</linearGradient>
<linearGradient id="paint2_linear_23_368" x1="269.569" y1="46.9941" x2="269.569" y2="59.8568" gradientUnits="userSpaceOnUse">
<stop stop-color="#2E2E30"/>
<stop offset="0.237095" stop-color="#2E2E30"/>
<stop offset="1" stop-color="#2E2E30"/>
</linearGradient>
<linearGradient id="paint3_linear_23_368" x1="258.759" y1="37.3484" x2="272.815" y2="61.6955" gradientUnits="userSpaceOnUse">
<stop stop-color="#2E2E30"/>
<stop offset="0.237095" stop-color="#2E2E30"/>
<stop offset="1" stop-color="#2E2E30"/>
</linearGradient>
</defs>
</svg>
