<svg width="220" height="170" viewBox="0 0 220 170" fill="none" xmlns="http://www.w3.org/2000/svg">
<path d="M33.1412 153.842C30.6899 153.842 28.3214 153.908 25.9595 153.819C24.3882 153.759 23.2072 152.829 22.2082 151.668C20.885 150.125 19.9389 148.334 19.006 146.547C17.1006 142.886 15.3077 139.169 12.6514 135.95C11.391 134.423 9.9057 133.612 7.90435 133.543C6.9351 133.51 6.68039 133.74 6.687 134.69C6.7267 139.495 6.687 144.297 6.7267 149.099C6.7267 150.135 6.49844 150.511 5.40349 150.418C4.0097 150.341 2.61265 150.341 1.21886 150.418C0.491092 150.445 0.206604 150.277 0.206604 149.479C0.233068 139.288 0.233068 129.098 0.206604 118.909C0.206604 118.144 0.434857 117.92 1.19901 117.92C2.63799 117.969 4.0836 117.993 5.51927 117.92C6.45544 117.867 6.74324 118.128 6.73001 119.091C6.67377 122.907 6.7697 126.726 6.67708 130.538C6.64731 131.788 7.04758 132.042 8.19215 131.983C10.0347 131.887 11.8872 131.983 13.7298 131.946C15.9627 131.884 17.7358 132.768 19.2178 134.364C20.4483 135.683 21.3481 137.25 22.2347 138.809C22.5456 139.354 22.8202 139.918 23.1113 140.458C27.1636 148.229 27.1636 148.229 33.1412 153.842Z" fill="white"/>
<path d="M29.1154 114.305C26.0918 115.562 24.4841 118.006 23.0948 120.687C22.3008 122.221 21.4408 123.731 20.6502 125.261C19.3666 127.708 17.2694 128.859 14.5866 128.942C12.0526 129.021 9.51538 128.958 6.73334 128.958C7.84814 128.041 9.1118 127.811 10.0083 126.98C11.6027 125.469 12.6216 123.569 13.7132 121.719C14.4542 120.463 15.1886 119.2 15.8635 117.907C17.0907 115.565 19.0888 114.441 21.6459 114.342C24.1302 114.23 26.6244 114.305 29.1154 114.305Z" fill="#F7A41C"/>
<path d="M41.9504 132.688V133.068C41.9498 133.185 41.941 133.302 41.924 133.417H30.938C31.0132 134.491 31.4477 135.508 32.1719 136.306C32.86 137.03 33.8094 137.39 35.0201 137.388C35.8337 137.429 36.6385 137.204 37.3126 136.748C37.9242 136.266 38.3939 135.628 38.6722 134.901L41.57 135.304C41.3799 136.03 41.0739 136.722 40.6636 137.352C40.2626 137.959 39.7603 138.493 39.1783 138.932C38.5623 139.39 37.8719 139.739 37.1373 139.964C36.3115 140.212 35.4527 140.335 34.5901 140.327C33.6169 140.333 32.651 140.159 31.7419 139.812C30.873 139.482 30.0839 138.973 29.4263 138.318C28.7473 137.631 28.215 136.815 27.8616 135.917C27.4599 134.889 27.2633 133.792 27.2827 132.688C27.27 131.62 27.462 130.559 27.8483 129.562C28.1954 128.665 28.7236 127.849 29.4003 127.164C30.0769 126.48 30.8874 125.941 31.7816 125.581C32.7057 125.207 33.6951 125.018 34.6926 125.027C35.7809 125.004 36.8618 125.209 37.865 125.631C38.7336 126.008 39.5083 126.571 40.1343 127.28C40.7507 127.985 41.2137 128.811 41.4939 129.704C41.8025 130.669 41.9566 131.676 41.9504 132.688V132.688ZM38.6424 131.158C38.4899 130.22 38.059 129.35 37.4052 128.658C36.6953 128.02 35.773 127.666 34.8167 127.666C33.8604 127.666 32.9381 128.02 32.2282 128.658C31.5809 129.352 31.1549 130.222 31.0042 131.158H38.6424Z" fill="white"/>
<path d="M67.098 130.604V140.139H63.4591V131.435C63.4736 130.868 63.392 130.303 63.2177 129.763C63.0853 129.366 62.8763 128.999 62.6024 128.681C62.3643 128.418 62.0658 128.215 61.7324 128.091C61.4042 127.975 61.0584 127.916 60.7102 127.916C60.3267 127.913 59.9447 127.964 59.5755 128.068C59.2184 128.163 58.8902 128.345 58.6195 128.596C58.3165 128.889 58.0895 129.251 57.9579 129.651C57.7795 130.206 57.6979 130.787 57.7164 131.369V140.139H54.0115V131.382C54.0236 130.855 53.9476 130.329 53.7865 129.826C53.6573 129.428 53.4429 129.064 53.158 128.757C52.8963 128.487 52.5777 128.277 52.2251 128.144C51.8626 128.008 51.4779 127.939 51.0905 127.943C50.714 127.94 50.3395 127.999 49.9823 128.117C49.6303 128.234 49.3108 128.432 49.0494 128.695C48.755 128.995 48.5293 129.355 48.3878 129.75C48.2032 130.28 48.118 130.839 48.1364 131.399V140.139H44.4678V125.202H48.1993V127.54C48.3011 127.275 48.4403 127.025 48.6128 126.798C48.8479 126.483 49.1288 126.204 49.4464 125.97C49.8291 125.688 50.2487 125.46 50.6935 125.291C51.2326 125.089 51.8049 124.991 52.3806 125.001C52.923 124.992 53.4634 125.069 53.9817 125.228C54.4242 125.369 54.8409 125.581 55.2156 125.855C55.5811 126.129 55.9082 126.451 56.1881 126.811C56.4842 127.198 56.7455 127.609 56.9688 128.042C57.3887 127.175 58.0157 126.424 58.7948 125.855C59.7056 125.249 60.7873 124.949 61.8812 125.001C62.5725 124.999 63.2562 125.145 63.8859 125.43C64.5083 125.713 65.07 126.114 65.5399 126.61C66.0259 127.124 66.4098 127.725 66.6712 128.381C66.9579 129.087 67.1029 129.842 67.098 130.604V130.604Z" fill="white"/>
<path d="M79.0696 136.936V139.522C78.78 139.724 78.4609 139.881 78.1236 139.987C77.8071 140.091 77.483 140.172 77.1543 140.227C76.305 140.382 75.4326 140.356 74.5939 140.152C74.2041 140.05 73.8308 139.894 73.4857 139.687C73.194 139.512 72.9344 139.289 72.7183 139.027C72.5228 138.787 72.3542 138.526 72.2154 138.249C71.9004 137.599 71.7365 136.886 71.7358 136.164V127.919H69.7708V125.759C70.0183 125.723 70.2627 125.667 70.5019 125.594C70.7775 125.51 71.0402 125.387 71.2826 125.232C71.7129 124.97 72.0818 124.619 72.3643 124.203C72.6156 123.838 72.8232 123.445 72.9829 123.032C73.1101 122.713 73.2032 122.381 73.2608 122.042C73.3005 121.749 73.3236 121.561 73.3236 121.475H75.3878C75.3878 122.135 75.4143 122.794 75.4143 123.454C75.4143 124.113 75.4143 124.773 75.4408 125.433H78.9307V127.946H75.4639C75.5168 132.517 75.5422 135.205 75.54 136.009C75.5451 136.161 75.5616 136.312 75.5896 136.461C75.6292 136.673 75.7358 136.868 75.894 137.015C76.0847 137.22 76.3456 137.346 76.625 137.368C76.9307 137.401 77.239 137.401 77.5446 137.368C77.844 137.338 78.1391 137.275 78.4246 137.18L79.0696 136.936Z" fill="white"/>
<path d="M94.9944 132.688V133.068C94.9939 133.185 94.985 133.302 94.968 133.417H83.9821C84.0587 134.491 84.4931 135.507 85.216 136.306C85.9062 137.03 86.8556 137.39 88.0642 137.388C88.8778 137.43 89.6829 137.205 90.3566 136.748C90.9693 136.266 91.4402 135.628 91.7195 134.901L94.6173 135.304C94.4259 136.03 94.1199 136.721 93.7109 137.352C93.3098 137.96 92.8061 138.494 92.2223 138.932C91.6068 139.39 90.9162 139.74 90.1813 139.964C89.3567 140.213 88.4989 140.335 87.6374 140.327C86.6642 140.333 85.6983 140.159 84.7892 139.812C83.9206 139.482 83.1316 138.973 82.4736 138.318C81.7969 137.631 81.2669 136.814 80.9155 135.917C80.5139 134.889 80.3172 133.792 80.3366 132.688C80.3239 131.62 80.5159 130.559 80.9023 129.562C81.248 128.665 81.7753 127.848 82.4515 127.164C83.1276 126.479 83.938 125.94 84.8322 125.581C85.7564 125.207 86.7458 125.019 87.7433 125.027C88.8326 125.004 89.9148 125.209 90.919 125.631C91.787 126.009 92.5616 126.572 93.1883 127.28C93.8035 127.986 94.2663 128.811 94.5479 129.704C94.8515 130.669 95.0022 131.676 94.9944 132.688V132.688ZM91.6864 131.158C91.5351 130.221 91.1053 129.35 90.4525 128.658C89.7421 128.019 88.8192 127.666 87.8624 127.666C86.9055 127.666 85.9827 128.019 85.2722 128.658C84.6271 129.353 84.2024 130.223 84.0515 131.158H91.6864Z" fill="white"/>
<path d="M104.469 137.5C104.942 137.52 105.415 137.443 105.857 137.273C106.3 137.102 106.702 136.843 107.039 136.511C107.715 135.823 108.174 134.955 108.362 134.011L111.339 134.341C111.197 135.165 110.937 135.964 110.569 136.715C110.218 137.43 109.73 138.07 109.133 138.598C108.511 139.141 107.793 139.564 107.016 139.845C106.114 140.16 105.163 140.313 104.207 140.297C103.186 140.308 102.172 140.11 101.23 139.716C100.355 139.346 99.5669 138.799 98.9145 138.11C98.2536 137.409 97.7367 136.585 97.3928 135.686C96.6651 133.746 96.6651 131.608 97.3928 129.667C97.7366 128.761 98.2585 127.933 98.9277 127.23C99.5918 126.534 100.386 125.973 101.266 125.581C102.204 125.17 103.219 124.964 104.244 124.978C105.169 124.967 106.088 125.129 106.953 125.456C107.742 125.76 108.468 126.207 109.093 126.775C109.71 127.34 110.222 128.01 110.605 128.754C111.003 129.53 111.271 130.365 111.399 131.227L108.451 131.504C108.332 130.489 107.891 129.538 107.191 128.79C106.841 128.444 106.423 128.173 105.963 127.996C105.503 127.819 105.011 127.739 104.518 127.761C103.903 127.747 103.292 127.871 102.732 128.124C102.234 128.361 101.799 128.71 101.458 129.143C101.103 129.598 100.842 130.12 100.691 130.677C100.516 131.306 100.43 131.956 100.436 132.609C100.431 133.26 100.525 133.909 100.714 134.532C100.882 135.094 101.156 135.619 101.521 136.079C101.85 136.514 102.269 136.875 102.748 137.137C103.285 137.391 103.875 137.515 104.469 137.5V137.5Z" fill="white"/>
<path d="M127.125 140.139H123.546V131.234C123.545 130.857 123.481 130.482 123.357 130.126C123.236 129.762 123.044 129.426 122.792 129.137C122.519 128.839 122.188 128.6 121.819 128.434C121.379 128.24 120.901 128.145 120.42 128.157C119.632 128.159 118.872 128.444 118.279 128.962C117.989 129.22 117.756 129.537 117.598 129.892C117.426 130.279 117.34 130.699 117.347 131.122V140.139H113.665V120.153H117.343V127.992C117.422 127.581 117.604 127.196 117.873 126.874C118.174 126.499 118.537 126.175 118.944 125.918C119.383 125.636 119.856 125.414 120.354 125.258C121.528 124.899 122.79 124.948 123.933 125.397C124.556 125.641 125.119 126.014 125.587 126.492C126.075 126.996 126.457 127.594 126.708 128.249C126.997 129.007 127.139 129.813 127.125 130.624V140.139Z" fill="white"/>
<path d="M144.154 138.018L149.546 122.742H153.846L145.943 142.728H142.338L134.375 122.742H138.676L144.154 138.018Z" fill="white"/>
<path d="M163.638 140.419C163.379 140.765 163.092 141.089 162.781 141.389C162.448 141.709 162.071 141.98 161.66 142.193C161.197 142.432 160.705 142.612 160.198 142.731C159.583 142.873 158.953 142.941 158.322 142.932C157.734 142.935 157.15 142.838 156.595 142.645C156.067 142.463 155.58 142.181 155.16 141.814C154.743 141.456 154.405 141.016 154.167 140.521C153.917 139.996 153.792 139.421 153.8 138.839C153.793 138.305 153.906 137.777 154.131 137.292C154.328 136.866 154.6 136.478 154.935 136.148C155.261 135.833 155.631 135.566 156.033 135.357C156.42 135.155 156.824 134.987 157.24 134.855C157.644 134.73 158.018 134.631 158.362 134.555L159.209 134.367C160.065 134.182 160.839 134.037 161.524 133.925C162.209 133.813 162.89 133.694 163.529 133.562C163.526 133.206 163.479 132.852 163.39 132.507C163.3 132.145 163.142 131.804 162.924 131.501C162.689 131.188 162.388 130.931 162.04 130.749C161.603 130.532 161.119 130.428 160.631 130.446C160.187 130.433 159.747 130.524 159.344 130.71C159.013 130.874 158.715 131.098 158.464 131.369C158.23 131.624 158.05 131.924 157.935 132.25C157.821 132.554 157.745 132.871 157.707 133.193L156.053 133.041C155.523 132.992 154.974 132.949 154.399 132.916C154.477 132.187 154.682 131.477 155.004 130.819C155.319 130.176 155.76 129.603 156.301 129.133C156.869 128.646 157.523 128.267 158.229 128.015C159.031 127.737 159.875 127.601 160.724 127.613C161.628 127.594 162.527 127.752 163.37 128.078C164.076 128.355 164.72 128.77 165.262 129.298C165.752 129.782 166.141 130.358 166.407 130.993C166.662 131.593 166.795 132.238 166.797 132.89V139.222C166.786 139.36 166.805 139.498 166.853 139.628C166.901 139.758 166.977 139.876 167.075 139.974C167.252 140.143 167.475 140.258 167.717 140.304C167.958 140.348 168.206 140.348 168.448 140.304C168.652 140.271 168.846 140.193 169.017 140.076V142.187H169.04C168.766 142.432 168.45 142.628 168.107 142.764C167.696 142.911 167.26 142.979 166.824 142.965C166.367 142.978 165.914 142.884 165.5 142.691C164.832 142.367 164.281 141.843 163.923 141.194C163.797 140.948 163.702 140.688 163.638 140.419V140.419ZM157.439 138.259C157.427 138.486 157.462 138.713 157.54 138.926C157.617 139.14 157.737 139.335 157.892 139.502C158.202 139.816 158.596 140.034 159.027 140.132C159.503 140.24 159.996 140.249 160.476 140.158C160.973 140.072 161.444 139.87 161.848 139.568C162.454 139.165 162.924 138.591 163.198 137.919C163.442 137.174 163.553 136.393 163.529 135.61C162.865 135.8 162.187 135.939 161.501 136.026C160.832 136.109 160.169 136.234 159.516 136.402C158.98 136.532 158.472 136.755 158.014 137.062C157.827 137.195 157.676 137.373 157.575 137.579C157.473 137.785 157.424 138.013 157.432 138.242L157.439 138.259Z" fill="white"/>
<path d="M175.047 139.575C175.238 139.779 175.499 139.905 175.778 139.928C176.084 139.961 176.392 139.961 176.698 139.928C176.998 139.897 177.295 139.834 177.581 139.74L178.223 139.525V142.111C177.938 142.312 177.623 142.469 177.29 142.576C176.978 142.681 176.659 142.762 176.334 142.817C175.485 142.971 174.612 142.945 173.774 142.741C173.384 142.639 173.011 142.483 172.666 142.276C172.372 142.099 172.108 141.876 171.885 141.616C171.684 141.377 171.511 141.116 171.369 140.838C171.055 140.187 170.891 139.475 170.889 138.753V122.742H174.621C174.621 123.379 174.621 124.196 174.621 125.192C174.621 126.182 174.621 127.253 174.647 128.381C174.674 129.509 174.664 130.657 174.674 131.811C174.684 132.965 174.674 134.027 174.674 134.99V138.569C174.68 138.72 174.698 138.871 174.727 139.021C174.77 139.235 174.883 139.43 175.047 139.575V139.575Z" fill="white"/>
<path d="M184.095 139.575C184.286 139.779 184.547 139.905 184.826 139.928C185.132 139.961 185.44 139.961 185.746 139.928C186.046 139.897 186.342 139.834 186.629 139.74L187.27 139.525V142.111C186.984 142.311 186.67 142.468 186.338 142.576C186.026 142.681 185.706 142.762 185.382 142.817C184.532 142.966 183.661 142.936 182.825 142.728C182.435 142.626 182.061 142.47 181.716 142.263C181.422 142.086 181.158 141.864 180.936 141.603C180.733 141.365 180.56 141.104 180.42 140.825C180.105 140.175 179.941 139.462 179.94 138.74V122.742H183.671C183.671 123.379 183.671 124.196 183.671 125.192C183.671 126.182 183.671 127.253 183.698 128.381C183.724 129.509 183.714 130.657 183.724 131.811C183.734 132.965 183.724 134.027 183.724 134.99V138.569C183.729 138.721 183.747 138.872 183.777 139.021C183.82 139.235 183.931 139.429 184.095 139.575V139.575Z" fill="white"/>
<path d="M202.792 135.277V135.657C202.792 135.773 202.784 135.89 202.768 136.006H191.779C191.856 137.08 192.291 138.097 193.016 138.895C193.705 139.619 194.653 139.979 195.861 139.977C196.676 140.018 197.482 139.794 198.157 139.337C198.768 138.854 199.237 138.216 199.517 137.49L202.415 137.893C202.224 138.619 201.918 139.311 201.508 139.941C201.107 140.549 200.603 141.083 200.02 141.52C199.404 141.98 198.714 142.329 197.978 142.553C197.154 142.802 196.296 142.924 195.435 142.915C194.461 142.922 193.496 142.747 192.586 142.401C191.718 142.071 190.929 141.562 190.271 140.907C189.594 140.219 189.063 139.403 188.709 138.506C188.308 137.478 188.111 136.381 188.131 135.277C188.118 134.209 188.31 133.148 188.696 132.151C189.042 131.253 189.57 130.436 190.246 129.751C190.923 129.067 191.734 128.528 192.629 128.17C193.552 127.796 194.541 127.608 195.537 127.616C196.623 127.593 197.702 127.797 198.703 128.216C199.571 128.593 200.346 129.156 200.972 129.865C201.589 130.571 202.052 131.396 202.332 132.289C202.642 133.255 202.797 134.263 202.792 135.277ZM199.484 133.747C199.334 132.809 198.904 131.938 198.25 131.247C197.54 130.608 196.617 130.255 195.661 130.255C194.705 130.255 193.783 130.608 193.073 131.247C192.425 131.941 191.999 132.811 191.849 133.747H199.484Z" fill="white"/>
<path d="M205.213 144.575C205.385 144.652 205.568 144.703 205.756 144.726C206.084 144.777 206.418 144.785 206.748 144.749C207.096 144.738 207.437 144.654 207.75 144.503C208.062 144.352 208.34 144.137 208.564 143.872C208.992 143.329 209.214 142.653 209.193 141.963L203.5 127.781H207.555L211.194 138.938L214.773 127.781H218.882L212.481 144.063C212.065 145.145 211.44 146.134 210.642 146.976C210.282 147.333 209.852 147.614 209.379 147.8C208.907 147.986 208.401 148.074 207.893 148.057C207.489 148.057 207.023 148.034 206.497 147.995C206.055 147.969 205.622 147.857 205.223 147.665L205.213 144.575Z" fill="white"/>
<path d="M46.6766 102.98C46.6766 70.6336 46.7527 39.0751 46.5774 7.51992C46.5575 3.81958 47.5301 2.98518 51.1094 3.02476C68.1423 3.21274 85.1819 3.11051 102.238 3.11051C101.308 10.3133 101.001 10.5936 94.1996 10.5969C82.5123 10.5969 70.8152 10.8212 59.1346 10.4815C54.8706 10.3595 54.209 11.748 54.2454 15.6033C54.4405 37.2909 53.9509 58.9884 54.5332 80.6628C54.7647 89.1617 52.158 95.9556 46.6766 102.98Z" fill="white"/>
<path d="M175.96 102.98C175.96 70.6336 175.884 39.0751 176.06 7.51992C176.079 3.81958 175.107 2.98518 171.531 3.02476C154.498 3.21274 137.458 3.11051 120.399 3.11051C121.328 10.3133 121.639 10.5936 128.437 10.5969C140.125 10.5969 151.822 10.8212 163.502 10.4815C167.766 10.3595 168.428 11.748 168.392 15.6033C168.196 37.2909 168.686 58.9884 168.104 80.6628C167.876 89.1617 170.496 95.9556 175.96 102.98Z" fill="white"/>
<path d="M168.213 98.3695C164.336 98.3695 160.605 98.3431 156.86 98.3893C155.973 98.3893 155.672 97.921 155.292 97.268C146.767 82.5622 138.166 67.8895 129.691 53.1508C128.768 51.5446 127.835 50.8817 125.95 50.984C123.803 51.0994 121.98 51.0433 119.85 50.984C119.176 50.5744 118.543 50.1005 117.961 49.5691C116.28 48.1147 114.256 47.7321 112.185 48.8765C110.114 50.021 109.251 51.7656 109.453 54.0313C109.654 56.297 111.15 57.5701 113.168 58.256C114.964 58.8596 116.717 58.5858 118.001 57.1314C118.464 56.5923 119.025 56.1448 119.655 55.8122C120.945 55.8122 122.238 55.8122 123.525 55.776C124.812 55.7397 125.665 56.1354 126.31 57.2502C134.157 70.8742 142.023 84.485 150.085 98.4454C145.887 98.4454 141.957 98.485 138.027 98.4157C137.233 98.4157 137.065 97.456 136.704 96.8656C131.183 87.3806 125.639 77.9055 120.204 68.3743C119.456 67.0551 118.666 66.6791 117.227 66.6461C114.845 66.5934 112.337 66.5142 107.901 66.6198C107.474 66.3114 107.063 65.9811 106.671 65.6304C104.987 64.1759 102.966 63.7934 100.895 64.9378C98.824 66.0822 97.9607 67.8235 98.1624 70.0925C98.3642 72.3616 99.8594 73.6313 101.877 74.314C103.674 74.9208 105.427 74.6438 106.707 73.1926C107.179 72.6401 107.756 72.1862 108.404 71.857C108.702 71.857 108.999 71.8372 109.297 71.8207C114.537 71.5766 117.392 72.8496 119.717 77.5625C123.184 84.5938 127.468 91.2162 131.461 98.109C130.627 98.7125 129.774 98.5047 128.98 98.508C105.147 98.5542 81.3125 98.5927 57.4772 98.6235C55.145 98.6235 55.1417 98.6235 56.2334 96.7271C74.4032 65.317 92.5741 33.9092 110.746 2.50349C111.031 2.01539 111.351 1.54707 111.791 0.854492L131.411 34.8238C127.442 34.8238 123.862 34.8964 120.286 34.7842C118.877 34.7414 118.143 33.5442 117.498 32.4031C115.695 29.204 113.859 26.0149 111.828 22.4003C109.843 25.7774 108.067 28.7753 106.317 31.7963C95.9163 49.7637 85.5181 67.7345 75.1221 85.7085C73.9643 87.7137 73.9577 87.7137 76.1741 87.7302C85.7177 87.7929 95.2646 87.6444 104.812 87.7863C105.316 88.0964 105.77 88.4812 106.158 88.9274C107.435 90.3818 109.191 90.6555 110.988 90.052C113.006 89.3693 114.501 88.0963 114.703 85.8272C114.904 83.5582 113.991 81.7839 111.97 80.6758C109.949 79.5677 107.878 79.914 106.194 81.3684C105.726 81.7846 105.234 82.1723 104.719 82.5293C98.2286 82.5293 91.7416 82.5293 85.2579 82.5293H82.6578C92.4396 65.6633 102.033 49.0975 111.805 32.2448C113.035 34.3555 114.22 36.1166 115.113 38.0163C115.903 39.6653 117.028 40.1468 118.804 40.1072C123.436 39.9918 128.067 40.0907 132.675 40.0478C133.929 40.0478 134.815 40.3941 135.467 41.5319C146.258 60.2425 157.064 78.9465 167.885 97.644C167.995 97.8122 168.054 98.0001 168.213 98.3695Z" fill="#F7A41C"/>
<path d="M41.053 158.466L40.7685 159.785C40.561 159.579 40.281 159.461 39.9878 159.456C39.3155 159.504 38.6686 159.731 38.1154 160.115C37.8028 160.299 37.5296 160.542 37.3116 160.831C37.1492 161.031 37.0542 161.277 37.0403 161.533C37.0403 161.949 37.4241 162.219 38.1849 162.348L39.6537 162.592C39.7658 162.607 39.8764 162.631 39.9845 162.665C40.0825 162.692 40.1769 162.731 40.2656 162.78C40.3427 162.828 40.4091 162.89 40.4608 162.965C40.5128 163.051 40.538 163.151 40.5336 163.252C40.5339 163.493 40.482 163.731 40.3814 163.951C40.2802 164.179 40.1465 164.391 39.9845 164.581C39.8194 164.782 39.6331 164.964 39.4287 165.125C39.2306 165.282 39.0217 165.425 38.8035 165.554C38.428 165.764 38.0365 165.945 37.6325 166.095C37.1738 166.268 36.6687 166.431 36.1174 166.583C35.565 166.734 34.9794 166.87 34.3542 166.995C33.729 167.12 33.0972 167.222 32.4521 167.325C31.8071 167.427 31.162 167.483 30.5169 167.532C29.8719 167.582 29.2433 167.605 28.638 167.605C27.0461 167.617 25.4563 167.487 23.8877 167.216C22.6041 166.983 21.345 166.632 20.1265 166.167C19.8188 165.969 19.5178 165.775 19.2267 165.58C18.9356 165.385 18.6379 165.188 18.3401 164.98C18.0424 164.772 17.7381 164.554 17.4205 164.32C17.1029 164.086 16.7589 163.839 16.4281 163.568L16.534 163.417C17.4752 163.899 18.4426 164.328 19.4318 164.703C20.3909 165.066 21.372 165.369 22.3693 165.61C23.374 165.852 24.3926 166.034 25.4193 166.154C26.4879 166.274 27.5626 166.334 28.638 166.332C29.4253 166.332 30.2556 166.296 31.1223 166.223C31.989 166.151 32.8458 166.052 33.6893 165.926C34.5329 165.801 35.3433 165.649 36.1108 165.471C36.8039 165.316 37.4867 165.118 38.1551 164.878C38.3803 164.798 38.6011 164.706 38.8167 164.604C39.003 164.515 39.1831 164.413 39.3559 164.3C39.4893 164.213 39.6125 164.112 39.7231 163.997C39.7995 163.922 39.8534 163.827 39.8786 163.723C39.8746 163.684 39.8622 163.646 39.8422 163.612C39.8222 163.578 39.7952 163.548 39.7628 163.525C39.6528 163.447 39.5236 163.401 39.389 163.39L38.0195 163.219C36.8992 163.085 36.3379 162.678 36.3357 161.998C36.3357 161.415 36.8386 160.63 37.8442 159.65C38.7263 158.771 39.5875 158.331 40.4277 158.331C40.6414 158.347 40.8517 158.393 41.053 158.466V158.466ZM32.0618 168.743L31.377 169.699L30.3846 169.013L29.7793 169.854L28.7339 169.135L29.4187 168.169L30.4375 168.855L31.033 168.024L32.0618 168.743Z" fill="white"/>
<path d="M46.5013 163.767C46.5008 163.805 46.492 163.844 46.4754 163.879C46.4589 163.914 46.435 163.946 46.4053 163.971C46.3307 164.032 46.2455 164.079 46.1539 164.11C46.0412 164.149 45.9248 164.176 45.8066 164.192C45.6805 164.209 45.5534 164.218 45.4262 164.218H45.1218C45.0213 165.301 44.6102 166.331 43.9376 167.187C43.6787 167.533 43.3425 167.815 42.9555 168.01C42.5685 168.204 42.1414 168.306 41.708 168.308C40.9913 168.25 40.2846 168.104 39.6041 167.873L39.7695 167.711C39.9676 167.742 40.1677 167.76 40.3682 167.764C41.3088 167.754 42.2198 167.434 42.9584 166.853C43.7425 166.285 44.328 165.486 44.6322 164.568L43.8879 163.46L44.4073 162.503C44.8175 162.919 45.1549 163.127 45.3997 163.127H45.8099C45.9716 163.124 46.132 163.157 46.2796 163.222C46.3419 163.241 46.3964 163.28 46.4351 163.332C46.4738 163.384 46.4947 163.448 46.4947 163.513L46.5013 163.767Z" fill="white"/>
<path d="M58.4431 163.694C58.4413 163.773 58.4108 163.85 58.3571 163.908C58.2892 163.976 58.2097 164.031 58.1222 164.07C58.0154 164.116 57.9047 164.152 57.7914 164.179C57.6564 164.206 57.519 164.219 57.3813 164.218H50.1995C50.1069 164.41 50.0209 164.611 49.9415 164.815C49.8621 165.02 49.7728 165.257 49.6802 165.528H49.6339C49.5981 165.481 49.5681 165.43 49.5446 165.376C49.5161 165.306 49.4961 165.233 49.485 165.158C49.5247 165 49.5677 164.848 49.6173 164.697C49.6718 164.534 49.7359 164.374 49.8092 164.218H49.5446C49.1551 164.238 48.7686 164.143 48.4331 163.945C48.1766 163.779 47.9932 163.522 47.9203 163.226H47.8806C47.7485 163.436 47.5779 163.619 47.3778 163.766C47.1973 163.896 46.9974 163.996 46.7857 164.063C46.571 164.132 46.3489 164.175 46.1241 164.192C45.8925 164.192 45.661 164.218 45.4261 164.218L45.8164 163.127C46.0455 163.128 46.2744 163.112 46.5012 163.081C46.7037 163.051 46.9003 162.99 47.0834 162.899C47.2904 162.797 47.4819 162.666 47.6524 162.51C47.8779 162.306 48.088 162.085 48.2809 161.85L48.4 161.883C48.5169 162.71 49.0098 163.123 49.8787 163.123C50.0291 163.123 50.1794 163.113 50.3286 163.094C50.6722 162.565 51.0595 162.065 51.4864 161.6C51.8831 161.167 52.317 160.77 52.7831 160.412C53.13 160.153 53.5037 159.932 53.8979 159.753C54.171 159.611 54.4707 159.528 54.7779 159.509C55.004 159.509 55.2282 159.55 55.4395 159.631C55.6422 159.705 55.8345 159.805 56.0117 159.928C56.1627 160.029 56.2967 160.154 56.4087 160.297C56.4936 160.395 56.5446 160.518 56.5543 160.647C56.5546 160.869 56.5291 161.09 56.4782 161.306C56.3891 161.675 56.2197 162.019 55.982 162.315C55.8794 162.446 55.769 162.571 55.6512 162.688C55.5001 162.82 55.3321 162.931 55.1516 163.018C54.9256 163.136 54.6912 163.237 54.4504 163.321V163.367C54.9598 163.318 55.4428 163.268 55.8496 163.212C56.2259 163.163 56.6048 163.136 56.9843 163.133H57.7286C57.8933 163.131 58.0557 163.173 58.1983 163.255C58.2576 163.277 58.3094 163.316 58.3475 163.366C58.3856 163.416 58.4084 163.476 58.4134 163.539L58.4431 163.694ZM54.4239 160.696C54.1855 160.708 53.9512 160.762 53.7325 160.858C53.4192 160.985 53.118 161.141 52.8327 161.323C52.4823 161.547 52.1505 161.798 51.8403 162.075C51.4885 162.385 51.1642 162.725 50.8711 163.09C51.268 163.064 51.6253 163.034 51.9429 162.995C52.2604 162.955 52.5482 162.912 52.8129 162.863C53.0775 162.813 53.3223 162.761 53.5473 162.698C53.7722 162.635 53.9939 162.566 54.2089 162.493C54.6143 162.365 55.0047 162.194 55.3733 161.982C55.5666 161.879 55.7384 161.741 55.8794 161.573C55.7949 161.456 55.7009 161.346 55.5982 161.244C55.4866 161.137 55.3647 161.042 55.2343 160.96C55.1072 160.876 54.9706 160.808 54.8275 160.755C54.6984 160.713 54.563 160.693 54.4272 160.696H54.4239Z" fill="white"/>
<path d="M62.9586 162.981C62.9554 163.06 62.942 163.137 62.9189 163.212C62.8882 163.316 62.8518 163.419 62.8097 163.519C62.7634 163.631 62.7138 163.743 62.6575 163.849C62.6037 163.962 62.544 164.072 62.4789 164.179C62.1857 164.086 61.8984 163.976 61.6188 163.849C61.3178 163.71 61.0201 163.568 60.7257 163.42C60.5458 163.433 60.3709 163.485 60.2129 163.572C60.0295 163.672 59.8394 163.759 59.6439 163.832C59.364 163.941 59.0751 164.025 58.7805 164.083C58.3158 164.168 57.8437 164.205 57.3713 164.195L57.7617 163.103C58.0866 163.11 58.4114 163.083 58.7309 163.024C58.9395 162.985 59.1442 162.927 59.3429 162.853C59.4817 162.8 59.6166 162.737 59.7465 162.665C59.8624 162.599 59.9889 162.555 60.1203 162.533C60.0277 162.238 59.8071 161.01 59.4587 158.849C59.1103 156.688 58.9338 155.478 58.9294 155.221C58.9277 154.998 58.9761 154.777 59.0711 154.575C59.1662 154.373 59.3054 154.195 59.4785 154.054L60.2493 155.221C60.0741 155.356 59.9339 155.53 59.8406 155.73C59.7474 155.93 59.7037 156.149 59.7134 156.369C59.7234 156.874 59.7676 157.377 59.8457 157.876C59.9317 158.503 60.0508 159.271 60.203 160.185C60.244 160.445 60.3003 160.703 60.3717 160.956C60.416 161.129 60.4948 161.29 60.6033 161.431C60.69 161.52 60.7905 161.595 60.901 161.652C61.0303 161.719 61.164 161.778 61.3013 161.827C61.4501 161.883 61.6023 161.936 61.7677 161.992C61.9331 162.048 62.0985 162.104 62.2573 162.17C62.4735 162.245 62.6693 162.37 62.8296 162.533C62.9259 162.662 62.9718 162.821 62.9586 162.981V162.981Z" fill="white"/>
<path d="M65.0592 161.959C65.0092 162.735 64.8338 163.498 64.5398 164.218L64.3446 164.165C64.4043 163.838 64.4429 163.508 64.4604 163.176C64.4561 162.675 64.4174 162.175 64.3446 161.679L63.8451 158.173C63.7888 157.872 63.7524 157.568 63.736 157.263C63.8037 156.586 64.0303 155.934 64.3976 155.36C64.3949 156.126 64.4402 156.891 64.5332 157.652L64.9335 160.62C65.0035 161.063 65.0455 161.511 65.0592 161.959V161.959Z" fill="white"/>
<path d="M77.0177 163.704C77.0171 163.744 77.0079 163.784 76.9908 163.82C76.9737 163.857 76.949 163.889 76.9185 163.915C76.8454 163.986 76.7587 164.041 76.6637 164.077C76.5577 164.124 76.4468 164.159 76.3329 164.182C76.2097 164.206 76.0846 164.218 75.9591 164.218C75.7493 164.223 75.5399 164.197 75.3372 164.143C75.1684 164.088 75.019 163.986 74.9072 163.849C74.7699 163.669 74.6658 163.465 74.5995 163.249C74.4957 162.917 74.4106 162.581 74.3448 162.24L73.7593 162.748C73.6346 162.857 73.4896 162.941 73.3326 162.995C73.1868 163.045 73.0336 163.071 72.8794 163.071C72.5092 163.079 72.1405 163.021 71.791 162.899C71.4801 162.787 71.3213 162.652 71.3213 162.503C71.4273 162.157 71.575 161.825 71.7613 161.514C72.0678 160.916 72.7691 160.366 73.8652 159.865V159.71C73.891 159.281 74.0191 158.863 74.239 158.493H74.2753L74.8939 161.771C74.9535 162.071 75.0097 162.316 75.066 162.497C75.1046 162.655 75.1858 162.8 75.3008 162.916C75.4091 163.018 75.5466 163.085 75.6945 163.107C75.9133 163.141 76.1346 163.157 76.3561 163.153C76.5209 163.148 76.6841 163.187 76.8291 163.265C76.9614 163.341 77.0309 163.43 77.0309 163.532L77.0177 163.704ZM74.755 157.055L74.0934 157.969L73.058 157.355L72.4493 158.186L71.4338 157.527L72.0491 156.577L73.1175 157.237L73.7328 156.425L74.755 157.055ZM74.014 160.406C73.3023 160.596 72.6876 161.044 72.2905 161.663C72.7097 161.805 73.1514 161.87 73.5939 161.854C73.8249 161.85 74.0517 161.791 74.2555 161.682L74.014 160.406Z" fill="white"/>
<path d="M80.7326 163.766C80.7331 163.808 80.7238 163.849 80.7054 163.886C80.687 163.923 80.6601 163.956 80.6267 163.981C80.5456 164.041 80.4551 164.088 80.3588 164.119C80.2439 164.157 80.1252 164.182 80.0048 164.195C79.8897 164.21 79.7737 164.218 79.6575 164.218C79.3302 164.222 79.0131 164.104 78.7676 163.888C78.5186 163.677 78.3378 163.397 78.2483 163.084H78.2185C77.9832 163.461 77.6447 163.765 77.2426 163.957C76.8337 164.129 76.393 164.214 75.9492 164.205L76.3429 163.113C76.544 163.115 76.7447 163.095 76.9416 163.054C77.1363 163.011 77.3229 162.938 77.4941 162.836C77.6954 162.718 77.8801 162.574 78.0432 162.407C78.257 162.195 78.4508 161.963 78.6221 161.715L78.7379 161.751C78.7744 161.934 78.8241 162.113 78.8867 162.289C78.9385 162.447 79.0193 162.595 79.1249 162.724C79.2289 162.848 79.3587 162.948 79.5053 163.018C79.6792 163.094 79.8678 163.131 80.0578 163.126C80.1281 163.127 80.1981 163.135 80.2662 163.153C80.3434 163.17 80.4179 163.198 80.4878 163.235C80.5556 163.266 80.6172 163.308 80.6698 163.361C80.6926 163.381 80.7108 163.406 80.7234 163.434C80.7359 163.461 80.7424 163.492 80.7425 163.522L80.7326 163.766ZM79.8924 165.996L79.2473 166.985L78.2284 166.325L77.6628 167.157L76.6373 166.441L77.2559 165.527L78.2814 166.187L78.8768 165.336L79.8924 165.996Z" fill="white"/>
<path d="M86.6639 163.74C86.6644 163.78 86.6557 163.82 86.6386 163.857C86.6214 163.893 86.5961 163.926 86.5646 163.951C86.4899 164.016 86.4035 164.066 86.3099 164.099C86.2035 164.143 86.0925 164.174 85.9791 164.192C85.8552 164.209 85.7303 164.217 85.6053 164.218C85.0955 164.226 84.587 164.165 84.0935 164.037C83.6511 163.916 83.2303 163.727 82.8464 163.476C82.61 163.634 82.3544 163.762 82.0856 163.855C81.8143 163.953 81.5355 164.029 81.252 164.083C80.9786 164.135 80.7025 164.171 80.425 164.192C80.1537 164.192 79.9023 164.218 79.6674 164.218L80.0578 163.126H80.5275C80.6948 163.121 80.8616 163.106 81.027 163.08C81.1822 163.058 81.3358 163.026 81.4868 162.985C81.616 162.954 81.739 162.901 81.8507 162.83C81.8183 162.753 81.7918 162.673 81.7713 162.592C81.7545 162.534 81.7445 162.474 81.7415 162.414C81.7575 161.933 81.9101 161.466 82.1815 161.068C82.8916 159.93 83.5279 159.36 84.0902 159.36C84.3648 159.36 84.603 159.551 84.8048 159.937C84.8981 160.116 84.9734 160.304 85.0297 160.498C85.0831 160.689 85.1098 160.887 85.1091 161.085C85.1091 161.58 84.8345 162.163 84.2854 162.836C84.5191 162.953 84.7707 163.03 85.0297 163.064C85.3505 163.112 85.6745 163.136 85.999 163.136C86.083 163.135 86.1668 163.148 86.2471 163.173C86.3222 163.193 86.3945 163.223 86.4621 163.262C86.5185 163.293 86.5698 163.333 86.6142 163.38C86.6321 163.396 86.6465 163.415 86.6568 163.437C86.667 163.459 86.6728 163.482 86.6738 163.506L86.6639 163.74ZM85.1157 156.504L84.5004 157.526L83.4749 156.893L82.8762 157.724L81.811 157.065L82.4164 156.128L83.5411 156.758L84.0803 155.864L85.1157 156.504ZM84.5765 161.573C84.5566 161.338 84.4529 161.117 84.2843 160.952C84.1156 160.786 83.8931 160.686 83.6569 160.669C83.3478 160.683 83.0487 160.782 82.7935 160.956C82.5024 161.151 82.3535 161.319 82.3535 161.464C82.3535 161.794 82.6347 162.078 83.1971 162.348C84.1167 162.078 84.5765 161.819 84.5765 161.573Z" fill="white"/>
<path d="M90.3721 163.766C90.372 163.808 90.3621 163.849 90.3431 163.886C90.3242 163.924 90.2967 163.956 90.263 163.981C90.1818 164.041 90.0913 164.088 89.995 164.119C89.8802 164.157 89.7615 164.183 89.6411 164.195C89.5259 164.21 89.4099 164.218 89.2937 164.218C88.9664 164.222 88.6494 164.104 88.4039 163.888C88.1548 163.677 87.9741 163.397 87.8845 163.084H87.8548C87.615 163.464 87.2705 163.767 86.8623 163.957C86.4534 164.129 86.0127 164.214 85.5689 164.205L85.9626 163.113C86.1648 163.114 86.3666 163.094 86.5646 163.054C86.759 163.01 86.9453 162.937 87.1171 162.836C87.3168 162.717 87.5003 162.573 87.6629 162.407C87.8749 162.191 88.0654 161.955 88.2319 161.702L88.3476 161.738C88.3841 161.92 88.4339 162.1 88.4965 162.276C88.5496 162.433 88.6303 162.581 88.7347 162.711C88.8387 162.835 88.9685 162.935 89.1151 163.004C89.29 163.081 89.4798 163.118 89.6708 163.113C89.74 163.114 89.8089 163.122 89.8759 163.14C89.954 163.158 90.0296 163.185 90.1009 163.222C90.1677 163.252 90.2282 163.295 90.2795 163.347C90.3028 163.368 90.3216 163.392 90.3347 163.42C90.3478 163.448 90.3549 163.478 90.3556 163.509L90.3721 163.766ZM89.5385 165.996L88.8769 166.985L87.8581 166.325L87.299 167.157L86.2801 166.454L86.8987 165.541L87.9242 166.2L88.523 165.349L89.5385 165.996Z" fill="white"/>
<path d="M94.0804 163.766C94.0803 163.808 94.0703 163.849 94.0514 163.886C94.0324 163.924 94.005 163.956 93.9712 163.981C93.8901 164.041 93.7996 164.088 93.7033 164.119C93.5885 164.157 93.4698 164.183 93.3493 164.195C93.2397 164.21 93.1292 164.217 93.0185 164.218C92.6912 164.222 92.3742 164.104 92.1287 163.888C91.8796 163.677 91.6988 163.397 91.6093 163.084H91.5795C91.3443 163.461 91.0057 163.765 90.6037 163.957C90.1947 164.129 89.754 164.214 89.3102 164.205L89.7039 163.113C89.905 163.115 90.1057 163.095 90.3026 163.054C90.4974 163.011 90.6839 162.938 90.8551 162.836C91.0565 162.718 91.2411 162.574 91.4042 162.407C91.6162 162.191 91.8067 161.955 91.9732 161.702L92.089 161.738C92.1255 161.92 92.1752 162.1 92.2378 162.276C92.2896 162.434 92.3704 162.582 92.476 162.711C92.58 162.835 92.7098 162.935 92.8564 163.004C93.0313 163.081 93.2211 163.118 93.4122 163.113C93.4814 163.114 93.5502 163.122 93.6173 163.14C93.6954 163.158 93.7709 163.185 93.8422 163.222C93.909 163.252 93.9696 163.295 94.0209 163.347C94.0441 163.368 94.0629 163.392 94.076 163.42C94.0891 163.448 94.0962 163.478 94.0969 163.509L94.0804 163.766ZM92.6315 166.167L91.9368 167.157L90.9444 166.497L91.606 165.531L92.6315 166.167Z" fill="white"/>
<path d="M93.3924 163.127C93.6652 163.129 93.937 163.092 94.1995 163.018C94.4325 162.957 94.6485 162.844 94.8313 162.688C95.1644 162.396 95.3309 161.8 95.3309 160.9C95.322 159.759 95.1912 158.621 94.9405 157.507C94.8082 156.89 94.7123 156.418 94.6461 156.082C94.601 155.884 94.5678 155.684 94.5469 155.482C94.5948 155.049 94.7645 154.639 95.0364 154.298L95.88 155.429C95.5934 155.682 95.4176 156.038 95.3904 156.418C95.3904 156.491 95.4466 156.916 95.5657 157.701C95.6319 158.097 95.6815 158.476 95.7212 158.833C95.7604 159.182 95.7802 159.533 95.7807 159.885C95.7798 160.59 95.7211 161.293 95.6054 161.989C96.0465 161.586 96.4423 161.23 96.793 160.92C97.11 160.644 97.4412 160.384 97.7854 160.142C98.0458 159.954 98.3265 159.796 98.6223 159.67C98.8656 159.564 99.1277 159.508 99.3931 159.505C99.6174 159.505 99.8404 159.538 100.055 159.604C100.258 159.667 100.454 159.754 100.637 159.862C100.794 159.954 100.934 160.074 101.05 160.214C101.147 160.321 101.203 160.457 101.209 160.6C101.207 160.756 101.191 160.912 101.163 161.065C101.134 161.24 101.092 161.412 101.037 161.58C100.982 161.749 100.915 161.915 100.835 162.075C100.764 162.224 100.672 162.363 100.561 162.487C100.395 162.661 100.204 162.81 99.9952 162.929C99.7315 163.08 99.4561 163.21 99.1715 163.318L99.1913 163.354C99.7007 163.305 100.164 163.255 100.581 163.199C100.941 163.15 101.305 163.124 101.669 163.12H102.284C102.362 163.12 102.439 163.132 102.513 163.156C102.591 163.178 102.666 163.209 102.738 163.249C102.801 163.284 102.858 163.33 102.906 163.384C102.944 163.428 102.966 163.484 102.969 163.542V163.733C102.969 163.772 102.96 163.811 102.944 163.847C102.928 163.883 102.905 163.915 102.876 163.941C102.803 164.007 102.718 164.057 102.625 164.09C102.518 164.131 102.407 164.16 102.294 164.179C102.168 164.201 102.039 164.212 101.911 164.212H93.002L93.3924 163.127ZM99.1152 160.706C98.8639 160.725 98.6189 160.793 98.3941 160.907C98.0513 161.062 97.7197 161.241 97.4017 161.441C97.0444 161.662 96.6772 161.913 96.3001 162.2C95.923 162.487 95.579 162.78 95.2581 163.08C95.5591 163.061 95.8634 163.031 96.1744 162.991C96.4854 162.952 96.7864 162.899 97.0841 162.846C97.3818 162.793 97.6663 162.734 97.9409 162.668L98.6918 162.493C98.9096 162.442 99.123 162.373 99.3302 162.289C99.5157 162.216 99.6968 162.132 99.8728 162.038C100.014 161.961 100.151 161.875 100.283 161.781C100.371 161.721 100.45 161.648 100.515 161.563C100.464 161.461 100.393 161.37 100.306 161.296C100.195 161.192 100.074 161.098 99.9455 161.016C99.8104 160.929 99.6676 160.855 99.5188 160.795C99.3966 160.741 99.2653 160.711 99.1318 160.706H99.1152Z" fill="white"/>
<path d="M106.661 163.766C106.661 163.808 106.651 163.849 106.632 163.887C106.613 163.924 106.585 163.956 106.552 163.981C106.47 164.041 106.38 164.088 106.284 164.119C106.17 164.157 106.052 164.183 105.933 164.195C105.823 164.21 105.713 164.217 105.602 164.218C105.274 164.223 104.955 164.105 104.709 163.888C104.461 163.677 104.282 163.397 104.193 163.084H104.163C103.922 163.463 103.578 163.766 103.171 163.958C102.763 164.13 102.323 164.214 101.881 164.205L102.271 163.113C102.473 163.115 102.675 163.095 102.873 163.054C103.068 163.011 103.254 162.938 103.426 162.836C103.626 162.717 103.81 162.573 103.975 162.408C104.185 162.191 104.375 161.955 104.54 161.702L104.659 161.738C104.693 161.921 104.742 162.101 104.805 162.276C104.859 162.433 104.94 162.58 105.043 162.711C105.148 162.836 105.279 162.936 105.427 163.005C105.601 163.081 105.789 163.119 105.979 163.113C106.049 163.114 106.117 163.123 106.184 163.14C106.263 163.158 106.338 163.186 106.409 163.222C106.477 163.253 106.539 163.295 106.591 163.348C106.614 163.368 106.632 163.393 106.644 163.421C106.657 163.449 106.663 163.479 106.664 163.509L106.661 163.766ZM105.936 159.179L105.275 160.129L104.256 159.469L103.641 160.3L102.691 159.677L103.297 158.687L104.355 159.347L104.901 158.5L105.936 159.179Z" fill="white"/>
<path d="M108.616 161.095C108.629 161.623 108.572 162.151 108.447 162.665C108.357 163.025 108.17 163.354 107.908 163.618C107.643 163.859 107.317 164.023 106.965 164.093C106.511 164.182 106.049 164.224 105.586 164.218L105.976 163.127C106.118 163.127 106.274 163.127 106.439 163.127C106.605 163.127 106.77 163.1 106.929 163.08C107.083 163.061 107.236 163.029 107.385 162.985C107.513 162.95 107.635 162.895 107.746 162.823C107.871 162.754 107.977 162.653 108.052 162.531C108.127 162.409 108.17 162.27 108.176 162.127C108.176 162.025 108.136 161.712 108.053 161.184C107.971 160.656 107.852 159.911 107.686 158.948C107.472 157.889 107.315 156.819 107.217 155.742C107.256 155.006 107.449 154.524 107.795 154.298L108.54 155.426C108.348 155.54 108.191 155.704 108.084 155.899C107.977 156.095 107.924 156.315 107.931 156.537C107.945 156.788 107.975 157.038 108.02 157.286C108.08 157.659 108.163 158.166 108.275 158.803C108.388 159.439 108.47 159.951 108.53 160.33C108.573 160.583 108.602 160.839 108.616 161.095V161.095Z" fill="white"/>
<path d="M111.434 161.959C111.386 162.735 111.21 163.498 110.915 164.218L110.72 164.165C110.782 163.839 110.821 163.508 110.839 163.176C110.835 162.675 110.795 162.174 110.72 161.679L110.22 158.173C110.173 157.87 110.144 157.565 110.134 157.259C110.203 156.582 110.43 155.931 110.796 155.356C110.796 156.122 110.842 156.888 110.931 157.649L111.335 160.617C111.395 161.062 111.428 161.51 111.434 161.959V161.959Z" fill="white"/>
<path d="M121.957 163.72C121.954 163.762 121.941 163.802 121.92 163.837C121.898 163.872 121.867 163.901 121.831 163.922C121.737 163.986 121.635 164.038 121.527 164.077C121.412 164.123 121.292 164.159 121.17 164.182C121.075 164.203 120.979 164.215 120.882 164.218C120.581 164.222 120.28 164.201 119.982 164.156C119.746 164.122 119.521 164.037 119.321 163.908C119.131 163.775 118.981 163.594 118.884 163.384C118.765 163.104 118.695 162.807 118.675 162.503C118.642 162.197 118.589 161.755 118.523 161.184C118.457 160.614 118.365 159.865 118.252 159.001C118.058 157.497 117.961 156.666 117.961 156.508C117.961 156.267 118.196 155.884 118.666 155.363L119.291 161.91C119.303 162.141 119.366 162.366 119.476 162.569C119.572 162.726 119.71 162.854 119.873 162.939C120.061 163.033 120.265 163.09 120.475 163.107C120.71 163.13 120.978 163.143 121.276 163.143C121.35 163.143 121.425 163.152 121.497 163.17C121.574 163.186 121.65 163.211 121.722 163.242C121.786 163.269 121.845 163.308 121.894 163.358C121.936 163.402 121.96 163.461 121.96 163.523L121.957 163.72Z" fill="white"/>
<path d="M125.659 163.766C125.659 163.808 125.649 163.849 125.631 163.886C125.612 163.923 125.586 163.956 125.553 163.981C125.471 164.042 125.379 164.089 125.282 164.119C125.169 164.155 125.052 164.178 124.934 164.189C124.825 164.203 124.714 164.211 124.603 164.212C124.276 164.215 123.959 164.098 123.714 163.882C123.465 163.671 123.284 163.391 123.194 163.077H123.164C122.924 163.457 122.58 163.761 122.172 163.951C121.764 164.123 121.325 164.208 120.882 164.199L121.272 163.107C121.475 163.108 121.676 163.088 121.874 163.047C122.069 163.004 122.255 162.931 122.427 162.83C122.628 162.711 122.812 162.567 122.976 162.401C123.187 162.184 123.376 161.948 123.542 161.695L123.661 161.732C123.698 161.914 123.746 162.093 123.806 162.269C123.861 162.427 123.942 162.575 124.048 162.704C124.151 162.829 124.281 162.93 124.428 162.998C124.602 163.075 124.791 163.112 124.981 163.107C125.05 163.107 125.119 163.116 125.186 163.133C125.264 163.15 125.34 163.178 125.411 163.216C125.478 163.246 125.54 163.289 125.593 163.341C125.615 163.361 125.634 163.386 125.646 163.414C125.659 163.442 125.665 163.472 125.665 163.503L125.659 163.766ZM124.819 165.996L124.173 166.985L123.155 166.326L122.589 167.157L121.57 166.454L122.185 165.541L123.214 166.2L123.81 165.35L124.819 165.996Z" fill="white"/>
<path d="M133.995 161.464L133.664 162.454H133.254C133.125 162.454 132.976 162.454 132.804 162.454L132.238 162.421L131.689 162.388C131.534 162.388 131.401 162.388 131.299 162.388C131.098 162.389 130.897 162.401 130.697 162.424C130.484 162.448 130.274 162.483 130.065 162.529C129.858 162.573 129.654 162.628 129.453 162.694C129.266 162.738 129.082 162.796 128.904 162.869L127.204 163.717C127.001 163.82 126.79 163.904 126.572 163.967C126.348 164.03 126.12 164.079 125.89 164.116C125.662 164.152 125.437 164.175 125.229 164.188C125.02 164.202 124.799 164.205 124.603 164.205L124.994 163.113C125.182 163.113 125.378 163.113 125.576 163.113C125.774 163.113 125.986 163.084 126.208 163.054C126.429 163.024 126.664 162.978 126.916 162.919C127.167 162.859 127.442 162.777 127.733 162.675C128.811 162.301 129.441 162.093 129.622 162.051C129.468 162.011 129.316 161.962 129.169 161.903L128.322 161.573C127.868 161.366 127.38 161.247 126.883 161.22C126.474 161.239 126.07 161.309 125.679 161.428H125.622C125.953 160.465 126.542 159.983 127.422 159.983C127.819 159.983 128.539 160.231 129.582 160.725C130.727 161.231 131.969 161.477 133.221 161.448L133.995 161.464ZM130.492 165.148L129.886 166.137L128.894 165.55L129.509 164.561L130.492 165.148Z" fill="white"/>
<path d="M140.227 163.776C140.228 163.816 140.22 163.855 140.204 163.892C140.188 163.928 140.164 163.961 140.135 163.987C140.064 164.049 139.98 164.095 139.89 164.122C139.782 164.158 139.671 164.182 139.559 164.195C139.428 164.211 139.297 164.219 139.165 164.218H138.662C138.436 165.15 138.063 166.04 137.558 166.856C136.795 167.956 135.9 168.505 134.875 168.505C134.316 168.505 133.552 168.255 132.586 167.747L132.751 167.585C133.12 167.741 133.515 167.827 133.915 167.839C134.93 167.823 135.904 167.441 136.658 166.764C137.471 166.119 138.033 165.212 138.249 164.198H137.918C137.655 164.199 137.392 164.187 137.131 164.162C136.917 164.141 136.708 164.09 136.509 164.01C136.285 163.929 136.08 163.802 135.907 163.638C135.842 163.576 135.79 163.501 135.755 163.419C135.719 163.337 135.7 163.249 135.698 163.159C135.701 163.04 135.717 162.922 135.745 162.806C135.782 162.666 135.826 162.527 135.877 162.391C135.933 162.249 135.999 162.101 136.076 161.949C136.152 161.797 136.228 161.655 136.314 161.517C136.434 161.298 136.588 161.1 136.77 160.93C136.893 160.814 137.055 160.749 137.223 160.749C137.601 160.749 137.938 160.983 138.216 161.454C138.513 161.955 138.678 162.522 138.696 163.103H139.536C139.699 163.1 139.862 163.127 140.015 163.182C140.076 163.202 140.129 163.241 140.166 163.294C140.203 163.346 140.222 163.409 140.221 163.473L140.227 163.776ZM137.998 163.116C137.936 162.806 137.785 162.52 137.564 162.292C137.427 162.144 137.24 162.051 137.038 162.031C136.9 162.037 136.765 162.079 136.648 162.153C136.592 162.191 136.541 162.236 136.499 162.289C136.46 162.336 136.439 162.396 136.439 162.457C136.439 162.648 136.602 162.81 136.919 162.945C137.064 163.006 137.215 163.051 137.369 163.08C137.577 163.111 137.787 163.127 137.998 163.126V163.116Z" fill="white"/>
<path d="M142.182 161.095C142.196 161.624 142.138 162.152 142.01 162.665C141.922 163.025 141.737 163.355 141.474 163.618C141.209 163.86 140.881 164.024 140.528 164.093C140.075 164.182 139.614 164.224 139.152 164.218L139.542 163.127C139.685 163.127 139.84 163.127 140.006 163.127C140.171 163.127 140.336 163.1 140.495 163.08C140.65 163.061 140.802 163.029 140.952 162.985C141.079 162.949 141.201 162.894 141.312 162.823C141.438 162.754 141.543 162.653 141.619 162.531C141.694 162.409 141.736 162.27 141.742 162.127C141.742 162.025 141.703 161.712 141.62 161.184C141.537 160.656 141.418 159.911 141.253 158.948C141.038 157.889 140.881 156.819 140.783 155.742C140.823 155.006 141.016 154.524 141.362 154.298L142.106 155.426C141.915 155.54 141.758 155.704 141.651 155.899C141.544 156.095 141.491 156.315 141.497 156.537C141.511 156.788 141.541 157.038 141.587 157.286C141.646 157.659 141.729 158.166 141.842 158.803C141.954 159.439 142.037 159.951 142.096 160.33C142.14 160.583 142.169 160.839 142.182 161.095Z" fill="white"/>
<path d="M149.189 163.776C149.189 163.816 149.182 163.855 149.166 163.892C149.15 163.928 149.126 163.961 149.096 163.987C149.025 164.049 148.941 164.095 148.851 164.122C148.744 164.158 148.633 164.182 148.52 164.195C148.39 164.211 148.258 164.219 148.127 164.218H147.637C147.41 165.15 147.037 166.04 146.532 166.856C145.769 167.956 144.875 168.505 143.849 168.505C143.29 168.505 142.526 168.255 141.56 167.747L141.726 167.585C142.095 167.741 142.49 167.827 142.89 167.839C143.904 167.823 144.879 167.441 145.632 166.764C146.445 166.118 147.009 165.211 147.227 164.198H146.896C146.633 164.199 146.37 164.187 146.109 164.162C145.895 164.141 145.686 164.09 145.487 164.01C145.263 163.929 145.058 163.802 144.885 163.638C144.82 163.576 144.768 163.501 144.733 163.419C144.697 163.337 144.678 163.249 144.676 163.159C144.679 163.04 144.695 162.922 144.726 162.806C144.76 162.665 144.803 162.527 144.855 162.391C144.911 162.249 144.977 162.101 145.054 161.949C145.13 161.797 145.206 161.655 145.292 161.517C145.412 161.298 145.566 161.1 145.748 160.93C145.871 160.814 146.033 160.749 146.201 160.749C146.579 160.749 146.916 160.983 147.194 161.454C147.491 161.955 147.656 162.522 147.673 163.103H148.514C148.677 163.1 148.84 163.127 148.993 163.182C149.054 163.202 149.107 163.241 149.144 163.294C149.181 163.346 149.2 163.409 149.198 163.473L149.189 163.776ZM146.959 163.116C146.897 162.806 146.746 162.52 146.526 162.292C146.388 162.144 146.201 162.051 146 162.031C145.861 162.037 145.726 162.079 145.609 162.153C145.553 162.191 145.503 162.236 145.46 162.289C145.422 162.336 145.401 162.396 145.401 162.457C145.401 162.648 145.563 162.81 145.881 162.945C146.025 163.006 146.176 163.051 146.33 163.08C146.539 163.111 146.749 163.127 146.959 163.126V163.116Z" fill="white"/>
<path d="M152.897 163.766C152.897 163.808 152.887 163.849 152.868 163.887C152.849 163.924 152.821 163.956 152.788 163.981C152.707 164.042 152.617 164.089 152.52 164.119C152.406 164.158 152.288 164.183 152.169 164.195C152.054 164.21 151.938 164.218 151.822 164.218C151.494 164.222 151.177 164.104 150.932 163.888C150.683 163.677 150.502 163.397 150.413 163.084H150.383C150.142 163.463 149.798 163.766 149.39 163.958C148.983 164.13 148.543 164.214 148.1 164.205L148.491 163.113C148.693 163.115 148.895 163.095 149.093 163.054C149.287 163.011 149.474 162.938 149.645 162.836C149.845 162.717 150.03 162.573 150.194 162.408C150.405 162.191 150.595 161.955 150.76 161.702L150.879 161.738C150.914 161.921 150.963 162.1 151.025 162.276C151.079 162.434 151.161 162.581 151.266 162.711C151.369 162.836 151.499 162.936 151.646 163.005C151.82 163.081 152.009 163.119 152.199 163.113C152.268 163.114 152.337 163.122 152.404 163.14C152.482 163.157 152.558 163.185 152.629 163.222C152.697 163.253 152.758 163.295 152.811 163.348C152.833 163.368 152.851 163.393 152.864 163.421C152.876 163.449 152.883 163.479 152.884 163.509L152.897 163.766ZM151.273 159.35L150.611 160.3L149.652 159.683L150.247 158.727L151.273 159.35Z" fill="white"/>
<path d="M162.622 163.776C162.621 163.82 162.608 163.862 162.586 163.899C162.563 163.936 162.531 163.966 162.493 163.987C162.397 164.05 162.291 164.096 162.179 164.123C162.051 164.158 161.921 164.182 161.789 164.195C161.672 164.21 161.555 164.217 161.438 164.218C161.197 164.225 160.957 164.198 160.724 164.136C160.536 164.08 160.358 163.998 160.194 163.892C160.042 163.79 159.895 163.68 159.754 163.562C159.572 163.417 159.324 163.232 159.01 162.955L157.955 162.061C157.735 161.875 157.505 161.704 157.263 161.547C157.038 161.402 156.823 161.273 156.602 161.158C156.649 161.326 156.671 161.501 156.668 161.675C156.678 162.014 156.617 162.351 156.489 162.665C156.374 162.93 156.2 163.166 155.98 163.354C155.749 163.548 155.486 163.701 155.203 163.806C154.881 163.926 154.549 164.013 154.21 164.067C153.83 164.131 153.447 164.172 153.062 164.189C152.652 164.212 152.235 164.221 151.802 164.221L152.196 163.13H153.042C153.33 163.13 153.615 163.11 153.893 163.084C154.17 163.057 154.435 163.024 154.693 162.981C154.935 162.939 155.173 162.877 155.404 162.797C156.043 162.566 156.364 162.276 156.364 161.92C156.356 161.69 156.278 161.468 156.142 161.283C155.942 161.01 155.7 160.77 155.424 160.574C154.801 160.105 154.094 159.759 153.34 159.555C152.791 158.866 152.516 158.338 152.516 157.965C152.527 157.586 152.681 157.224 152.946 156.953C153.137 156.755 153.341 156.572 153.558 156.405C153.823 156.197 154.154 155.963 154.551 155.706C155.405 155.157 156.288 154.655 157.197 154.202C158.221 153.688 159.411 153.147 160.77 152.58L160.416 153.711C159.163 154.258 158.061 154.764 157.108 155.228C156.162 155.69 155.345 156.122 154.653 156.517C153.447 157.217 152.844 157.68 152.844 157.909C152.844 158.104 153.175 158.311 153.793 158.532C155.022 158.984 156.187 159.594 157.257 160.346C157.379 160.432 157.634 160.627 158.018 160.93C158.401 161.234 158.921 161.652 159.576 162.18C159.752 162.33 159.937 162.471 160.128 162.602C160.292 162.715 160.465 162.814 160.644 162.899C160.816 162.98 160.997 163.041 161.183 163.08C161.381 163.121 161.583 163.141 161.785 163.14C161.981 163.133 162.174 163.173 162.351 163.255C162.417 163.282 162.475 163.327 162.515 163.386C162.556 163.444 162.578 163.514 162.579 163.585L162.622 163.776Z" fill="white"/>
<path d="M166.222 163.766C166.222 163.808 166.212 163.849 166.194 163.886C166.175 163.923 166.149 163.956 166.116 163.981C166.034 164.042 165.942 164.089 165.844 164.119C165.731 164.158 165.613 164.183 165.494 164.195C165.379 164.21 165.263 164.218 165.147 164.218C164.819 164.222 164.502 164.104 164.257 163.888C164.008 163.677 163.827 163.397 163.737 163.084H163.708C163.468 163.464 163.123 163.767 162.715 163.958C162.307 164.13 161.868 164.214 161.425 164.205L161.815 163.113C162.018 163.115 162.219 163.095 162.417 163.054C162.612 163.011 162.798 162.938 162.97 162.836C163.17 162.717 163.355 162.573 163.519 162.408C163.73 162.191 163.919 161.955 164.085 161.702L164.204 161.738C164.239 161.921 164.288 162.1 164.349 162.276C164.404 162.434 164.485 162.581 164.591 162.711C164.694 162.836 164.824 162.936 164.971 163.005C165.145 163.081 165.334 163.119 165.524 163.113C165.593 163.114 165.662 163.122 165.729 163.14C165.807 163.157 165.883 163.185 165.954 163.222C166.021 163.253 166.083 163.295 166.136 163.348C166.158 163.368 166.177 163.393 166.189 163.421C166.202 163.448 166.208 163.479 166.208 163.509L166.222 163.766ZM165.497 159.179L164.836 160.129L163.817 159.469L163.201 160.3L162.252 159.677L162.857 158.687L163.916 159.347L164.465 158.5L165.497 159.179Z" fill="white"/>
<path d="M168.18 161.095C168.192 161.624 168.134 162.151 168.008 162.665C167.917 163.025 167.731 163.354 167.469 163.618C167.204 163.859 166.878 164.023 166.526 164.093C166.072 164.182 165.609 164.224 165.146 164.218L165.537 163.127C165.679 163.127 165.835 163.127 166.003 163.127C166.172 163.127 166.334 163.1 166.489 163.08C166.644 163.061 166.797 163.029 166.946 162.985C167.074 162.95 167.195 162.895 167.307 162.823C167.432 162.754 167.538 162.653 167.613 162.531C167.688 162.409 167.731 162.27 167.737 162.127C167.737 162.025 167.697 161.712 167.618 161.184C167.538 160.656 167.412 159.911 167.25 158.948C167.034 157.889 166.877 156.819 166.781 155.742C166.817 155.007 167.012 154.525 167.356 154.298L168.1 155.426C167.91 155.541 167.753 155.705 167.646 155.9C167.539 156.095 167.486 156.315 167.492 156.537C167.506 156.788 167.536 157.038 167.581 157.286C167.641 157.659 167.723 158.166 167.836 158.803C167.948 159.439 168.031 159.951 168.091 160.33C168.136 160.583 168.166 160.838 168.18 161.095V161.095Z" fill="white"/>
<path d="M170.995 161.959C170.947 162.735 170.772 163.498 170.479 164.218L170.281 164.165C170.342 163.839 170.382 163.508 170.4 163.176C170.396 162.675 170.356 162.174 170.281 161.679L169.781 158.173C169.734 157.87 169.705 157.565 169.695 157.259C169.764 156.582 169.99 155.931 170.357 155.356C170.356 156.123 170.403 156.888 170.496 157.649L170.896 160.617C170.956 161.062 170.989 161.51 170.995 161.959V161.959Z" fill="white"/>
<path d="M201.502 158.466L201.217 159.785C201.009 159.578 200.727 159.46 200.433 159.456C199.762 159.504 199.116 159.732 198.564 160.115C198.251 160.3 197.977 160.543 197.757 160.831C197.597 161.032 197.503 161.277 197.489 161.533C197.489 161.949 197.869 162.219 198.634 162.348L200.102 162.592C200.214 162.607 200.325 162.631 200.433 162.665C200.531 162.692 200.625 162.731 200.714 162.78C200.791 162.828 200.858 162.89 200.909 162.965C200.96 163.052 200.985 163.151 200.982 163.252C200.982 163.493 200.931 163.731 200.83 163.951C200.726 164.177 200.593 164.389 200.433 164.581C200.268 164.782 200.082 164.964 199.877 165.125C199.679 165.283 199.469 165.426 199.249 165.554C198.875 165.765 198.484 165.946 198.081 166.095C197.622 166.268 197.117 166.431 196.566 166.583C196.014 166.734 195.428 166.87 194.803 166.995C194.178 167.12 193.546 167.222 192.901 167.325C192.256 167.427 191.611 167.483 190.962 167.532C190.314 167.582 189.692 167.605 189.087 167.605C187.495 167.617 185.905 167.487 184.336 167.216C183.053 166.983 181.794 166.632 180.575 166.167L179.672 165.58C179.381 165.389 179.086 165.188 178.789 164.98C178.491 164.772 178.183 164.554 177.869 164.32C177.555 164.086 177.208 163.839 176.877 163.568L176.983 163.417C177.924 163.899 178.891 164.328 179.88 164.703C180.84 165.066 181.821 165.369 182.818 165.61C183.823 165.852 184.841 166.034 185.868 166.154C186.936 166.275 188.011 166.334 189.087 166.332C189.874 166.332 190.704 166.296 191.571 166.223C192.438 166.151 193.294 166.052 194.138 165.926C194.981 165.801 195.792 165.649 196.559 165.471C197.253 165.316 197.935 165.118 198.604 164.878C198.829 164.798 199.05 164.706 199.265 164.604C199.452 164.515 199.632 164.413 199.805 164.3C199.938 164.213 200.061 164.112 200.172 163.997C200.248 163.922 200.302 163.827 200.327 163.723C200.323 163.684 200.31 163.645 200.29 163.611C200.269 163.577 200.241 163.548 200.208 163.525C200.1 163.447 199.971 163.4 199.838 163.39L198.468 163.219C197.346 163.085 196.784 162.678 196.784 161.998C196.784 161.415 197.287 160.63 198.293 159.65C199.175 158.771 200.035 158.331 200.873 158.331C201.088 158.347 201.299 158.393 201.502 158.466V158.466ZM192.51 168.743L191.826 169.699L190.833 169.013L190.228 169.854L189.183 169.135L189.867 168.169L190.886 168.855L191.482 168.024L192.51 168.743Z" fill="white"/>
<path d="M207.899 162.187C207.889 162.61 207.789 163.026 207.605 163.407C206.614 164.004 205.478 164.322 204.32 164.327C204.121 164.327 203.715 164.298 203.096 164.235L203.271 162.916C203.553 162.939 203.88 162.952 204.264 162.952C205.66 162.952 206.719 162.732 207.443 162.292C207.363 161.316 206.402 160.521 204.558 159.908L204.958 158.625C205.768 158.823 206.492 159.276 207.023 159.917C207.553 160.559 207.862 161.353 207.903 162.184L207.899 162.187Z" fill="white"/>
<path d="M210.774 161.959C210.725 162.735 210.551 163.498 210.258 164.218L210.063 164.165C210.122 163.838 210.161 163.508 210.178 163.176C210.174 162.675 210.135 162.175 210.063 161.679L209.563 158.173C209.513 157.871 209.484 157.566 209.474 157.259C209.543 156.582 209.769 155.931 210.135 155.356C210.135 156.123 210.182 156.888 210.274 157.649L210.675 160.617C210.735 161.062 210.768 161.51 210.774 161.959Z" fill="white"/>
<path d="M216.05 162.846C216.073 164.24 215.676 165.608 214.912 166.774C214.134 167.942 213.269 168.526 212.319 168.526C211.717 168.526 210.923 168.285 209.93 167.803L210.106 167.658C210.485 167.8 210.885 167.873 211.29 167.876C212.29 167.849 213.243 167.45 213.963 166.758C214.439 166.336 214.837 165.834 215.137 165.274C215.404 164.818 215.555 164.304 215.577 163.776C215.581 163.522 215.513 163.272 215.382 163.054C215.249 163.226 215.082 163.369 214.891 163.475C214.701 163.58 214.491 163.646 214.274 163.668C214.105 163.668 213.937 163.64 213.778 163.585C213.619 163.536 213.471 163.458 213.341 163.354C213.216 163.259 213.112 163.14 213.033 163.005C212.954 162.869 212.913 162.714 212.914 162.556C212.924 162.333 212.961 162.111 213.023 161.897C213.128 161.548 213.28 161.216 213.473 160.907C213.596 160.676 213.77 160.476 213.983 160.323C214.147 160.202 214.344 160.134 214.548 160.129C214.755 160.134 214.955 160.206 215.117 160.333C215.331 160.499 215.505 160.709 215.627 160.95C215.919 161.539 216.065 162.19 216.05 162.846V162.846ZM214.816 161.969C214.752 161.85 214.657 161.75 214.54 161.681C214.424 161.611 214.291 161.574 214.155 161.573C214.035 161.564 213.917 161.6 213.824 161.676C213.791 161.704 213.764 161.74 213.746 161.78C213.728 161.819 213.718 161.863 213.718 161.907C213.718 162.164 213.877 162.296 214.198 162.296C214.331 162.301 214.463 162.271 214.581 162.21C214.682 162.155 214.764 162.071 214.816 161.969Z" fill="white"/>
<g style="mix-blend-mode:multiply">
<path style="mix-blend-mode:multiply" d="M203.41 16.0242C202.943 17.4057 202.705 18.8538 202.705 20.3116H198.196C198.194 18.043 198.624 15.7947 199.463 13.6859C201.012 13.9835 202.408 14.8104 203.41 16.0242V16.0242ZM207.217 4.74179C205.769 5.58066 204.445 6.61501 203.281 7.81551C202.723 8.38911 202.205 8.99953 201.729 9.6426C203.183 10.1229 204.522 10.8939 205.666 11.9083C206.138 11.3177 206.656 10.7663 207.217 10.2593C209.7 8.04197 212.918 6.81903 216.252 6.82612V2.32766C213.079 2.32258 209.962 3.15555 207.217 4.74179V4.74179Z" fill="url(#paint0_linear_32_765)"/>
<path style="mix-blend-mode:multiply" d="M207.217 13.5803C205.75 15.5215 204.958 17.8872 204.961 20.3181C204.96 18.7489 204.41 17.2293 203.407 16.0203C202.403 14.8112 201.009 13.9881 199.463 13.6924C199.046 13.6125 198.622 13.5727 198.196 13.5737V9.07521C200.951 9.07053 203.61 10.0779 205.666 11.9049C206.239 12.4088 206.759 12.9702 207.217 13.5803V13.5803Z" fill="url(#paint1_linear_32_765)"/>
<path style="mix-blend-mode:multiply" d="M216.252 9.0752V13.5737C215.825 13.5727 215.4 13.6125 214.981 13.6924C214.401 12.2511 213.637 10.89 212.709 9.64246C213.852 9.26523 215.048 9.0737 216.252 9.0752V9.0752ZM208.779 11.9049C207.583 12.9584 206.625 14.2532 205.968 15.7036C205.312 17.154 204.972 18.7269 204.971 20.3181H209.483C209.483 18.7516 210.033 17.2346 211.038 16.0307C210.53 14.5335 209.762 13.137 208.769 11.9049H208.779Z" fill="url(#paint2_linear_32_765)"/>
<path style="mix-blend-mode:multiply" d="M216.252 20.3182H211.73C211.728 18.4212 211.325 16.5458 210.547 14.8144C209.77 13.0829 208.635 11.5342 207.217 10.2692C208.377 9.2304 209.709 8.40017 211.154 7.81551C211.714 8.38717 212.233 8.99653 212.709 9.6393C213.634 10.8884 214.394 12.2506 214.971 13.6925C215.815 15.8004 216.249 18.0488 216.252 20.3182ZM198.206 2.32766V6.82612C199.949 6.82476 201.676 7.16077 203.291 7.81551C204.455 6.61501 205.779 5.58066 207.227 4.74179C204.484 3.15553 201.368 2.32254 198.196 2.32766H198.206Z" fill="url(#paint3_linear_32_765)"/>
</g>
<defs>
<linearGradient id="paint0_linear_32_765" x1="216.242" y1="11.3246" x2="198.196" y2="11.3246" gradientUnits="userSpaceOnUse">
<stop stop-color="#2E2E30" stop-opacity="0.07"/>
<stop offset="0.93" stop-color="#2E2E30" stop-opacity="0.28"/>
<stop offset="1" stop-color="#2E2E30" stop-opacity="0.3"/>
</linearGradient>
<linearGradient id="paint1_linear_32_765" x1="198.233" y1="9.03564" x2="207.23" y2="18.0599" gradientUnits="userSpaceOnUse">
<stop stop-color="#2E2E30" stop-opacity="0.21"/>
<stop offset="1" stop-color="#2E2E30" stop-opacity="0.3"/>
</linearGradient>
<linearGradient id="paint2_linear_32_765" x1="210.601" y1="9.0752" x2="210.601" y2="20.3181" gradientUnits="userSpaceOnUse">
<stop stop-color="#2E2E30" stop-opacity="0.07"/>
<stop offset="0.93" stop-color="#2E2E30" stop-opacity="0.28"/>
<stop offset="1" stop-color="#2E2E30" stop-opacity="0.3"/>
</linearGradient>
<linearGradient id="paint3_linear_32_765" x1="201.124" y1="0.642386" x2="213.394" y2="21.9599" gradientUnits="userSpaceOnUse">
<stop stop-color="#2E2E30" stop-opacity="0.21"/>
<stop offset="1" stop-color="#2E2E30" stop-opacity="0.3"/>
</linearGradient>
</defs>
</svg>
