<svg width="390" height="332" viewBox="0 0 390 332" fill="none" xmlns="http://www.w3.org/2000/svg">
<g opacity="0.9">
<path d="M112.613 252.327C102.55 277.818 97.428 304.53 97.4472 331.418H0.000121087C-0.0387067 289.619 9.26073 248.195 27.4038 209.348C60.8319 214.785 90.9734 229.988 112.613 252.327V252.327ZM194.894 44.4942C163.601 59.9211 134.983 78.9739 109.862 101.105C97.8082 111.647 86.6139 122.875 76.3566 134.712C107.767 143.545 136.722 157.748 161.442 176.446C192.733 143.142 233.529 117.205 279.944 101.105C314.798 89.0295 352.082 82.8359 389.718 82.8696V0.000229248C321.295 -0.0636812 254.074 15.2884 194.894 44.4942V44.4942Z" fill="url(#paint0_linear_8_25)"/>
<path d="M194.894 207.324C163.207 243.078 146.1 286.646 146.171 331.418C146.22 302.52 134.365 274.521 112.666 252.283C91.018 229.96 60.8774 214.773 27.4567 209.348C18.4077 207.874 9.21353 207.141 0.00012207 207.159L0.00012207 124.304C25.9263 124.272 51.6899 127.786 76.3037 134.712C107.714 143.545 136.669 157.748 161.389 176.446C173.771 185.737 184.998 196.083 194.894 207.324Z" fill="url(#paint1_linear_8_25)"/>
<path d="M389.718 124.304V207.159C380.52 207.158 371.344 207.907 362.314 209.393C349.848 182.816 333.407 157.716 313.397 134.712C338.016 127.786 363.786 124.272 389.718 124.304V124.304ZM228.329 176.446C202.527 195.869 181.863 219.724 167.701 246.437C153.539 273.151 146.201 302.115 146.171 331.418H243.618C243.567 302.52 255.422 274.52 277.123 252.283C266.217 224.774 249.719 199.106 228.382 176.446H228.329Z" fill="url(#paint2_linear_8_25)"/>
<path d="M389.718 331.418H292.324C292.34 304.515 287.218 277.789 277.158 252.282C266.247 224.756 249.737 199.073 228.382 176.401C218.212 165.584 207.005 155.502 194.877 146.259C219.923 127.127 248.682 111.834 279.874 101.06C291.937 111.594 303.132 122.823 313.379 134.667C333.389 157.671 349.83 182.771 362.297 209.348C380.446 248.194 389.751 289.618 389.718 331.418ZM0.00012207 0.000265494L0.00012207 82.8696C37.6656 82.8243 74.9809 89.0181 109.862 101.105C134.983 78.9739 163.601 59.9211 194.894 44.4942C135.692 15.2828 68.446 -0.0692417 0.00012207 0.000265494Z" fill="url(#paint3_linear_8_25)"/>
</g>
<defs>
<linearGradient id="paint0_linear_8_25" x1="389.771" y1="165.724" x2="0.000139393" y2="165.724" gradientUnits="userSpaceOnUse">
<stop stop-color="#E40935"/>
<stop offset="0.11" stop-color="#DA0C38"/>
<stop offset="0.29" stop-color="#BF1440"/>
<stop offset="0.53" stop-color="#92204D"/>
<stop offset="0.81" stop-color="#56325E"/>
<stop offset="1" stop-color="#2A3E6B"/>
</linearGradient>
<linearGradient id="paint1_linear_8_25" x1="0.828932" y1="123.6" x2="164.4" y2="315.945" gradientUnits="userSpaceOnUse">
<stop stop-color="#E40935"/>
<stop offset="1" stop-color="#E40935"/>
</linearGradient>
<linearGradient id="paint2_linear_8_25" x1="267.971" y1="124.304" x2="267.971" y2="331.463" gradientUnits="userSpaceOnUse">
<stop stop-color="#E40935"/>
<stop offset="0.11" stop-color="#DA0C38"/>
<stop offset="0.29" stop-color="#BF1440"/>
<stop offset="0.53" stop-color="#92204D"/>
<stop offset="0.81" stop-color="#56325E"/>
<stop offset="1" stop-color="#2A3E6B"/>
</linearGradient>
<linearGradient id="paint3_linear_8_25" x1="63.2367" y1="-31.042" x2="270.083" y2="390.221" gradientUnits="userSpaceOnUse">
<stop stop-color="#E40935"/>
<stop offset="1" stop-color="#E40935"/>
</linearGradient>
</defs>
</svg>
