<svg width="230" height="216" viewBox="0 0 230 216" fill="none" xmlns="http://www.w3.org/2000/svg">
<path d="M154.39 209.849C148.258 209.819 143.176 204.73 143.286 198.612C143.401 192.26 148.453 187.563 154.497 187.552C160.668 187.59 165.663 192.614 165.629 198.75C165.595 204.9 160.553 209.88 154.39 209.849ZM154.398 181.651C145.411 181.673 137.374 188.908 137.388 198.721C137.401 208.544 145.547 215.839 154.462 215.694C163.78 215.823 171.505 207.944 171.503 198.691C171.501 189.515 163.909 181.627 154.398 181.651Z" fill="#F9B519"/>
<path d="M113.677 200.169C113.657 196.797 112.764 193.635 110.961 190.791C107.289 184.997 102.023 181.859 95.1213 181.667C91.9818 181.58 88.8378 181.661 85.6964 181.622C85.0355 181.614 84.916 181.857 84.9183 182.451C84.9378 187.921 84.9297 193.391 84.9297 198.861H84.9375C84.9375 204.308 84.9484 209.755 84.9225 215.202C84.9196 215.82 85.1058 215.965 85.6876 215.95C87.1786 215.913 88.6718 215.91 90.1626 215.951C90.7557 215.968 90.9223 215.808 90.921 215.2C90.9015 206.318 90.9098 197.434 90.9116 188.551C90.9116 188.371 90.9166 188.19 90.9111 188.009C90.9015 187.707 91.0104 187.548 91.3453 187.56C92.9922 187.624 94.6389 187.51 96.2887 187.683C102.798 188.367 107.84 194.114 107.742 200.652C107.669 205.51 107.74 210.371 107.717 215.23C107.715 215.808 107.889 215.959 108.443 215.946C109.979 215.913 111.517 215.915 113.054 215.945C113.564 215.955 113.7 215.797 113.698 215.29C113.679 210.25 113.707 205.21 113.677 200.169Z" fill="#F9B519"/>
<path d="M218.407 181.76C215.109 181.689 211.811 181.595 208.513 181.53C206.49 181.49 204.556 181.914 202.761 182.848C198.826 184.895 196.438 188.097 195.838 192.515C195.46 195.298 195.685 198.113 195.593 200.912C195.58 201.321 195.785 201.394 196.135 201.4C197.264 201.421 198.393 201.476 199.522 201.5C204.335 201.601 209.147 201.698 213.96 201.79C214.335 201.797 214.639 201.808 214.575 202.33C214.315 204.468 213.486 206.335 211.916 207.825C209.887 209.749 207.422 210.368 204.681 210.248C201.77 210.12 198.854 210.098 195.941 210.004C195.433 209.988 195.339 210.194 195.338 210.638C195.338 212.061 195.328 213.486 195.268 214.908C195.243 215.51 195.437 215.668 196.031 215.672C198.878 215.691 201.728 215.703 204.572 215.829C206.73 215.925 208.824 215.739 210.798 214.851C215.069 212.931 217.684 209.675 218.38 205.015C218.785 202.304 218.567 199.555 218.666 196.824C218.688 196.235 218.49 196.096 217.945 196.088C214.714 196.04 211.483 195.966 208.253 195.893C205.587 195.832 202.923 195.752 200.257 195.702C199.755 195.693 199.607 195.489 199.705 195.034C199.829 194.461 199.9 193.869 200.088 193.318C201.404 189.46 204.655 187.215 208.77 187.258C211.029 187.282 213.288 187.262 215.547 187.262V187.458C216.45 187.458 217.355 187.434 218.258 187.468C218.756 187.487 218.929 187.341 218.923 186.823C218.908 185.309 218.929 183.795 218.974 182.281C218.988 181.82 218.78 181.768 218.407 181.76Z" fill="#F9B519"/>
<path d="M137.571 186.875C137.538 185.34 137.545 183.802 137.57 182.266C137.577 181.791 137.417 181.642 136.946 181.643C129.941 181.652 122.937 181.649 115.932 181.637C115.459 181.636 115.302 181.799 115.31 182.269C115.333 183.783 115.347 185.297 115.307 186.81C115.291 187.422 115.503 187.581 116.086 187.573C118.277 187.544 120.469 187.588 122.66 187.543C123.331 187.529 123.477 187.737 123.475 188.374C123.458 197.322 123.472 206.269 123.457 215.216C123.456 215.774 123.597 215.959 124.169 215.945C125.682 215.908 127.197 215.908 128.71 215.944C129.272 215.958 129.431 215.795 129.428 215.226C129.405 210.752 129.415 206.279 129.415 201.805H129.422C129.422 197.309 129.431 192.813 129.41 188.317C129.408 187.743 129.532 187.532 130.156 187.542C132.392 187.581 134.629 187.544 136.866 187.564C137.385 187.569 137.583 187.426 137.571 186.875Z" fill="#F9B519"/>
<path d="M193.977 182.119C193.978 181.809 193.858 181.662 193.536 181.672C191.238 181.741 188.928 181.495 186.645 181.977C179.986 183.386 175.131 189.185 175.061 195.99C174.995 202.43 175.047 208.87 175.03 215.31C175.029 215.793 175.192 215.937 175.656 215.931C177.192 215.911 178.73 215.895 180.266 215.937C180.859 215.953 180.966 215.74 180.961 215.2C180.938 211.968 180.95 208.737 180.95 205.505H180.952C180.952 202.409 180.959 199.313 180.948 196.218C180.945 195.325 181.08 194.454 181.362 193.619C182.64 189.835 185.748 187.592 189.75 187.539C190.97 187.524 192.191 187.531 193.411 187.537C193.743 187.538 193.981 187.49 193.978 187.068C193.967 185.418 193.972 183.769 193.977 182.119Z" fill="#F9B519"/>
<path d="M229.511 175.34C227.872 175.513 226.224 175.552 224.578 175.593C224.134 175.604 224.004 175.784 223.977 176.203C223.918 177.124 223.852 178.049 223.712 178.961C223.303 181.619 222.61 184.206 221.679 186.729C221.431 187.401 221.482 187.453 222.535 187.403C222.905 187.345 223.595 187.242 224.284 187.128C225.322 186.958 226.02 186.374 226.476 185.424C227.955 182.344 228.942 179.087 229.961 175.842C230.083 175.455 229.913 175.298 229.511 175.34Z" fill="#F9B519"/>
<path d="M95.4258 26.874C100.821 32.2458 106.213 37.6211 111.605 42.9956C111.731 43.1209 111.822 43.2949 112.04 43.2765C112.278 43.2773 112.383 43.0817 112.523 42.9416C119.516 35.9067 126.507 28.8692 133.507 21.8411C133.861 21.4852 133.857 21.2891 133.484 20.9234C126.531 14.1072 119.593 7.27429 112.656 0.441677C112.065 -0.140068 112 -0.148369 111.416 0.433899C104.487 7.34328 97.5611 14.2553 90.619 21.1509C90.2352 21.5319 90.2118 21.7404 90.6022 22.1175C92.2258 23.6869 93.8255 25.2807 95.4258 26.874Z" fill="#F9B519"/>
<path d="M109.491 157.478C109.5 157.468 109.51 157.459 109.52 157.449C109.51 157.459 109.5 157.468 109.491 157.478ZM108.406 156.393L108.435 156.364L108.406 156.393ZM106.884 154.93C106.902 154.913 106.919 154.895 106.937 154.878C106.919 154.895 106.902 154.913 106.884 154.93ZM106.613 154.659C106.631 154.641 106.648 154.624 106.666 154.607C106.648 154.624 106.631 154.641 106.613 154.659ZM106.342 154.388C106.359 154.37 106.377 154.353 106.395 154.335C106.377 154.353 106.359 154.37 106.342 154.388ZM106.054 154.134C106.077 154.11 106.1 154.087 106.123 154.064C106.1 154.087 106.077 154.11 106.054 154.134ZM105.8 153.845C105.817 153.828 105.834 153.81 105.852 153.793C105.834 153.81 105.817 153.828 105.8 153.845ZM105.682 153.691C105.694 153.68 105.705 153.669 105.716 153.657C105.705 153.669 105.694 153.68 105.682 153.691ZM105.257 153.302C105.275 153.285 105.292 153.268 105.309 153.25C105.292 153.268 105.275 153.285 105.257 153.302ZM105.171 153.117C105.172 153.116 105.173 153.116 105.173 153.115C105.173 153.116 105.172 153.116 105.171 153.117ZM104.984 153.032C105.002 153.015 105.02 152.997 105.038 152.979C105.02 152.997 105.002 153.015 104.984 153.032ZM104.731 152.743C104.743 152.731 104.755 152.72 104.767 152.708C104.755 152.72 104.743 152.731 104.731 152.743ZM104.575 152.629C104.593 152.61 104.612 152.591 104.631 152.572C104.612 152.591 104.593 152.61 104.575 152.629ZM104.325 152.335C104.337 152.324 104.348 152.313 104.36 152.301C104.348 152.312 104.337 152.324 104.325 152.335ZM104.224 152.165C104.227 152.167 104.229 152.17 104.231 152.172C104.229 152.17 104.227 152.167 104.224 152.165ZM104.032 152.086C104.051 152.068 104.07 152.049 104.089 152.03C104.07 152.048 104.051 152.067 104.032 152.086ZM103.487 151.546C103.505 151.528 103.523 151.51 103.54 151.493C103.523 151.51 103.505 151.528 103.487 151.546ZM103.333 151.428C103.357 151.405 103.38 151.381 103.404 151.358C103.38 151.381 103.357 151.405 103.333 151.428ZM102.535 150.599C102.553 150.581 102.572 150.562 102.59 150.544C102.572 150.562 102.553 150.58 102.535 150.599ZM102.383 150.479C102.407 150.456 102.431 150.432 102.455 150.408C102.431 150.432 102.407 150.456 102.383 150.479ZM102.264 150.327C102.282 150.309 102.3 150.291 102.319 150.273C102.301 150.291 102.282 150.309 102.264 150.327ZM102.132 150.188C102.149 150.171 102.166 150.154 102.183 150.137C102.166 150.154 102.149 150.171 102.132 150.188ZM101.992 150.056C102.011 150.038 102.029 150.02 102.048 150.002C102.029 150.02 102.011 150.038 101.992 150.056ZM101.77 149.737C101.772 149.734 101.774 149.732 101.777 149.73C101.774 149.732 101.772 149.734 101.77 149.737ZM101.582 149.653C101.602 149.633 101.621 149.614 101.641 149.595C101.621 149.614 101.602 149.633 101.582 149.653ZM101.45 149.514C101.468 149.496 101.487 149.477 101.505 149.459C101.487 149.477 101.468 149.495 101.45 149.514ZM101.161 149.26C101.185 149.236 101.21 149.212 101.234 149.188C101.21 149.212 101.185 149.236 101.161 149.26ZM101.044 149.106C101.062 149.088 101.08 149.07 101.098 149.052C101.08 149.07 101.062 149.088 101.044 149.106ZM100.772 148.835C100.79 148.817 100.809 148.799 100.827 148.781C100.809 148.799 100.79 148.817 100.772 148.835ZM100.638 148.698C100.656 148.68 100.674 148.663 100.691 148.645C100.674 148.663 100.656 148.68 100.638 148.698ZM100.347 148.446C100.372 148.422 100.396 148.398 100.42 148.374C100.396 148.398 100.372 148.422 100.347 148.446ZM100.229 148.293C100.248 148.275 100.266 148.256 100.284 148.239C100.266 148.256 100.248 148.275 100.229 148.293ZM100.076 148.175C100.101 148.151 100.125 148.127 100.149 148.103C100.125 148.127 100.101 148.151 100.076 148.175ZM111.617 116.957C104.576 123.976 97.5267 130.987 90.4739 137.994C90.2039 138.263 90.1989 138.465 90.4687 138.73C92.2744 140.502 94.0663 142.289 95.8753 144.058C97.2307 145.384 98.5068 146.791 99.9369 148.04C99.9566 148.022 99.9766 148.004 99.9971 147.986C99.9766 148.004 99.9566 148.022 99.9369 148.04C99.9826 148.086 100.028 148.132 100.073 148.177H100.073C100.118 148.223 100.164 148.268 100.209 148.313C100.254 148.358 100.3 148.403 100.345 148.449V148.448C100.39 148.494 100.435 148.539 100.481 148.584C100.526 148.629 100.571 148.675 100.616 148.72C100.661 148.765 100.706 148.81 100.752 148.855C100.797 148.9 100.842 148.946 100.887 148.991C100.933 149.036 100.978 149.081 101.023 149.127V149.126C101.068 149.172 101.113 149.217 101.158 149.263L101.158 149.263C101.204 149.307 101.25 149.352 101.296 149.396C101.321 149.372 101.345 149.348 101.37 149.323C101.345 149.348 101.321 149.372 101.296 149.396C101.34 149.442 101.384 149.488 101.429 149.535V149.534C101.475 149.579 101.521 149.623 101.567 149.667C101.612 149.713 101.656 149.759 101.7 149.806V149.805C101.746 149.85 101.793 149.894 101.839 149.938C101.883 149.984 101.927 150.031 101.972 150.077C102.018 150.121 102.064 150.165 102.11 150.21C102.154 150.256 102.199 150.302 102.243 150.348C102.289 150.392 102.335 150.436 102.381 150.481C102.426 150.527 102.47 150.573 102.514 150.619V150.619C102.56 150.663 102.607 150.708 102.653 150.752C102.677 150.728 102.701 150.704 102.726 150.68C102.702 150.704 102.677 150.728 102.653 150.752C102.697 150.798 102.741 150.844 102.785 150.891H102.785C102.831 150.935 102.878 150.979 102.924 151.024C102.969 151.069 103.013 151.115 103.058 151.161C103.071 151.148 103.084 151.135 103.097 151.122C103.084 151.135 103.071 151.148 103.058 151.161C103.104 151.205 103.149 151.25 103.195 151.295C103.219 151.271 103.244 151.247 103.269 151.222C103.244 151.246 103.219 151.271 103.195 151.295C103.24 151.34 103.285 151.386 103.33 151.431V151.431C103.376 151.476 103.421 151.521 103.467 151.566C103.512 151.61 103.558 151.655 103.604 151.7C103.653 151.742 103.701 151.784 103.75 151.826C103.793 151.873 103.837 151.919 103.881 151.966C103.905 151.942 103.929 151.918 103.953 151.894C103.929 151.918 103.905 151.942 103.881 151.966C103.927 152.01 103.974 152.054 104.02 152.099V152.098C104.064 152.145 104.108 152.19 104.153 152.236C104.165 152.224 104.177 152.213 104.189 152.2C104.177 152.212 104.165 152.224 104.153 152.236C104.199 152.281 104.245 152.325 104.291 152.37C104.335 152.416 104.38 152.462 104.424 152.508C104.436 152.496 104.448 152.484 104.46 152.472C104.448 152.484 104.436 152.496 104.424 152.508C104.47 152.552 104.516 152.597 104.562 152.642L104.562 152.641C104.607 152.687 104.652 152.732 104.697 152.777C104.742 152.823 104.787 152.868 104.833 152.913C104.845 152.901 104.856 152.889 104.868 152.878C104.856 152.889 104.845 152.901 104.833 152.913C104.878 152.958 104.923 153.003 104.968 153.048C105.014 153.094 105.059 153.139 105.104 153.184C105.15 153.229 105.195 153.274 105.24 153.32H105.24C105.285 153.365 105.33 153.41 105.376 153.455C105.399 153.432 105.422 153.409 105.445 153.386C105.422 153.409 105.399 153.432 105.376 153.455C105.421 153.501 105.466 153.546 105.511 153.591C105.534 153.568 105.557 153.545 105.581 153.522C105.558 153.545 105.534 153.568 105.511 153.591C105.557 153.636 105.603 153.68 105.649 153.725C105.693 153.771 105.737 153.817 105.782 153.863H105.782C105.828 153.907 105.874 153.952 105.92 153.996C105.924 153.992 105.928 153.988 105.932 153.984C105.928 153.988 105.924 153.992 105.92 153.996C105.964 154.042 106.009 154.088 106.053 154.134C106.099 154.178 106.146 154.223 106.191 154.267C106.213 154.245 106.236 154.223 106.258 154.2C106.236 154.223 106.214 154.245 106.191 154.267C106.236 154.313 106.28 154.359 106.324 154.405V154.405C106.371 154.45 106.417 154.494 106.463 154.538C106.485 154.516 106.507 154.494 106.529 154.472C106.507 154.494 106.485 154.516 106.463 154.538C106.507 154.584 106.551 154.63 106.596 154.676C106.642 154.721 106.688 154.765 106.734 154.81C106.756 154.787 106.779 154.765 106.801 154.742C106.779 154.765 106.757 154.787 106.734 154.81C106.778 154.855 106.823 154.901 106.867 154.947H106.867C106.913 154.992 106.959 155.036 107.006 155.081C107.011 155.075 107.017 155.069 107.022 155.064C107.017 155.069 107.011 155.075 107.006 155.081C107.05 155.127 107.095 155.172 107.139 155.219C107.185 155.263 107.231 155.307 107.277 155.352C107.282 155.346 107.288 155.341 107.293 155.335C107.288 155.341 107.282 155.346 107.277 155.352C107.322 155.397 107.367 155.442 107.413 155.487C107.419 155.48 107.426 155.474 107.432 155.468C107.426 155.474 107.419 155.48 107.413 155.487C107.46 155.531 107.507 155.574 107.554 155.617C107.561 155.61 107.568 155.603 107.576 155.596C107.569 155.603 107.561 155.61 107.554 155.617C107.6 155.662 107.646 155.706 107.692 155.751C107.713 155.73 107.734 155.708 107.755 155.687C107.734 155.708 107.713 155.73 107.692 155.751C107.739 155.795 107.785 155.838 107.832 155.882C107.84 155.874 107.847 155.866 107.855 155.859C107.848 155.866 107.84 155.874 107.832 155.882C107.876 155.928 107.92 155.975 107.964 156.021C107.965 156.02 107.966 156.019 107.968 156.018C107.966 156.019 107.965 156.02 107.964 156.021C108.011 156.065 108.058 156.109 108.104 156.153C108.104 156.152 108.104 156.152 108.105 156.151C108.105 156.152 108.104 156.152 108.104 156.153C108.148 156.199 108.192 156.245 108.236 156.292C108.244 156.283 108.253 156.275 108.261 156.267C108.253 156.275 108.244 156.283 108.236 156.291C108.283 156.336 108.329 156.38 108.375 156.424C108.42 156.47 108.463 156.516 108.508 156.563V156.563C108.554 156.607 108.6 156.651 108.647 156.695C108.648 156.694 108.648 156.693 108.649 156.692C108.648 156.693 108.648 156.694 108.647 156.695C108.691 156.741 108.735 156.787 108.779 156.834L108.779 156.834C108.825 156.878 108.872 156.922 108.918 156.966H108.918C108.962 157.012 109.006 157.059 109.05 157.105H109.05C109.097 157.149 109.143 157.193 109.189 157.237V157.237C109.233 157.284 109.278 157.33 109.321 157.376C109.322 157.376 109.323 157.375 109.324 157.374C109.323 157.375 109.322 157.376 109.322 157.376C109.368 157.42 109.414 157.464 109.461 157.509V157.508C109.505 157.555 109.549 157.601 109.593 157.647C109.613 157.627 109.632 157.608 109.651 157.589C109.632 157.608 109.613 157.627 109.593 157.647C109.64 157.691 109.686 157.735 109.732 157.78C109.739 157.772 109.747 157.764 109.755 157.757L109.732 157.78C109.777 157.826 109.82 157.872 109.865 157.918C109.865 157.918 109.865 157.918 109.865 157.918C109.911 157.962 109.957 158.006 110.002 158.051L110.136 158.189C110.136 158.189 110.136 158.189 110.136 158.189C110.182 158.233 110.229 158.278 110.275 158.322C110.281 158.316 110.288 158.309 110.295 158.302C110.288 158.309 110.281 158.316 110.275 158.322C110.319 158.368 110.363 158.414 110.408 158.461C110.428 158.44 110.448 158.419 110.469 158.398C110.449 158.419 110.428 158.44 110.408 158.46C110.454 158.504 110.5 158.549 110.546 158.593C110.553 158.586 110.56 158.579 110.567 158.572C110.56 158.579 110.553 158.586 110.546 158.593C110.59 158.639 110.635 158.686 110.679 158.732C110.725 158.776 110.771 158.82 110.817 158.864C110.825 158.857 110.833 158.849 110.84 158.841C110.833 158.849 110.825 158.857 110.817 158.864C110.862 158.91 110.906 158.956 110.95 159.003C110.951 159.002 110.952 159.001 110.953 159C110.952 159.001 110.951 159.002 110.951 159.003C110.997 159.047 111.043 159.091 111.089 159.135C111.108 159.116 111.128 159.096 111.148 159.077C111.128 159.096 111.108 159.115 111.089 159.135C111.133 159.182 111.177 159.228 111.221 159.275C111.229 159.267 111.237 159.258 111.245 159.25L111.221 159.275C111.267 159.319 111.314 159.363 111.36 159.407C111.406 159.452 111.451 159.497 111.496 159.542C111.503 159.535 111.51 159.528 111.517 159.521C111.51 159.528 111.503 159.535 111.496 159.542C111.544 159.585 111.591 159.628 111.637 159.671C111.93 160.288 112.205 159.953 112.495 159.662C115.524 156.62 118.563 153.587 121.581 150.534C122.58 149.524 123.644 148.576 124.553 147.478C124.53 147.458 124.507 147.44 124.482 147.422C124.506 147.44 124.53 147.458 124.553 147.478C124.598 147.432 124.642 147.388 124.687 147.343C124.667 147.323 124.647 147.302 124.627 147.282C124.647 147.302 124.667 147.323 124.687 147.343C124.732 147.297 124.777 147.252 124.822 147.207C124.802 147.186 124.782 147.166 124.763 147.146C124.782 147.166 124.802 147.186 124.822 147.207C124.867 147.161 124.912 147.116 124.957 147.07C124.938 147.05 124.918 147.03 124.898 147.011C124.918 147.03 124.938 147.05 124.957 147.07C125.002 147.025 125.047 146.98 125.092 146.935C125.073 146.915 125.053 146.895 125.033 146.875C125.036 146.873 125.038 146.87 125.04 146.868C125.038 146.87 125.036 146.873 125.033 146.875C125.053 146.894 125.073 146.915 125.092 146.935C125.138 146.889 125.183 146.844 125.228 146.799C125.209 146.779 125.189 146.759 125.169 146.739C125.189 146.759 125.209 146.779 125.228 146.799C125.273 146.754 125.319 146.709 125.364 146.663C125.409 146.618 125.454 146.573 125.5 146.528C125.48 146.508 125.46 146.488 125.44 146.468C125.46 146.488 125.48 146.508 125.5 146.528C125.544 146.482 125.59 146.437 125.635 146.392C125.616 146.372 125.596 146.352 125.576 146.332C125.596 146.352 125.616 146.372 125.635 146.392C125.68 146.347 125.725 146.302 125.771 146.256C125.751 146.237 125.731 146.217 125.712 146.197C125.731 146.216 125.751 146.236 125.771 146.256C125.816 146.211 125.861 146.166 125.906 146.121C125.887 146.101 125.867 146.081 125.847 146.061C125.867 146.081 125.887 146.101 125.906 146.121C125.952 146.076 125.997 146.03 126.042 145.985C126.022 145.965 126.003 145.945 125.983 145.926C126.003 145.945 126.022 145.965 126.042 145.985L126.178 145.85C126.158 145.83 126.139 145.809 126.119 145.79C126.138 145.809 126.158 145.829 126.178 145.85C126.223 145.804 126.269 145.759 126.314 145.713C126.313 145.713 126.312 145.712 126.311 145.711C126.312 145.712 126.313 145.712 126.314 145.713C126.359 145.668 126.404 145.623 126.449 145.579C126.43 145.558 126.41 145.538 126.39 145.518C126.409 145.538 126.429 145.558 126.449 145.579C126.494 145.533 126.539 145.488 126.584 145.443C126.63 145.397 126.675 145.352 126.72 145.307C126.7 145.287 126.681 145.267 126.661 145.247C126.68 145.267 126.7 145.287 126.72 145.307C126.765 145.261 126.81 145.216 126.855 145.171C126.836 145.151 126.816 145.131 126.797 145.111C126.816 145.131 126.835 145.151 126.855 145.171C126.9 145.125 126.944 145.079 126.989 145.033C126.97 145.014 126.951 144.995 126.932 144.975C126.95 144.994 126.97 145.014 126.989 145.033C127.033 144.987 127.078 144.941 127.122 144.895C127.102 144.875 127.083 144.855 127.063 144.835C127.082 144.855 127.102 144.875 127.122 144.895C127.167 144.85 127.212 144.805 127.257 144.759C127.302 144.714 127.348 144.668 127.392 144.623C127.373 144.603 127.353 144.583 127.334 144.563C127.353 144.583 127.373 144.603 127.392 144.623C127.438 144.578 127.483 144.533 127.528 144.487C127.509 144.467 127.489 144.448 127.469 144.428C127.489 144.447 127.509 144.467 127.528 144.487C127.573 144.442 127.619 144.397 127.663 144.352C127.644 144.332 127.625 144.312 127.605 144.292C127.624 144.312 127.644 144.332 127.663 144.352C127.709 144.306 127.754 144.261 127.799 144.216C127.78 144.196 127.76 144.176 127.74 144.157C127.76 144.176 127.78 144.196 127.799 144.216C127.844 144.171 127.889 144.125 127.934 144.08C127.98 144.035 128.025 143.99 128.07 143.944C128.051 143.925 128.031 143.905 128.011 143.885C128.031 143.905 128.051 143.925 128.07 143.944C128.115 143.899 128.16 143.854 128.206 143.809C128.251 143.764 128.297 143.719 128.342 143.673C128.322 143.654 128.302 143.634 128.283 143.614C128.302 143.634 128.322 143.653 128.342 143.673C128.387 143.628 128.432 143.583 128.477 143.538C128.522 143.493 128.568 143.447 128.613 143.402C128.593 143.382 128.574 143.362 128.554 143.343C128.574 143.362 128.593 143.382 128.613 143.402C128.658 143.357 128.703 143.312 128.749 143.267C128.729 143.246 128.71 143.227 128.69 143.207C128.709 143.226 128.729 143.246 128.749 143.267C128.794 143.221 128.839 143.176 128.884 143.131C128.865 143.111 128.845 143.091 128.825 143.071C128.845 143.091 128.865 143.111 128.884 143.131C128.93 143.086 128.975 143.04 129.02 142.996C129 142.975 128.981 142.955 128.961 142.936H128.961C128.981 142.955 129 142.975 129.02 142.996C129.065 142.95 129.11 142.905 129.156 142.86C129.136 142.84 129.116 142.82 129.096 142.8C129.116 142.819 129.136 142.84 129.156 142.86C129.201 142.815 129.246 142.769 129.291 142.724C129.271 142.704 129.251 142.684 129.232 142.664C129.251 142.684 129.271 142.704 129.291 142.724C129.336 142.678 129.381 142.633 129.426 142.588C129.406 142.568 129.387 142.548 129.367 142.528C129.386 142.547 129.406 142.567 129.426 142.588C129.471 142.541 129.515 142.495 129.56 142.449C130.902 141.122 132.242 139.792 133.589 138.47C133.839 138.225 133.833 137.99 133.587 137.779C133.042 137.312 132.621 136.711 132.01 136.316C131.987 136.339 131.965 136.361 131.942 136.383C131.964 136.361 131.987 136.339 132.01 136.316C131.963 136.182 131.872 136.092 131.738 136.045C131.715 136.068 131.693 136.09 131.671 136.113C131.693 136.091 131.715 136.068 131.738 136.045C131.691 135.912 131.601 135.821 131.468 135.772C131.421 135.638 131.329 135.549 131.192 135.506C131.182 135.486 131.175 135.461 131.16 135.446C124.911 129.268 118.661 123.09 112.413 116.912C112.124 116.626 111.903 116.672 111.617 116.957Z" fill="#F9B519"/>
<path d="M58.7763 208.87C58.7589 208.889 58.7416 208.907 58.7247 208.926C58.7416 208.907 58.7589 208.889 58.7763 208.87ZM52.369 209.85C52.3807 209.84 52.3924 209.831 52.4043 209.821C52.3926 209.831 52.3807 209.84 52.369 209.85ZM79.3935 188.799C79.3737 188.815 79.3543 188.832 79.3348 188.848C79.3543 188.832 79.3737 188.815 79.3935 188.799ZM79.4106 188.785C79.2407 188.426 79.0135 188.11 78.7028 187.858C78.681 187.879 78.6592 187.901 78.6374 187.922C78.6589 187.901 78.6807 187.879 78.7028 187.858C78.6198 187.761 78.5368 187.664 78.454 187.566V187.567C78.4097 187.52 78.3651 187.473 78.321 187.426C77.9408 186.904 77.4921 186.449 76.9723 186.065C76.9487 186.088 76.9256 186.111 76.9031 186.135C76.9256 186.111 76.9485 186.088 76.9723 186.065C76.8276 185.84 76.6393 185.664 76.3932 185.554C76.3716 185.577 76.3498 185.6 76.3281 185.623C76.3498 185.6 76.3716 185.577 76.3932 185.554C76.2536 185.366 76.0884 185.21 75.8563 185.142C75.834 185.166 75.8112 185.189 75.7881 185.213C75.8109 185.19 75.8337 185.166 75.8563 185.142C73.4992 183.195 70.7456 182.102 67.7603 181.726C63.5584 181.197 59.5725 181.987 56.038 184.403C51.0103 187.839 48.3404 192.61 48.1972 198.745C48.1472 200.897 48.5637 202.965 49.3348 204.951C50.0379 206.762 50.9641 208.462 52.3314 209.881C52.9127 210.661 53.5932 211.34 54.3734 211.92C54.3939 211.896 54.4139 211.872 54.4338 211.849C54.4139 211.872 54.3939 211.896 54.3734 211.92C57.0233 214.27 60.1367 215.611 63.6417 215.905C66.0019 216.102 68.3797 216.039 70.6683 215.233C72.483 214.592 74.2278 213.828 75.7178 212.575C75.7686 212.536 75.8195 212.496 75.8703 212.457C76.1862 212.199 76.951 212.114 76.2541 211.464C76.2523 211.466 76.25 211.468 76.2479 211.469L76.2541 211.465L76.1211 211.326C76.1032 211.345 76.0853 211.365 76.0682 211.385C76.0853 211.365 76.1032 211.345 76.1211 211.326C76.0863 211.188 76.0013 211.092 75.8729 211.034C75.8303 210.985 75.7881 210.937 75.7455 210.888V210.888C75.5604 210.586 75.3708 210.286 75.0722 210.077C75.0611 210.086 75.0497 210.096 75.0385 210.105C75.0497 210.096 75.0608 210.086 75.0722 210.077C74.9755 209.862 74.8243 209.694 74.6334 209.559C74.622 209.57 74.6106 209.581 74.5992 209.592C74.6106 209.581 74.6217 209.57 74.6334 209.559C74.5922 209.425 74.504 209.333 74.3805 209.271V209.271C74.3385 209.222 74.2965 209.173 74.2545 209.124C74.1404 208.963 74.0325 208.798 73.9116 208.642C73.2868 207.837 73.2567 207.837 72.5411 208.574C72.5608 208.6 72.5811 208.625 72.601 208.649C72.5811 208.625 72.5608 208.6 72.5411 208.574C72.4602 208.631 72.3788 208.688 72.2976 208.745C72.0216 208.893 71.7431 209.038 71.47 209.193C68.7972 210.704 65.9515 211.078 62.952 210.523C61.4488 210.244 60.1162 209.567 58.7932 208.852C58.4703 208.529 58.0999 208.27 57.7059 208.042C57.6831 208.065 57.6605 208.088 57.639 208.112C57.6605 208.088 57.6831 208.065 57.7059 208.042C57.604 207.866 57.4663 207.731 57.272 207.66C57.2264 207.616 57.1812 207.571 57.1358 207.526C57.1164 207.545 57.0969 207.563 57.0778 207.583C57.0967 207.564 57.1164 207.545 57.1358 207.526C57.0899 207.481 57.0443 207.436 56.9986 207.391C56.9535 207.346 56.9084 207.301 56.863 207.256C56.8435 207.275 56.8241 207.294 56.8044 207.313C56.8238 207.294 56.8433 207.275 56.863 207.256C56.8184 207.21 56.7738 207.164 56.7294 207.118C56.71 207.137 56.6905 207.156 56.6713 207.175C56.6905 207.157 56.7097 207.137 56.7294 207.118C56.6843 207.072 56.6392 207.027 56.594 206.981C56.5746 207.002 56.5554 207.024 56.537 207.046C56.5554 207.024 56.5746 207.002 56.594 206.981C56.5175 206.871 56.4496 206.754 56.363 206.653C53.137 202.883 52.5514 197.534 54.8633 193.142C55.6987 191.555 56.9159 190.306 58.2501 189.149C60.0215 187.998 61.9032 187.17 64.0356 186.913C65.8442 186.695 67.5692 186.934 69.2906 187.461C70.8029 187.923 72.0878 188.774 73.3475 189.684C73.3708 189.661 73.3942 189.637 73.4167 189.613C73.3942 189.637 73.3711 189.661 73.3475 189.684C73.6789 190.077 74.033 190.446 74.4454 190.757C74.4638 190.74 74.4824 190.723 74.5009 190.707C74.4824 190.723 74.4638 190.74 74.4456 190.757C74.4887 190.804 74.532 190.852 74.575 190.899C75.6172 192.271 76.5254 193.715 76.9692 195.403C77.1697 196.165 77.1575 196.17 76.3667 196.17C72.5484 196.17 68.7298 196.181 64.9115 196.156C64.2745 196.152 64.0193 196.324 64.045 196.995C64.0906 198.191 64.0971 199.391 64.0445 200.586C64.0141 201.266 64.2672 201.424 64.9001 201.42C68.9671 201.397 73.0342 201.407 77.101 201.406C78.7502 201.406 80.3995 201.402 82.0488 201.409C82.4573 201.411 82.7343 201.36 82.7403 200.833C82.7703 198.207 82.67 195.602 81.7365 193.103C81.1594 191.557 80.4908 190.06 79.4106 188.785Z" fill="#F9B519"/>
<path d="M97.5343 114.2C97.5849 114.115 97.6401 114.037 97.7252 113.994C97.6401 114.037 97.5849 114.116 97.5343 114.2C97.054 114.652 96.5586 115.089 96.0837 115.546C96.5586 115.089 97.054 114.652 97.5343 114.2ZM75.402 93.0584C70.4191 98.0075 65.4423 102.962 60.4594 107.911C60.1705 108.198 60.0945 108.386 60.4431 108.731C64.8935 113.13 69.3246 117.549 73.7665 121.957C73.9312 122.12 74.0414 122.381 74.336 122.376C74.3197 122.483 74.3705 122.523 74.4719 122.511C74.4605 122.613 74.5059 122.658 74.6078 122.647C74.5964 122.749 74.6421 122.794 74.7435 122.782C74.7326 122.884 74.778 122.929 74.8791 122.918C74.8682 123.019 74.9134 123.064 75.015 123.053C75.0041 123.155 75.0493 123.2 75.1504 123.189C75.1395 123.29 75.1849 123.336 75.2861 123.325C75.2754 123.426 75.3206 123.471 75.4217 123.46C75.4108 123.562 75.4562 123.607 75.5576 123.596C75.5465 123.697 75.5916 123.743 75.693 123.732C75.6821 123.833 75.7278 123.878 75.8289 123.867C75.8183 123.968 75.8631 124.014 75.9643 124.003C75.9537 124.104 75.999 124.149 76.0999 124.138C76.0893 124.24 76.1344 124.285 76.2356 124.274C76.2249 124.375 76.2703 124.42 76.3712 124.41C76.3606 124.511 76.406 124.556 76.5069 124.545C76.4965 124.646 76.5419 124.691 76.6425 124.681C76.6321 124.782 76.6773 124.827 76.7782 124.817C76.7681 124.917 76.8129 124.963 76.9138 124.952C76.9037 125.053 76.9488 125.098 77.0495 125.088C77.0393 125.188 77.0845 125.234 77.1851 125.224C77.175 125.324 77.2201 125.369 77.3205 125.359C77.3104 125.46 77.3558 125.505 77.4564 125.495C77.4463 125.595 77.4914 125.64 77.5918 125.63C77.5817 125.731 77.6271 125.776 77.7277 125.766C77.7178 125.866 77.763 125.912 77.8633 125.902C77.8532 126.002 77.8989 126.047 77.999 126.037C77.9896 126.137 78.035 126.182 78.1346 126.173C78.1261 126.272 78.1717 126.317 78.2708 126.308C78.2628 126.407 78.3084 126.452 78.4077 126.443C78.4427 126.521 78.4612 126.614 78.5169 126.671C79.5481 127.717 80.5897 128.753 81.6163 129.803C81.9532 130.148 82.1423 129.932 82.3866 129.684C85.2103 126.821 88.0417 123.964 90.8703 121.105C93.0938 118.858 95.316 116.609 97.539 114.36C97.6874 114.268 97.8518 114.187 97.8207 113.967C97.9296 113.985 97.9745 113.94 97.9558 113.831C98.0642 113.849 98.1091 113.804 98.0912 113.695C98.2001 113.714 98.2452 113.669 98.2268 113.56C98.335 113.577 98.3804 113.532 98.3622 113.424C98.4711 113.443 98.5165 113.397 98.4981 113.289C98.6063 113.306 98.6517 113.261 98.6335 113.153C98.7424 113.171 98.7878 113.126 98.7694 113.017C98.8776 113.035 98.9229 112.99 98.9048 112.882C99.0137 112.9 99.0591 112.855 99.0407 112.746C99.1488 112.764 99.194 112.718 99.1761 112.61C99.285 112.629 99.3304 112.584 99.312 112.475C99.4201 112.492 99.4653 112.447 99.4474 112.339C99.5563 112.357 99.6017 112.312 99.583 112.203C99.6912 112.221 99.7366 112.176 99.7187 112.068C99.8276 112.086 99.8732 112.041 99.8543 111.932C99.9627 111.95 100.008 111.905 99.99 111.796C100.099 111.815 100.144 111.77 100.125 111.661C100.235 111.679 100.276 111.63 100.261 111.525C100.367 111.54 100.411 111.493 100.396 111.389C100.501 111.403 100.546 111.358 100.532 111.253C100.636 111.267 100.681 111.222 100.667 111.117C100.771 111.131 100.817 111.086 100.803 110.982C100.907 110.996 100.952 110.95 100.938 110.846C101.042 110.86 101.088 110.815 101.074 110.71C101.178 110.724 101.223 110.679 101.21 110.575C101.314 110.589 101.359 110.543 101.345 110.439C101.449 110.453 101.495 110.408 101.481 110.304C101.585 110.317 101.63 110.272 101.616 110.168C101.721 110.182 101.766 110.137 101.752 110.032C101.856 110.046 101.902 110.001 101.888 109.897C101.992 109.91 102.037 109.865 102.024 109.761C102.128 109.775 102.173 109.73 102.159 109.625C102.263 109.639 102.308 109.594 102.295 109.49C102.399 109.503 102.444 109.458 102.43 109.354C102.535 109.368 102.579 109.322 102.566 109.218C102.67 109.232 102.715 109.186 102.701 109.083C102.805 109.096 102.85 109.05 102.836 108.946C102.94 108.955 102.983 108.906 102.968 108.806C103.92 108.24 103.932 108.158 103.201 107.444C102.32 106.584 101.445 105.716 100.558 104.861C100.392 104.701 100.286 104.438 99.9902 104.453C100.01 104.343 99.9645 104.298 99.8543 104.318C99.8751 104.207 99.8299 104.162 99.7187 104.183C99.7384 104.072 99.693 104.027 99.583 104.047C99.6038 103.936 99.5584 103.891 99.4474 103.912C99.4671 103.801 99.4217 103.756 99.312 103.776C99.3322 103.665 99.2871 103.62 99.1758 103.64C99.1955 103.53 99.1502 103.485 99.0399 103.505C99.0607 103.394 99.0096 103.354 98.904 103.37C98.9198 103.263 98.8747 103.218 98.7684 103.234C98.7842 103.128 98.7391 103.083 98.6325 103.099C98.6485 102.992 98.6032 102.947 98.4968 102.963C98.5126 102.857 98.4675 102.812 98.3612 102.827C98.2919 102.492 98.0715 102.329 97.7452 102.286C97.4978 102.04 97.2506 101.794 97.0032 101.548C97.0537 101.263 96.8055 101.16 96.6561 101.013C91.894 96.3167 87.1243 91.6282 82.3669 86.9276C82.0406 86.6052 81.8272 86.6355 81.5278 86.9385C80.2256 88.2565 78.907 89.5588 77.6006 90.873C77.4826 90.9913 77.2878 91.0753 77.3208 91.2986C77.2121 91.2802 77.1669 91.3253 77.1854 91.434C77.0754 91.4148 77.0303 91.4602 77.0497 91.5699C76.941 91.5515 76.8959 91.5969 76.9141 91.7053C76.8044 91.6861 76.7592 91.7317 76.7784 91.8412C76.67 91.823 76.6249 91.8682 76.6428 91.9766C76.5333 91.9576 76.4882 92.003 76.5071 92.1122C76.3987 92.0943 76.3536 92.1394 76.3715 92.2479C76.262 92.2292 76.2169 92.2741 76.2358 92.3835C76.1274 92.3653 76.082 92.4105 76.1002 92.5189C75.991 92.5 75.9454 92.5451 75.9646 92.6545C75.8564 92.6364 75.8097 92.6802 75.8284 92.7891C75.6035 92.7448 75.5184 92.9427 75.402 93.0584Z" fill="#F9B519"/>
<path d="M46.234 215.611C44.8926 215.709 43.5504 215.688 42.2085 215.668C43.5504 215.688 44.8928 215.709 46.2345 215.611C46.3243 215.593 46.4143 215.575 46.5045 215.557C46.4143 215.575 46.3243 215.593 46.234 215.611ZM40.8572 215.665L40.8663 215.654C40.8663 215.654 40.8611 215.66 40.8572 215.665ZM40.8144 184.277C40.8616 184.278 40.9002 184.304 40.9264 184.365C40.9002 184.304 40.8616 184.278 40.8144 184.277ZM46.7748 172.345C46.7748 172.13 46.8824 171.839 46.6303 171.73C46.3831 171.622 46.24 171.9 46.0774 172.036C45.0552 172.89 44.0193 173.729 43.0337 174.623C42.2077 175.372 41.2268 175.954 40.5615 176.879L40.5667 176.877C39.2533 177.708 38.1196 178.753 37.0251 179.846C36.6278 180.187 36.2307 180.529 35.8331 180.87C35.7859 180.882 35.7556 180.911 35.7421 180.958C35.6847 181.012 35.6272 181.066 35.5698 181.121C35.3756 181.131 35.2451 181.253 35.1061 181.371C32.7921 183.337 30.4742 185.299 28.163 187.269C28.0188 187.391 27.8048 187.481 27.81 187.727H27.8168C27.2418 187.869 26.8999 188.342 26.4984 188.707C25.7618 189.376 24.8717 189.877 24.2887 190.713C24.0324 190.702 23.8825 190.894 23.7308 191.042C23.4302 191.337 23.2043 191.326 22.8744 191.042C20.3316 188.847 17.7782 186.665 15.2102 184.501C14.5961 183.983 14.0551 183.362 13.2959 183.029C13.2962 183.029 13.2684 183.003 13.2684 183.003C13.2352 182.996 13.2114 182.978 13.1976 182.948C12.7401 182.556 12.2828 182.163 11.8253 181.771C11.2407 180.933 10.3516 180.426 9.61297 179.757C9.21226 179.394 8.86912 178.928 8.30216 178.778C8.28712 178.504 8.07185 178.469 7.87111 178.417L7.84231 178.391C7.82183 178.356 7.80186 178.322 7.78163 178.287C7.77955 178.305 7.77799 178.323 7.77566 178.341C7.31659 177.947 6.85778 177.553 6.39871 177.16C6.31805 176.966 6.23868 176.771 5.98659 176.75C5.22692 175.889 4.27532 175.243 3.42436 174.484C3.13206 174.223 2.87892 173.874 2.44501 173.803C2.44527 173.803 2.41933 173.78 2.41933 173.78C2.39858 173.745 2.37758 173.71 2.35683 173.675C2.35475 173.693 2.35294 173.711 2.3506 173.729C1.88686 173.336 1.42286 172.941 0.959126 172.548C0.893767 172.229 0.617029 172.079 0.407465 171.885C0.123465 171.621 0.0236128 171.796 0.0147945 172.093C0.00934789 172.273 0.0114227 172.454 0.0114227 172.635C0.0109039 178.488 0.0106449 184.34 0.0109042 190.193C0.0109042 198.486 0.0166082 206.78 9.1099e-06 215.073C-0.0012877 215.628 0.135397 215.816 0.711697 215.801C2.17968 215.761 3.65026 215.753 5.11772 215.802C5.82319 215.826 5.98451 215.576 5.98296 214.906C5.96324 205.167 5.97025 195.427 5.97051 185.687C5.97051 185.484 5.98529 185.279 5.9635 185.078C5.92434 184.716 6.15439 184.746 6.38419 184.764C6.63188 185.33 7.18017 185.601 7.61901 185.962C8.46504 186.657 9.19307 187.504 10.1841 188.018L10.1818 188.018C10.7549 188.866 11.6622 189.348 12.3933 190.024C12.792 190.392 13.1403 190.856 13.7104 191.004C13.7085 191.004 13.7078 191.004 13.706 191.004C13.7353 191.249 13.8898 191.365 14.1176 191.404C14.1163 191.405 14.1155 191.404 14.1144 191.404C14.1513 191.435 14.1881 191.465 14.2249 191.496C14.2257 191.476 14.2268 191.457 14.2278 191.439C14.373 191.576 14.5191 191.715 14.6646 191.853C14.7063 191.931 14.7304 192.029 14.7927 192.082C17.5149 194.413 20.2406 196.739 22.9628 199.069C23.1143 199.199 23.2852 199.309 23.439 199.158C23.8156 198.787 24.3621 198.591 24.5792 198.057C24.8585 198.07 25.0107 197.852 25.1905 197.701C27.7519 195.544 30.3178 193.393 32.8593 191.213C33.329 190.81 33.898 190.498 34.2178 189.931L34.2186 189.929C34.266 189.885 34.3135 189.842 34.361 189.798C34.4463 189.718 34.5316 189.638 34.617 189.558C34.6237 189.574 34.6307 189.59 34.6377 189.606C34.6574 189.568 34.6774 189.53 34.6979 189.491C34.6976 189.492 34.7308 189.46 34.7308 189.46C34.9344 189.415 35.1414 189.373 35.1577 189.104C35.768 188.935 36.1384 188.428 36.5733 188.037C37.2793 187.402 38.129 186.921 38.6817 186.12C39.0043 186.059 39.1986 185.839 39.3557 185.574C39.4494 185.577 39.4976 185.535 39.4942 185.439C39.8088 185.369 40.0277 185.18 40.1686 184.894C40.2529 184.889 40.3006 184.846 40.3055 184.761C40.879 184.778 40.6168 185.221 40.617 185.461C40.6313 195.299 40.6289 205.137 40.6375 214.975C40.6378 215.216 40.4824 215.532 40.8375 215.686C40.9189 215.719 41.0001 215.779 41.0818 215.779C42.8055 215.786 44.5297 215.787 46.2535 215.787C46.436 215.787 46.6166 215.771 46.6998 215.566C46.8248 215.356 46.7696 215.124 46.7696 214.903C46.7732 206.929 46.7732 198.955 46.7743 190.981C46.7753 184.769 46.7774 178.557 46.7748 172.345Z" fill="#F9B519"/>
<path d="M159.652 103.67C160.982 105.006 162.31 106.345 163.643 107.679C162.31 106.345 160.982 105.006 159.652 103.67C159.494 103.55 159.33 103.436 159.216 103.275C159.33 103.436 159.494 103.55 159.652 103.67ZM142.162 129.691C142.208 129.689 142.254 129.688 142.3 129.687C142.43 129.683 142.56 129.679 142.69 129.675L142.3 129.687C142.254 129.688 142.208 129.689 142.162 129.691ZM130.866 98.0868C128.988 99.947 127.119 101.817 125.245 103.68C123.835 105.082 122.42 106.478 121.009 107.878C120.769 108.116 120.498 108.291 120.903 108.689C123.679 111.41 126.426 114.161 129.19 116.895C129.371 117.074 129.492 117.356 129.811 117.357C129.794 117.464 129.84 117.509 129.946 117.494C129.931 117.599 129.981 117.64 130.082 117.629C130.071 117.73 130.116 117.776 130.218 117.765C130.207 117.866 130.252 117.911 130.353 117.9C130.343 118.001 130.388 118.047 130.489 118.036C130.478 118.137 130.523 118.182 130.624 118.171C130.614 118.273 130.659 118.318 130.76 118.307C130.749 118.408 130.795 118.453 130.896 118.443C130.885 118.544 130.931 118.589 131.031 118.578C131.021 118.679 131.066 118.724 131.167 118.714C131.157 118.815 131.202 118.86 131.302 118.85C131.292 118.95 131.338 118.995 131.438 118.985C131.428 119.086 131.473 119.131 131.574 119.121C131.564 119.221 131.609 119.267 131.71 119.257C131.7 119.357 131.745 119.402 131.845 119.392C131.835 119.492 131.881 119.538 131.981 119.528C131.971 119.628 132.016 119.673 132.116 119.664C132.106 119.764 132.152 119.809 132.252 119.799C132.242 119.899 132.287 119.944 132.388 119.935C132.378 120.035 132.423 120.08 132.523 120.071C132.513 120.171 132.559 120.216 132.659 120.206C132.649 120.306 132.694 120.351 132.795 120.342C132.785 120.442 132.83 120.487 132.93 120.477C132.921 120.577 132.966 120.622 133.066 120.613C133.056 120.713 133.102 120.758 133.201 120.749C133.192 120.848 133.237 120.893 133.337 120.884C133.328 120.984 133.373 121.029 133.473 121.02C133.464 121.119 133.51 121.164 133.609 121.155C133.601 121.254 133.646 121.299 133.745 121.291C133.739 121.389 133.787 121.43 133.883 121.423C133.878 121.519 133.923 121.564 134.019 121.558C134.014 121.654 134.06 121.699 134.155 121.694C134.15 121.789 134.194 121.836 134.291 121.83C134.284 121.927 134.331 121.97 134.426 121.965C134.422 122.06 134.467 122.106 134.562 122.101C134.557 122.196 134.602 122.241 134.697 122.236C134.693 122.332 134.738 122.377 134.833 122.372C134.828 122.467 134.874 122.512 134.969 122.508C134.964 122.603 135.009 122.648 135.104 122.643C135.1 122.739 135.146 122.783 135.24 122.779C135.236 122.873 135.28 122.92 135.375 122.914C135.371 123.01 135.417 123.054 135.511 123.05C135.508 123.144 135.551 123.191 135.647 123.186C135.642 123.281 135.688 123.325 135.783 123.321C135.779 123.415 135.823 123.462 135.918 123.457C135.913 123.552 135.96 123.596 136.054 123.593C136.05 123.687 136.094 123.733 136.189 123.728C136.185 123.824 136.231 123.867 136.325 123.864C136.322 123.958 136.365 124.004 136.461 124C136.456 124.095 136.503 124.138 136.596 124.135C136.593 124.229 136.637 124.276 136.732 124.271C136.727 124.366 136.774 124.41 136.868 124.407C136.864 124.5 136.909 124.546 137.003 124.542C137 124.636 137.045 124.681 137.139 124.678C137.135 124.772 137.18 124.817 137.275 124.813C137.271 124.907 137.316 124.952 137.41 124.949C137.407 125.043 137.452 125.088 137.546 125.084C137.543 125.178 137.59 125.221 137.682 125.219C137.681 125.312 137.726 125.357 137.818 125.355C137.818 125.446 137.868 125.487 137.955 125.49C137.958 125.576 138.001 125.624 138.09 125.625C138.092 125.714 138.139 125.758 138.226 125.761C138.229 125.848 138.273 125.895 138.361 125.897C138.364 125.985 138.41 126.029 138.497 126.032C138.5 126.119 138.544 126.166 138.633 126.168C138.635 126.256 138.681 126.3 138.768 126.303C138.772 126.39 138.815 126.437 138.904 126.439C138.906 126.528 138.953 126.571 139.04 126.574C139.043 126.661 139.087 126.708 139.175 126.71C139.177 126.799 139.224 126.842 139.311 126.846C139.314 126.933 139.358 126.98 139.447 126.981C139.448 127.07 139.495 127.114 139.582 127.117C139.586 127.204 139.629 127.25 139.718 127.253C139.72 127.341 139.767 127.385 139.854 127.388C139.857 127.475 139.901 127.522 139.989 127.524C139.991 127.612 140.038 127.656 140.125 127.659C140.128 127.746 140.172 127.793 140.26 127.795C140.263 127.884 140.309 127.928 140.396 127.931C140.4 128.018 140.444 128.064 140.532 128.066C140.535 128.154 140.58 128.199 140.667 128.202C140.67 128.289 140.716 128.335 140.803 128.337C140.806 128.425 140.851 128.47 140.939 128.473C140.942 128.56 140.987 128.606 141.074 128.609C141.077 128.696 141.123 128.741 141.21 128.744C141.213 128.832 141.258 128.877 141.346 128.88C141.349 128.968 141.394 129.012 141.482 129.015C141.485 129.103 141.53 129.148 141.618 129.151C141.621 129.238 141.669 129.281 141.755 129.285C141.76 129.37 141.804 129.417 141.89 129.421C141.894 129.507 141.942 129.55 142.026 129.555C142.031 129.641 142.072 129.69 142.161 129.693L142.277 129.847C142.277 129.847 142.309 129.815 142.309 129.815C142.309 129.815 142.277 129.847 142.277 129.847C142.428 130.007 142.577 130.121 142.711 129.831L142.692 129.813C142.697 129.817 142.711 129.831 142.711 129.831C142.754 129.783 142.796 129.735 142.838 129.688C143.23 129.308 143.713 129.011 143.932 128.476C144.03 128.483 144.075 128.438 144.068 128.34C144.165 128.347 144.211 128.302 144.203 128.204C144.301 128.211 144.346 128.166 144.339 128.069C144.437 128.076 144.482 128.031 144.475 127.933C144.572 127.94 144.617 127.895 144.611 127.797C144.708 127.804 144.753 127.759 144.746 127.662C144.843 127.669 144.889 127.624 144.882 127.526C144.979 127.533 145.024 127.488 145.017 127.39C145.115 127.398 145.16 127.352 145.153 127.255C145.251 127.262 145.295 127.217 145.288 127.119C145.386 127.126 145.431 127.081 145.424 126.984C145.522 126.991 145.567 126.946 145.56 126.848C145.657 126.855 145.703 126.81 145.695 126.712C145.793 126.72 145.838 126.674 145.831 126.577C145.929 126.584 145.974 126.538 145.967 126.441C146.064 126.448 146.109 126.403 146.102 126.306C146.2 126.312 146.246 126.267 146.238 126.168C146.362 126.153 146.393 126.075 146.371 125.963C146.439 125.896 146.507 125.828 146.575 125.761C146.907 125.731 147.068 125.459 147.27 125.256C151.869 120.631 156.465 116.003 161.059 111.371C161.209 111.22 161.437 111.113 161.433 110.848C161.532 110.856 161.577 110.811 161.568 110.712C161.668 110.721 161.713 110.675 161.704 110.576C161.802 110.584 161.847 110.538 161.839 110.441C161.938 110.45 161.984 110.404 161.975 110.304C162.073 110.312 162.118 110.267 162.11 110.169C162.21 110.178 162.255 110.133 162.246 110.033C162.344 110.041 162.389 109.996 162.381 109.898C162.481 109.907 162.527 109.862 162.518 109.761C162.615 109.769 162.661 109.725 162.652 109.627C162.752 109.636 162.798 109.591 162.789 109.49C162.887 109.498 162.932 109.453 162.923 109.356C163.024 109.365 163.069 109.319 163.06 109.219C163.158 109.227 163.203 109.182 163.195 109.084C163.295 109.093 163.341 109.048 163.331 108.948C163.429 108.956 163.474 108.911 163.466 108.813C163.566 108.822 163.612 108.777 163.602 108.677C163.7 108.685 163.745 108.639 163.738 108.542C163.837 108.551 163.883 108.505 163.874 108.405C164.352 108.284 164.314 108.025 164.024 107.743C162.572 106.334 161.113 104.932 159.656 103.527C159.511 103.345 159.401 103.119 159.126 103.099C159.133 103.002 159.088 102.957 158.991 102.964C158.999 102.865 158.953 102.819 158.854 102.827C158.861 102.73 158.816 102.686 158.719 102.693C158.728 102.593 158.682 102.548 158.583 102.556C158.591 102.458 158.546 102.413 158.448 102.42C158.456 102.321 158.41 102.276 158.311 102.285C158.318 102.188 158.273 102.143 158.176 102.15C158.184 102.051 158.134 102.01 158.039 102.014C158.043 101.921 157.997 101.876 157.904 101.88C157.907 101.785 157.862 101.74 157.768 101.744C157.772 101.65 157.726 101.605 157.632 101.609C157.636 101.514 157.591 101.469 157.496 101.473C157.5 101.379 157.455 101.334 157.361 101.337C157.365 101.243 157.319 101.198 157.225 101.202C157.228 101.107 157.183 101.061 157.087 101.066C156.008 99.7963 154.826 98.6284 153.558 97.5481C153.55 97.4638 153.505 97.4182 153.421 97.4104C153.413 97.3279 153.368 97.2828 153.285 97.275C153.278 97.1923 153.232 97.1472 153.15 97.1394C153.142 97.0566 153.097 97.0115 153.014 97.004C153.006 96.9213 152.96 96.8764 152.878 96.8683C152.87 96.7851 152.824 96.7394 152.74 96.7322C151.274 95.1179 149.672 93.6398 148.12 92.1111C147.373 91.3745 146.705 90.5506 145.828 89.9504C145.805 89.7922 145.714 89.7017 145.556 89.6775C145.532 89.5199 145.441 89.4288 145.283 89.4057C144.735 88.6593 143.996 88.0999 143.364 87.4361C142.359 86.3824 142.542 86.4246 141.54 87.4603C140.701 88.3289 139.745 89.0883 139.036 90.0811C139.036 90.0801 139.037 90.0798 139.037 90.079C138.931 90.0637 138.886 90.1091 138.9 90.2147C138.795 90.2002 138.75 90.2456 138.764 90.3501C138.659 90.3358 138.614 90.3809 138.628 90.4857C138.524 90.4715 138.478 90.5168 138.493 90.6214C138.388 90.6071 138.343 90.6522 138.357 90.7568C138.253 90.7427 138.207 90.7879 138.221 90.8924C138.117 90.8784 138.071 90.9235 138.086 91.028C137.981 91.014 137.936 91.0592 137.95 91.1639C137.846 91.1497 137.8 91.1948 137.814 91.2996C137.71 91.2853 137.665 91.3305 137.679 91.435C137.574 91.421 137.529 91.4661 137.543 91.5706C137.439 91.5564 137.394 91.6017 137.408 91.7063C137.303 91.692 137.258 91.7371 137.272 91.8419C137.168 91.8279 137.122 91.873 137.136 91.9776C137.032 91.9636 136.986 92.0087 137.001 92.1132C136.896 92.0992 136.851 92.1441 136.865 92.2489C136.76 92.2346 136.715 92.2797 136.729 92.3845C136.625 92.3705 136.58 92.4156 136.594 92.5201C136.489 92.5059 136.444 92.5513 136.458 92.6558C136.354 92.6415 136.308 92.6867 136.323 92.7912C136.218 92.7772 136.173 92.8226 136.187 92.9271C136.082 92.9128 136.037 92.958 136.051 93.0627C135.947 93.0485 135.902 93.0939 135.915 93.1981C135.811 93.1844 135.766 93.2295 135.78 93.3338C135.676 93.32 135.631 93.3654 135.644 93.4694C135.54 93.4554 135.495 93.5005 135.509 93.6048C135.404 93.5911 135.359 93.6362 135.373 93.7404C135.269 93.7267 135.222 93.7697 135.237 93.8756C135.131 93.8597 135.082 93.9012 135.101 94.011C134.993 93.9928 134.947 94.0379 134.965 94.1463C134.856 94.1279 134.811 94.1731 134.829 94.2822C134.721 94.2641 134.676 94.3095 134.694 94.4176C134.585 94.399 134.54 94.4443 134.558 94.5533C134.45 94.5354 134.404 94.5805 134.423 94.6889C134.313 94.6703 134.268 94.7156 134.287 94.8246C134.178 94.8067 134.133 94.8518 134.151 94.96C134.042 94.9415 133.997 94.9867 134.016 95.0959C133.907 95.078 133.862 95.1231 133.88 95.2315C133.771 95.2128 133.726 95.258 133.744 95.3672C133.636 95.3493 133.591 95.3944 133.609 95.5028C133.499 95.4839 133.454 95.5295 133.473 95.6385C133.365 95.6203 133.319 95.6657 133.337 95.7738C133.228 95.7552 133.183 95.8005 133.202 95.9095C133.094 95.8916 133.048 95.9367 133.066 96.0454C132.957 96.0267 132.912 96.0718 132.93 96.1808C132.822 96.1629 132.777 96.208 132.795 96.3164C132.686 96.2977 132.64 96.3429 132.659 96.4521C132.551 96.4342 132.506 96.4793 132.523 96.5877C132.415 96.569 132.369 96.6144 132.388 96.7234C132.28 96.7055 132.234 96.7506 132.252 96.859C132.143 96.8403 132.098 96.8857 132.117 96.9946C132.008 96.9768 131.963 97.0219 131.981 97.1303C131.872 97.1116 131.827 97.157 131.846 97.2659C131.737 97.248 131.692 97.2932 131.71 97.4016C131.601 97.3827 131.555 97.4278 131.574 97.5372C131.466 97.5191 131.42 97.5637 131.438 97.6724C131.142 97.6628 131.031 97.9229 130.866 98.0868" fill="#F9B519"/>
<path d="M111.503 99.4513H111.503C111.58 99.4622 111.638 99.4954 111.685 99.5418C111.638 99.4954 111.58 99.4622 111.503 99.4513ZM38.9422 71.0896C38.8716 71.247 38.7673 71.3731 38.6491 71.4859C38.7673 71.3731 38.8716 71.247 38.9422 71.0896ZM174.986 97.2747C175.07 97.2677 175.115 97.2226 175.122 97.1391C175.205 97.1321 175.251 97.087 175.258 97.0037C175.341 96.9964 175.386 96.9513 175.393 96.8681C175.477 96.8605 175.523 96.8154 175.529 96.7303C176.093 96.189 176.67 95.6597 177.22 95.1044C179.323 92.9823 181.418 90.8519 183.516 88.7249C185.41 86.8334 187.32 84.9564 189.194 83.0444C190.119 82.1005 191.148 81.254 191.94 80.182C191.984 80.1382 192.028 80.0944 192.073 80.0505L192.077 80.0464C192.12 80.0023 192.164 79.9582 192.208 79.9141C192.253 79.8693 192.299 79.8241 192.344 79.779V79.7793L192.348 79.7751C192.392 79.731 192.436 79.6869 192.479 79.6428C192.524 79.5977 192.57 79.5528 192.615 79.508L192.619 79.5038C192.663 79.4597 192.707 79.4156 192.751 79.3715C192.796 79.3264 192.841 79.2815 192.886 79.2367V79.2369C192.972 79.2299 193.016 79.1812 193.026 79.0984C193.464 78.8105 193.466 78.7172 193.034 78.4171C193.04 78.3198 192.994 78.2744 192.898 78.2794C192.903 78.1839 192.858 78.1388 192.762 78.1437C192.767 78.0488 192.721 78.0037 192.627 78.0081C192.631 77.9129 192.586 77.8678 192.491 77.8722C192.495 77.7778 192.45 77.7326 192.355 77.7368C192.36 77.6416 192.315 77.5965 192.22 77.6011C192.224 77.5062 192.179 77.4611 192.084 77.4655C192.089 77.3706 192.043 77.3252 191.948 77.3298C191.953 77.2349 191.908 77.1898 191.813 77.1945C191.818 77.099 191.772 77.0539 191.677 77.0586C191.682 76.9636 191.637 76.9185 191.542 76.9229C191.547 76.8275 191.501 76.7823 191.406 76.7873C191.411 76.6921 191.366 76.647 191.27 76.6516C191.276 76.5562 191.23 76.5108 191.135 76.516C191.14 76.4205 191.095 76.3754 190.999 76.3806C191.004 76.2846 190.96 76.2392 190.863 76.2447C190.868 76.1492 190.823 76.1038 190.728 76.109C190.733 76.0133 190.688 75.9679 190.592 75.9736C190.597 75.8777 190.552 75.8328 190.457 75.838C190.462 75.7418 190.417 75.6964 190.321 75.7021C190.326 75.6064 190.281 75.5613 190.185 75.5667C190.191 75.4705 190.146 75.4251 190.05 75.4311C190.055 75.3351 190.01 75.2897 189.914 75.2954C189.92 75.1992 189.875 75.1538 189.778 75.1598C189.784 75.0638 189.739 75.0184 189.643 75.0241C189.649 74.9279 189.603 74.883 189.508 74.8887C189.492 74.6289 189.265 74.523 189.112 74.3713C179.753 65.0325 170.389 55.6978 161.027 46.3616C155.474 40.824 149.923 35.2843 144.37 29.7459C143.57 28.9478 142.771 28.1495 141.967 27.3553C141.744 27.1349 141.516 26.8239 141.229 27.2931C141.22 27.3348 141.213 27.3766 141.205 27.4184C140.987 27.4028 140.903 27.5911 140.782 27.7094C132.223 36.0862 123.666 44.4654 115.115 52.8495C114.931 53.0298 114.663 53.1576 114.622 53.4588C114.52 53.4473 114.47 53.4883 114.485 53.5939C114.38 53.5794 114.335 53.6247 114.349 53.7295C114.244 53.715 114.199 53.7601 114.213 53.8652C114.108 53.8504 114.063 53.8955 114.078 54.0006C113.973 53.9858 113.926 54.0294 113.942 54.1362C113.836 54.1201 113.789 54.1645 113.806 54.2716C113.699 54.2542 113.649 54.2947 113.67 54.4067C113.56 54.3867 113.514 54.4319 113.534 54.5424C113.421 54.5188 113.375 54.5639 113.399 54.678C113.288 54.6578 113.243 54.7027 113.263 54.8134C113.149 54.7895 113.103 54.8347 113.127 54.9501C112.689 54.9688 112.591 55.6589 112.061 55.4934C112.074 55.3894 112.029 55.3435 111.925 55.3573C111.939 55.253 111.894 55.2076 111.789 55.2214C111.804 55.1171 111.758 55.072 111.654 55.086C111.668 54.9812 111.623 54.9358 111.518 54.9503C111.536 54.7592 111.372 54.6837 111.267 54.5797C110.258 53.5755 109.246 52.5733 108.229 51.5771C99.9963 43.5143 91.7595 35.4557 83.5383 27.3815C83.1627 27.013 82.9625 27.0376 82.6139 27.3854C71.1779 38.803 59.7331 50.2121 48.2929 61.626C48.1407 61.778 47.9197 61.8872 47.8906 62.1398C47.7952 62.1349 47.7454 62.1764 47.7537 62.276C47.6562 62.2685 47.6113 62.3134 47.6191 62.4106C47.5195 62.4021 47.4738 62.4472 47.4821 62.5463C47.3833 62.538 47.3382 62.5831 47.3468 62.6816C47.2477 62.6733 47.2026 62.7187 47.2109 62.8173C47.112 62.809 47.0669 62.8541 47.0755 62.9532C46.9764 62.9446 46.9313 62.9898 46.9396 63.0886C46.841 63.0803 46.7956 63.1254 46.8042 63.2242C46.7051 63.2159 46.66 63.2611 46.6683 63.3599C46.5697 63.3516 46.5246 63.3967 46.5329 63.4955C46.4341 63.4872 46.3887 63.5326 46.3972 63.6314C46.2987 63.6231 46.2533 63.6683 46.2616 63.7671C46.163 63.7585 46.1176 63.8039 46.1259 63.9027C46.0274 63.8944 45.9823 63.9398 45.9903 64.0381C45.8917 64.0301 45.8469 64.0752 45.8547 64.1737C45.7564 64.166 45.711 64.2111 45.719 64.3094C45.6204 64.3016 45.5756 64.3467 45.5834 64.445C45.4848 64.4373 45.4394 64.4826 45.4477 64.5817C45.3502 64.5742 45.3053 64.6193 45.3128 64.7171C45.2148 64.7091 45.1694 64.7545 45.1772 64.8528C45.0792 64.845 45.034 64.8901 45.0416 64.9884C44.9435 64.9806 44.8984 65.026 44.9062 65.1238C44.8081 65.1165 44.7627 65.1617 44.7703 65.2597C44.6722 65.2519 44.6271 65.297 44.6349 65.3951C44.5368 65.3876 44.4915 65.4327 44.499 65.5307C44.4009 65.5232 44.3558 65.5683 44.3636 65.6664C44.2655 65.6589 44.2202 65.704 44.2277 65.802C44.1296 65.7945 44.0848 65.8396 44.0923 65.9377C43.9943 65.9301 43.9491 65.9753 43.9564 66.0736C43.8586 66.0658 43.8135 66.1109 43.821 66.209C43.723 66.2014 43.6776 66.2466 43.6854 66.3446C43.5878 66.3371 43.5427 66.3822 43.5497 66.4795C43.4512 66.4714 43.4034 66.514 43.413 66.6149C43.3129 66.605 43.2675 66.6501 43.2771 66.7502C43.1765 66.7396 43.1288 66.7827 43.1412 66.8856C43.039 66.874 42.9939 66.9188 43.0056 67.0213C42.9026 67.0088 42.8572 67.0537 42.8699 67.1567C42.7675 67.145 42.7223 67.1901 42.7345 67.2923C42.6311 67.2796 42.5857 67.3247 42.5986 67.428C42.4964 67.416 42.4511 67.4612 42.4632 67.5636C42.36 67.5509 42.3146 67.5963 42.3273 67.6995C42.2252 67.6873 42.1798 67.7324 42.192 67.8349C42.0885 67.8222 42.0433 67.8676 42.0561 67.9705C41.9539 67.9586 41.9085 68.0037 41.9204 68.1062C41.8172 68.0935 41.7723 68.1389 41.7848 68.2418C41.6826 68.2299 41.6372 68.275 41.6491 68.3772C41.5461 68.3648 41.501 68.4099 41.5135 68.5129C41.4113 68.5012 41.3659 68.5463 41.3781 68.6488C41.2751 68.6358 41.2297 68.6812 41.2424 68.7844C41.14 68.7725 41.0946 68.8176 41.1068 68.9198C41.0038 68.9074 40.9584 68.9525 40.9711 69.0557C40.8687 69.0438 40.8236 69.0889 40.8355 69.1911C40.7325 69.1786 40.6871 69.2238 40.6998 69.3267C40.5974 69.3151 40.5523 69.3602 40.5642 69.4626C40.4612 69.4499 40.4161 69.4951 40.4286 69.598C40.3264 69.5866 40.2815 69.6317 40.2929 69.7337C40.1902 69.7212 40.1451 69.7666 40.1573 69.8693C40.0553 69.8579 40.0105 69.903 40.0219 70.005C39.9189 69.9928 39.8738 70.0382 39.886 70.1406C39.7843 70.1295 39.7392 70.1746 39.7506 70.2763C39.6479 70.2643 39.6025 70.3095 39.6147 70.4119C39.5133 70.4008 39.4679 70.4459 39.4793 70.5476C39.3766 70.5354 39.3312 70.5807 39.3434 70.6835C39.242 70.6718 39.1966 70.7169 39.208 70.8188C39.1053 70.8067 39.0602 70.8518 39.0721 70.9542C38.9699 70.9428 38.9245 70.9882 38.9364 71.0909C38.6019 71.1399 38.4748 71.4413 38.267 71.6447C35.9958 73.8982 33.7248 76.1518 31.4539 78.4057C31.0423 78.6894 31.2607 78.8985 31.513 79.1511C34.0174 81.6583 36.5034 84.1842 39.0158 86.6837C40.6599 88.3192 42.2335 90.0269 43.9621 91.5771C43.9994 91.721 44.0907 91.8118 44.2334 91.8512C44.2746 91.9283 44.3016 92.0193 44.3605 92.0787C47.0524 94.7882 49.7508 97.4913 52.4367 100.207C52.7311 100.505 52.8911 100.411 53.144 100.161C55.81 97.5232 58.4879 94.8974 61.1616 92.268C68.2671 85.2816 75.3777 78.3006 82.4651 71.2958C82.9539 70.8126 83.19 70.8085 83.6703 71.2992C92.0357 79.8379 100.421 88.3579 108.806 96.8769C109.003 97.0774 109.151 97.3546 109.465 97.4192C109.462 97.5144 109.503 97.565 109.603 97.5535C109.593 97.6544 109.638 97.7001 109.739 97.6894C109.728 97.7906 109.772 97.8368 109.874 97.8251C109.863 97.9273 109.908 97.9727 110.01 97.9607C109.998 98.0632 110.043 98.1086 110.146 98.0964C110.134 98.1988 110.179 98.2445 110.281 98.2323C110.269 98.3347 110.314 98.3804 110.417 98.3679C110.404 98.4709 110.449 98.5166 110.552 98.5036C110.539 98.6066 110.581 98.6556 110.687 98.6397C110.671 98.7466 110.716 98.792 110.823 98.7757C110.807 98.8817 110.852 98.9274 110.958 98.9113C110.941 99.0187 110.986 99.0641 111.094 99.0469C111.078 99.1535 111.123 99.1989 111.23 99.1826C111.212 99.29 111.257 99.3356 111.365 99.3185C111.349 99.4248 111.393 99.4697 111.499 99.4541C111.453 99.5942 111.551 99.6546 111.647 99.7164C111.729 99.8232 111.824 99.922 111.889 100.038C111.987 100.217 112.05 100.43 112.319 100.384C112.611 100.334 112.727 100.137 112.738 99.8603C112.844 99.8753 112.889 99.83 112.874 99.7244C112.98 99.7397 113.026 99.6943 113.01 99.5872C113.01 99.5872 113.008 99.5869 113.008 99.5869C113.148 99.5794 113.186 99.5039 113.147 99.3774C113.212 99.312 113.277 99.2464 113.343 99.181C113.561 99.1696 113.673 99.0521 113.687 98.8371C113.752 98.7705 113.817 98.7041 113.883 98.6379C114.165 98.6849 114.269 98.4408 114.418 98.2904C115.469 97.2314 116.511 96.1639 117.556 95.1002C125.413 87.1062 133.272 79.1145 141.12 71.1124C141.431 70.7947 141.609 70.7758 141.929 71.0948C143.48 72.6437 145.053 74.1708 146.62 75.7034C149.302 78.3255 151.985 80.9459 154.667 83.5672C155.618 84.5551 156.532 85.5822 157.623 86.4267C157.626 86.5136 157.672 86.559 157.758 86.5629C157.763 86.6492 157.808 86.6943 157.894 86.6982C157.898 86.7849 157.943 86.83 158.03 86.8339C158.034 86.9205 158.079 86.9656 158.165 86.9695C158.17 87.0562 158.215 87.1018 158.302 87.1049C158.414 87.2413 158.515 87.3892 158.64 87.5129C160.295 89.1489 161.948 90.7878 163.616 92.4107C163.998 92.7823 164.298 93.252 164.811 93.4792C164.832 93.6403 164.923 93.7308 165.084 93.751C165.269 94.2114 165.71 94.4384 166.036 94.7654C167.814 96.5462 169.611 98.3091 171.405 100.075C171.602 100.269 171.8 100.592 172.119 100.256C172.407 99.9513 172.788 99.7249 172.952 99.3105C173.037 99.3048 173.083 99.2591 173.088 99.1746C173.172 99.1675 173.217 99.1224 173.223 99.0384C173.307 99.0316 173.352 98.9863 173.359 98.9025C173.442 98.8955 173.487 98.8504 173.494 98.7668C173.578 98.7596 173.623 98.7147 173.63 98.6309C173.713 98.6242 173.759 98.5791 173.766 98.4955C173.849 98.4885 173.894 98.4434 173.901 98.3599C173.985 98.3529 174.03 98.3075 174.037 98.2243C174.12 98.2172 174.166 98.1719 174.173 98.0886C174.256 98.0816 174.301 98.0365 174.308 97.953C174.392 97.946 174.437 97.9008 174.444 97.8176C174.527 97.8103 174.573 97.7652 174.579 97.6817C174.663 97.6747 174.708 97.6295 174.715 97.546C174.798 97.539 174.844 97.4939 174.851 97.4104C174.934 97.4034 174.979 97.3582 174.986 97.2747Z" fill="#F9B519"/>
</svg>
