<svg width="411" height="402" viewBox="0 0 411 402" fill="none" xmlns="http://www.w3.org/2000/svg">
<path d="M159.36 108.51C159.17 108.68 158.93 108.88 158.71 109.1C149.83 117.83 140.96 126.56 132.08 135.28C125.91 141.35 119.72 147.4 113.56 153.49C113 154.05 112.68 154.12 112.08 153.52C102.47 143.8 92.8399 134.11 83.2099 124.42C82.2999 123.51 81.4299 122.56 80.4699 121.7C79.8299 121.13 79.9299 120.76 80.4899 120.21C86.2499 114.51 91.9899 108.79 97.7299 103.07C114.85 86.0101 131.96 68.9501 149.08 51.8901C152.31 48.6701 155.56 45.4901 158.76 42.2501C159.33 41.6801 159.61 41.7301 160.16 42.2701C171.29 53.2201 182.44 64.1401 193.59 75.0701C196.94 78.3601 200.31 81.6201 203.64 84.9301C204.23 85.5201 204.56 85.4901 205.15 84.9201C215.61 74.6301 226.1 64.3701 236.58 54.1001C240.63 50.1301 244.7 46.1901 248.73 42.2101C249.28 41.6701 249.56 41.7601 250.05 42.2501C254.88 47.1001 259.74 51.9401 264.59 56.7701C279.12 71.2501 293.65 85.7401 308.18 100.22C314.85 106.87 321.53 113.52 328.23 120.15C328.9 120.81 328.83 121.17 328.2 121.81C317.7 132.36 307.22 142.93 296.76 153.51C296.18 154.1 295.86 154.09 295.28 153.52C286.23 144.58 277.15 135.66 268.07 126.74C262.09 120.87 256.1 115.01 250.14 109.12C249.51 108.5 249.2 108.54 248.6 109.15C238.11 119.85 227.59 130.52 217.08 141.21C213.01 145.35 208.94 149.49 204.9 153.66C204.51 154.06 204.34 154.1 203.93 153.69C191.19 140.71 178.44 127.75 165.69 114.78C163.81 112.87 161.95 110.95 160.08 109.04C159.89 108.81 159.74 108.56 159.36 108.51Z" fill="#FAB71D"/>
<path d="M157.74 133.41C158.09 133.5 158.28 133.77 158.5 133.99C166.7 142.07 174.89 150.15 183.08 158.22C185.53 160.64 187.98 163.06 190.45 165.45C190.96 165.94 191.01 166.23 190.47 166.76C179.77 177.49 169.08 188.24 158.42 199.01C157.81 199.63 157.48 199.52 156.93 198.97C146.35 188.41 135.75 177.87 125.14 167.34C124.53 166.74 124.36 166.39 125.07 165.69C135.74 155.12 146.37 144.52 157.02 133.92C157.23 133.71 157.41 133.42 157.74 133.41Z" fill="#367630"/>
<path d="M284.07 166.24C283.91 166.42 283.73 166.63 283.54 166.82C273.85 176.55 264.17 186.28 254.48 196.01C253.5 197 252.51 197.97 251.58 199.01C251.03 199.63 250.66 199.61 250.08 199.02C245.74 194.66 241.37 190.32 237.01 185.99C230.75 179.77 224.49 173.54 218.21 167.34C217.58 166.72 217.49 166.37 218.17 165.69C228.83 155.12 239.47 144.52 250.1 133.91C250.64 133.37 250.97 133.34 251.53 133.89C259.04 141.32 266.57 148.74 274.09 156.15C277.21 159.22 280.33 162.29 283.45 165.37C283.69 165.61 284.02 165.79 284.07 166.24Z" fill="#367630"/>
<path d="M203.9 0C204.32 0.05 204.48 0.350001 204.69 0.560001C209.74 5.54 214.77 10.54 219.82 15.52C225.4 21.01 230.98 26.49 236.59 31.94C237.25 32.58 237.27 32.93 236.61 33.59C226 44.23 215.42 54.88 204.85 65.56C204.18 66.23 203.83 66.27 203.14 65.57C192.56 55 181.97 44.45 171.34 33.93C170.66 33.26 170.73 32.96 171.37 32.32C181.99 21.79 192.57 11.23 203.17 0.68C203.42 0.44 203.67 0.21 203.9 0Z" fill="#C93D27"/>
<path d="M237.21 212.35C237.15 212.7 236.87 212.88 236.65 213.1C228.7 221.08 220.75 229.05 212.8 237.04C210.13 239.73 207.45 242.41 204.82 245.13C204.17 245.81 203.77 245.74 203.14 245.1C195.62 237.58 188.08 230.07 180.54 222.57C177.46 219.51 174.38 216.44 171.26 213.42C170.65 212.83 170.71 212.51 171.28 211.94C181.95 201.37 192.6 190.78 203.23 180.18C203.79 179.62 204.12 179.54 204.73 180.14C215.33 190.62 225.96 201.08 236.58 211.55C236.83 211.79 237.16 211.97 237.21 212.35Z" fill="#367630"/>
<path d="M88.59 366.62V374.57H80.64V384.07C80.64 386.8 80.95 389.69 81.56 392.73C82.18 395.77 83.22 398.47 84.7 400.83H43.83C45.19 398.47 46.17 395.77 46.79 392.73C47.41 389.69 47.71 386.8 47.71 384.07V374.57H1.66L0 362.21C4.31 357.9 8.37999 352.96 12.21 347.35C16.03 341.75 19.36 335.73 22.2 329.27C25.03 322.81 27.25 316.02 28.86 308.88C30.46 301.75 31.26 294.49 31.26 287.11H80.64V366.63H88.59V366.62ZM18.13 366.62H47.72V316.32C48.21 313.49 48.58 310.8 48.83 308.28C49.08 305.75 49.2 302.89 49.2 299.68H46.61C46.61 306.09 45.59 312.78 43.56 319.74C41.53 326.71 39.03 333.24 36.07 339.34C33.11 345.44 30 350.84 26.73 355.52C23.46 360.21 20.6 363.47 18.13 365.32V366.62Z" fill="#C93D27"/>
<path d="M93.28 400.83C94.57 399.47 95.57 397.91 96.29 396.15C97.01 394.39 97.65 392.73 98.23 391.15L114.68 342L112.21 334.69H131.35L150.28 391.15C150.78 392.73 151.39 394.39 152.11 396.15C152.83 397.91 153.83 399.47 155.12 400.83H132C132.43 399.47 132.54 397.91 132.32 396.15C132.1 394.39 131.71 392.73 131.14 391.15L129.31 385.34H109.63L107.8 391.15C107.23 392.73 106.83 394.39 106.62 396.15C106.41 397.91 106.48 399.47 106.84 400.83H93.28ZM127.8 380.72L119.41 354.69L111.13 380.72H127.8Z" fill="#367630"/>
<path d="M198.89 334.69L196.85 349.75L184.37 338.78V354.48H190.61V359.1H186.31V391.15C186.31 392.73 186.4 394.39 186.58 396.15C186.76 397.91 187.24 399.47 188.03 400.83H164.91C165.77 399.47 166.38 397.91 166.74 396.15C167.1 394.39 167.28 392.73 167.28 391.15V359.1H164.27V354.48H167.39C167.39 351.61 167.77 348.98 168.52 346.57C169.27 344.17 170.44 342.09 172.02 340.33C173.6 338.57 175.62 337.19 178.1 336.19C180.57 335.19 183.53 334.68 186.97 334.68H198.89V334.69Z" fill="#367630"/>
<path d="M225.39 362.7C224.49 364.74 224.05 367.31 224.05 370.39V391.15C224.05 392.73 224.14 394.36 224.32 396.04C224.5 397.73 224.98 399.32 225.77 400.83H202.65C203.51 399.47 204.12 397.91 204.48 396.15C204.84 394.39 205.02 392.73 205.02 391.15V366.95C205.02 365.37 204.84 363.72 204.48 362C204.12 360.28 203.51 358.7 202.65 357.27L219.86 354.47V371.03H221.04C221.04 367.88 221.38 365.22 222.06 363.07C222.74 360.92 223.62 359.18 224.69 357.85C225.77 356.52 226.97 355.57 228.29 355C229.62 354.43 230.96 354.14 232.32 354.14C234.4 354.14 236.26 354.19 237.91 354.3C239.56 354.41 241.42 354.46 243.5 354.46L241.46 369.52L228.55 358.44C227.35 359.25 226.29 360.66 225.39 362.7Z" fill="#367630"/>
<path d="M257.71 366.95C257.71 365.37 257.53 363.72 257.17 362C256.81 360.28 256.2 358.7 255.34 357.27L276.74 354.47V391.14C276.74 392.72 276.92 394.38 277.28 396.14C277.64 397.9 278.25 399.46 279.11 400.82H255.34C256.2 399.46 256.81 397.9 257.17 396.14C257.53 394.38 257.71 392.72 257.71 391.14V366.95ZM256.53 340.82C258.61 339.17 260.49 337.49 262.18 335.77C263.86 334.05 265.53 332.15 267.18 330.07C268.9 332.15 270.6 334.05 272.29 335.77C273.97 337.49 275.86 339.18 277.94 340.82C275.86 342.47 273.98 344.15 272.29 345.87C270.6 347.59 268.9 349.49 267.18 351.57C265.53 349.49 263.86 347.59 262.18 345.87C260.49 344.15 258.61 342.47 256.53 340.82Z" fill="#367630"/>
<path d="M317.4 354.15C319.69 354.15 322.13 354.2 324.71 354.31C327.29 354.42 329.76 354.47 332.13 354.47L330.09 369.53L316.97 358.45C313.74 359.31 311.38 361.41 309.87 364.74C308.36 368.07 307.61 372 307.61 376.52C307.61 379.32 307.95 381.92 308.63 384.32C309.31 386.72 310.26 388.8 311.48 390.56C312.7 392.32 314.13 393.68 315.78 394.65C317.43 395.62 319.19 396.1 321.05 396.1C323.13 396.1 325.14 395.33 327.07 393.79C329.01 392.25 330.8 390.04 332.45 387.18L330.84 400.84C328.54 400.84 326.29 400.89 324.06 401C321.84 401.11 319.58 401.16 317.28 401.16C312.55 401.16 308.46 400.48 305.02 399.12C301.58 397.76 298.73 395.98 296.47 393.8C294.21 391.61 292.54 389.1 291.47 386.27C290.4 383.44 289.86 380.55 289.86 377.61C289.86 374.74 290.38 371.89 291.42 369.06C292.46 366.23 294.11 363.72 296.37 361.53C298.63 359.34 301.48 357.57 304.92 356.21C308.36 354.84 312.52 354.15 317.4 354.15Z" fill="#367630"/>
<path d="M371.6 354.15C374.11 354.15 376.58 354.58 379.02 355.44C381.46 356.3 383.63 357.52 385.53 359.1C387.43 360.68 388.97 362.6 390.15 364.85C391.33 367.11 391.92 369.67 391.92 372.54V391.15C391.92 392.73 392.1 394.39 392.46 396.15C392.82 397.91 393.43 399.47 394.29 400.83H376.44V384.27H375.36C375.14 386.64 374.71 388.86 374.07 390.94C373.42 393.02 372.49 394.81 371.27 396.32C370.05 397.82 368.51 399.01 366.65 399.87C364.78 400.73 362.53 401.16 359.87 401.16C357.86 401.16 355.85 400.93 353.85 400.46C351.84 399.99 350.05 399.26 348.47 398.25C346.89 397.25 345.62 395.96 344.65 394.38C343.68 392.8 343.2 390.94 343.2 388.79C343.2 386.35 343.7 384.27 344.71 382.55C345.71 380.83 347.04 379.4 348.69 378.25C350.34 377.1 352.22 376.19 354.34 375.51C356.45 374.83 358.62 374.31 360.85 373.95C363.07 373.59 365.28 373.36 367.46 373.25C369.65 373.14 371.6 373.09 373.32 373.09C373.32 369.29 372.46 366.15 370.74 363.68C369.02 361.21 366.83 359.5 364.18 358.57L347.94 369.54V354.48C352.03 354.48 355.99 354.43 359.82 354.32C363.66 354.21 367.58 354.15 371.6 354.15ZM373.32 376.09C371.82 376.09 370.31 376.43 368.8 377.11C367.29 377.79 365.93 378.78 364.71 380.07C363.49 381.36 362.51 382.92 361.75 384.75C361 386.58 360.62 388.6 360.62 390.83C360.62 392.48 361.03 393.9 361.86 395.08C362.68 396.26 363.71 396.85 364.93 396.85C366.79 396.85 368.28 396.03 369.39 394.38C370.5 392.73 371.34 390.8 371.92 388.57C372.49 386.35 372.87 384.07 373.05 381.74C373.23 379.41 373.32 377.53 373.32 376.09Z" fill="#367630"/>
<path d="M114.32 320.89C114.55 319.74 114.67 318.65 114.67 317.62V287.06C114.67 286.03 114.55 284.95 114.32 283.83C114.09 282.71 113.69 281.68 113.13 280.74H126.48L135.82 302.59L144.46 280.74H158.44C157.88 281.68 157.48 282.71 157.25 283.83C157.02 284.95 156.9 286.03 156.9 287.06V317.62C156.9 318.65 157.02 319.74 157.25 320.89C157.48 322.04 157.88 323.06 158.44 323.95H141.82C142.25 323.25 142.62 322.25 142.93 320.96C143.24 319.67 143.49 318.21 143.68 316.57C143.87 314.93 144.03 313.16 144.15 311.27C144.27 309.37 144.35 307.49 144.4 305.61C144.45 303.74 144.47 301.91 144.47 300.13C144.47 298.35 144.47 296.76 144.47 295.35L132.39 323.94L120.87 295.35C120.87 296.76 120.9 298.35 120.97 300.13C121.04 301.91 121.13 303.75 121.25 305.64C121.37 307.54 121.53 309.42 121.74 311.3C121.95 313.17 122.19 314.93 122.47 316.57C122.75 318.21 123.07 319.67 123.42 320.96C123.77 322.25 124.15 323.24 124.57 323.95H113.14C113.68 323.06 114.08 322.04 114.32 320.89Z" fill="#FAB71D"/>
<path d="M164.26 283.84C164.03 282.72 163.63 281.69 163.07 280.75H194.47L193.14 290.51L182.46 283.34H177.05V299.99L186.46 295.92V306.67L177.05 302.6V321.36C180.42 321.36 183.51 320.61 186.32 319.11C189.13 317.61 191.89 315.25 194.61 312.02L192.92 323.96H163.06C163.62 323.07 164.02 322.05 164.25 320.9C164.48 319.75 164.6 318.66 164.6 317.63V287.07C164.62 286.04 164.5 284.96 164.26 283.84Z" fill="#FAB71D"/>
<path d="M199.67 320.89C199.9 319.74 200.02 318.65 200.02 317.62V287.06C200.02 286.03 199.9 284.95 199.67 283.83C199.44 282.71 199.04 281.68 198.48 280.74H210.28L226.3 305.68C226.3 303.62 226.15 301.36 225.84 298.9C225.53 296.44 225.14 294.03 224.65 291.66C224.16 289.3 223.61 287.14 223 285.2C222.39 283.26 221.78 281.77 221.17 280.74H233.67C233.11 281.68 232.71 282.71 232.48 283.83C232.24 284.95 232.13 286.03 232.13 287.06V323.94H225.95L205.86 292.47C205.86 295.61 206 298.8 206.28 302.06C206.56 305.32 206.95 308.38 207.44 311.26C207.93 314.14 208.48 316.7 209.09 318.95C209.7 321.2 210.33 322.86 210.99 323.94H198.49C199.04 323.06 199.44 322.04 199.67 320.89Z" fill="#FAB71D"/>
<path d="M271.4 290.58L260.79 283.41V317.62C260.79 318.65 260.91 319.74 261.14 320.89C261.37 322.04 261.77 323.06 262.34 323.95H246.88C247.39 323.06 247.77 322.04 248 320.89C248.23 319.74 248.35 318.65 248.35 317.62V283.41L237.74 290.58V280.75H271.39V290.58H271.4Z" fill="#FAB71D"/>
<path d="M318.04 302.38C318.04 305.1 317.58 307.77 316.67 310.39C315.76 313.01 314.4 315.34 312.59 317.38C310.79 319.42 308.54 321.06 305.85 322.3C303.16 323.54 300.01 324.16 296.4 324.16C292.79 324.16 289.64 323.54 286.95 322.3C284.26 321.06 282.01 319.42 280.21 317.38C278.41 315.34 277.06 313.01 276.17 310.39C275.28 307.77 274.84 305.1 274.84 302.38C274.84 299.66 275.29 296.99 276.17 294.37C277.06 291.75 278.41 289.41 280.21 287.34C282.01 285.28 284.26 283.63 286.95 282.39C289.64 281.15 292.79 280.53 296.4 280.53C300.01 280.53 303.15 281.15 305.85 282.39C308.54 283.63 310.79 285.28 312.59 287.34C314.39 289.4 315.75 291.74 316.67 294.37C317.59 297 318.04 299.67 318.04 302.38ZM286.57 302.35C286.76 304.74 287.14 307.08 287.73 309.35C288.31 311.63 289.09 313.66 290.05 315.44C291.01 317.22 292.16 318.65 293.49 319.73C294.82 320.81 296.31 321.35 297.95 321.35C299.59 321.35 300.98 320.81 302.13 319.73C303.28 318.65 304.19 317.22 304.87 315.44C305.55 313.66 306 311.63 306.24 309.35C306.47 307.07 306.5 304.74 306.31 302.35C306.12 299.96 305.74 297.62 305.15 295.35C304.56 293.07 303.79 291.04 302.83 289.26C301.87 287.48 300.72 286.05 299.39 284.97C298.06 283.89 296.57 283.35 294.93 283.35C293.29 283.35 291.9 283.89 290.75 284.97C289.6 286.05 288.69 287.48 288.01 289.26C287.33 291.04 286.87 293.07 286.64 295.35C286.41 297.62 286.38 299.95 286.57 302.35Z" fill="#FAB71D"/>
<path d="M321.91 323.95C322.47 323.06 322.87 322.04 323.1 320.89C323.33 319.74 323.45 318.65 323.45 317.62V287.06C323.45 286.03 323.33 284.95 323.1 283.83C322.86 282.71 322.47 281.68 321.91 280.74C324.72 280.74 327.67 280.7 330.76 280.63C333.85 280.56 336.8 280.52 339.61 280.52C342.61 280.52 345.18 280.86 347.34 281.54C349.49 282.22 351.24 283.13 352.57 284.28C353.9 285.43 354.89 286.74 355.52 288.21C356.15 289.69 356.47 291.22 356.47 292.81C356.47 295.25 355.78 297.53 354.4 299.66C353.02 301.79 350.95 303.54 348.18 304.89C348.93 305.83 349.7 306.94 350.5 308.23C351.29 309.52 352.06 310.86 352.78 312.27C353.5 313.68 354.2 315.08 354.85 316.49C355.51 317.89 356.08 319.15 356.57 320.25C357.06 321.35 357.46 322.25 357.76 322.96C358.06 323.66 358.24 324.04 358.29 324.08H343.89C343.89 322.72 343.7 321.25 343.33 319.65C342.95 318.06 342.46 316.49 341.85 314.94C341.24 313.39 340.55 311.94 339.78 310.58C339.01 309.22 338.25 308.1 337.5 307.21C337.17 307.26 336.91 307.28 336.73 307.28C336.54 307.28 336.26 307.28 335.89 307.28V317.61C335.89 318.78 335.97 319.87 336.14 320.88C336.3 321.89 336.67 322.91 337.23 323.94H321.91V323.95ZM335.89 304.63C337.3 304.63 338.56 304.27 339.68 303.54C340.8 302.81 341.75 301.88 342.52 300.73C343.29 299.58 343.88 298.32 344.28 296.94C344.68 295.56 344.88 294.21 344.88 292.9C344.88 290.04 344.14 287.74 342.67 285.98C341.2 284.22 338.94 283.35 335.89 283.35V304.63Z" fill="#FAB71D"/>
<path d="M361.11 290.58C361.11 288.75 361.54 287.21 362.41 285.94C363.28 284.68 364.41 283.63 365.82 282.81C367.22 281.99 368.82 281.4 370.6 281.05C372.38 280.7 374.18 280.52 376.01 280.52C378.59 280.52 381.16 280.56 383.74 280.63C386.32 280.7 388.91 280.74 391.54 280.74L390.13 290.5L379.52 283.33C377.69 283.33 376.16 283.83 374.92 284.84C373.68 285.85 373.06 287.34 373.06 289.31C373.06 290.34 373.57 291.41 374.6 292.51C375.63 293.61 376.91 294.75 378.43 295.92C379.95 297.09 381.61 298.31 383.42 299.58C385.23 300.85 386.89 302.17 388.41 303.56C389.93 304.94 391.21 306.38 392.24 307.85C393.27 309.32 393.79 310.89 393.79 312.53C393.79 314.69 393.3 316.51 392.31 317.98C391.33 319.46 390 320.65 388.34 321.57C386.68 322.49 384.77 323.14 382.61 323.54C380.45 323.94 378.21 324.14 375.87 324.14C373.34 324.14 370.88 324.1 368.49 324.03C366.1 323.96 363.64 323.92 361.11 323.92V309.8C361.86 310.97 362.71 312.24 363.67 313.59C364.63 314.95 365.7 316.2 366.87 317.35C368.04 318.5 369.32 319.45 370.7 320.19C372.08 320.94 373.54 321.31 375.09 321.31C377.38 321.31 379.16 320.69 380.43 319.45C381.69 318.21 382.33 316.72 382.33 314.99C382.33 313.44 381.8 312 380.75 310.67C379.7 309.34 378.38 308.05 376.82 306.81C375.25 305.57 373.55 304.34 371.73 303.12C369.9 301.9 368.21 300.64 366.64 299.33C365.07 298.02 363.76 296.65 362.71 295.22C361.64 293.82 361.11 292.27 361.11 290.58Z" fill="#FAB71D"/>
<path d="M404.31 280.53C405.11 280.53 405.87 280.68 406.59 280.99C407.32 281.29 407.95 281.72 408.49 282.25C409.03 282.79 409.45 283.42 409.75 284.15C410.05 284.88 410.21 285.66 410.21 286.5C410.21 288.09 409.92 289.58 409.33 290.96C408.74 292.34 408 293.54 407.08 294.54C406.17 295.55 405.15 296.34 404.02 296.93C402.9 297.52 401.77 297.81 400.65 297.81C401.31 297.01 401.94 296.11 402.55 295.1C403.16 294.09 403.56 293.19 403.75 292.4C402.25 292.26 400.97 291.63 399.92 290.5C398.87 289.37 398.34 288.04 398.34 286.5C398.34 284.86 398.93 283.46 400.1 282.29C401.27 281.12 402.67 280.53 404.31 280.53Z" fill="#FAB71D"/>
<path d="M116.61 302.48L119.98 299.11L116.65 295.78L116.61 302.48Z" fill="#020203"/>
<path d="M119.98 308.93L116.61 305.56L119.94 302.24L119.98 308.93Z" fill="#020203"/>
<path d="M116.61 289.32L119.98 285.95L116.65 282.63L116.61 289.32Z" fill="#020203"/>
<path d="M119.98 295.78L116.61 292.41L119.94 289.08L119.98 295.78Z" fill="#020203"/>
<path d="M116.61 315.63L119.98 312.26L116.65 308.93L116.61 315.63Z" fill="#020203"/>
<path d="M119.98 322.08L116.61 318.72L119.94 315.39L119.98 322.08Z" fill="#020203"/>
<path d="M54.56 399.94L50.75 396.13L46.99 399.89L54.56 399.94Z" fill="#020203"/>
<path d="M61.85 396.13L58.05 399.94L54.28 396.18L61.85 396.13Z" fill="#020203"/>
<path d="M68.3901 399.94L64.5801 396.13L60.8201 399.89L68.3901 399.94Z" fill="#020203"/>
<path d="M82.1699 399.94L78.3599 396.13L74.5999 399.89L82.1699 399.94Z" fill="#020203"/>
<path d="M75.6799 396.13L71.8799 399.94L68.1199 396.18L75.6799 396.13Z" fill="#020203"/>
<path d="M61.85 392.07L58.05 388.26L54.28 392.02L61.85 392.07Z" fill="#020203"/>
<path d="M68.3901 388.26L64.5801 392.07L60.8201 388.31L68.3901 388.26Z" fill="#020203"/>
<path d="M68.3901 384.2L64.5801 380.39L60.8201 384.15L68.3901 384.2Z" fill="#020203"/>
<path d="M75.6799 392.07L71.8799 388.26L68.1199 392.02L75.6799 392.07Z" fill="#020203"/>
<path d="M379.58 369.36L384.56 364.38L379.64 359.46L379.58 369.36Z" fill="#F8AD43"/>
<path d="M384.56 378.9L379.58 373.92L384.5 369L384.56 378.9Z" fill="#F8AD43"/>
<path d="M379.58 388.8L384.56 383.82L379.64 378.9L379.58 388.8Z" fill="#F8AD43"/>
<path d="M384.56 398.34L379.58 393.36L384.5 388.44L384.56 398.34Z" fill="#F8AD43"/>
</svg>
