<svg width="203" height="95" viewBox="0 0 203 95" fill="none" xmlns="http://www.w3.org/2000/svg">
<path d="M37.2529 78.2969L31.241 94.4316H27.0931L21.0812 78.2969H25.1767L29.1671 89.8289L33.1575 78.2969H37.2529Z" fill="url(#paint0_linear_536_3473)"/>
<path fill-rule="evenodd" clip-rule="evenodd" d="M48.3316 89.6266H39.7994C39.9307 91.144 40.7708 92.0798 42.3984 92.0798C43.606 92.0798 44.4199 91.574 44.7349 90.7141H48.174C47.5964 93.0661 45.5488 94.634 42.451 94.634C38.6968 94.634 36.2028 92.4085 36.2028 89.045C36.2028 85.6815 38.7231 83.4307 42.3197 83.4307C45.9426 83.4307 48.3316 85.6562 48.3316 89.0197V89.6266ZM40.0095 87.5529H44.6562C44.2886 86.6172 43.5798 86.0861 42.3984 86.0861C41.1383 86.0861 40.377 86.6425 40.0095 87.5529Z" fill="url(#paint1_linear_536_3473)"/>
<path d="M61.5628 87.6283V94.4312H58.0187V88.1848C58.0187 87.2238 57.2836 86.4903 56.2597 86.4903C55.2096 86.4903 54.3958 87.2238 54.3958 88.1848V94.4312H50.8254V83.6831H54.3958V84.9983C55.1572 84.0625 56.286 83.4556 57.5724 83.4556C59.7776 83.4556 61.5628 85.2511 61.5628 87.6283Z" fill="url(#paint2_linear_536_3473)"/>
<path d="M68.7036 86.339V90.1831C68.7036 91.0682 69.2286 91.6246 69.99 91.6246H71.3289V94.28C71.0401 94.4823 70.2788 94.6341 69.5437 94.6341C67.1547 94.6341 65.1595 92.8638 65.1595 90.5877V86.339H63.2955V83.6836H65.1595V79.5361H68.7036V83.6836H71.3551V86.339H68.7036Z" fill="url(#paint3_linear_536_3473)"/>
<path d="M73.2982 90.31V83.6841H76.8685V89.8548C76.8685 90.8917 77.6037 91.5998 78.5488 91.5998C79.5201 91.5998 80.2552 90.8917 80.2552 89.8548V83.6841H83.7993V90.31C83.7993 92.9401 81.9091 94.6345 78.5488 94.6345C75.1622 94.6345 73.2982 92.9401 73.2982 90.31Z" fill="url(#paint4_linear_536_3473)"/>
<path d="M94.4833 83.5567V86.6168C94.2208 86.5409 93.8533 86.4903 93.4332 86.4903C91.6743 86.4903 90.4404 87.5272 90.4404 89.2975V94.4312H86.8701V83.6831H90.4404V85.15C91.1492 84.1131 92.2519 83.4556 93.5645 83.4556C93.8795 83.4556 94.2208 83.4808 94.4833 83.5567Z" fill="url(#paint5_linear_536_3473)"/>
<path fill-rule="evenodd" clip-rule="evenodd" d="M107.426 89.6266H98.8943C99.0256 91.144 99.8656 92.0798 101.467 92.0798C102.701 92.0798 103.515 91.574 103.83 90.7141H107.243C106.691 93.0661 104.617 94.634 101.52 94.634C97.7917 94.634 95.2714 92.4085 95.2714 89.045C95.2714 85.6815 97.8179 83.4307 101.415 83.4307C105.011 83.4307 107.426 85.6562 107.426 89.0197V89.6266ZM99.1043 87.5529H103.725C103.383 86.6172 102.675 86.0861 101.467 86.0861C100.207 86.0861 99.4718 86.6425 99.1043 87.5529Z" fill="url(#paint6_linear_536_3473)"/>
<path d="M108.791 92.054L111.416 90.7895C111.915 91.7 112.703 91.9276 113.28 91.9276C113.858 91.9276 114.252 91.6748 114.252 91.2448C114.252 90.8908 113.91 90.6126 112.913 90.2332C111.626 89.778 109.395 89.0446 109.395 86.895C109.395 85.0741 111.023 83.4556 113.543 83.4556C115.118 83.4556 116.483 84.0879 117.323 84.8971L115.538 86.8192C115.197 86.4145 114.54 86.0352 113.805 86.0352C113.201 86.0352 112.913 86.3133 112.913 86.6674C112.913 87.072 113.307 87.2238 114.12 87.5525C115.696 88.1342 117.533 88.994 117.533 91.1436C117.533 93.1667 116.011 94.6336 113.49 94.6336C111.521 94.6336 109.447 93.7231 108.791 92.054Z" fill="url(#paint7_linear_536_3473)"/>
<path d="M135.648 91.2704V94.4316H126.407V78.2969H130.109V91.2704H135.648Z" fill="url(#paint8_linear_536_3473)"/>
<path fill-rule="evenodd" clip-rule="evenodd" d="M149.903 91.6242V94.4312C149.667 94.5324 149.325 94.6336 148.958 94.6336C147.461 94.6336 146.228 93.9255 145.519 92.8127C144.626 93.9507 143.313 94.6336 141.712 94.6336C138.614 94.6336 136.173 92.1805 136.173 89.0446C136.173 85.934 138.614 83.4556 141.712 83.4556C142.998 83.4556 144.049 83.8855 144.889 84.6189V83.6831H148.433V90.5873C148.433 91.4724 148.932 91.6242 149.404 91.6242H149.903ZM145.046 89.0446C145.046 87.6284 143.839 86.4903 142.395 86.4903C140.925 86.4903 139.743 87.6284 139.743 89.0446C139.743 90.4861 140.925 91.5989 142.395 91.5989C143.839 91.5989 145.046 90.4861 145.046 89.0446Z" fill="url(#paint9_linear_536_3473)"/>
<path fill-rule="evenodd" clip-rule="evenodd" d="M164.21 89.0442C164.21 92.1801 161.795 94.6332 158.724 94.6332C157.437 94.6332 156.387 94.2033 155.547 93.4951V94.4561L151.977 94.4308V76.02H155.547V84.6185C156.387 83.8851 157.437 83.4551 158.724 83.4551C161.795 83.4551 164.21 85.9335 164.21 89.0442ZM160.666 89.0442C160.666 87.6279 159.511 86.4899 158.015 86.4899C156.545 86.4899 155.363 87.6279 155.363 89.0442C155.363 90.4857 156.545 91.5984 158.015 91.5984C159.511 91.5984 160.666 90.4857 160.666 89.0442Z" fill="url(#paint10_linear_536_3473)"/>
<path fill-rule="evenodd" clip-rule="evenodd" d="M36.9376 71.2661C16.618 71.2408 0 55.2072 0 35.6583C0.0262527 15.983 16.5392 0.0253194 36.885 2.98286e-05C57.3621 -0.0252597 74.0589 16.0337 74.0064 35.709C73.9539 55.2578 57.2572 71.2914 36.9376 71.2661ZM37.0163 16.9187C26.0952 16.9187 17.5631 25.1127 17.5631 35.6078C17.5631 46.103 26.0689 54.3473 36.9638 54.3473C47.8324 54.3473 56.4433 46.0776 56.4433 35.633C56.417 25.1378 47.9112 16.944 37.0163 16.9187Z" fill="#23282C"/>
<path fill-rule="evenodd" clip-rule="evenodd" d="M127.168 71.2661C106.822 71.2408 90.2042 55.2072 90.2305 35.6583C90.2305 15.983 106.77 0.0253194 127.089 2.98286e-05C147.593 -0.0252597 164.263 16.0337 164.211 35.709C164.184 55.2578 147.461 71.2914 127.168 71.2661ZM127.221 16.9187C116.326 16.9187 107.767 25.1127 107.767 35.6078C107.767 46.103 116.299 54.3473 127.168 54.3473C138.037 54.3473 146.648 46.0776 146.648 35.633C146.648 25.1378 138.115 16.944 127.221 16.9187Z" fill="#23282C"/>
<path d="M111.916 66.8912H93.3026L74.7157 41.197H74.0857C74.3745 39.3761 74.5319 37.53 74.5582 35.6333C74.5582 33.4078 74.3482 31.233 73.9281 29.1339H80.9901C86.2669 29.1339 90.1785 25.9221 90.1785 21.2688C90.1785 16.7167 86.2669 13.4038 80.9901 13.4038H68.0476V15.4269C63.9521 9.71148 58.2028 5.20996 51.4558 2.55455V0.455566H83.5104C96.453 0.455566 106.009 9.53452 106.009 20.8137C106.009 29.8926 99.7083 37.2013 90.8086 39.528L111.916 66.8912Z" fill="url(#paint11_linear_536_3473)"/>
<path fill-rule="evenodd" clip-rule="evenodd" d="M112.677 67.2447H93.1183L74.5051 41.5758H73.6126L73.6913 41.1459C74.0064 39.3251 74.1638 37.4789 74.1638 35.6327C74.1638 33.4831 73.9539 31.3082 73.5601 29.1839L73.4813 28.754H80.9895C86.1613 28.754 89.7842 25.6687 89.7842 21.2683C89.7842 16.9185 86.0826 13.7826 80.9895 13.7826H68.4145V16.615L67.7319 15.6288C63.6365 9.91333 57.966 5.51284 51.2978 2.88273L51.0615 2.80691V0.0756836H83.5098C89.8105 0.0756836 95.6386 2.2253 99.8653 6.14518C104.066 9.9892 106.402 15.2241 106.402 20.8131C106.402 29.6392 100.417 37.1755 91.4381 39.755L112.677 67.2447ZM93.5121 66.486H111.154L90.1518 39.2997L90.703 39.1733C99.6289 36.8466 105.615 29.4622 105.615 20.8131C105.615 9.58456 95.9011 0.809057 83.5098 0.809057H51.8228V2.2758C58.1497 4.80476 63.584 8.92694 67.6532 14.263V13.0239H80.9895C86.5289 13.0239 90.5456 16.4885 90.5456 21.243C90.5456 26.0227 86.5289 29.4874 80.9895 29.4874H74.4001C74.7414 31.5106 74.9252 33.559 74.9252 35.6327C74.9252 37.3524 74.7939 39.0974 74.5051 40.8171H74.8989L93.5121 66.486Z" fill="url(#paint12_linear_536_3473)"/>
<path d="M37.1741 39.1225C35.0738 39.1731 33.4199 37.7063 33.3674 35.7084C33.3412 33.8117 35.0739 32.0161 37.0691 32.1425C39.1168 32.2943 40.5344 33.3059 40.6394 35.4808C40.7444 37.5546 39.3005 39.0719 37.1741 39.1225Z" fill="url(#paint13_linear_536_3473)"/>
<g style="mix-blend-mode:multiply">
<path fill-rule="evenodd" clip-rule="evenodd" d="M182.244 88.2604C181.535 90.2583 181.168 92.4079 181.168 94.6334H174.211C174.211 91.1687 174.893 87.8305 176.153 84.7705C178.595 85.2257 180.721 86.4901 182.244 88.2604ZM188.098 71.4681C185.867 72.7073 183.819 74.25 182.034 76.0456C181.176 76.8885 180.38 77.7905 179.645 78.7515C181.903 79.4596 183.977 80.623 185.709 82.1151C186.445 81.2384 187.241 80.4291 188.098 79.6872C189.884 78.1446 191.931 76.9054 194.163 76.0456C196.578 75.0846 199.23 74.5535 202.012 74.5535V67.877C196.946 67.877 192.194 69.1668 188.098 71.4681Z" fill="url(#paint14_linear_536_3473)"/>
<path d="M188.098 84.6192C185.919 87.4011 184.633 90.8911 184.633 94.6339C184.633 92.2061 183.741 89.9806 182.244 88.2609C180.721 86.4906 178.595 85.2262 176.153 84.771C175.523 84.653 174.876 84.5939 174.211 84.5939V77.9175C176.101 77.9175 177.939 78.1956 179.645 78.752C181.903 79.4601 183.977 80.6235 185.709 82.1156C186.602 82.8743 187.39 83.7088 188.098 84.6192Z" fill="url(#paint15_linear_536_3473)"/>
<path fill-rule="evenodd" clip-rule="evenodd" d="M202.012 77.9175V84.5939C201.33 84.5939 200.673 84.6698 200.043 84.771C199.151 82.6214 197.969 80.5981 196.552 78.752C198.258 78.1956 200.096 77.9175 202.012 77.9175ZM190.487 82.1156C189.621 82.8743 188.807 83.7088 188.098 84.6192C185.919 87.4011 184.633 90.8911 184.633 94.6339H191.59C191.59 92.2061 192.483 89.9806 193.979 88.2609C193.191 86.0101 192.01 83.9364 190.487 82.1156Z" fill="url(#paint16_linear_536_3473)"/>
<path fill-rule="evenodd" clip-rule="evenodd" d="M202.012 94.6334H195.055C195.055 92.4079 194.662 90.2583 193.979 88.2604C193.191 86.0096 192.01 83.9359 190.487 82.1151C189.77 81.2384 188.974 80.4291 188.098 79.6872C189.884 78.1446 191.931 76.9054 194.163 76.0456C195.02 76.8885 195.817 77.7905 196.552 78.7515C197.969 80.5976 199.151 82.6209 200.043 84.7705C201.304 87.8305 202.012 91.1687 202.012 94.6334ZM188.098 71.4681C185.867 72.7073 183.819 74.25 182.034 76.0456C179.619 75.0846 176.967 74.5535 174.211 74.5535V67.877C179.278 67.877 184.003 69.1668 188.098 71.4681Z" fill="url(#paint17_linear_536_3473)"/>
</g>
<defs>
<linearGradient id="paint0_linear_536_3473" x1="20.5562" y1="94.4316" x2="20.5562" y2="78.2969" gradientUnits="userSpaceOnUse">
<stop stop-color="#C39625"/>
<stop offset="0.9" stop-color="#FEC821"/>
<stop offset="1" stop-color="#FEC821"/>
</linearGradient>
<linearGradient id="paint1_linear_536_3473" x1="35.6778" y1="94.634" x2="35.6778" y2="83.4307" gradientUnits="userSpaceOnUse">
<stop stop-color="#C39625"/>
<stop offset="0.9" stop-color="#FEC821"/>
<stop offset="1" stop-color="#FEC821"/>
</linearGradient>
<linearGradient id="paint2_linear_536_3473" x1="50.3004" y1="94.4312" x2="50.3004" y2="83.4556" gradientUnits="userSpaceOnUse">
<stop stop-color="#C39625"/>
<stop offset="0.9" stop-color="#FEC821"/>
<stop offset="1" stop-color="#FEC821"/>
</linearGradient>
<linearGradient id="paint3_linear_536_3473" x1="62.7705" y1="94.6341" x2="62.7705" y2="79.5361" gradientUnits="userSpaceOnUse">
<stop stop-color="#C39625"/>
<stop offset="0.9" stop-color="#FEC821"/>
<stop offset="1" stop-color="#FEC821"/>
</linearGradient>
<linearGradient id="paint4_linear_536_3473" x1="72.7732" y1="94.6345" x2="72.7732" y2="83.6841" gradientUnits="userSpaceOnUse">
<stop stop-color="#C39625"/>
<stop offset="0.9" stop-color="#FEC821"/>
<stop offset="1" stop-color="#FEC821"/>
</linearGradient>
<linearGradient id="paint5_linear_536_3473" x1="86.345" y1="94.4312" x2="86.345" y2="83.4556" gradientUnits="userSpaceOnUse">
<stop stop-color="#C39625"/>
<stop offset="0.9" stop-color="#FEC821"/>
<stop offset="1" stop-color="#FEC821"/>
</linearGradient>
<linearGradient id="paint6_linear_536_3473" x1="94.7464" y1="94.634" x2="94.7464" y2="83.4307" gradientUnits="userSpaceOnUse">
<stop stop-color="#C39625"/>
<stop offset="0.9" stop-color="#FEC821"/>
<stop offset="1" stop-color="#FEC821"/>
</linearGradient>
<linearGradient id="paint7_linear_536_3473" x1="108.266" y1="94.6336" x2="108.266" y2="83.4556" gradientUnits="userSpaceOnUse">
<stop stop-color="#C39625"/>
<stop offset="0.9" stop-color="#FEC821"/>
<stop offset="1" stop-color="#FEC821"/>
</linearGradient>
<linearGradient id="paint8_linear_536_3473" x1="125.882" y1="94.4316" x2="125.882" y2="78.2969" gradientUnits="userSpaceOnUse">
<stop stop-color="#C39625"/>
<stop offset="0.9" stop-color="#FEC821"/>
<stop offset="1" stop-color="#FEC821"/>
</linearGradient>
<linearGradient id="paint9_linear_536_3473" x1="135.648" y1="94.6336" x2="135.648" y2="83.4556" gradientUnits="userSpaceOnUse">
<stop stop-color="#C39625"/>
<stop offset="0.9" stop-color="#FEC821"/>
<stop offset="1" stop-color="#FEC821"/>
</linearGradient>
<linearGradient id="paint10_linear_536_3473" x1="151.452" y1="94.6332" x2="151.452" y2="76.02" gradientUnits="userSpaceOnUse">
<stop stop-color="#C39625"/>
<stop offset="0.9" stop-color="#FEC821"/>
<stop offset="1" stop-color="#FEC821"/>
</linearGradient>
<linearGradient id="paint11_linear_536_3473" x1="37.5156" y1="13.1509" x2="70.7734" y2="-21.3735" gradientUnits="userSpaceOnUse">
<stop stop-color="#C39625"/>
<stop offset="0.3" stop-color="#FEC821"/>
<stop offset="0.5" stop-color="#EBEC7E"/>
<stop offset="0.6" stop-color="#FEC821"/>
<stop offset="1" stop-color="#C39625"/>
</linearGradient>
<linearGradient id="paint12_linear_536_3473" x1="73.7701" y1="-21.7998" x2="137" y2="43.8387" gradientUnits="userSpaceOnUse">
<stop stop-color="#C39625"/>
<stop offset="0.3" stop-color="#FEC821"/>
<stop offset="0.5" stop-color="#C39625"/>
<stop offset="0.6" stop-color="#FEC821"/>
<stop offset="1" stop-color="#C39625"/>
</linearGradient>
<linearGradient id="paint13_linear_536_3473" x1="31.2935" y1="35.1014" x2="36.1953" y2="29.9867" gradientUnits="userSpaceOnUse">
<stop stop-color="#C39625"/>
<stop offset="0.5" stop-color="#FEC821"/>
<stop offset="1" stop-color="#C39625"/>
</linearGradient>
<linearGradient id="paint14_linear_536_3473" x1="202.012" y1="95.1392" x2="174.211" y2="95.1392" gradientUnits="userSpaceOnUse">
<stop stop-color="#23282C" stop-opacity="0.1"/>
<stop offset="1" stop-color="#23282C" stop-opacity="0.5"/>
</linearGradient>
<linearGradient id="paint15_linear_536_3473" x1="178.201" y1="74.0735" x2="191.57" y2="87.9515" gradientUnits="userSpaceOnUse">
<stop stop-color="#23282C" stop-opacity="0.2"/>
<stop offset="1" stop-color="#23282C" stop-opacity="0.5"/>
</linearGradient>
<linearGradient id="paint16_linear_536_3473" x1="202.537" y1="77.9175" x2="202.537" y2="94.6339" gradientUnits="userSpaceOnUse">
<stop stop-color="#23282C" stop-opacity="0.1"/>
<stop offset="1" stop-color="#23282C" stop-opacity="0.5"/>
</linearGradient>
<linearGradient id="paint17_linear_536_3473" x1="186.76" y1="60.8717" x2="204.696" y2="93.1402" gradientUnits="userSpaceOnUse">
<stop stop-color="#23282C" stop-opacity="0.2"/>
<stop offset="1" stop-color="#23282C" stop-opacity="0.5"/>
</linearGradient>
</defs>
</svg>
