<svg width="251" height="155" viewBox="0 0 251 155" fill="none" xmlns="http://www.w3.org/2000/svg">
<path fill-rule="evenodd" clip-rule="evenodd" d="M56.255 108.585C25.3106 108.544 -0.0419919 84.1217 5.22183e-05 54.3125C0.0420963 24.3818 25.1845 0.0403077 56.1709 -0.000193921C87.3677 -0.0406956 112.804 24.4223 112.72 54.434C112.678 84.2027 87.1995 108.625 56.255 108.585ZM56.3812 25.7994C39.7317 25.7589 26.7401 38.2738 26.7401 54.2315C26.7401 70.2296 39.7317 82.7851 56.2971 82.7851C72.8624 82.8256 85.9802 70.1892 85.9382 54.3125C85.9382 38.3144 72.9886 25.7994 56.3812 25.7994Z" fill="black"/>
<path fill-rule="evenodd" clip-rule="evenodd" d="M193.698 108.585C162.753 108.544 137.401 84.1217 137.443 54.3125C137.443 24.3818 162.627 0.0403077 193.614 -0.000193921C224.81 -0.0406956 250.205 24.4223 250.163 54.434C250.079 84.2027 224.642 108.625 193.698 108.585ZM193.782 25.7994C177.174 25.7589 164.183 38.2738 164.183 54.2315C164.183 70.2296 177.132 82.7851 193.74 82.7851C210.263 82.8256 223.381 70.1892 223.381 54.3125C223.381 38.3144 210.389 25.7994 193.782 25.7994Z" fill="black"/>
<path d="M170.491 101.902H142.153L113.774 62.7772H112.849C113.311 60.0231 113.563 57.188 113.563 54.3124C113.563 50.9102 113.227 47.5891 112.638 44.3895H123.36C131.432 44.3895 137.36 39.4887 137.36 32.4009C137.36 25.5157 131.432 20.453 123.36 20.453H103.641V23.5311C97.4184 14.8233 88.6312 7.93799 78.3724 3.88782V0.688232H127.186C146.946 0.688232 161.494 14.5397 161.494 31.7529C161.494 45.5639 151.908 56.702 138.327 60.2257L170.491 101.902Z" fill="url(#paint0_linear_18_45)"/>
<path fill-rule="evenodd" clip-rule="evenodd" d="M171.625 102.469H141.816L113.478 63.3444H112.133L112.259 62.6964C112.721 59.9018 112.974 57.1073 112.974 54.3127C112.974 51.032 112.679 47.7108 112.049 44.4706L111.923 43.8228H123.359C131.263 43.8228 136.771 39.1245 136.771 32.4012C136.771 25.7995 131.137 20.9797 123.359 20.9797H104.229V25.3134L103.177 23.8148C96.9128 15.1069 88.2938 8.38371 78.1612 4.41455L77.7828 4.25258V0.121338H127.185C136.813 0.121338 145.684 3.40209 152.159 9.35583C158.549 15.2286 162.081 23.1668 162.081 31.7532C162.081 45.1592 152.958 56.6617 139.293 60.5499L171.625 102.469ZM142.405 101.375H169.271L137.275 59.9423L138.116 59.6993C151.738 56.1757 160.862 44.9162 160.862 31.7532C160.862 14.6615 146.062 1.2555 127.185 1.2555H78.918V3.52363C88.5461 7.37129 96.8287 13.649 103.009 21.7494V19.8863H123.359C131.767 19.8863 137.906 25.1515 137.906 32.4418C137.906 39.6916 131.767 44.9567 123.359 44.9567H113.31C113.857 48.0349 114.109 51.194 114.109 54.3127C114.109 56.9453 113.899 59.6184 113.478 62.2105H114.067L142.405 101.375Z" fill="url(#paint1_linear_18_45)"/>
<path d="M56.5903 59.6182C53.395 59.6992 50.8723 57.431 50.8303 54.4339C50.7462 51.5177 53.437 48.7637 56.4222 49.0067C59.5755 49.2092 61.7197 50.7482 61.8879 54.0694C62.0561 57.2285 59.8277 59.5372 56.5903 59.6182Z" fill="url(#paint2_linear_18_45)"/>
<path d="M121.802 132.683C121.802 125.677 127.688 120.006 134.961 120.006C140.049 120.006 144.463 122.761 146.65 126.811L141.773 129.241C140.553 126.892 138.031 125.312 134.961 125.312C130.673 125.312 127.351 128.552 127.351 132.683C127.351 136.855 130.673 140.055 134.961 140.055C138.031 140.055 140.553 138.516 141.773 136.167L146.65 138.597C144.463 142.647 140.049 145.401 134.961 145.401C127.688 145.401 121.802 139.69 121.802 132.683Z" fill="url(#paint3_linear_18_45)"/>
<path fill-rule="evenodd" clip-rule="evenodd" d="M170.152 140.784V145.077C169.774 145.239 169.227 145.401 168.68 145.401C166.368 145.401 164.476 144.267 163.425 142.606C162.037 144.307 160.061 145.401 157.581 145.401C152.83 145.401 149.088 141.594 149.088 136.815C149.088 132.035 152.83 128.228 157.581 128.228C159.515 128.228 161.155 128.917 162.458 130.01V128.593H167.882V139.164C167.882 140.541 168.638 140.784 169.395 140.784H170.152ZM162.668 136.815C162.668 134.627 160.86 132.886 158.632 132.886C156.362 132.886 154.554 134.627 154.554 136.815C154.554 139.002 156.362 140.743 158.632 140.743C160.86 140.743 162.668 139.002 162.668 136.815Z" fill="url(#paint4_linear_18_45)"/>
<path fill-rule="evenodd" clip-rule="evenodd" d="M192.1 136.815C192.1 141.594 188.358 145.401 183.649 145.401C181.715 145.401 180.075 144.712 178.772 143.619V155L173.306 154.959V128.593L178.772 128.633V130.01C180.075 128.917 181.715 128.228 183.649 128.228C188.358 128.228 192.1 132.035 192.1 136.815ZM186.676 136.815C186.676 134.627 184.868 132.886 182.598 132.886C180.327 132.886 178.519 134.627 178.519 136.815C178.519 139.002 180.327 140.743 182.598 140.743C184.868 140.743 186.676 139.002 186.676 136.815Z" fill="url(#paint5_linear_18_45)"/>
<path d="M195.757 122.922C195.757 121.302 197.144 120.046 198.742 120.046C200.382 120.046 201.769 121.302 201.769 122.922C201.769 124.502 200.382 125.798 198.742 125.798C197.144 125.798 195.757 124.502 195.757 122.922ZM196.009 128.592H201.475V145.077H196.009V128.592Z" fill="url(#paint6_linear_18_45)"/>
<path d="M212.868 132.643V138.556C212.868 139.893 213.709 140.784 214.844 140.784H216.904V144.874C216.484 145.158 215.307 145.401 214.172 145.401C210.514 145.401 207.445 142.687 207.445 139.164V132.643H204.586V128.593H207.445V122.234H212.868V128.593H216.946V132.643H212.868Z" fill="url(#paint7_linear_18_45)"/>
<path fill-rule="evenodd" clip-rule="evenodd" d="M240.156 140.784V145.077C239.778 145.239 239.273 145.401 238.727 145.401C236.414 145.401 234.522 144.267 233.471 142.606C232.084 144.307 230.065 145.401 227.585 145.401C222.834 145.401 219.134 141.594 219.134 136.815C219.134 132.035 222.834 128.228 227.585 128.228C229.561 128.228 231.201 128.917 232.462 130.01V128.593H237.928V139.164C237.928 140.541 238.684 140.784 239.399 140.784H240.156ZM232.714 136.815C232.714 134.627 230.864 132.886 228.636 132.886C226.408 132.886 224.6 134.627 224.6 136.815C224.6 139.002 226.408 140.743 228.636 140.743C230.864 140.743 232.714 139.002 232.714 136.815Z" fill="url(#paint8_linear_18_45)"/>
<path d="M243.351 116.807H248.817V145.077H243.351V116.807Z" fill="url(#paint9_linear_18_45)"/>
<defs>
<linearGradient id="paint0_linear_18_45" x1="57.1402" y1="20.0075" x2="107.771" y2="-32.5934" gradientUnits="userSpaceOnUse">
<stop stop-color="#C39625"/>
<stop offset="0.3" stop-color="#FEC821"/>
<stop offset="0.5" stop-color="#EBEC7E"/>
<stop offset="0.6" stop-color="#FEC821"/>
<stop offset="1" stop-color="#C39625"/>
</linearGradient>
<linearGradient id="paint1_linear_18_45" x1="112.385" y1="-33.2115" x2="208.712" y2="66.7835" gradientUnits="userSpaceOnUse">
<stop stop-color="#C39625"/>
<stop offset="0.3" stop-color="#FEC821"/>
<stop offset="0.5" stop-color="#C39625"/>
<stop offset="0.6" stop-color="#FEC821"/>
<stop offset="1" stop-color="#C39625"/>
</linearGradient>
<linearGradient id="paint2_linear_18_45" x1="47.6349" y1="53.4214" x2="55.1241" y2="45.6891" gradientUnits="userSpaceOnUse">
<stop stop-color="#C39625"/>
<stop offset="0.5" stop-color="#FEC821"/>
<stop offset="1" stop-color="#C39625"/>
</linearGradient>
<linearGradient id="paint3_linear_18_45" x1="120.961" y1="145.401" x2="120.961" y2="120.006" gradientUnits="userSpaceOnUse">
<stop stop-color="#C39625"/>
<stop offset="0.9" stop-color="#FEC821"/>
<stop offset="1" stop-color="#FEC821"/>
</linearGradient>
<linearGradient id="paint4_linear_18_45" x1="148.247" y1="145.401" x2="148.247" y2="128.228" gradientUnits="userSpaceOnUse">
<stop stop-color="#C39625"/>
<stop offset="0.9" stop-color="#FEC821"/>
<stop offset="1" stop-color="#FEC821"/>
</linearGradient>
<linearGradient id="paint5_linear_18_45" x1="172.465" y1="155" x2="172.465" y2="128.228" gradientUnits="userSpaceOnUse">
<stop stop-color="#C39625"/>
<stop offset="0.9" stop-color="#FEC821"/>
<stop offset="1" stop-color="#FEC821"/>
</linearGradient>
<linearGradient id="paint6_linear_18_45" x1="194.916" y1="145.077" x2="194.916" y2="120.046" gradientUnits="userSpaceOnUse">
<stop stop-color="#C39625"/>
<stop offset="0.9" stop-color="#FEC821"/>
<stop offset="1" stop-color="#FEC821"/>
</linearGradient>
<linearGradient id="paint7_linear_18_45" x1="203.745" y1="145.401" x2="203.745" y2="122.234" gradientUnits="userSpaceOnUse">
<stop stop-color="#C39625"/>
<stop offset="0.9" stop-color="#FEC821"/>
<stop offset="1" stop-color="#FEC821"/>
</linearGradient>
<linearGradient id="paint8_linear_18_45" x1="218.293" y1="145.401" x2="218.293" y2="128.228" gradientUnits="userSpaceOnUse">
<stop stop-color="#C39625"/>
<stop offset="0.9" stop-color="#FEC821"/>
<stop offset="1" stop-color="#FEC821"/>
</linearGradient>
<linearGradient id="paint9_linear_18_45" x1="242.51" y1="145.077" x2="242.51" y2="116.807" gradientUnits="userSpaceOnUse">
<stop stop-color="#C39625"/>
<stop offset="0.9" stop-color="#FEC821"/>
<stop offset="1" stop-color="#FEC821"/>
</linearGradient>
</defs>
</svg>
