<svg width="234" height="106" viewBox="0 0 234 106" fill="none" xmlns="http://www.w3.org/2000/svg">
<path d="M0 39.3795C1.49474 39.3795 2.96039 39.5263 4.36922 39.7968C9.79575 40.8258 14.5624 43.7479 17.9505 47.8458C21.2893 51.8741 23.2993 57.0489 23.2993 62.6782C23.2993 53.9602 26.183 45.8941 31.0652 39.41C29.4914 37.3038 27.6957 35.3621 25.7262 33.6229C21.8241 30.1574 17.2224 27.4686 12.1637 25.798C8.33934 24.5278 4.24199 23.8473 0 23.8473V39.3795Z" fill="url(#paint0_linear_25_519)"/>
<path d="M49.9656 25.798C53.1299 30.0794 55.7622 34.7778 57.762 39.7968C59.1679 39.5263 60.6343 39.3795 62.1299 39.3795V23.8473C57.8866 23.8473 53.7914 24.5278 49.9656 25.798ZM31.0652 39.41C26.183 45.8941 23.2993 53.9602 23.2993 62.6782H38.8317C38.8317 57.0489 40.8395 51.8741 44.1805 47.8458C42.4229 42.6308 39.7713 37.8271 36.405 33.6229C34.4329 35.3621 32.6377 37.3038 31.0652 39.41Z" fill="url(#paint1_linear_25_519)"/>
<path d="M0 16.0808C6.19293 16.0808 12.1066 17.2947 17.5125 19.4996C21.5036 15.3625 26.0653 11.7901 31.0652 8.88766C21.9209 3.58782 11.3103 0.548595 0 0.548595V16.0808ZM31.0652 27.9729C32.9974 29.7023 34.7836 31.5942 36.405 33.6229C39.7713 37.8271 42.4229 42.6308 44.1805 47.8458C45.7427 52.504 46.598 57.4942 46.598 62.6782H62.1299C62.1299 54.6012 60.5753 46.8847 57.762 39.7968C55.7622 34.7778 53.1299 30.0794 49.9656 25.798C48.3246 23.576 46.5387 21.4695 44.6163 19.4996C39.6074 21.5283 35.0266 24.4201 31.0652 27.9729Z" fill="url(#paint2_linear_25_519)"/>
<path d="M31.0652 8.88766C26.0653 11.7901 21.5036 15.3625 17.5125 19.4996C15.5915 21.4695 13.8056 23.576 12.1637 25.798C17.2224 27.4686 21.8241 30.1574 25.7262 33.6229C27.3471 31.5942 29.1336 29.7023 31.0652 27.9729C35.0266 24.4201 39.6074 21.5283 44.6163 19.4996C50.0235 17.2947 55.9356 16.0808 62.1299 16.0808V0.548595C50.8201 0.548595 40.2104 3.58782 31.0652 8.88766ZM0 62.6782H15.533C15.533 57.4942 16.3861 52.504 17.9505 47.8458C14.5624 43.7479 9.79575 40.8258 4.36922 39.7968C1.55346 46.8847 0 54.6012 0 62.6782Z" fill="url(#paint3_linear_25_519)"/>
<path d="M96.4979 29.177C103.024 29.177 105.809 26.8275 105.809 21.3456C105.809 15.8638 103.111 13.7753 96.4109 13.7753H89.3627V29.177H96.4979ZM73.1777 62.6782V0.548862H96.4109C113.118 0.548862 121.298 7.3361 121.298 21.2586C121.298 35.4423 113.031 42.4905 96.5849 42.4905H89.3627V62.6782H73.1777Z" fill="#293E6B"/>
<path d="M143.398 62.6782V14.7326H125.473V0.548862H178.03V14.7326H160.105V62.6782H143.398Z" fill="#293E6B"/>
<path d="M202.841 37.1638C189.338 34.5957 183.539 29.1284 183.539 19.1048C183.539 7.17624 192.072 0.548862 207.314 0.548862C222.143 0.548862 230.84 6.92775 232.083 18.6081L216.675 20.182C215.598 15.2114 212.864 13.1405 207.231 13.1405C202.178 13.1405 199.279 14.8802 199.279 18.1938C199.279 20.9272 201.267 22.5013 205.906 23.4126L213.941 24.9864C227.113 27.5545 233.16 33.2703 233.16 43.2939C233.16 55.8026 224.213 62.6782 208.226 62.6782C192.072 62.6782 183.291 55.6368 182.38 41.72H198.202C198.865 47.3529 202.261 49.921 208.805 49.921C214.356 49.921 217.255 47.9328 217.255 44.2052C217.255 41.1399 215.101 39.4004 210.711 38.6547L202.841 37.1638Z" fill="#293E6B"/>
<path d="M17.5665 81.9334C17.5665 80.2378 17.1022 78.942 16.1745 78.0457C15.2461 77.1504 13.7266 76.7018 11.615 76.7018H6.7673V87.1169H11.615C15.5821 87.1169 17.5665 85.3892 17.5665 81.9334ZM6.7673 92.5404V105.115H0.000183105V71.2304H12.3349C16.3344 71.2304 19.3497 72.1904 21.3819 74.1101C23.4136 76.03 24.4299 78.6381 24.4299 81.9334C24.4299 85.1657 23.3813 87.7408 21.286 89.6605C19.1901 91.5805 16.2061 92.5404 12.3349 92.5404H6.7673Z" fill="#293E6B"/>
<path d="M35.6125 87.261H41.1802C45.0511 87.261 46.9876 85.5496 46.9876 82.1254C46.9876 80.4936 46.5151 79.2218 45.5717 78.3099C44.6275 77.3978 43.1635 76.9419 41.1802 76.9419H35.6125V87.261ZM46.5075 105.115L38.5882 91.9165H35.6125V105.115H28.8452V71.2304H41.756C45.6916 71.2304 48.6914 72.1904 50.7552 74.1101C52.8189 76.03 53.8509 78.5579 53.8509 81.6934C53.8509 84.2536 53.1384 86.397 51.7151 88.1247C50.2911 89.8527 48.2355 91.0046 45.5475 91.5805L53.9948 105.115H46.5075Z" fill="#293E6B"/>
<path d="M69.0653 78.334C67.561 79.2301 66.3852 80.5179 65.5375 82.1975C64.6895 83.8774 64.2657 85.8379 64.2657 88.077C64.2657 90.3172 64.6895 92.2768 65.5375 93.9565C66.3852 95.6366 67.561 96.9247 69.0653 97.8203C70.569 98.7164 72.3125 99.1641 74.2969 99.1641C76.2805 99.1641 78.024 98.7164 79.5282 97.8203C81.0319 96.9247 82.2078 95.6366 83.056 93.9565C83.9034 92.2768 84.3281 90.3172 84.3281 88.077C84.3281 85.8379 83.9034 83.8774 83.056 82.1975C82.2078 80.5179 81.0319 79.2301 79.5282 78.334C78.024 77.4387 76.2805 76.9901 74.2969 76.9901C72.3125 76.9901 70.569 77.4387 69.0653 78.334ZM82.9122 72.9586C85.4873 74.4308 87.5196 76.4861 89.0075 79.1259C90.4954 81.7658 91.2393 84.7498 91.2393 88.077C91.2393 91.4052 90.4954 94.3969 89.0075 97.0522C87.5196 99.7087 85.4873 101.772 82.9122 103.244C80.3362 104.716 77.4647 105.452 74.2969 105.452C71.1291 105.452 68.2568 104.716 65.6816 103.244C63.1056 101.772 61.0739 99.7087 59.5863 97.0522C58.0983 94.3969 57.3545 91.4052 57.3545 88.077C57.3545 84.7498 58.0983 81.7658 59.5863 79.1259C61.0739 76.4861 63.1056 74.4308 65.6816 72.9586C68.2568 71.4872 71.1291 70.7507 74.2969 70.7507C77.4647 70.7507 80.3362 71.4872 82.9122 72.9586Z" fill="#293E6B"/>
<path d="M115.573 71.2308V95.1326C115.573 98.3961 114.668 100.933 112.861 102.74C111.053 104.548 108.549 105.452 105.349 105.452C101.894 105.452 99.1582 104.46 97.1423 102.476C95.1266 100.492 94.1185 97.6607 94.1185 93.9806H100.79C100.79 95.7087 101.15 97.0365 101.87 97.9644C102.59 98.8928 103.653 99.3563 105.062 99.3563C106.341 99.3563 107.285 98.9803 107.893 98.2283C108.501 97.4769 108.805 96.4449 108.805 95.1326V71.2308H115.573Z" fill="#293E6B"/>
<path d="M128.243 76.6059V85.3892H140.242V90.5726H128.243V99.6917H141.682V105.115H121.475V71.2304H141.682V76.6059H128.243Z" fill="#293E6B"/>
<path d="M172.494 74.1586C175.278 76.3349 177.117 79.2942 178.014 83.0379H170.91C170.174 81.2139 169.03 79.7741 167.479 78.7181C165.926 77.6622 164.063 77.1342 161.887 77.1342C160.095 77.1342 158.48 77.5828 157.04 78.4781C155.6 79.3744 154.479 80.6547 153.68 82.318C152.88 83.9821 152.48 85.9341 152.48 88.1732C152.48 90.3811 152.88 92.3173 153.68 93.9809C154.479 95.6448 155.6 96.925 157.04 97.8205C158.48 98.7166 160.095 99.1644 161.887 99.1644C164.063 99.1644 165.926 98.6364 167.479 97.5805C169.03 96.5245 170.174 95.0847 170.91 93.261H178.014C177.117 97.0044 175.278 99.9645 172.494 102.14C169.711 104.316 166.207 105.404 161.983 105.404C158.751 105.404 155.895 104.676 153.416 103.22C150.936 101.764 149.016 99.7247 147.657 97.1004C146.296 94.4771 145.617 91.5017 145.617 88.1732C145.617 84.8137 146.296 81.8221 147.657 79.198C149.016 76.575 150.928 74.5351 153.392 73.0787C155.856 71.6231 158.719 70.8951 161.983 70.8951C166.207 70.8951 169.711 71.9831 172.494 74.1586Z" fill="#293E6B"/>
<path d="M206.139 71.2304V76.6059H196.78V105.115H190.012V76.6059H180.701V71.2304H206.139Z" fill="#293E6B"/>
<path d="M231.864 100.628C231 102.085 229.72 103.252 228.024 104.132C226.328 105.012 224.264 105.452 221.833 105.452C219.433 105.452 217.289 105.044 215.402 104.228C213.513 103.412 212.002 102.236 210.866 100.7C209.73 99.1641 209.082 97.3725 208.922 95.3245H216.121C216.281 96.7007 216.833 97.8445 217.777 98.7563C218.721 99.6682 219.977 100.124 221.545 100.124C222.953 100.124 224.033 99.7484 224.785 98.9961C225.536 98.2447 225.913 97.2765 225.913 96.0925C225.913 95.0366 225.608 94.1652 225.001 93.4769C224.393 92.789 223.625 92.2371 222.697 91.8209C221.768 91.4055 220.489 90.9256 218.857 90.3811C216.746 89.6778 215.018 88.9818 213.674 88.2931C212.33 87.6056 211.185 86.6059 210.242 85.2936C209.298 83.9818 208.826 82.2699 208.826 80.158C208.826 77.2468 209.874 74.9506 211.97 73.2707C214.065 71.5908 216.842 70.751 220.297 70.751C223.88 70.751 226.736 71.6147 228.864 73.3427C230.992 75.0705 232.2 77.3743 232.488 80.2539H225.193C225.001 79.0384 224.489 78.0387 223.657 77.2541C222.824 76.4706 221.689 76.0786 220.249 76.0786C219.001 76.0786 217.993 76.407 217.226 77.0622C216.457 77.7185 216.074 78.67 216.074 79.9182C216.074 80.9102 216.369 81.7343 216.962 82.39C217.553 83.046 218.305 83.5822 219.217 83.9979C220.129 84.4138 221.369 84.8779 222.937 85.3896C225.112 86.1573 226.88 86.8775 228.24 87.5496C229.6 88.2214 230.76 89.2292 231.72 90.573C232.68 91.9169 233.16 93.677 233.16 95.8525C233.16 97.5805 232.728 99.1726 231.864 100.628Z" fill="#293E6B"/>
<defs>
<linearGradient id="paint0_linear_25_519" x1="0.131181" y1="23.7164" x2="31.196" y2="54.7812" gradientUnits="userSpaceOnUse">
<stop stop-color="#E20735"/>
<stop offset="0.237095" stop-color="#E20735"/>
<stop offset="1" stop-color="#E20735"/>
</linearGradient>
<linearGradient id="paint1_linear_25_519" x1="42.7146" y1="23.8474" x2="42.7146" y2="62.6779" gradientUnits="userSpaceOnUse">
<stop stop-color="#E20735"/>
<stop offset="0.237095" stop-color="#E20735"/>
<stop offset="1" stop-color="#293E6B"/>
</linearGradient>
<linearGradient id="paint2_linear_25_519" x1="10.0806" y1="-5.27144" x2="52.5159" y2="68.2286" gradientUnits="userSpaceOnUse">
<stop stop-color="#E20735"/>
<stop offset="0.237095" stop-color="#E20735"/>
<stop offset="1" stop-color="#E20735"/>
</linearGradient>
<linearGradient id="paint3_linear_25_519" x1="62.13" y1="31.6132" x2="0.000133316" y2="31.6132" gradientUnits="userSpaceOnUse">
<stop stop-color="#E20735"/>
<stop offset="0.237095" stop-color="#E20735"/>
<stop offset="1" stop-color="#293E6B"/>
</linearGradient>
</defs>
</svg>
