<svg width="1440" height="787" viewBox="0 0 1440 787" fill="none" xmlns="http://www.w3.org/2000/svg">
<path d="M-1446 293.848C-1446 293.848 -1008.9 310.582 -717.5 310.582C-426.1 310.582 -280.4 143.24 10.9999 143.24C302.4 143.24 448.1 662 739.5 662C1030.9 662 1468 1 1468 1" stroke="url(#paint0_linear_893_1077)" stroke-width="3"/>
<path d="M-1446 304.405C-1446 304.405 -1008.9 321.114 -717.5 321.114C-426.1 321.114 -280.4 154.025 11 154.025C302.4 154.025 448.1 672 739.5 672C1030.9 672 1468 12 1468 12" stroke="url(#paint1_linear_893_1077)" stroke-width="2"/>
<path d="M-1446 313.962C-1446 313.962 -1008.9 330.646 -717.5 330.646C-426.1 330.646 -280.4 163.81 11 163.81C302.4 163.81 448.1 681 739.5 681C1030.9 681 1468 22 1468 22" stroke="url(#paint2_linear_893_1077)" stroke-width="2"/>
<path d="M-1446 323.405C-1446 323.405 -1008.9 340.114 -717.5 340.114C-426.1 340.114 -280.4 173.025 11 173.025C302.4 173.025 448.1 691 739.5 691C1030.9 691 1468 31 1468 31" stroke="url(#paint3_linear_893_1077)" stroke-width="2"/>
<path d="M-1446 333.848C-1446 333.848 -1008.9 350.582 -717.5 350.582C-426.1 350.582 -280.4 183.24 11 183.24C302.4 183.24 448.1 702 739.5 702C1030.9 702 1468 41 1468 41" stroke="url(#paint4_linear_893_1077)" stroke-width="2"/>
<path d="M-1446 344.848C-1446 344.848 -1008.9 361.582 -717.5 361.582C-426.1 361.582 -280.4 194.24 11 194.24C302.4 194.24 448.1 713 739.5 713C1030.9 713 1468 52 1468 52" stroke="url(#paint5_linear_893_1077)" stroke-width="2"/>
<path d="M-1446 354.519C-1446 354.519 -1008.9 371.177 -717.5 371.177C-426.1 371.177 -280.4 204.595 11 204.595C302.4 204.595 448.1 721 739.5 721C1030.9 721 1468 63 1468 63" stroke="url(#paint6_linear_893_1077)" stroke-width="4"/>
<path d="M-1446 363.848C-1446 363.848 -1008.9 380.582 -717.5 380.582C-426.1 380.582 -280.4 213.24 11 213.24C302.4 213.24 448.1 732 739.5 732C1030.9 732 1468 71 1468 71" stroke="url(#paint7_linear_893_1077)" stroke-width="2"/>
<path d="M-1446 374.848C-1446 374.848 -1008.9 391.582 -717.5 391.582C-426.1 391.582 -280.4 224.24 11 224.24C302.4 224.24 448.1 743 739.5 743C1030.9 743 1468 82 1468 82" stroke="url(#paint8_linear_893_1077)" stroke-width="2"/>
<path d="M-1446 385.405C-1446 385.405 -1008.9 402.114 -717.5 402.114C-426.1 402.114 -280.4 235.025 11 235.025C302.4 235.025 448.1 753 739.5 753C1030.9 753 1468 93 1468 93" stroke="url(#paint9_linear_893_1077)" stroke-width="2"/>
<path d="M-1446 394.962C-1446 394.962 -1008.9 411.646 -717.5 411.646C-426.1 411.646 -280.4 244.81 11 244.81C302.4 244.81 448.1 762 739.5 762C1030.9 762 1468 103 1468 103" stroke="url(#paint10_linear_893_1077)" stroke-width="2"/>
<path d="M-1446 404.405C-1446 404.405 -1008.9 421.114 -717.5 421.114C-426.1 421.114 -280.4 254.025 11 254.025C302.4 254.025 448.1 772 739.5 772C1030.9 772 1468 112 1468 112" stroke="url(#paint11_linear_893_1077)" stroke-width="2"/>
<path d="M-1446 414.848C-1446 414.848 -1008.9 431.582 -717.5 431.582C-426.1 431.582 -280.4 264.24 11 264.24C302.4 264.24 448.1 783 739.5 783C1030.9 783 1468 122 1468 122" stroke="url(#paint12_linear_893_1077)" stroke-width="7"/>
<defs>
<linearGradient id="paint0_linear_893_1077" x1="11" y1="1" x2="11" y2="662" gradientUnits="userSpaceOnUse">
<stop stop-color="#ED1C41"/>
<stop offset="1" stop-color="#323F6A"/>
</linearGradient>
<linearGradient id="paint1_linear_893_1077" x1="11" y1="12" x2="11" y2="672" gradientUnits="userSpaceOnUse">
<stop stop-color="#ED1C41"/>
<stop offset="1" stop-color="#323F6A"/>
</linearGradient>
<linearGradient id="paint2_linear_893_1077" x1="11" y1="22" x2="11" y2="681" gradientUnits="userSpaceOnUse">
<stop stop-color="#ED1C41"/>
<stop offset="1" stop-color="#323F6A"/>
</linearGradient>
<linearGradient id="paint3_linear_893_1077" x1="11" y1="31" x2="11" y2="691" gradientUnits="userSpaceOnUse">
<stop stop-color="#ED1C41"/>
<stop offset="1" stop-color="#323F6A"/>
</linearGradient>
<linearGradient id="paint4_linear_893_1077" x1="11" y1="41" x2="11" y2="702" gradientUnits="userSpaceOnUse">
<stop stop-color="#ED1C41"/>
<stop offset="1" stop-color="#323F6A"/>
</linearGradient>
<linearGradient id="paint5_linear_893_1077" x1="11" y1="52" x2="11" y2="713" gradientUnits="userSpaceOnUse">
<stop stop-color="#ED1C41"/>
<stop offset="1" stop-color="#323F6A"/>
</linearGradient>
<linearGradient id="paint6_linear_893_1077" x1="11" y1="63" x2="11" y2="721" gradientUnits="userSpaceOnUse">
<stop stop-color="#ED1C41"/>
<stop offset="1" stop-color="#323F6A"/>
</linearGradient>
<linearGradient id="paint7_linear_893_1077" x1="11" y1="71" x2="11" y2="732" gradientUnits="userSpaceOnUse">
<stop stop-color="#ED1C41"/>
<stop offset="1" stop-color="#323F6A"/>
</linearGradient>
<linearGradient id="paint8_linear_893_1077" x1="11" y1="82" x2="11" y2="743" gradientUnits="userSpaceOnUse">
<stop stop-color="#ED1C41"/>
<stop offset="1" stop-color="#323F6A"/>
</linearGradient>
<linearGradient id="paint9_linear_893_1077" x1="11" y1="93" x2="11" y2="753" gradientUnits="userSpaceOnUse">
<stop stop-color="#ED1C41"/>
<stop offset="1" stop-color="#323F6A"/>
</linearGradient>
<linearGradient id="paint10_linear_893_1077" x1="11" y1="103" x2="11" y2="762" gradientUnits="userSpaceOnUse">
<stop stop-color="#ED1C41"/>
<stop offset="1" stop-color="#323F6A"/>
</linearGradient>
<linearGradient id="paint11_linear_893_1077" x1="11" y1="112" x2="11" y2="772" gradientUnits="userSpaceOnUse">
<stop stop-color="#ED1C41"/>
<stop offset="1" stop-color="#323F6A"/>
</linearGradient>
<linearGradient id="paint12_linear_893_1077" x1="11" y1="122" x2="11" y2="783" gradientUnits="userSpaceOnUse">
<stop stop-color="#ED1C41"/>
<stop offset="1" stop-color="#323F6A"/>
</linearGradient>
</defs>
</svg>
