<svg xmlns="http://www.w3.org/2000/svg" viewBox="0 0 1947.87 530.44"><defs><style>.cls-1{fill:#996557;}.cls-2{fill:#996559;}.cls-3{fill:#9b655a;}.cls-4,.cls-5{fill:#42413f;}.cls-5{stroke:#42413f;stroke-miterlimit:10;stroke-width:1.07px;}</style></defs><g id="Layer_2" data-name="Layer 2"><g id="Layer_1-2" data-name="Layer 1"><path class="cls-1" d="M387.87.51C424.45-.38,461.1.68,497.7,0c18.52.34,37.09-.06,55.57,1.07,12.24-.07,16.93,16.5,10.21,25.17-2.62,4.24-7.82,5.25-12.4,5.33-47.63,1.86-95.27-.21-142.89.64-9,.11-18.3.7-27.1-1.68-9.59-3.73-11.26-17.76-4.86-25C379.07,2,383.67,1,387.87.51Z"/><path class="cls-2" d="M443.51,77.62c32.51-5.48,66.55-.24,96.37,13.66,29.3,13.64,54.11,36.28,71.31,63.55a176.33,176.33,0,0,1,25,117.42,172.66,172.66,0,0,1-38.25,87.25c-27.28,33.25-67.79,55.7-110.7,60A165.64,165.64,0,0,1,395,402.77a170.29,170.29,0,0,1-78.77-83.5c-15.58-34.57-18.68-74.16-10.64-111.08C320.36,142.68,376.29,87.15,443.51,77.62Zm4.24,68.09c-45.49,9.82-79.07,54.67-79,100.68-.81,29.48,11.85,58.71,33.08,79A98.25,98.25,0,0,0,468,352.89a99.8,99.8,0,0,0,69.88-28C560,303.73,571.82,272.59,570,242.1c-1.6-38.13-25.56-75-60.82-90.3A96.54,96.54,0,0,0,447.75,145.71Z"/><path class="cls-3" d="M462.37,228.4c11-4.76,27.1.66,28.83,13.68,4.51,15.9-16,30.93-29.68,21.43C448.16,256.73,448.28,234.22,462.37,228.4Z"/><path class="cls-4" d="M81.34,243.47c32.41-14.71,69.41-18.36,104.38-12.52,34,5.74,66.59,22.92,88.14,50.27-16.92,15.46-33.83,30.93-50.92,46.17-11.92-13.57-26.57-25.66-44.41-30.16-27.18-7.48-58.66-.06-78.11,20.76C74,347.92,73.5,397.08,99.08,427.67c23,26.31,64.57,32,95.1,16,11.19-5.75,20.19-14.75,29-23.55,17.35,14.79,33.56,30.89,51,45.55-21.1,26.24-52,44.06-85.14,49.82-38.22,6.63-79.11,3-113.9-14.94-26.88-13.77-49.26-36.48-61.63-64.15-17.82-39-18-85.52-.68-124.68C26.35,281.6,51.54,257.32,81.34,243.47Z"/><path class="cls-4" d="M670.71,235.2c45.41.34,90.79-.39,136.18.36,31.74,1.28,65.1,10.66,87.61,34.23,16.86,16.68,24.92,40.55,25.41,64,.28,18.1-2.11,36.9-11.27,52.82-9.51,16.91-24.8,29.83-41.64,39.06,19.59,29,39.72,57.72,59.33,86.76-28.63-.21-57.26.55-85.87-.58-15.82-24.68-32.78-48.58-49.18-72.86-14,0-28.07-.24-42.1.23.94,24.39.21,48.8.43,73.21-26.25.15-52.49-.34-78.71.36-.13-49.67-.89-99.32-.64-149C671.16,320.91,670.56,278,670.71,235.2Zm78.41,62.67c.83,26.65.7,53.32.12,80,24-.85,49.31,3.78,72.06-6,25.9-12.64,25.62-56-.36-68.37C798.21,293.78,773,298.81,749.12,297.87Z"/><path class="cls-4" d="M975.19,235.24c72.39,0,144.79.19,217.18,0,.47,20.42.41,40.86.09,61.31-46.35-.51-92.69,0-139-.28.13,15.41,0,30.82,0,46.24,40.8-.73,81.6.32,122.4-.32.45,19.76.11,39.5.22,59.26q-61.3.06-122.62,0,0,24.72,0,49.48,71.91,0,143.85,0,0,30.76,0,61.54c-74.06-.15-148.11,0-222.17-.08Q975.22,373.82,975.19,235.24Z"/><path class="cls-2" d="M1303.28,438.59h-17.21l-6.84-17.8h-31.32l-6.46,17.8h-16.78l30.51-78.34h16.73Zm-29.13-31-10.79-29.07-10.58,29.07Z"/><path class="cls-2" d="M1311.83,438.59V360.25h15.39l32.06,52.31V360.25H1374v78.34H1358.1l-31.58-51.09v51.09Z"/><path class="cls-2" d="M1427.15,409.78v-13.2h34.09v31.21q-5,4.81-14.4,8.47a52.45,52.45,0,0,1-19.11,3.66q-12.29,0-21.43-5.15A32.86,32.86,0,0,1,1392.57,420a47.73,47.73,0,0,1-4.59-20.87,45.09,45.09,0,0,1,5.13-21.75,34.58,34.58,0,0,1,15-14.59q7.55-3.9,18.76-3.9,14.59,0,22.79,6.12a27.65,27.65,0,0,1,10.56,16.91l-15.72,2.94a16.59,16.59,0,0,0-6.22-9.11,18.81,18.81,0,0,0-11.41-3.34q-10.37,0-16.49,6.57t-6.12,19.51q0,14,6.2,20.92t16.25,7a27.31,27.31,0,0,0,10-1.95,33.93,33.93,0,0,0,8.57-4.73v-9.94Z"/><path class="cls-2" d="M1475.83,438.59V360.25h58.09V373.5h-42.27v17.37H1531v13.2h-39.33v21.32h43.76v13.2Z"/><path class="cls-2" d="M1549.25,438.59v-77.7h15.82v64.5h39.33v13.2Z"/><path class="cls-2" d="M1611.67,413.1l15.39-1.5q1.39,7.75,5.64,11.38t11.46,3.64q7.63,0,11.52-3.24a9.61,9.61,0,0,0,3.87-7.56,7.12,7.12,0,0,0-1.63-4.73,13,13,0,0,0-5.69-3.39q-2.77-1-12.67-3.42-12.72-3.15-17.84-7.75a20.38,20.38,0,0,1-7.22-15.76,20.16,20.16,0,0,1,3.39-11.2,21.29,21.29,0,0,1,9.78-7.93,39.16,39.16,0,0,1,15.42-2.73q14.75,0,22.21,6.47t7.82,17.26l-15.81.69q-1-6-4.36-8.68t-10-2.65q-6.9,0-10.79,2.84a5.7,5.7,0,0,0-2.52,4.86,6,6,0,0,0,2.36,4.75q3,2.52,14.53,5.24t17.07,5.64a21.93,21.93,0,0,1,8.66,8,24.65,24.65,0,0,1-.61,25.09,22.47,22.47,0,0,1-10.58,8.74q-6.84,2.85-17,2.86-14.85,0-22.82-6.87T1611.67,413.1Z"/><path class="cls-2" d="M1230,515.25V463.59h10.3l12.22,36.58q1.7,5.1,2.47,7.64c.59-1.88,1.5-4.64,2.75-8.28l12.37-35.94h9.2v51.66h-6.59V472l-15,43.24h-6.16l-15-44v44Z"/><path class="cls-2" d="M1290.5,515.25V463.59h37.36v6.09h-30.52v15.83h28.58v6.06h-28.58v17.58h31.71v6.1Z"/><path class="cls-2" d="M1332.83,515.25l19.84-51.66H1360l21.15,51.66h-7.79l-6-15.65h-21.6l-5.67,15.65Zm14.9-21.21h17.52l-5.39-14.31q-2.47-6.53-3.67-10.72a65.48,65.48,0,0,1-2.78,9.87Z"/><path class="cls-2" d="M1407.75,515.25h-5.88V463.59h6.34V482a12.56,12.56,0,0,1,10.25-5,15.64,15.64,0,0,1,6.54,1.39,13.37,13.37,0,0,1,5.08,3.91,19.26,19.26,0,0,1,3.12,6.08,25.1,25.1,0,0,1,1.12,7.61q0,9.63-4.75,14.88a14.9,14.9,0,0,1-11.42,5.25,11.92,11.92,0,0,1-10.4-5.54Zm-.07-19c0,4.48.61,7.73,1.83,9.72q3,4.9,8.11,4.9a9.12,9.12,0,0,0,7.19-3.61q3-3.61,3-10.77,0-7.32-2.91-10.82a8.87,8.87,0,0,0-7-3.49,9.13,9.13,0,0,0-7.19,3.62Q1407.68,489.41,1407.68,496.26Z"/><path class="cls-2" d="M1441.76,529.67l-.71-6a14.43,14.43,0,0,0,3.63.56,7,7,0,0,0,3.39-.7,5.79,5.79,0,0,0,2.08-2,31.21,31.21,0,0,0,1.94-4.72c.11-.35.3-.87.56-1.55l-14.2-37.5h6.83l7.79,21.68q1.52,4.13,2.72,8.67a82.6,82.6,0,0,1,2.6-8.53l8-21.82h6.35l-14.24,38.06a74,74,0,0,1-3.56,8.5,12.58,12.58,0,0,1-3.88,4.6,9.16,9.16,0,0,1-5.21,1.46A12.88,12.88,0,0,1,1441.76,529.67Z"/><path class="cls-5" d="M1496.91,490.09q0-12.87,6.91-20.14t17.83-7.28a24.73,24.73,0,0,1,12.9,3.42,22.31,22.31,0,0,1,8.76,9.53,31,31,0,0,1,3,13.87,30.35,30.35,0,0,1-3.17,14.06,21.55,21.55,0,0,1-9,9.39,25.59,25.59,0,0,1-12.54,3.19,24.43,24.43,0,0,1-13-3.52,22.76,22.76,0,0,1-8.71-9.62A29.24,29.24,0,0,1,1496.91,490.09Zm7,.1q0,9.35,5,14.72a17.53,17.53,0,0,0,25.31-.06q5-5.42,5-15.4a26.5,26.5,0,0,0-2.13-11,16.41,16.41,0,0,0-6.23-7.3,17,17,0,0,0-9.22-2.58,17.47,17.47,0,0,0-12.49,5Q1504,478.54,1504,490.19Z"/><path class="cls-5" d="M1555.24,515.25V463.59h22.91q6.9,0,10.5,1.39a11.48,11.48,0,0,1,5.74,4.91,14.62,14.62,0,0,1,2.15,7.79A13,13,0,0,1,1593,487q-3.56,3.78-11,4.79a17.56,17.56,0,0,1,4.12,2.58,35.08,35.08,0,0,1,5.67,6.87l9,14.06h-8.6l-6.83-10.75q-3-4.65-4.94-7.12a15.63,15.63,0,0,0-3.47-3.45,10,10,0,0,0-3.12-1.37,19.89,19.89,0,0,0-3.8-.25h-7.93v22.94Zm6.84-28.86h14.69a21.9,21.9,0,0,0,7.33-1,7.86,7.86,0,0,0,4-3.1,8.36,8.36,0,0,0,1.37-4.64,7.66,7.66,0,0,0-2.66-6c-1.77-1.58-4.57-2.36-8.4-2.36h-16.35Z"/><path class="cls-5" d="M1605.18,490.09q0-12.87,6.91-20.14t17.83-7.28a24.73,24.73,0,0,1,12.9,3.42,22.23,22.23,0,0,1,8.75,9.53,31,31,0,0,1,3,13.87,30.48,30.48,0,0,1-3.17,14.06,21.61,21.61,0,0,1-9,9.39,25.65,25.65,0,0,1-12.55,3.19,24.43,24.43,0,0,1-13-3.52,22.67,22.67,0,0,1-8.7-9.62A29.11,29.11,0,0,1,1605.18,490.09Zm7,.1q0,9.35,5,14.72a17.52,17.52,0,0,0,25.3-.06q5-5.42,5-15.4a26.5,26.5,0,0,0-2.13-11,16.43,16.43,0,0,0-6.24-7.3,17,17,0,0,0-9.22-2.58,17.49,17.49,0,0,0-12.49,5Q1612.23,478.54,1612.23,490.19Z"/><path class="cls-2" d="M1683.45,515.25V463.59h19.49a47,47,0,0,1,7.86.49,15.64,15.64,0,0,1,6.38,2.41,12.77,12.77,0,0,1,4.14,5,16.79,16.79,0,0,1-2.63,18.2q-4.18,4.57-15.15,4.57h-13.25v21Zm6.84-27.1h13.35q6.63,0,9.41-2.47a8.77,8.77,0,0,0,2.79-6.94,9.36,9.36,0,0,0-1.64-5.55,7.63,7.63,0,0,0-4.32-3.05,29.48,29.48,0,0,0-6.38-.46h-13.21Z"/><path class="cls-2" d="M1755.2,510.63a23.55,23.55,0,0,1-6.78,4.23,19.67,19.67,0,0,1-7,1.24q-6.17,0-9.48-3a9.93,9.93,0,0,1-3.31-7.7,10.3,10.3,0,0,1,1.25-5,10.52,10.52,0,0,1,3.28-3.65,15.56,15.56,0,0,1,4.56-2.08,46.4,46.4,0,0,1,5.64-.95,58.43,58.43,0,0,0,11.31-2.18c0-.87,0-1.42,0-1.66q0-3.87-1.8-5.46-2.43-2.14-7.22-2.15-4.49,0-6.61,1.57t-3.15,5.55l-6.21-.85a15.36,15.36,0,0,1,2.79-6.43,12.21,12.21,0,0,1,5.6-3.77,25,25,0,0,1,8.49-1.32,22.25,22.25,0,0,1,7.79,1.13,10.24,10.24,0,0,1,4.41,2.83,9.91,9.91,0,0,1,2,4.32,35.78,35.78,0,0,1,.32,5.85v8.46a90.31,90.31,0,0,0,.4,11.19,14.07,14.07,0,0,0,1.61,4.49h-6.63A13.38,13.38,0,0,1,1755.2,510.63Zm-.53-14.16a46,46,0,0,1-10.36,2.39,24.23,24.23,0,0,0-5.53,1.27,5.5,5.5,0,0,0-2.5,2.06,5.62,5.62,0,0,0,1,7.25,8.29,8.29,0,0,0,5.62,1.69,13.08,13.08,0,0,0,6.52-1.61,9.89,9.89,0,0,0,4.19-4.38,15.39,15.39,0,0,0,1-6.35Z"/><path class="cls-2" d="M1770.85,515.25V477.82h5.71v5.68c1.46-2.66,2.8-4.41,4-5.25a7,7,0,0,1,4.07-1.27,12.42,12.42,0,0,1,6.52,2l-2.19,5.89a9,9,0,0,0-4.65-1.38,6.08,6.08,0,0,0-3.74,1.25,6.85,6.85,0,0,0-2.36,3.48,24.82,24.82,0,0,0-1.06,7.4v19.59Z"/><path class="cls-2" d="M1808.81,509.58l.91,5.6a23.15,23.15,0,0,1-4.79.56,10.86,10.86,0,0,1-5.36-1.09,6,6,0,0,1-2.67-2.87c-.52-1.19-.78-3.68-.78-7.49V482.76h-4.65v-4.94h4.65v-9.26l6.31-3.81v13.07h6.38v4.94h-6.38v21.88a11.18,11.18,0,0,0,.33,3.49,2.69,2.69,0,0,0,1.1,1.24,4.24,4.24,0,0,0,2.16.45A21.19,21.19,0,0,0,1808.81,509.58Z"/><path class="cls-2" d="M1815,515.25V477.82h5.71v5.33a13.44,13.44,0,0,1,11.91-6.17,15.61,15.61,0,0,1,6.22,1.21,9.84,9.84,0,0,1,4.25,3.19,12.18,12.18,0,0,1,2,4.69,35.91,35.91,0,0,1,.35,6.17v23h-6.34V492.48a17.14,17.14,0,0,0-.74-5.79,6.11,6.11,0,0,0-2.63-3.07,8.36,8.36,0,0,0-4.42-1.14,10.24,10.24,0,0,0-7,2.57q-3,2.56-3,9.76v20.44Z"/><path class="cls-2" d="M1880.77,503.2l6.56.81a16,16,0,0,1-5.75,8.91,17.21,17.21,0,0,1-10.71,3.18q-8.22,0-13-5.06T1853,496.85q0-9.44,4.86-14.66a16.49,16.49,0,0,1,12.62-5.21,16,16,0,0,1,12.26,5.11q4.76,5.1,4.76,14.38c0,.37,0,.94,0,1.69h-27.91q.36,6.16,3.49,9.44a10.37,10.37,0,0,0,7.82,3.28,9.71,9.71,0,0,0,6-1.83A12.16,12.16,0,0,0,1880.77,503.2Zm-20.83-10.26h20.9q-.42-4.72-2.39-7.08a9.74,9.74,0,0,0-7.86-3.67,10.07,10.07,0,0,0-7.35,2.93A11.6,11.6,0,0,0,1859.94,492.94Z"/><path class="cls-2" d="M1895.22,515.25V477.82h5.71v5.68c1.46-2.66,2.8-4.41,4-5.25A7,7,0,0,1,1909,477a12.42,12.42,0,0,1,6.52,2l-2.19,5.89a9,9,0,0,0-4.65-1.38,6.08,6.08,0,0,0-3.74,1.25,6.85,6.85,0,0,0-2.36,3.48,24.82,24.82,0,0,0-1.06,7.4v19.59Z"/><path class="cls-2" d="M1916.79,504.08l6.27-1a8.74,8.74,0,0,0,2.94,5.78,10.26,10.26,0,0,0,6.75,2q4.38,0,6.49-1.78a5.32,5.32,0,0,0,2.11-4.17,3.85,3.85,0,0,0-1.87-3.39,27.57,27.57,0,0,0-6.48-2.15,58.17,58.17,0,0,1-9.67-3.05,9.3,9.3,0,0,1-4.09-3.56,9.4,9.4,0,0,1-1.39-5,9.65,9.65,0,0,1,1.14-4.63,10.2,10.2,0,0,1,3.12-3.54,12.91,12.91,0,0,1,4-1.85,19,19,0,0,1,5.48-.76,21.56,21.56,0,0,1,7.73,1.27,10.54,10.54,0,0,1,4.92,3.43,13.44,13.44,0,0,1,2.18,5.8l-6.2.85a6.82,6.82,0,0,0-2.45-4.52,9,9,0,0,0-5.73-1.62q-4.36,0-6.23,1.45A4.19,4.19,0,0,0,1924,487a3.54,3.54,0,0,0,.77,2.22,5.57,5.57,0,0,0,2.44,1.69q.94.36,5.6,1.63a75.06,75.06,0,0,1,9.39,2.94,9.51,9.51,0,0,1,4.18,3.33,9.26,9.26,0,0,1,1.51,5.42,10.61,10.61,0,0,1-1.85,6,11.88,11.88,0,0,1-5.34,4.33,19.25,19.25,0,0,1-7.89,1.54q-7.29,0-11.12-3T1916.79,504.08Z"/></g></g></svg>