<?xml version="1.0" encoding="UTF-8"?><svg id="Layer_1" xmlns="http://www.w3.org/2000/svg" viewBox="0 0 653.39 199.31"><defs><style>.cls-1{fill:#97664f;}.cls-2{fill:#3b3936;}</style></defs><g><path class="cls-2" d="M495.68,130.08h3.01l12.99,28.71h-3.46l-3.34-7.53h-15.52l-3.38,7.53h-3.3l12.99-28.71Zm7.94,18.29l-6.48-14.54-6.52,14.54h12.99Z"/><path class="cls-2" d="M517.3,130.28h3.01l17.96,22.85v-22.85h3.14v28.51h-2.57l-18.41-23.38v23.38h-3.14v-28.51Z"/><path class="cls-2" d="M548.2,144.62v-.08c0-7.82,5.74-14.74,14.29-14.74,4.81,0,7.78,1.38,10.63,3.79l-2.08,2.44c-2.2-1.91-4.64-3.26-8.67-3.26-6.31,0-10.83,5.33-10.83,11.69v.08c0,6.8,4.36,11.85,11.28,11.85,3.26,0,6.27-1.26,8.23-2.85v-7.09h-8.67v-2.89h11.77v11.36c-2.65,2.36-6.64,4.36-11.44,4.36-8.96,0-14.5-6.52-14.5-14.66Z"/><path class="cls-2" d="M581.39,130.28h20.61v2.93h-17.39v9.73h15.56v2.93h-15.56v9.98h17.59v2.93h-20.81v-28.51Z"/><path class="cls-2" d="M608.67,130.28h3.22v25.54h16.05v2.97h-19.26v-28.51Z"/><path class="cls-2" d="M632.01,154.64l2-2.36c2.97,2.69,5.82,4.03,9.77,4.03s6.35-2.04,6.35-4.85v-.08c0-2.65-1.43-4.15-7.41-5.42-6.56-1.43-9.57-3.54-9.57-8.23v-.08c0-4.48,3.95-7.78,9.37-7.78,4.15,0,7.13,1.18,10.02,3.5l-1.87,2.48c-2.65-2.16-5.29-3.09-8.23-3.09-3.71,0-6.07,2.04-6.07,4.6v.08c0,2.69,1.47,4.19,7.74,5.54,6.35,1.38,9.29,3.71,9.29,8.06v.08c0,4.89-4.07,8.06-9.73,8.06-4.52,0-8.23-1.51-11.65-4.56Z"/></g><g><path class="cls-1" d="M482.73,168.38h6.76l7.49,12.05,7.49-12.05h6.76v28.51h-6.23v-18.61l-8.02,12.18h-.16l-7.94-12.05v18.49h-6.15v-28.51Z"/><path class="cls-1" d="M518.07,168.38h21.5v5.58h-15.27v5.78h13.44v5.58h-13.44v5.99h15.48v5.58h-21.71v-28.51Z"/><path class="cls-1" d="M555.13,168.18h5.78l12.22,28.71h-6.56l-2.61-6.39h-12.05l-2.61,6.39h-6.39l12.22-28.71Zm6.6,16.78l-3.79-9.25-3.79,9.25h7.57Z"/></g><g><path class="cls-2" d="M0,142.92v-.31c0-31.78,24.46-56.7,57.48-56.7,22.27,0,36.6,9.35,46.26,22.74l-22.74,17.6c-6.23-7.79-13.39-12.78-23.83-12.78-15.26,0-26.01,12.93-26.01,28.82v.31c0,16.35,10.75,29.13,26.01,29.13,11.37,0,18.07-5.3,24.61-13.24l22.74,16.2c-10.28,14.17-24.14,24.61-48.29,24.61-31.16,0-56.23-23.84-56.23-56.39"/><path class="cls-2" d="M254.05,88.92h51.56c16.67,0,28.19,4.32,35.51,11.73,6.39,6.17,9.66,14.49,9.66,25.14v.31c0,16.51-8.88,27.46-22.43,33.17l27.32,37.64h-34.89l-23.27-32.7h-13.24v32.7h-30.22V88.92Zm50.16,51.83c10.28,0,16.2-4.94,16.2-12.8v-.31c0-8.48-6.23-12.8-16.35-12.8h-19.78v25.91h19.94Z"/><polygon class="cls-2" points="368.38 88.92 457.3 88.92 457.3 114.37 398.29 114.37 398.29 130.72 451.07 130.72 451.07 154.33 398.29 154.33 398.29 171.44 457.3 171.44 457.3 196.9 368.38 196.9 368.38 88.92"/></g><g><path class="cls-1" d="M177.84,161.04c-36.27,0-65.77-29.51-65.77-65.77S141.57,29.51,177.84,29.51s65.77,29.5,65.77,65.77-29.51,65.77-65.77,65.77m0-100.73c-19.28,0-34.96,15.69-34.96,34.96s15.69,34.96,34.96,34.96,34.96-15.69,34.96-34.96-15.69-34.96-34.96-34.96"/><path class="cls-1" d="M209.6,12.7h-63.51c-3.51,0-6.35-2.84-6.35-6.35s2.84-6.35,6.35-6.35h63.51c3.51,0,6.35,2.85,6.35,6.35s-2.84,6.35-6.35,6.35"/><path class="cls-1" d="M184.19,95.27c0,3.51-2.84,6.35-6.35,6.35s-6.35-2.84-6.35-6.35,2.84-6.35,6.35-6.35,6.35,2.84,6.35,6.35"/></g></svg>