<svg width="96" height="80" viewBox="0 0 96 80" fill="none" xmlns="http://www.w3.org/2000/svg">
<g clip-path="url(#clip0_82_3523)">
<path d="M87.3398 36.3219C87.1715 36.1155 84.3184 33.352 84.1625 33.241C84.142 33.2499 84.1147 33.2541 84.099 33.2695C83.1602 34.1789 82.2223 35.0893 81.2854 36.0003C81.2695 36.0158 81.2644 36.0415 81.2522 36.0664C81.3033 36.1592 81.3881 36.2224 81.462 36.2941C83.5501 38.3218 85.6392 40.3488 87.7281 42.3759C87.7799 42.4261 87.8305 42.4778 87.8844 42.5258C87.9188 42.5563 87.9581 42.5813 87.9961 42.6096C88.1036 42.5541 88.1693 42.4723 88.2429 42.4009C90.344 40.3632 92.4443 38.3248 94.5446 36.2865C94.5848 36.2475 94.6268 36.2096 94.6645 36.1685C94.6957 36.1348 94.7217 36.0971 94.7587 36.0504C94.6903 35.98 94.6313 35.9163 94.5688 35.8558C93.988 35.2914 93.4067 34.7276 92.8254 34.1635C92.5435 33.8899 92.2619 33.6158 91.9789 33.3433C91.9345 33.3008 91.8994 33.2401 91.8231 33.2457C91.617 33.4055 88.7806 36.1654 88.6705 36.3133C88.6926 36.4041 88.7734 36.4519 88.8351 36.5121C89.4553 37.1164 90.0773 37.7189 90.6982 38.3225C90.7602 38.3827 90.8179 38.4469 90.8823 38.5143C90.8405 38.5622 90.8118 38.5995 90.7785 38.6323C90.6126 38.7944 90.4456 38.9552 90.2688 39.1263C90.194 39.0569 90.1286 38.9987 90.0659 38.9379C89.4441 38.3351 88.8232 37.7314 88.2006 37.1294C88.1389 37.0697 88.0873 36.9949 87.998 36.9638C87.9068 37.0006 87.8544 37.074 87.7924 37.1341C87.1353 37.7697 86.4801 38.4071 85.8232 39.0427C85.7618 39.102 85.7102 39.1754 85.6278 39.2069C85.3879 39.0138 85.1284 38.7531 85.0249 38.5992C85.205 38.4016 85.4079 38.2202 85.6012 38.03C85.7895 37.8443 85.9804 37.6611 86.1705 37.4768C86.366 37.2869 86.5636 37.0987 86.7569 36.9068C86.9492 36.7157 87.1569 36.5388 87.3398 36.3219ZM79.9702 36.0715C79.9936 36.0376 80.0077 36.0085 80.0295 35.9872C81.3977 34.6574 82.7661 33.3282 84.142 31.9922C84.2364 32.0303 84.2883 32.1026 84.3489 32.1613C85.489 33.2663 86.6282 34.3723 87.768 35.4778C87.8363 35.5442 87.9065 35.6087 87.9855 35.6827C88.0379 35.6439 88.0852 35.6159 88.1238 35.5792C88.2868 35.4246 88.4472 35.2675 88.6083 35.111C89.621 34.1281 90.6339 33.1451 91.6468 32.1625C91.704 32.107 91.7633 32.0536 91.8247 31.996C91.9228 32.0388 91.9816 32.116 92.0491 32.1814C93.3099 33.4037 94.5701 34.6268 95.8304 35.8499C95.8649 35.8834 95.9003 35.916 95.9333 35.9509C96.0213 36.044 96.0216 36.0754 95.9314 36.1696C95.8814 36.2217 95.8285 36.2708 95.7767 36.321C93.4862 38.5437 91.1958 40.7663 88.9056 42.9891C88.8253 43.0668 88.7466 43.1461 88.6594 43.2323C88.6883 43.2779 88.7091 43.3186 88.7378 43.3535C88.7679 43.3902 88.8056 43.4215 88.8402 43.455C89.7723 44.3597 90.7043 45.2646 91.6375 46.1684C91.6992 46.2283 91.7513 46.3024 91.8364 46.3323C91.9973 46.22 94.5941 43.705 94.7449 43.5155C94.7217 43.4295 94.6422 43.3811 94.5813 43.3217C93.8575 42.6168 93.1317 41.9137 92.4068 41.2099C92.3443 41.1491 92.2832 41.087 92.2124 41.0166C92.4063 40.7981 92.6134 40.6127 92.8238 40.4105C92.8735 40.4489 92.9195 40.4785 92.9578 40.5157C93.9311 41.4587 94.9039 42.4025 95.8753 43.3471C95.9258 43.396 95.9929 43.4358 96 43.5345C95.9676 43.5721 95.9298 43.6221 95.8857 43.6664C94.5563 44.9959 92.0021 47.4524 91.8181 47.575C91.1883 46.9637 90.5562 46.35 89.9238 45.7366C89.2912 45.1232 88.6602 44.5087 88.0187 43.8895C87.9672 43.9236 87.9254 43.9453 87.8911 43.9754C87.8307 44.0283 87.7752 44.086 87.7174 44.1419C86.5896 45.2364 85.4616 46.3311 84.3335 47.4253C84.2822 47.475 84.2285 47.5224 84.1822 47.5652C84.1617 47.563 84.1537 47.563 84.1463 47.561C84.1386 47.559 84.1295 47.557 84.1242 47.5518C82.7704 46.2413 81.4168 44.9306 80.0632 43.6196C80.0404 43.5974 80.0183 43.574 79.9986 43.5492C79.9893 43.5377 79.9872 43.5211 79.9678 43.4702C81.032 42.44 82.1082 41.3981 83.1786 40.3622C83.3506 40.4553 83.6666 40.7517 83.8357 40.9723C83.4012 41.3942 82.9645 41.818 82.5276 42.2419C82.0973 42.6596 81.6668 43.0772 81.2325 43.499C81.2785 43.5544 81.3062 43.5929 81.3392 43.6266C81.9729 44.2743 83.9641 46.1882 84.1596 46.3359C84.1992 46.3064 84.2463 46.2787 84.284 46.242C85.2688 45.2878 86.2527 44.3327 87.2364 43.3773C87.2702 43.3443 87.2989 43.3065 87.3374 43.2623C87.3076 43.2212 87.2842 43.1813 87.2537 43.1474C87.2106 43.1001 87.1625 43.0572 87.1164 43.0124C84.7917 40.7563 82.4667 38.5002 80.142 36.244C80.085 36.1887 80.03 36.1317 79.9702 36.0715Z" fill="#0A4F9D"/>
<path d="M58.2212 32.1311C58.5991 32.1112 58.9469 32.1238 59.3112 32.1226C59.3628 32.1973 59.4181 32.2736 59.4689 32.3526C60.6268 34.1546 61.7838 35.957 62.9414 37.7594C63.7203 38.9721 64.4992 40.1846 65.2784 41.397C65.3294 41.4765 65.3733 41.5617 65.4504 41.6333C65.5427 41.5897 65.572 41.5037 65.6172 41.434C66.0363 40.7852 66.453 40.1349 66.8702 39.4849C68.398 37.1065 69.9255 34.728 71.4532 32.3497C71.5003 32.2765 71.5498 32.2048 71.5931 32.1402C71.8694 32.1085 72.4895 32.1139 72.6714 32.1475C72.677 32.1534 72.6839 32.1585 72.6877 32.1652C72.6914 32.1717 72.6938 32.1801 72.6938 32.1878C72.6962 37.2971 72.6986 42.4065 72.7004 47.5159C72.7004 47.5469 72.6938 47.5779 72.689 47.6186C72.5082 47.6832 72.3207 47.6455 72.138 47.6504C71.9526 47.6553 71.7662 47.6611 71.5681 47.641C71.5596 47.5855 71.5487 47.5411 71.5468 47.496C71.5434 47.4173 71.5452 47.3381 71.5452 47.2592C71.5452 43.0973 71.5452 38.9354 71.5447 34.7735C71.5447 34.6733 71.5559 34.5715 71.525 34.4496C71.4857 34.4736 71.4543 34.4829 71.4394 34.5034C71.3833 34.5808 71.3322 34.6617 71.2804 34.742C69.3941 37.657 67.5079 40.5721 65.6217 43.487C65.5746 43.5597 65.526 43.6314 65.4768 43.7054C65.3813 43.6489 65.3494 43.5644 65.3028 43.4929C64.3891 42.092 63.477 40.6902 62.5643 39.2886C61.5695 37.7603 60.5744 36.2317 59.5787 34.7037C59.5285 34.6265 59.4883 34.54 59.3937 34.4664C59.379 34.5121 59.3644 34.5385 59.3633 34.5656C59.3599 34.6524 59.3607 34.7393 59.3607 34.8262C59.3607 38.988 59.3607 43.1499 59.3601 47.3119C59.3601 47.4131 59.3753 47.5165 59.3351 47.6274C59.2192 47.6707 59.0969 47.6479 58.978 47.6515C58.8562 47.6552 58.7339 47.6547 58.6118 47.6516C58.4919 47.6486 58.3696 47.6671 58.2377 47.6292C58.2321 47.5809 58.2241 47.536 58.2222 47.4907C58.2196 47.4275 58.2212 47.3642 58.2212 47.3011C58.2212 42.3575 58.2212 37.4138 58.2212 32.4699V32.1311Z" fill="#0A4F9D"/>
<path d="M17.8069 33.1627C17.7907 33.2086 17.7763 33.2304 17.7763 33.2522C17.7745 37.6591 17.7737 42.0659 17.7737 46.4728C17.7737 46.5031 17.7855 46.5334 17.7912 46.5608C17.8864 46.6179 17.9865 46.6005 18.0823 46.6006C18.9612 46.602 19.8401 46.6037 20.7192 46.6007C21.454 46.5984 22.1806 46.5257 22.8924 46.3397C24.0155 46.0463 25.0067 45.5272 25.8225 44.7147C26.7801 43.7611 27.3154 42.6034 27.55 41.304C27.6598 40.6947 27.6832 40.0807 27.659 39.4633C27.6322 38.7806 27.5197 38.1124 27.3021 37.4635C26.7453 35.8025 25.6738 34.5699 24.0392 33.8177C23.0677 33.3708 22.0336 33.1743 20.9654 33.1564C19.9809 33.14 18.996 33.1514 18.0113 33.1513C17.9469 33.1513 17.8827 33.1583 17.8069 33.1627ZM16.634 47.6468C16.6248 47.5857 16.6162 47.5553 16.6162 47.5248C16.6161 42.4236 16.6165 37.3224 16.6178 32.2212C16.6178 32.1988 16.6282 32.1766 16.6375 32.1393C16.6978 32.1335 16.7601 32.1222 16.8224 32.1219C17.2049 32.1203 17.5873 32.1211 17.9698 32.1211C19.0113 32.1211 20.053 32.116 21.0944 32.1224C22.4093 32.1307 23.6621 32.4043 24.8264 33.0052C26.6815 33.9625 27.8864 35.4427 28.506 37.3801C28.7834 38.2471 28.8868 39.1382 28.8717 40.0444C28.8538 41.1136 28.66 42.1494 28.2228 43.1331C27.2474 45.3269 25.5575 46.7278 23.1896 47.3642C22.7183 47.4909 22.235 47.5539 21.7497 47.6086C21.3844 47.6499 21.0193 47.6526 20.6531 47.6526C19.4163 47.6526 18.1795 47.6527 16.9425 47.6524C16.846 47.6523 16.7495 47.649 16.634 47.6468Z" fill="#0A4F9D"/>
<path d="M40.1004 42.0513C40.1549 42.0576 40.2091 42.0686 40.2637 42.07C41.751 42.1056 46.7741 42.086 47.0036 42.0432C47.0188 41.9279 46.9528 41.8321 46.9127 41.7322C45.9808 39.4083 45.0469 37.0852 44.1135 34.7618C43.9601 34.3795 43.8098 33.9958 43.6532 33.6148C43.6279 33.5535 43.6263 33.4689 43.5343 33.4462C43.4625 33.5156 43.4436 33.6115 43.4088 33.6982C42.5427 35.8521 41.6779 38.0066 40.8128 40.161C40.5942 40.7051 40.3746 41.2488 40.1578 41.7936C40.1267 41.8716 40.0717 41.947 40.1004 42.0513ZM47.4695 43.1148C47.4211 43.1111 47.3655 43.104 47.3097 43.103C45.8585 43.0755 39.8799 43.0896 39.6042 43.1227C39.3856 43.6042 39.1989 44.1084 38.9955 44.6057C38.7883 45.1115 38.5843 45.6187 38.3793 46.1253C38.1775 46.6245 37.9759 47.1236 37.7724 47.6269C37.5666 47.6769 37.3632 47.6465 37.1624 47.651C36.9614 47.6555 36.7598 47.6576 36.5646 47.6466C36.5564 47.6112 36.5457 47.5935 36.5505 47.5817C38.6396 42.4876 40.7298 37.394 42.8206 32.3007C42.844 32.243 42.8745 32.1881 42.9033 32.1284H44.1925C44.2345 32.219 44.2808 32.3099 44.3196 32.4036C44.8919 33.7956 45.4631 35.1882 46.0351 36.5807C47.5129 40.1789 48.9909 43.777 50.4673 47.3756C50.4995 47.4539 50.5548 47.5286 50.5396 47.6208C50.3721 47.6607 49.6977 47.6702 49.3342 47.636C49.3004 47.5587 49.2613 47.4735 49.226 47.3869C48.6888 46.0576 48.1521 44.7281 47.6134 43.3993C47.5753 43.3053 47.553 43.2024 47.4695 43.1148Z" fill="#0A4F9D"/>
<path d="M0.0267736 32.1211H8.79783C8.8432 32.3157 8.85203 32.7986 8.82014 33.1215C8.77919 33.1304 8.73443 33.1461 8.68896 33.1489C8.6078 33.1536 8.52621 33.1507 8.44484 33.1507C6.13405 33.1508 3.82325 33.1507 1.51246 33.151C1.40782 33.151 1.30318 33.1548 1.1878 33.1572C1.17485 33.2128 1.15991 33.2561 1.15559 33.3004C1.15033 33.3553 1.15348 33.4108 1.15348 33.4661C1.15348 35.2586 1.15327 37.0509 1.15401 38.8434C1.15401 38.9371 1.14149 39.0324 1.17622 39.1324C1.22328 39.1415 1.26939 39.156 1.31623 39.1584C1.4055 39.163 1.49509 39.1613 1.58467 39.1613C3.7002 39.1614 5.81571 39.161 7.93122 39.1624C8.04249 39.1625 8.15809 39.1415 8.26135 39.1915C8.2982 39.3735 8.30368 39.9217 8.27116 40.1727C8.22872 40.1811 8.18292 40.1955 8.13641 40.1984C8.06344 40.203 7.98997 40.2001 7.91681 40.2001C5.77686 40.2001 3.63683 40.2 1.49688 40.2006C1.39308 40.2007 1.28739 40.1894 1.17254 40.2221C1.16601 40.2721 1.1557 40.3171 1.15496 40.3624C1.15264 40.5123 1.15348 40.6623 1.15348 40.8124C1.15348 42.6364 1.15327 44.4603 1.15401 46.2845C1.15401 46.378 1.14222 46.4733 1.17475 46.5726C1.22381 46.582 1.27013 46.5962 1.31708 46.5987C1.40634 46.6033 1.49604 46.6014 1.58552 46.6014C3.92885 46.6015 6.27215 46.6013 8.61559 46.6023C8.72707 46.6023 8.84181 46.5864 8.94531 46.6287C8.98688 46.8278 8.98794 47.4196 8.94635 47.636C8.90468 47.641 8.85825 47.6491 8.8115 47.6514C8.75475 47.6544 8.69771 47.6526 8.64064 47.6526C5.87424 47.6526 3.10774 47.6527 0.341218 47.6521C0.237315 47.6521 0.131623 47.6636 0.0309843 47.6348C0.0184572 47.6038 0.00245603 47.5825 0.00245603 47.5612C0.000561161 42.4525 -0.000175735 37.3438 3.48065e-05 32.2352C3.48065e-05 32.2057 0.0134042 32.1762 0.0267736 32.1211Z" fill="#0A4F9D"/>
</g>
<defs>
<clipPath id="clip0_82_3523">
<rect width="96" height="16" fill="white" transform="translate(0 31.8247)"/>
</clipPath>
</defs>
</svg>
