<svg width="96" height="80" viewBox="0 0 96 80" fill="none" xmlns="http://www.w3.org/2000/svg">
<g clip-path="url(#clip0_82_3533)">
<path d="M91.4582 41.048C90.8882 41.3797 90.3678 41.7879 89.9127 42.2606C89.6938 42.4857 89.4901 42.7264 89.3032 42.9802C89.8797 43.1711 90.4046 43.4783 90.8493 43.8744C91.0342 43.6425 91.2379 43.4263 91.4582 43.2287C91.9098 42.8227 92.432 42.4923 93.0033 42.2606C93.6198 42.0086 94.2937 41.87 95.0001 41.87V40.0952C93.7107 40.0952 92.5008 40.4425 91.4582 41.048ZM89.963 45.4995C89.7843 46.0317 89.6873 46.6019 89.6873 47.1942H87.916C87.916 46.2714 88.0933 45.3896 88.4144 44.5797C89.033 44.6974 89.5764 45.0312 89.963 45.4995Z" fill="url(#paint0_linear_82_3533)"/>
<path d="M66.1666 26.7466H60.353L72.1148 38.5337H77.9287L66.1666 26.7466Z" fill="#1F3C85"/>
<path d="M66.1666 50.3207H60.353L72.1148 38.5337H77.9287L66.1666 50.3207Z" fill="#222850"/>
<path d="M79.4566 39.8374L76.5498 42.9417L80.556 47.2196H86.3696L79.4566 39.8374Z" fill="#0072BA"/>
<path d="M79.4566 37.002L86.3696 30.0742H80.556L76.5498 34.0889L79.4566 37.002Z" fill="#222850"/>
<path d="M14.0722 29.3604L7.90166 35.5642L5.62793 33.2912L9.53911 29.3662L14.0722 29.3604Z" fill="#222850"/>
<path d="M14.0902 43.8483L9.55711 43.854L3.68191 37.9813C3.60305 37.9024 3.48933 37.8806 3.38874 37.9201C3.28371 37.9641 3.21835 38.065 3.21844 38.1747L3.22562 43.8621L0.01823 43.8661L0 29.3781L3.2073 29.374L3.21174 32.8601C3.21183 32.9303 3.24243 33.0004 3.2907 33.0529L14.0902 43.8483Z" fill="#222850"/>
<path d="M18.8939 32.8402L18.9034 40.356C18.9036 40.5052 19.0261 40.6278 19.175 40.6275L28.2762 40.616L28.2803 43.8303L15.7004 43.8462L15.6821 29.3582L28.2621 29.3423L28.2662 32.5564L19.1648 32.568C19.0159 32.5682 18.8937 32.6911 18.8939 32.8402Z" fill="#222850"/>
<path d="M26.3964 34.9795L26.4005 38.1937L20.3796 38.2013L20.3755 34.9871L26.3964 34.9795Z" fill="#222850"/>
<path d="M33.2309 35.8461V43.852L29.8916 43.7988V32.5791L33.2309 35.8461Z" fill="#222850"/>
<path d="M44.3442 29.3223L44.3625 43.8102L41.1552 43.8142L41.1431 34.369C41.1431 34.2594 41.0774 34.1587 40.9769 34.1193C40.876 34.0756 40.758 34.0976 40.6836 34.1767L37.1263 37.7462L29.8931 30.5114L29.8916 29.3405L33.2565 29.3363L36.9322 33.0106C37.0375 33.1157 37.2079 33.1155 37.3129 33.0102L40.9797 29.3265L44.3442 29.3223Z" fill="#222850"/>
<path d="M58.554 29.3042L53.8677 29.3101L53.4647 29.3106L45.9741 29.3201L45.9782 32.5344L50.3933 32.5287C50.542 32.5285 50.6646 32.6512 50.6649 32.8003L50.6787 43.8022L53.886 43.7981L53.8719 32.5244L58.5582 32.5185L58.554 29.3042Z" fill="#222850"/>
<path d="M63.6583 32.4685L63.6714 43.8022L60.3323 43.7457L60.3154 29.313L63.6583 32.4685Z" fill="#222850"/>
<path d="M3.67154 47.116H2.39416V51.2107H1.28596V47.116H0V46.124H3.67154V47.116Z" fill="#222850"/>
<path d="M4.64428 49.0403H6.0486C5.93866 48.7436 5.72708 48.574 5.36343 48.574C4.9827 48.574 4.75432 48.7521 4.64428 49.0403ZM7.16529 49.693H4.57665C4.61888 50.1763 4.87266 50.473 5.36343 50.473C5.73568 50.473 5.98096 50.3121 6.074 50.0407H7.11456C6.94542 50.7782 6.31928 51.2785 5.38033 51.2785C4.24673 51.2785 3.48535 50.5747 3.48535 49.5151C3.48535 48.4553 4.25513 47.7432 5.34653 47.7432C6.43772 47.7432 7.16529 48.4468 7.16529 49.5066V49.693Z" fill="#222850"/>
<path d="M7.68164 49.5149C7.68164 48.4975 8.43452 47.7515 9.56811 47.7515C10.5833 47.7515 11.2769 48.345 11.4208 49.1928H10.3041C10.1941 48.9045 9.91497 48.7179 9.56811 48.7095C9.10285 48.7179 8.76443 49.057 8.76443 49.5149C8.76443 49.9727 9.10285 50.3118 9.56811 50.3203C9.91497 50.3118 10.1941 50.1253 10.3041 49.837H11.4208C11.2769 50.6848 10.5833 51.2783 9.56811 51.2783C8.43452 51.2783 7.68164 50.5322 7.68164 49.5149Z" fill="#222850"/>
<path d="M15.3712 49.0657V51.2105H14.2885V49.2438C14.2885 48.947 14.0769 48.7096 13.7724 48.7096C13.4424 48.7096 13.1972 48.9979 13.1972 49.2945V51.2105H12.1143V45.4033H13.1972V48.2009C13.4339 47.9211 13.7724 47.7516 14.1446 47.7516C14.8298 47.7516 15.3712 48.3196 15.3712 49.0657Z" fill="#222850"/>
<path d="M19.5504 49.0655V51.2104H18.476V49.2437C18.476 48.9384 18.2561 48.7095 17.9431 48.7095C17.6301 48.7095 17.3763 48.9384 17.3763 49.2437V51.2104H16.2935V47.8193H17.3763V48.2348C17.6132 47.938 17.9516 47.7515 18.3407 47.7515C19.009 47.7515 19.5504 48.3195 19.5504 49.0655Z" fill="#222850"/>
<path d="M22.9348 49.5149C22.9348 49.057 22.588 48.7179 22.1311 48.7095C21.6658 48.7179 21.3274 49.057 21.3274 49.5149C21.3274 49.9727 21.6658 50.3118 22.1311 50.3203C22.588 50.3118 22.9348 49.9727 22.9348 49.5149ZM20.2446 49.5149C20.2446 48.4975 20.9975 47.7515 22.1311 47.7515C23.2647 47.7515 24.0092 48.4975 24.0092 49.5149C24.0092 50.5322 23.2647 51.2783 22.1311 51.2783C20.9975 51.2783 20.2446 50.5322 20.2446 49.5149Z" fill="#222850"/>
<path d="M24.7788 45.4033H25.8617V51.2106H24.7788V45.4033Z" fill="#222850"/>
<path d="M29.3132 49.5149C29.3132 49.057 28.9664 48.7179 28.5095 48.7095C28.0442 48.7179 27.7058 49.057 27.7058 49.5149C27.7058 49.9727 28.0442 50.3118 28.5095 50.3203C28.9664 50.3118 29.3132 49.9727 29.3132 49.5149ZM26.623 49.5149C26.623 48.4975 27.3759 47.7515 28.5095 47.7515C29.6431 47.7515 30.3876 48.4975 30.3876 49.5149C30.3876 50.5322 29.6431 51.2783 28.5095 51.2783C27.3759 51.2783 26.623 50.5322 26.623 49.5149Z" fill="#222850"/>
<path d="M33.6787 49.5149C33.6787 49.0655 33.3149 48.7095 32.8666 48.7095C32.4182 48.7095 32.0629 49.0655 32.0629 49.5149C32.0629 49.9642 32.4182 50.3203 32.8666 50.3203C33.3149 50.3203 33.6787 49.9642 33.6787 49.5149ZM34.7447 51.2443C34.7447 52.499 34.0086 53.2536 32.7736 53.2536C31.8853 53.2536 31.2508 52.8551 30.9716 52.1599L31.9614 51.7614C32.0883 52.1006 32.3843 52.3125 32.7736 52.3125C33.3235 52.3125 33.6703 51.931 33.6703 51.3036V50.8543C33.3911 51.1172 33.0188 51.2783 32.5959 51.2783C31.6568 51.2783 30.9209 50.4983 30.9209 49.5149C30.9209 48.523 31.6568 47.7515 32.5959 47.7515C33.0104 47.7515 33.3741 47.904 33.6533 48.1585V47.8193H34.7361L34.7447 51.2443Z" fill="#222850"/>
<path d="M35.7682 47.8194H36.8425V51.2105H35.7682V47.8194ZM35.7173 46.658C35.7173 46.3274 35.9882 46.0645 36.3097 46.0645C36.6308 46.0645 36.9017 46.3274 36.9017 46.658C36.9017 46.9801 36.6308 47.2514 36.3097 47.2514C35.9882 47.2514 35.7173 46.9801 35.7173 46.658Z" fill="#222850"/>
<path d="M38.7883 49.0403H40.1927C40.0825 48.7436 39.8712 48.574 39.5074 48.574C39.1267 48.574 38.8985 48.7521 38.7883 49.0403ZM41.3093 49.693H38.7205C38.7629 50.1763 39.0165 50.473 39.5074 50.473C39.8798 50.473 40.1249 50.3121 40.2181 50.0407H41.2587C41.0893 50.7782 40.4632 51.2785 39.5242 51.2785C38.3908 51.2785 37.6294 50.5747 37.6294 49.5151C37.6294 48.4553 38.399 47.7432 39.4905 47.7432C40.5816 47.7432 41.3093 48.4468 41.3093 49.5066V49.693Z" fill="#222850"/>
<path d="M41.7241 50.4643L42.5192 50.0659C42.6714 50.3541 42.9085 50.4219 43.0858 50.4219C43.2637 50.4219 43.3821 50.3456 43.3821 50.21C43.3821 50.0914 43.2806 50.0066 42.976 49.8879C42.5867 49.7437 41.91 49.5149 41.91 48.8366C41.91 48.2601 42.4008 47.7515 43.1705 47.7515C43.6444 47.7515 44.0588 47.9464 44.3125 48.2008L43.7711 48.8111C43.6699 48.684 43.4665 48.5653 43.2465 48.5653C43.0607 48.5653 42.976 48.6501 42.976 48.7604C42.976 48.8875 43.0944 48.9384 43.3398 49.0401C43.822 49.2266 44.3803 49.4979 44.3803 50.1761C44.3803 50.8119 43.915 51.2783 43.1536 51.2783C42.553 51.2783 41.9269 50.99 41.7241 50.4643Z" fill="#222850"/>
<path d="M91.4582 44.5355C90.9016 45.2763 90.5726 46.198 90.5726 47.1942C90.5726 46.551 90.3437 45.9597 89.963 45.4995C89.5764 45.0312 89.033 44.6974 88.4144 44.5797C88.2537 44.5488 88.0867 44.5321 87.916 44.5321V42.7573C88.4 42.7573 88.867 42.835 89.3032 42.9802C89.8797 43.171 90.4046 43.4783 90.8493 43.8743C91.0741 44.0729 91.2789 44.2949 91.4582 44.5355Z" fill="url(#paint1_linear_82_3533)"/>
<path d="M92.0673 43.8743C91.8422 44.0729 91.6377 44.2949 91.4584 44.5355C90.9018 45.2763 90.5728 46.198 90.5728 47.1942H92.344C92.344 46.551 92.5729 45.9597 92.9536 45.4995C92.7533 44.9036 92.4511 44.3547 92.0673 43.8743ZM95.0002 42.7573V44.5321C94.8299 44.5321 94.6626 44.5488 94.5022 44.5797C94.2743 44.0063 93.9742 43.4693 93.6134 42.9802C94.0496 42.835 94.5166 42.7573 95.0002 42.7573Z" fill="url(#paint2_linear_82_3533)"/>
<path d="M87.916 40.0952V41.87C88.6223 41.87 89.2966 42.0086 89.9127 42.2606C90.3681 41.7879 90.8882 41.3797 91.4582 41.048C90.4156 40.4425 89.2057 40.0952 87.916 40.0952ZM95.0001 47.1942H93.2291C93.2291 46.6019 93.1317 46.0317 92.9534 45.4995C92.7531 44.9036 92.4509 44.3547 92.0671 43.8744C91.8823 43.6425 91.6785 43.4263 91.4582 43.2287C91.9098 42.8227 92.432 42.4923 93.0033 42.2606C93.2226 42.4857 93.426 42.7264 93.6133 42.9802C93.974 43.4693 94.2741 44.0063 94.502 44.5797C94.8228 45.3896 95.0001 46.2714 95.0001 47.1942Z" fill="url(#paint3_linear_82_3533)"/>
</g>
<defs>
<linearGradient id="paint0_linear_82_3533" x1="95.0001" y1="43.6447" x2="87.916" y2="43.6447" gradientUnits="userSpaceOnUse">
<stop stop-color="#2E2E30"/>
<stop offset="0.237095" stop-color="#2E2E30"/>
<stop offset="1" stop-color="#2E2E30"/>
</linearGradient>
<linearGradient id="paint1_linear_82_3533" x1="87.9312" y1="42.7424" x2="91.4806" y2="46.2843" gradientUnits="userSpaceOnUse">
<stop stop-color="#2E2E30"/>
<stop offset="0.237095" stop-color="#2E2E30"/>
<stop offset="1" stop-color="#2E2E30"/>
</linearGradient>
<linearGradient id="paint2_linear_82_3533" x1="92.7867" y1="42.7573" x2="92.7867" y2="47.1942" gradientUnits="userSpaceOnUse">
<stop stop-color="#2E2E30"/>
<stop offset="0.237095" stop-color="#2E2E30"/>
<stop offset="1" stop-color="#2E2E30"/>
</linearGradient>
<linearGradient id="paint3_linear_82_3533" x1="89.0657" y1="39.4302" x2="93.9193" y2="47.8195" gradientUnits="userSpaceOnUse">
<stop stop-color="#2E2E30"/>
<stop offset="0.237095" stop-color="#2E2E30"/>
<stop offset="1" stop-color="#2E2E30"/>
</linearGradient>
<clipPath id="clip0_82_3533">
<rect width="95" height="26.9052" fill="white" transform="translate(0 26.5474)"/>
</clipPath>
</defs>
</svg>
