<?xml version="1.0" encoding="UTF-8" standalone="no"?>
<!-- Created with Inkscape (http://www.inkscape.org/) -->

<svg
   version="1.1"
   id="svg390"
   width="2560"
   height="1440"
   viewBox="0 0 2560 1440"
   xmlns="http://www.w3.org/2000/svg"
   xmlns:svg="http://www.w3.org/2000/svg">
  <defs
     id="defs394">
    <clipPath
       clipPathUnits="userSpaceOnUse"
       id="clipPath406">
      <path
         d="M 0,1080 H 1920 V 0 H 0 Z"
         id="path404" />
    </clipPath>
    <clipPath
       clipPathUnits="userSpaceOnUse"
       id="clipPath422">
      <path
         d="M 0,1080 H 1920 V 0 H 0 Z"
         id="path420" />
    </clipPath>
    <clipPath
       clipPathUnits="userSpaceOnUse"
       id="clipPath442">
      <path
         d="M 472.03,796.734 H 746.534 V 589.063 H 472.03 Z"
         id="path440" />
    </clipPath>
    <clipPath
       clipPathUnits="userSpaceOnUse"
       id="clipPath458">
      <path
         d="m 575.156,609 h 65.476 v -65.474 h -65.476 z"
         id="path456" />
    </clipPath>
    <clipPath
       clipPathUnits="userSpaceOnUse"
       id="clipPath462">
      <path
         d="m 607.894,600.211 c -5.269,-3.058 -10.076,-6.823 -14.282,-11.184 -2.025,-2.075 -3.907,-4.294 -5.638,-6.635 5.332,-1.763 10.183,-4.595 14.294,-8.248 1.707,2.138 3.591,4.133 5.626,5.955 4.175,3.744 9.003,6.793 14.281,8.928 5.699,2.326 11.929,3.605 18.457,3.605 V 609 c -11.919,0 -23.101,-3.203 -32.738,-8.789 m -32.738,-56.685 h 16.37 c 0,5.463 0.899,10.721 2.548,15.63 -3.57,4.319 -8.595,7.398 -14.313,8.482 -2.969,-7.47 -4.605,-15.602 -4.605,-24.112"
         id="path460" />
    </clipPath>
    <clipPath
       clipPathUnits="userSpaceOnUse"
       id="clipPath480">
      <path
         d="m 554.695,600.815 h 73.659 v -73.658 h -73.659 z"
         id="path478" />
    </clipPath>
    <clipPath
       clipPathUnits="userSpaceOnUse"
       id="clipPath484">
      <path
         d="m 575.156,568.08 c 1.575,0 3.119,-0.157 4.605,-0.442 v 0 c 5.719,-1.083 10.742,-4.163 14.313,-8.482 v 0 c 3.518,-4.246 5.636,-9.698 5.636,-15.63 v 0 c 0,9.186 3.04,17.687 8.183,24.52 v 0 c -1.658,2.22 -3.55,4.266 -5.625,6.097 v 0 c -4.111,3.654 -8.962,6.487 -14.294,8.249 v 0 c -4.03,1.337 -8.348,2.054 -12.818,2.054 v 0 z"
         id="path482" />
    </clipPath>
    <linearGradient
       x1="0"
       y1="0"
       x2="1"
       y2="0"
       gradientUnits="userSpaceOnUse"
       gradientTransform="matrix(32.737755,-32.737755,32.737755,32.737755,573.10992,582.4007)"
       spreadMethod="pad"
       id="linearGradient490">
      <stop
         style="stop-opacity:1;stop-color:#e41136"
         offset="0"
         id="stop486" />
      <stop
         style="stop-opacity:1;stop-color:#e41136"
         offset="1"
         id="stop488" />
    </linearGradient>
    <clipPath
       clipPathUnits="userSpaceOnUse"
       id="clipPath512">
      <path
         d="m 599.709,584.446 h 40.923 v -40.92 h -40.923 z"
         id="path510" />
    </clipPath>
    <clipPath
       clipPathUnits="userSpaceOnUse"
       id="clipPath516">
      <path
         d="m 627.813,582.392 c 3.333,-4.512 6.107,-9.463 8.215,-14.754 1.482,0.286 3.027,0.442 4.604,0.442 v 16.366 c -4.473,0 -8.788,-0.717 -12.819,-2.054 m -19.919,-14.346 c -5.144,-6.833 -8.185,-15.334 -8.185,-24.52 h 16.37 c 0,5.932 2.116,11.384 5.636,15.63 -1.851,5.496 -4.645,10.559 -8.194,14.988 -2.079,-1.832 -3.97,-3.878 -5.627,-6.098"
         id="path514" />
    </clipPath>
    <clipPath
       clipPathUnits="userSpaceOnUse"
       id="clipPath538">
      <path
         d="M 547.805,635.352 H 669.984 V 513.174 H 547.805 Z"
         id="path536" />
    </clipPath>
    <clipPath
       clipPathUnits="userSpaceOnUse"
       id="clipPath542">
      <path
         d="m 576.156,590.632 c 6.526,0 12.758,-1.28 18.456,-3.604 v 0 c 4.206,4.36 9.013,8.125 14.281,11.183 v 0 C 599.259,603.797 588.076,607 576.156,607 v 0 z m 32.737,-12.533 c 2.038,-1.822 3.92,-3.817 5.629,-5.956 v 0 c 3.548,-4.428 6.342,-9.491 8.193,-14.987 v 0 c 1.647,-4.91 2.549,-10.167 2.549,-15.63 v 0 h 16.367 0.002 c 0,8.511 -1.64,16.642 -4.605,24.112 v 0 c -2.108,5.29 -4.882,10.242 -8.215,14.754 v 0 c -1.731,2.342 -3.614,4.56 -5.638,6.636 v 0 c -5.278,-2.136 -10.106,-5.185 -14.282,-8.929"
         id="path540" />
    </clipPath>
    <linearGradient
       x1="0"
       y1="0"
       x2="1"
       y2="0"
       gradientUnits="userSpaceOnUse"
       gradientTransform="matrix(44.720345,-77.457909,77.457909,44.720345,586.53381,612.99188)"
       spreadMethod="pad"
       id="linearGradient548">
      <stop
         style="stop-opacity:1;stop-color:#e41136"
         offset="0"
         id="stop544" />
      <stop
         style="stop-opacity:1;stop-color:#e41136"
         offset="1"
         id="stop546" />
    </linearGradient>
  </defs>
  <g
     id="g398"
     transform="matrix(1.3333333,0,0,-1.3333333,0,1440)">
    <g
       id="g400">
      <g
         id="g402"
         clip-path="url(#clipPath406)">
        <g
           id="g408"
           transform="translate(1325.1055,460.8691)">
          <path
             d="m 0,0 c -65.533,0 -118.659,53.125 -118.659,118.659 0,65.534 53.126,118.659 118.659,118.659 65.534,0 118.66,-53.125 118.66,-118.659 C 118.66,53.125 65.534,0 0,0 m 0,324.526 c -113.696,0 -205.866,-92.17 -205.866,-205.867 0,-113.698 92.17,-205.867 205.866,-205.867 113.697,0 205.867,92.169 205.867,205.867 0,113.697 -92.17,205.867 -205.867,205.867"
             style="fill:#3e3e44;fill-opacity:1;fill-rule:nonzero;stroke:none"
             id="path410" />
        </g>
      </g>
    </g>
    <text
       xml:space="preserve"
       transform="matrix(1,0,0,-1,1178.4966,303.8789)"
       style="font-variant:normal;font-weight:bold;font-stretch:normal;font-size:74.5198px;font-family:'Now Alt';-inkscape-font-specification:NowAlt-Bold;writing-mode:lr-tb;fill:#f39223;fill-opacity:1;fill-rule:nonzero;stroke:none"
       id="text414"><tspan
         x="0 46.276794 91.808395 124.7834 154.59132 200.71909 248.11368 278.81583"
         y="0"
         id="tspan412">Partners</tspan></text>
    <g
       id="g416">
      <g
         id="g418"
         clip-path="url(#clipPath422)">
        <g
           id="g424"
           transform="translate(842.0713,593.4438)">
          <path
             d="M 0,0 C -0.104,1.083 -0.208,2.167 -0.312,3.25 -0.167,1.854 -0.021,0.458 0.083,-0.958 0.042,-0.646 0.021,-0.312 0,0 m -23.314,81.674 c -0.188,0.375 -0.375,0.729 -0.542,1.104 0.709,-1.375 1.417,-2.771 2.084,-4.188 -0.521,1.021 -1.021,2.063 -1.542,3.084 m -53.69,-276.022 c -0.219,0.655 -0.481,1.311 -0.7,1.967 0.525,-1.53 1.093,-3.016 1.749,-4.459 -0.394,0.831 -0.744,1.661 -1.049,2.492 m 289.219,113.111 -14.496,22.349 c 26.647,9.724 46.95,24.744 60.91,45.048 13.958,20.303 20.936,45.683 20.936,76.138 0,43.144 -13.639,76.138 -40.922,98.979 -27.285,22.842 -66.303,34.263 -117.062,34.263 H -78.281 V -223.22 H 28.945 v 138.109 h -0.35 v 97.334 h 0.35 v 100.834 h 74.236 c 23.257,0 40.179,-4.233 50.758,-12.69 10.569,-8.466 15.863,-21.791 15.863,-39.972 0,-18.619 -5.294,-32.151 -15.863,-40.608 C 143.36,11.321 126.438,7.098 103.181,7.098 H 38.595 V -70.31 h 55.702 l 20.322,-34.733 69.14,-118.177 h 120.553 z"
             style="fill:#3e3e44;fill-opacity:1;fill-rule:nonzero;stroke:none"
             id="path426" />
        </g>
        <g
           id="g428"
           transform="translate(480.4658,625.4307)">
          <path
             d="m 0,0 c -0.656,-1.88 -1.268,-3.672 -1.836,-5.508 -0.393,-1.18 -0.744,-2.317 -1.049,-3.453 -0.044,-0.087 -0.087,-0.175 -0.087,-0.262 -0.394,-1.399 -0.787,-2.754 -1.18,-4.109 -0.35,-1.398 -0.7,-2.753 -1.006,-4.108 -0.131,-0.525 -0.262,-1.05 -0.35,-1.575 -0.306,-1.267 -0.568,-2.534 -0.83,-3.846 -0.35,-1.748 -0.657,-3.497 -0.962,-5.245 -0.175,-1.093 -0.349,-2.229 -0.481,-3.322 -0.044,-0.306 -0.087,-0.569 -0.131,-0.831 -0.218,-1.355 -0.35,-2.71 -0.524,-4.109 7.299,103.989 84.711,188.919 185.202,207.671 -13.55,2.535 -27.494,3.846 -41.787,3.846 -125.494,0 -227.603,-102.108 -227.603,-227.602 0,-125.494 102.109,-227.603 227.603,-227.603 48.781,0 94.022,15.43 131.089,41.701 v 125.799 c -7.169,-15.648 -17.091,-29.81 -29.155,-41.875 -26.096,-26.138 -62.157,-42.268 -101.934,-42.268 -79.554,0 -144.246,64.692 -144.246,144.246 0,71.992 53.021,131.875 122.128,142.541 C 102.108,88.515 91.181,85.717 80.166,81.608 42.836,67.621 13.463,37.547 0,0"
             style="fill:#f39223;fill-opacity:1;fill-rule:nonzero;stroke:none"
             id="path430" />
        </g>
        <g
           id="g432"
           transform="translate(739.2339,763.8628)">
          <path
             d="M 0,0 C -0.043,0 -0.127,0.042 -0.171,0.085 V 0.075 C -0.234,0.138 -0.317,0.2 -0.4,0.242 -0.331,0.207 -0.274,0.16 -0.21,0.121 -0.258,0.167 -0.322,0.227 -0.394,0.262 -0.568,0.394 -0.743,0.481 -0.918,0.568 -1.049,0.7 -1.224,0.787 -1.442,0.875 c -0.744,0.524 -1.53,1.004 -2.317,1.485 -0.874,0.569 -1.749,1.093 -2.623,1.618 -1.617,1.005 -3.234,1.967 -4.895,2.885 -0.744,0.437 -1.486,0.874 -2.273,1.267 -1.006,0.612 -2.055,1.137 -3.104,1.705 0,0 -0.044,0 -0.044,0.044 -0.305,0.131 -0.568,0.306 -0.874,0.48 -0.655,0.35 -1.311,0.656 -1.967,1.006 -0.262,0.131 -0.524,0.262 -0.786,0.393 -0.962,0.525 -1.924,1.006 -2.929,1.487 -0.088,0.043 -0.218,0.13 -0.35,0.174 -0.656,0.306 -1.311,0.656 -1.967,0.962 -0.918,0.437 -1.792,0.874 -2.71,1.267 -0.83,0.394 -1.661,0.744 -2.448,1.137 -1.967,0.874 -3.934,1.749 -5.944,2.579 -0.525,0.219 -1.049,0.437 -1.618,0.656 -1.005,0.393 -2.01,0.83 -3.016,1.224 -0.524,0.174 -1.005,0.349 -1.486,0.568 -0.087,0 -0.219,0.043 -0.306,0.087 -1.267,0.481 -2.535,0.962 -3.803,1.399 -0.524,0.219 -1.093,0.393 -1.661,0.612 -0.524,0.175 -1.093,0.393 -1.661,0.568 -0.219,0.087 -0.393,0.175 -0.611,0.219 -1.356,0.481 -2.711,0.918 -4.066,1.355 -1.748,0.568 -3.497,1.093 -5.289,1.573 -0.088,0.044 -0.218,0.088 -0.306,0.131 -1.355,0.394 -2.754,0.744 -4.153,1.137 -0.306,0.087 -0.611,0.175 -0.917,0.262 -0.132,0.044 -0.263,0.044 -0.393,0.088 -1.093,0.306 -2.186,0.568 -3.323,0.83 -0.524,0.132 -1.049,0.262 -1.573,0.394 -1.355,0.349 -2.754,0.655 -4.109,0.961 -0.087,0 -0.175,0.044 -0.263,0.044 -0.874,0.218 -1.748,0.393 -2.622,0.568 -1.355,0.306 -2.754,0.568 -4.109,0.831 h -0.044 C -182.493,14.119 -259.905,-70.812 -267.204,-174.8 c 0.174,1.399 0.306,2.754 0.524,4.109 0.044,0.262 0.087,0.524 0.131,0.831 0.132,1.092 0.306,2.229 0.481,3.322 0.305,1.748 0.612,3.496 0.962,5.245 0.262,1.312 0.524,2.579 0.83,3.846 0.088,0.525 0.219,1.05 0.35,1.574 0.306,1.355 0.655,2.71 1.006,4.109 0.393,1.355 0.786,2.71 1.18,4.109 0,0.087 0.043,0.175 0.087,0.262 0.305,1.136 0.655,2.273 1.049,3.453 0.568,1.836 1.18,3.628 1.836,5.508 13.463,37.547 42.836,67.62 80.165,81.608 11.016,4.109 21.943,6.907 32.696,8.48 1.268,0.219 2.491,0.393 3.759,0.524 1.049,0.175 2.142,0.306 3.234,0.394 0.219,0 0.438,0.044 0.657,0.044 0.699,0.087 1.442,0.174 2.142,0.218 0.655,0.044 1.311,0.131 1.967,0.131 0.262,0.044 0.524,0.044 0.786,0.088 0.306,0 0.612,0.043 0.918,0.043 0.612,0.044 1.224,0.044 1.836,0.088 0.456,0.026 0.912,0.035 1.368,0.055 -0.453,-0.016 -0.905,-0.024 -1.359,-0.045 0.84,0.039 1.684,0.065 2.529,0.092 0.993,0.031 1.987,0.05 2.981,0.058 0.427,0.004 0.854,0.017 1.282,0.017 0.75,0 1.5,0 2.25,-0.042 0.201,0 0.4,-0.008 0.6,-0.012 1.109,-0.011 2.215,-0.042 3.288,-0.08 h 0.218 c 0.485,-0.032 0.967,-0.064 1.449,-0.097 0.81,-0.044 1.623,-0.081 2.425,-0.144 -0.392,0.02 -0.805,0.041 -1.197,0.062 0.406,-0.028 0.815,-0.055 1.213,-0.083 0.568,0 1.093,-0.044 1.661,-0.087 0.262,-0.044 0.525,-0.044 0.787,-0.088 1.704,-0.131 3.453,-0.306 5.158,-0.568 0.219,0 0.481,-0.044 0.699,-0.087 0.131,0 0.218,-0.044 0.35,-0.044 0.393,-0.044 0.743,-0.088 1.093,-0.131 0.102,-0.015 0.199,-0.029 0.3,-0.044 -0.097,0.016 -0.195,0.033 -0.292,0.049 0.601,-0.084 1.201,-0.174 1.796,-0.27 0.288,-0.043 0.576,-0.086 0.863,-0.129 0.611,-0.131 1.267,-0.218 1.922,-0.349 0.219,0 0.393,-0.044 0.612,-0.088 0.087,0 0.218,0 0.306,-0.044 0.438,-0.043 0.918,-0.13 1.355,-0.262 0.132,0 0.306,-0.043 0.437,-0.087 1.793,-0.306 3.541,-0.655 5.246,-1.093 0.568,-0.131 1.137,-0.262 1.704,-0.393 0.087,-0.029 0.189,-0.058 0.289,-0.086 0.961,-0.228 1.921,-0.458 2.864,-0.741 0.262,-0.068 0.52,-0.143 0.78,-0.213 -0.05,0.014 -0.101,0.034 -0.152,0.046 0.076,-0.021 0.15,-0.045 0.226,-0.066 1.423,-0.382 2.838,-0.783 4.227,-1.231 0.124,-0.04 0.253,-0.073 0.377,-0.113 0.328,-0.106 0.648,-0.207 0.972,-0.31 0.898,-0.285 1.786,-0.573 2.667,-0.886 0.559,-0.19 1.123,-0.365 1.679,-0.562 0.471,-0.164 0.937,-0.334 1.414,-0.515 0.938,-0.338 1.875,-0.699 2.81,-1.065 0.835,-0.326 1.66,-0.671 2.487,-1.012 0.404,-0.169 0.814,-0.33 1.216,-0.502 0.548,-0.215 1.082,-0.443 1.611,-0.677 0.109,-0.047 0.215,-0.097 0.323,-0.145 0.332,-0.148 0.664,-0.296 0.995,-0.446 0.42,-0.188 0.83,-0.394 1.248,-0.587 0.948,-0.438 1.898,-0.874 2.835,-1.332 0.62,-0.303 1.231,-0.622 1.845,-0.934 0.882,-0.447 1.767,-0.89 2.639,-1.354 0.468,-0.25 0.926,-0.515 1.391,-0.769 2.421,-1.327 4.812,-2.702 7.146,-4.162 -0.426,0.263 -0.861,0.511 -1.288,0.77 0.423,-0.258 0.854,-0.505 1.275,-0.768 1.529,-0.961 2.972,-1.879 4.458,-2.884 0.962,-0.656 1.923,-1.312 2.885,-2.011 2.623,-1.88 5.245,-3.847 7.737,-5.945 0.83,-0.612 1.573,-1.267 2.36,-1.923 0.044,-0.087 0.131,-0.131 0.175,-0.175 0.83,-0.699 1.661,-1.399 2.491,-2.185 0.219,-0.219 0.437,-0.438 0.7,-0.656 0.35,-0.306 0.699,-0.612 1.049,-0.918 0.48,-0.481 1.005,-0.962 1.486,-1.442 0.568,-0.525 1.093,-1.049 1.661,-1.574 0.568,-0.525 1.093,-1.093 1.617,-1.661 1.749,-1.749 3.409,-3.541 5.027,-5.377 0.437,-0.437 0.875,-0.917 1.268,-1.398 0.306,-0.306 0.568,-0.612 0.83,-0.918 1.224,-1.442 2.448,-2.929 3.585,-4.415 0.962,-1.224 1.879,-2.448 2.797,-3.672 0.612,-0.83 1.18,-1.617 1.749,-2.448 0.699,-0.961 1.355,-1.967 2.011,-2.928 0.567,-0.831 1.135,-1.705 1.66,-2.536 0.612,-0.961 1.181,-1.879 1.748,-2.797 0.788,-1.355 1.618,-2.667 2.361,-4.021 0.043,-0.131 0.087,-0.219 0.175,-0.35 0.743,-1.312 1.442,-2.623 2.141,-3.978 0.657,-1.267 1.312,-2.491 1.88,-3.759 0.175,-0.306 0.306,-0.612 0.437,-0.918 0.219,-0.48 0.482,-0.961 0.7,-1.442 V -4.983 C 6.731,-4.546 6.163,-4.152 5.551,-3.759 3.716,-2.492 1.879,-1.224 0,0"
             style="fill:#f39223;fill-opacity:1;fill-rule:nonzero;stroke:none"
             id="path434" />
        </g>
        <g
           id="g436">
          <g
             id="g438" />
          <g
             id="g450">
            <g
               clip-path="url(#clipPath442)"
               id="g448">
              <g
                 transform="translate(739.2339,763.8628)"
                 id="g446">
                <path
                   d="M 0,0 C -0.043,0 -0.127,0.042 -0.171,0.085 V 0.075 C -0.234,0.138 -0.317,0.2 -0.4,0.242 -0.331,0.207 -0.274,0.16 -0.21,0.121 -0.258,0.167 -0.322,0.227 -0.394,0.262 -0.568,0.394 -0.743,0.481 -0.918,0.568 -1.049,0.7 -1.224,0.787 -1.442,0.875 c -0.744,0.524 -1.53,1.004 -2.317,1.485 -0.874,0.569 -1.749,1.093 -2.623,1.618 -1.617,1.005 -3.234,1.967 -4.895,2.885 -0.744,0.437 -1.486,0.874 -2.273,1.267 -1.006,0.612 -2.055,1.137 -3.104,1.705 0,0 -0.044,0 -0.044,0.044 -0.305,0.131 -0.568,0.306 -0.874,0.48 -0.655,0.35 -1.311,0.656 -1.967,1.006 -0.262,0.131 -0.524,0.262 -0.786,0.393 -0.962,0.525 -1.924,1.006 -2.929,1.487 -0.088,0.043 -0.218,0.13 -0.35,0.174 -0.656,0.306 -1.311,0.656 -1.967,0.962 -0.918,0.437 -1.792,0.874 -2.71,1.267 -0.83,0.394 -1.661,0.744 -2.448,1.137 -1.967,0.874 -3.934,1.749 -5.944,2.579 -0.525,0.219 -1.049,0.437 -1.618,0.656 -1.005,0.393 -2.01,0.83 -3.016,1.224 -0.524,0.174 -1.005,0.349 -1.486,0.568 -0.087,0 -0.219,0.043 -0.306,0.087 -1.267,0.481 -2.535,0.962 -3.803,1.399 -0.524,0.219 -1.093,0.393 -1.661,0.612 -0.524,0.175 -1.093,0.393 -1.661,0.568 -0.219,0.087 -0.393,0.175 -0.611,0.219 -1.356,0.481 -2.711,0.918 -4.066,1.355 -1.748,0.568 -3.497,1.093 -5.289,1.573 -0.088,0.044 -0.218,0.088 -0.306,0.131 -1.355,0.394 -2.754,0.744 -4.153,1.137 -0.306,0.087 -0.611,0.175 -0.917,0.262 -0.132,0.044 -0.263,0.044 -0.393,0.088 -1.093,0.306 -2.186,0.568 -3.323,0.83 -0.524,0.132 -1.049,0.262 -1.573,0.394 -1.355,0.349 -2.754,0.655 -4.109,0.961 -0.087,0 -0.175,0.044 -0.263,0.044 -0.874,0.218 -1.748,0.393 -2.622,0.568 -1.355,0.306 -2.754,0.568 -4.109,0.831 h -0.044 C -182.493,14.119 -259.905,-70.812 -267.204,-174.8 c 0.174,1.399 0.306,2.754 0.524,4.109 0.044,0.262 0.087,0.524 0.131,0.831 0.132,1.092 0.306,2.229 0.481,3.322 0.305,1.748 0.612,3.496 0.962,5.245 0.262,1.312 0.524,2.579 0.83,3.846 0.088,0.525 0.219,1.05 0.35,1.574 0.306,1.355 0.655,2.71 1.006,4.109 0.393,1.355 0.786,2.71 1.18,4.109 0,0.087 0.043,0.175 0.087,0.262 0.305,1.136 0.655,2.273 1.049,3.453 0.568,1.836 1.18,3.628 1.836,5.508 13.463,37.547 42.836,67.62 80.165,81.608 11.016,4.109 21.943,6.907 32.696,8.48 1.268,0.219 2.491,0.393 3.759,0.524 1.049,0.175 2.142,0.306 3.234,0.394 0.219,0 0.438,0.044 0.657,0.044 0.699,0.087 1.442,0.174 2.142,0.218 0.655,0.044 1.311,0.131 1.967,0.131 0.262,0.044 0.524,0.044 0.786,0.088 0.306,0 0.612,0.043 0.918,0.043 0.612,0.044 1.224,0.044 1.836,0.088 0.456,0.026 0.912,0.035 1.368,0.055 -0.453,-0.016 -0.905,-0.024 -1.359,-0.045 0.84,0.039 1.684,0.065 2.529,0.092 0.993,0.031 1.987,0.05 2.981,0.058 0.427,0.004 0.854,0.017 1.282,0.017 0.75,0 1.5,0 2.25,-0.042 0.201,0 0.4,-0.008 0.6,-0.012 1.109,-0.011 2.215,-0.042 3.288,-0.08 h 0.218 c 0.485,-0.032 0.967,-0.064 1.449,-0.097 0.81,-0.044 1.623,-0.081 2.425,-0.144 -0.392,0.02 -0.805,0.041 -1.197,0.062 0.406,-0.028 0.815,-0.055 1.213,-0.083 0.568,0 1.093,-0.044 1.661,-0.087 0.262,-0.044 0.525,-0.044 0.787,-0.088 1.704,-0.131 3.453,-0.306 5.158,-0.568 0.219,0 0.481,-0.044 0.699,-0.087 0.131,0 0.218,-0.044 0.35,-0.044 0.393,-0.044 0.743,-0.088 1.093,-0.131 0.102,-0.015 0.199,-0.029 0.3,-0.044 -0.097,0.016 -0.195,0.033 -0.292,0.049 0.601,-0.084 1.201,-0.174 1.796,-0.27 0.288,-0.043 0.576,-0.086 0.863,-0.129 0.611,-0.131 1.267,-0.218 1.922,-0.349 0.219,0 0.393,-0.044 0.612,-0.088 0.087,0 0.218,0 0.306,-0.044 0.438,-0.043 0.918,-0.13 1.355,-0.262 0.132,0 0.306,-0.043 0.437,-0.087 1.793,-0.306 3.541,-0.655 5.246,-1.093 0.568,-0.131 1.137,-0.262 1.704,-0.393 0.087,-0.029 0.189,-0.058 0.289,-0.086 0.961,-0.228 1.921,-0.458 2.864,-0.741 0.262,-0.068 0.52,-0.143 0.78,-0.213 -0.05,0.014 -0.101,0.034 -0.152,0.046 0.076,-0.021 0.15,-0.045 0.226,-0.066 1.423,-0.382 2.838,-0.783 4.227,-1.231 0.124,-0.04 0.253,-0.073 0.377,-0.113 0.328,-0.106 0.648,-0.207 0.972,-0.31 0.898,-0.285 1.786,-0.573 2.667,-0.886 0.559,-0.19 1.123,-0.365 1.679,-0.562 0.471,-0.164 0.937,-0.334 1.414,-0.515 0.938,-0.338 1.875,-0.699 2.81,-1.065 0.835,-0.326 1.66,-0.671 2.487,-1.012 0.404,-0.169 0.814,-0.33 1.216,-0.502 0.548,-0.215 1.082,-0.443 1.611,-0.677 0.109,-0.047 0.215,-0.097 0.323,-0.145 0.332,-0.148 0.664,-0.296 0.995,-0.446 0.42,-0.188 0.83,-0.394 1.248,-0.587 0.948,-0.438 1.898,-0.874 2.835,-1.332 0.62,-0.303 1.231,-0.622 1.845,-0.934 0.882,-0.447 1.767,-0.89 2.639,-1.354 0.468,-0.25 0.926,-0.515 1.391,-0.769 2.421,-1.327 4.812,-2.702 7.146,-4.162 -0.426,0.263 -0.861,0.511 -1.288,0.77 0.423,-0.258 0.854,-0.505 1.275,-0.768 1.529,-0.961 2.972,-1.879 4.458,-2.884 0.962,-0.656 1.923,-1.312 2.885,-2.011 2.623,-1.88 5.245,-3.847 7.737,-5.945 0.83,-0.612 1.573,-1.267 2.36,-1.923 0.044,-0.087 0.131,-0.131 0.175,-0.175 0.83,-0.699 1.661,-1.399 2.491,-2.185 0.219,-0.219 0.437,-0.438 0.7,-0.656 0.35,-0.306 0.699,-0.612 1.049,-0.918 0.48,-0.481 1.005,-0.962 1.486,-1.442 0.568,-0.525 1.093,-1.049 1.661,-1.574 0.568,-0.525 1.093,-1.093 1.617,-1.661 1.749,-1.749 3.409,-3.541 5.027,-5.377 0.437,-0.437 0.875,-0.917 1.268,-1.398 0.306,-0.306 0.568,-0.612 0.83,-0.918 1.224,-1.442 2.448,-2.929 3.585,-4.415 0.962,-1.224 1.879,-2.448 2.797,-3.672 0.612,-0.83 1.18,-1.617 1.749,-2.448 0.699,-0.961 1.355,-1.967 2.011,-2.928 0.567,-0.831 1.135,-1.705 1.66,-2.536 0.612,-0.961 1.181,-1.879 1.748,-2.797 0.788,-1.355 1.618,-2.667 2.361,-4.021 0.043,-0.131 0.087,-0.219 0.175,-0.35 0.743,-1.312 1.442,-2.623 2.141,-3.978 0.657,-1.267 1.312,-2.491 1.88,-3.759 0.175,-0.306 0.306,-0.612 0.437,-0.918 0.219,-0.48 0.482,-0.961 0.7,-1.442 V -4.983 C 6.731,-4.546 6.163,-4.152 5.551,-3.759 3.716,-2.492 1.879,-1.224 0,0"
                   style="fill:#f39223;fill-opacity:1;fill-rule:nonzero;stroke:none"
                   id="path444" />
              </g>
            </g>
          </g>
        </g>
        <g
           id="g452">
          <g
             id="g454" />
          <g
             id="g472">
            <g
               clip-path="url(#clipPath458)"
               opacity="0.800003"
               id="g470">
              <g
                 id="g468">
                <g
                   clip-path="url(#clipPath462)"
                   id="g466">
                  <path
                     d="M 640.632,543.526 H 575.155 V 609 h 65.477 z"
                     style="fill:#f39223;fill-opacity:1;fill-rule:nonzero;stroke:none"
                     id="path464" />
                </g>
              </g>
            </g>
          </g>
        </g>
        <g
           id="g474">
          <g
             id="g476" />
          <g
             id="g504">
            <g
               clip-path="url(#clipPath480)"
               opacity="0.800003"
               id="g502">
              <g
                 id="g500">
                <g
                   clip-path="url(#clipPath484)"
                   id="g498">
                  <g
                     id="g496">
                    <g
                       id="g494">
                      <path
                         d="m 575.156,568.08 c 1.575,0 3.119,-0.157 4.605,-0.442 v 0 c 5.719,-1.083 10.742,-4.163 14.313,-8.482 v 0 c 3.518,-4.246 5.636,-9.698 5.636,-15.63 v 0 c 0,9.186 3.04,17.687 8.183,24.52 v 0 c -1.658,2.22 -3.55,4.266 -5.625,6.097 v 0 c -4.111,3.654 -8.962,6.487 -14.294,8.249 v 0 c -4.03,1.337 -8.348,2.054 -12.818,2.054 v 0 z"
                         style="fill:url(#linearGradient490);stroke:none"
                         id="path492" />
                    </g>
                  </g>
                </g>
              </g>
            </g>
          </g>
        </g>
        <g
           id="g506">
          <g
             id="g508" />
          <g
             id="g530">
            <g
               clip-path="url(#clipPath512)"
               opacity="0.800003"
               id="g528">
              <g
                 transform="translate(627.813,582.3921)"
                 id="g520">
                <path
                   d="m 0,0 c 3.333,-4.512 6.107,-9.463 8.215,-14.754 1.482,0.286 3.027,0.441 4.604,0.441 V 2.054 C 8.346,2.054 4.031,1.337 0,0 m -19.919,-14.346 c -5.144,-6.833 -8.185,-15.334 -8.185,-24.52 h 16.37 c 0,5.932 2.116,11.384 5.636,15.63 -1.851,5.496 -4.645,10.559 -8.194,14.987 -2.079,-1.832 -3.97,-3.877 -5.627,-6.097"
                   style="fill:#f39223;fill-opacity:1;fill-rule:nonzero;stroke:none"
                   id="path518" />
              </g>
              <g
                 id="g526">
                <g
                   clip-path="url(#clipPath516)"
                   id="g524">
                  <path
                     d="m 640.632,543.526 h -40.923 v 40.92 h 40.923 z"
                     style="fill:#f39223;fill-opacity:1;fill-rule:nonzero;stroke:none"
                     id="path522" />
                </g>
              </g>
            </g>
          </g>
        </g>
        <g
           id="g532">
          <g
             id="g534" />
          <g
             id="g562">
            <g
               clip-path="url(#clipPath538)"
               opacity="0.800003"
               id="g560">
              <g
                 id="g558">
                <g
                   clip-path="url(#clipPath542)"
                   id="g556">
                  <g
                     id="g554">
                    <g
                       id="g552">
                      <path
                         d="m 576.156,590.632 c 6.526,0 12.758,-1.28 18.456,-3.604 v 0 c 4.206,4.36 9.013,8.125 14.281,11.183 v 0 C 599.259,603.797 588.076,607 576.156,607 v 0 z m 32.737,-12.533 c 2.038,-1.822 3.92,-3.817 5.629,-5.956 v 0 c 3.548,-4.428 6.342,-9.491 8.193,-14.987 v 0 c 1.647,-4.91 2.549,-10.167 2.549,-15.63 v 0 h 16.367 0.002 c 0,8.511 -1.64,16.642 -4.605,24.112 v 0 c -2.108,5.29 -4.882,10.242 -8.215,14.754 v 0 c -1.731,2.342 -3.614,4.56 -5.638,6.636 v 0 c -5.278,-2.136 -10.106,-5.185 -14.282,-8.929"
                         style="fill:url(#linearGradient548);stroke:none"
                         id="path550" />
                    </g>
                  </g>
                </g>
              </g>
            </g>
          </g>
        </g>
      </g>
    </g>
  </g>
</svg>
