<svg width="96" height="80" viewBox="0 0 96 80" fill="none" xmlns="http://www.w3.org/2000/svg">
<g clip-path="url(#clip0_82_3461)">
<path d="M17.6169 54.8115L14.7739 62.4543H12.8123L9.96924 54.8115H11.906L13.7931 60.2741L15.6802 54.8115H17.6169Z" fill="url(#paint0_linear_82_3461)"/>
<path fill-rule="evenodd" clip-rule="evenodd" d="M22.8564 60.1786H18.8215C18.8836 60.8973 19.2808 61.3406 20.0505 61.3406C20.6216 61.3406 21.0065 61.101 21.1555 60.6937H22.7819C22.5087 61.8078 21.5404 62.5505 20.0754 62.5505C18.3 62.5505 17.1206 61.4963 17.1206 59.9031C17.1206 58.3098 18.3125 57.2437 20.0133 57.2437C21.7266 57.2437 22.8564 58.2978 22.8564 59.8911V60.1786ZM18.9208 59.1963H21.1183C20.9444 58.753 20.6092 58.5015 20.0505 58.5015C19.4546 58.5015 19.0946 58.765 18.9208 59.1963Z" fill="url(#paint1_linear_82_3461)"/>
<path d="M29.1134 59.2319V62.4543H27.4374V59.4955C27.4374 59.0403 27.0898 58.6929 26.6056 58.6929C26.109 58.6929 25.7241 59.0403 25.7241 59.4955V62.4543H24.0356V57.3631H25.7241V57.9861C26.0842 57.5429 26.618 57.2554 27.2263 57.2554C28.2692 57.2554 29.1134 58.1059 29.1134 59.2319Z" fill="url(#paint2_linear_82_3461)"/>
<path d="M32.4901 58.6209V60.4418C32.4901 60.861 32.7384 61.1246 33.0985 61.1246H33.7317V62.3824C33.5951 62.4782 33.2351 62.5501 32.8874 62.5501C31.7577 62.5501 30.8141 61.7116 30.8141 60.6334V58.6209H29.9326V57.363H30.8141V55.3984H32.4901V57.363H33.7441V58.6209H32.4901Z" fill="url(#paint3_linear_82_3461)"/>
<path d="M34.6631 60.5019V57.3633H36.3515V60.2862C36.3515 60.7774 36.6992 61.1128 37.1461 61.1128C37.6055 61.1128 37.9531 60.7774 37.9531 60.2862V57.3633H39.6291V60.5019C39.6291 61.7477 38.7352 62.5503 37.1461 62.5503C35.5446 62.5503 34.6631 61.7477 34.6631 60.5019Z" fill="url(#paint4_linear_82_3461)"/>
<path d="M44.6819 57.3033V58.7528C44.5577 58.7168 44.3839 58.6929 44.1853 58.6929C43.3535 58.6929 42.77 59.184 42.77 60.0226V62.4543H41.0815V57.3631H42.77V58.058C43.1052 57.5668 43.6266 57.2554 44.2474 57.2554C44.3963 57.2554 44.5577 57.2673 44.6819 57.3033Z" fill="url(#paint5_linear_82_3461)"/>
<path fill-rule="evenodd" clip-rule="evenodd" d="M50.8027 60.1786H46.768C46.8301 60.8973 47.2273 61.3406 47.9846 61.3406C48.5682 61.3406 48.9531 61.101 49.1021 60.6937H50.7161C50.4551 61.8078 49.4743 62.5505 48.0097 62.5505C46.2466 62.5505 45.0547 61.4963 45.0547 59.9031C45.0547 58.3098 46.2589 57.2437 47.96 57.2437C49.6606 57.2437 50.8027 58.2978 50.8027 59.8911V60.1786ZM46.8673 59.1963H49.0524C48.8907 58.753 48.5559 58.5015 47.9846 58.5015C47.3888 58.5015 47.0411 58.765 46.8673 59.1963Z" fill="url(#paint6_linear_82_3461)"/>
<path d="M51.4478 61.3283L52.6891 60.7293C52.9251 61.1606 53.2978 61.2684 53.5706 61.2684C53.844 61.2684 54.0303 61.1487 54.0303 60.945C54.0303 60.7773 53.8686 60.6455 53.3971 60.4658C52.7884 60.2502 51.7334 59.9028 51.7334 58.8846C51.7334 58.022 52.5033 57.2554 53.695 57.2554C54.4398 57.2554 55.0853 57.5549 55.4826 57.9382L54.6385 58.8487C54.4772 58.657 54.1665 58.4773 53.8189 58.4773C53.5333 58.4773 53.3971 58.609 53.3971 58.7767C53.3971 58.9684 53.5834 59.0403 53.9679 59.196C54.7132 59.4716 55.5819 59.8788 55.5819 60.8971C55.5819 61.8554 54.8621 62.5502 53.6699 62.5502C52.7388 62.5502 51.758 62.1189 51.4478 61.3283Z" fill="url(#paint7_linear_82_3461)"/>
<path d="M64.1489 60.9569V62.4543H59.7788V54.8115H61.5295V60.9569H64.1489Z" fill="url(#paint8_linear_82_3461)"/>
<path fill-rule="evenodd" clip-rule="evenodd" d="M70.89 61.1247V62.4543C70.7784 62.5023 70.6166 62.5502 70.4431 62.5502C69.7351 62.5502 69.152 62.2148 68.8168 61.6877C68.3944 62.2267 67.7735 62.5502 67.0164 62.5502C65.5513 62.5502 64.397 61.3882 64.397 59.9028C64.397 58.4294 65.5513 57.2554 67.0164 57.2554C67.6246 57.2554 68.1216 57.459 68.5188 57.8064V57.3631H70.1948V60.6335C70.1948 61.0528 70.4308 61.1247 70.654 61.1247H70.89ZM68.5931 59.9028C68.5931 59.232 68.0223 58.6929 67.3394 58.6929C66.6442 58.6929 66.0852 59.232 66.0852 59.9028C66.0852 60.5856 66.6442 61.1127 67.3394 61.1127C68.0223 61.1127 68.5931 60.5856 68.5931 59.9028Z" fill="url(#paint9_linear_82_3461)"/>
<path fill-rule="evenodd" clip-rule="evenodd" d="M77.6562 59.9023C77.6562 61.3877 76.5141 62.5497 75.0618 62.5497C74.4532 62.5497 73.9566 62.3461 73.5594 62.0106V62.4658L71.8711 62.4538V53.7329H73.5594V57.8059C73.9566 57.4585 74.4532 57.2548 75.0618 57.2548C76.5141 57.2548 77.6562 58.4288 77.6562 59.9023ZM75.9802 59.9023C75.9802 59.2314 75.434 58.6923 74.7265 58.6923C74.0313 58.6923 73.4724 59.2314 73.4724 59.9023C73.4724 60.5851 74.0313 61.1122 74.7265 61.1122C75.434 61.1122 75.9802 60.5851 75.9802 59.9023Z" fill="url(#paint10_linear_82_3461)"/>
<path fill-rule="evenodd" clip-rule="evenodd" d="M17.468 51.4813C7.85876 51.4693 0 43.8744 0 34.6144C0.0124151 25.2945 7.82149 17.7356 17.4432 17.7236C27.1269 17.7117 35.0229 25.3185 34.9981 34.6384C34.9733 43.8984 27.0773 51.4932 17.468 51.4813ZM17.5052 25.7378C12.3406 25.7378 8.3057 29.6191 8.3057 34.5905C8.3057 39.5619 12.3281 43.4671 17.4804 43.4671C22.6202 43.4671 26.6924 39.5499 26.6924 34.6024C26.68 29.631 22.6575 25.7497 17.5052 25.7378Z" fill="#23282C"/>
<path fill-rule="evenodd" clip-rule="evenodd" d="M60.1384 51.4813C50.5167 51.4693 42.658 43.8744 42.6704 34.6144C42.6704 25.2945 50.4921 17.7356 60.101 17.7236C69.7975 17.7117 77.6809 25.3185 77.6563 34.6384C77.6435 43.8984 69.7351 51.4932 60.1384 51.4813ZM60.1635 25.7378C55.0112 25.7378 50.9635 29.6191 50.9635 34.5905C50.9635 39.5619 54.9984 43.4671 60.1384 43.4671C65.2784 43.4671 69.3506 39.5499 69.3506 34.6024C69.3506 29.631 65.3153 25.7497 60.1635 25.7378Z" fill="#23282C"/>
<path d="M52.926 49.409H44.1236L35.3337 37.238H35.0358C35.1724 36.3755 35.2468 35.501 35.2593 34.6026C35.2593 33.5484 35.1599 32.5182 34.9613 31.5239H38.3009C40.7964 31.5239 42.6462 30.0025 42.6462 27.7984C42.6462 25.6421 40.7964 24.0728 38.3009 24.0728H32.1804V25.0311C30.2436 22.3238 27.5247 20.1915 24.334 18.9337V17.9395H39.4928C45.6134 17.9395 50.1325 22.24 50.1325 27.5828C50.1325 31.8833 47.1529 35.3453 42.9442 36.4474L52.926 49.409Z" fill="url(#paint11_linear_82_3461)"/>
<path fill-rule="evenodd" clip-rule="evenodd" d="M53.2858 49.5762H44.0364L35.2341 37.4172H34.812L34.8492 37.2136C34.9983 36.3511 35.0727 35.4766 35.0727 34.6021C35.0727 33.5838 34.9734 32.5536 34.7872 31.5474L34.7499 31.3437H38.3006C40.7464 31.3437 42.4597 29.8823 42.4597 27.7979C42.4597 25.7375 40.7092 24.252 38.3006 24.252H32.3538V25.5937L32.031 25.1265C30.0943 22.4192 27.4126 20.3348 24.2592 19.0889L24.1475 19.053V17.7593H39.4925C42.4721 17.7593 45.2283 18.7775 47.2271 20.6343C49.2136 22.4552 50.3183 24.9348 50.3183 27.5823C50.3183 31.763 47.488 35.3329 43.2418 36.5547L53.2858 49.5762ZM44.2226 49.2168H52.5656L42.6335 36.3391L42.8942 36.2792C47.1153 35.1771 49.9462 31.6792 49.9462 27.5823C49.9462 22.2635 45.3524 18.1067 39.4925 18.1067H24.5075V18.8014C27.4995 19.9994 30.0694 21.952 31.9938 24.4796V23.8926H38.3006C40.9202 23.8926 42.8197 25.5338 42.8197 27.7859C42.8197 30.05 40.9202 31.6911 38.3006 31.6911H35.1844C35.3458 32.6495 35.4328 33.6198 35.4328 34.6021C35.4328 35.4167 35.3707 36.2432 35.2341 37.0578H35.4203L44.2226 49.2168Z" fill="url(#paint12_linear_82_3461)"/>
<path d="M17.5796 36.2551C16.5864 36.2791 15.8043 35.5843 15.7794 34.6379C15.767 33.7395 16.5864 32.8889 17.53 32.9488C18.4984 33.0207 19.1688 33.4999 19.2184 34.5301C19.2681 35.5124 18.5852 36.2311 17.5796 36.2551Z" fill="url(#paint13_linear_82_3461)"/>
<g style="mix-blend-mode:multiply">
<path fill-rule="evenodd" clip-rule="evenodd" d="M86.1841 59.5313C85.8488 60.4776 85.6753 61.4959 85.6753 62.5501H82.3853C82.3853 60.9089 82.7078 59.3276 83.3036 57.8782C84.4585 58.0938 85.4639 58.6927 86.1841 59.5313ZM88.9525 51.577C87.8975 52.164 86.9289 52.8948 86.0848 53.7453C85.679 54.1446 85.3026 54.5718 84.955 55.0271C86.0229 55.3625 87.0037 55.9136 87.8227 56.6203C88.1708 56.2051 88.5472 55.8217 88.9525 55.4703C89.7971 54.7396 90.7652 54.1526 91.8207 53.7453C92.9627 53.2901 94.2169 53.0385 95.5325 53.0385V49.876C93.1368 49.876 90.8895 50.4869 88.9525 51.577Z" fill="url(#paint14_linear_82_3461)"/>
<path d="M88.9525 57.8063C87.922 59.1241 87.3139 60.7772 87.3139 62.5501C87.3139 61.4001 86.8921 60.3459 86.1841 59.5313C85.4639 58.6928 84.4585 58.0939 83.3036 57.8782C83.0057 57.8223 82.6997 57.7943 82.3853 57.7943V54.6318C83.279 54.6318 84.1483 54.7636 84.955 55.0271C86.0229 55.3625 87.0037 55.9136 87.8227 56.6204C88.245 56.9798 88.6177 57.3751 88.9525 57.8063Z" fill="url(#paint15_linear_82_3461)"/>
<path fill-rule="evenodd" clip-rule="evenodd" d="M95.5326 54.6318V57.7943C95.2101 57.7943 94.8994 57.8303 94.6015 57.8782C94.1796 56.86 93.6206 55.9016 92.9505 55.0271C93.7573 54.7636 94.6265 54.6318 95.5326 54.6318ZM90.0824 56.6204C89.6728 56.9798 89.2879 57.3751 88.9526 57.8063C87.9221 59.1241 87.314 60.7772 87.314 62.5501H90.604C90.604 61.4001 91.0263 60.3459 91.7338 59.5313C91.3611 58.4652 90.8026 57.4829 90.0824 56.6204Z" fill="url(#paint16_linear_82_3461)"/>
<path fill-rule="evenodd" clip-rule="evenodd" d="M95.5325 62.5501H92.2425C92.2425 61.4959 92.0567 60.4776 91.7337 59.5313C91.361 58.4651 90.8025 57.4828 90.0823 56.6203C89.7432 56.2051 89.3668 55.8217 88.9525 55.4703C89.7971 54.7396 90.7652 54.1526 91.8207 53.7453C92.226 54.1446 92.6029 54.5718 92.9505 55.0271C93.6206 55.9015 94.1795 56.8599 94.6014 57.8782C95.1977 59.3276 95.5325 60.9089 95.5325 62.5501ZM88.9525 51.577C87.8975 52.164 86.9289 52.8948 86.0848 53.7453C84.9427 53.2901 83.6886 53.0385 82.3853 53.0385V49.876C84.7815 49.876 87.016 50.4869 88.9525 51.577Z" fill="url(#paint17_linear_82_3461)"/>
</g>
</g>
<defs>
<linearGradient id="paint0_linear_82_3461" x1="9.72096" y1="62.4543" x2="9.72096" y2="54.8115" gradientUnits="userSpaceOnUse">
<stop stop-color="#C39625"/>
<stop offset="0.9" stop-color="#FEC821"/>
<stop offset="1" stop-color="#FEC821"/>
</linearGradient>
<linearGradient id="paint1_linear_82_3461" x1="16.8723" y1="62.5505" x2="16.8723" y2="57.2437" gradientUnits="userSpaceOnUse">
<stop stop-color="#C39625"/>
<stop offset="0.9" stop-color="#FEC821"/>
<stop offset="1" stop-color="#FEC821"/>
</linearGradient>
<linearGradient id="paint2_linear_82_3461" x1="23.7874" y1="62.4543" x2="23.7874" y2="57.2554" gradientUnits="userSpaceOnUse">
<stop stop-color="#C39625"/>
<stop offset="0.9" stop-color="#FEC821"/>
<stop offset="1" stop-color="#FEC821"/>
</linearGradient>
<linearGradient id="paint3_linear_82_3461" x1="29.6843" y1="62.5501" x2="29.6843" y2="55.3984" gradientUnits="userSpaceOnUse">
<stop stop-color="#C39625"/>
<stop offset="0.9" stop-color="#FEC821"/>
<stop offset="1" stop-color="#FEC821"/>
</linearGradient>
<linearGradient id="paint4_linear_82_3461" x1="34.4148" y1="62.5503" x2="34.4148" y2="57.3633" gradientUnits="userSpaceOnUse">
<stop stop-color="#C39625"/>
<stop offset="0.9" stop-color="#FEC821"/>
<stop offset="1" stop-color="#FEC821"/>
</linearGradient>
<linearGradient id="paint5_linear_82_3461" x1="40.8332" y1="62.4543" x2="40.8332" y2="57.2554" gradientUnits="userSpaceOnUse">
<stop stop-color="#C39625"/>
<stop offset="0.9" stop-color="#FEC821"/>
<stop offset="1" stop-color="#FEC821"/>
</linearGradient>
<linearGradient id="paint6_linear_82_3461" x1="44.8064" y1="62.5505" x2="44.8064" y2="57.2437" gradientUnits="userSpaceOnUse">
<stop stop-color="#C39625"/>
<stop offset="0.9" stop-color="#FEC821"/>
<stop offset="1" stop-color="#FEC821"/>
</linearGradient>
<linearGradient id="paint7_linear_82_3461" x1="51.1995" y1="62.5502" x2="51.1995" y2="57.2554" gradientUnits="userSpaceOnUse">
<stop stop-color="#C39625"/>
<stop offset="0.9" stop-color="#FEC821"/>
<stop offset="1" stop-color="#FEC821"/>
</linearGradient>
<linearGradient id="paint8_linear_82_3461" x1="59.5305" y1="62.4543" x2="59.5305" y2="54.8115" gradientUnits="userSpaceOnUse">
<stop stop-color="#C39625"/>
<stop offset="0.9" stop-color="#FEC821"/>
<stop offset="1" stop-color="#FEC821"/>
</linearGradient>
<linearGradient id="paint9_linear_82_3461" x1="64.1487" y1="62.5502" x2="64.1487" y2="57.2554" gradientUnits="userSpaceOnUse">
<stop stop-color="#C39625"/>
<stop offset="0.9" stop-color="#FEC821"/>
<stop offset="1" stop-color="#FEC821"/>
</linearGradient>
<linearGradient id="paint10_linear_82_3461" x1="71.6228" y1="62.5497" x2="71.6228" y2="53.7329" gradientUnits="userSpaceOnUse">
<stop stop-color="#C39625"/>
<stop offset="0.9" stop-color="#FEC821"/>
<stop offset="1" stop-color="#FEC821"/>
</linearGradient>
<linearGradient id="paint11_linear_82_3461" x1="17.7416" y1="23.953" x2="33.4962" y2="7.62524" gradientUnits="userSpaceOnUse">
<stop stop-color="#C39625"/>
<stop offset="0.3" stop-color="#FEC821"/>
<stop offset="0.5" stop-color="#EBEC7E"/>
<stop offset="0.6" stop-color="#FEC821"/>
<stop offset="1" stop-color="#C39625"/>
</linearGradient>
<linearGradient id="paint12_linear_82_3461" x1="34.8865" y1="7.39721" x2="64.8393" y2="38.4399" gradientUnits="userSpaceOnUse">
<stop stop-color="#C39625"/>
<stop offset="0.3" stop-color="#FEC821"/>
<stop offset="0.5" stop-color="#C39625"/>
<stop offset="0.6" stop-color="#FEC821"/>
<stop offset="1" stop-color="#C39625"/>
</linearGradient>
<linearGradient id="paint13_linear_82_3461" x1="14.7987" y1="34.3504" x2="17.1207" y2="31.9314" gradientUnits="userSpaceOnUse">
<stop stop-color="#C39625"/>
<stop offset="0.5" stop-color="#FEC821"/>
<stop offset="1" stop-color="#C39625"/>
</linearGradient>
<linearGradient id="paint14_linear_82_3461" x1="95.5325" y1="62.7896" x2="82.3853" y2="62.7896" gradientUnits="userSpaceOnUse">
<stop stop-color="#23282C" stop-opacity="0.1"/>
<stop offset="1" stop-color="#23282C" stop-opacity="0.5"/>
</linearGradient>
<linearGradient id="paint15_linear_82_3461" x1="84.2722" y1="52.811" x2="90.6052" y2="59.3744" gradientUnits="userSpaceOnUse">
<stop stop-color="#23282C" stop-opacity="0.2"/>
<stop offset="1" stop-color="#23282C" stop-opacity="0.5"/>
</linearGradient>
<linearGradient id="paint16_linear_82_3461" x1="95.7809" y1="54.6318" x2="95.7809" y2="62.5501" gradientUnits="userSpaceOnUse">
<stop stop-color="#23282C" stop-opacity="0.1"/>
<stop offset="1" stop-color="#23282C" stop-opacity="0.5"/>
</linearGradient>
<linearGradient id="paint17_linear_82_3461" x1="88.3198" y1="46.5577" x2="96.8231" y2="61.8309" gradientUnits="userSpaceOnUse">
<stop stop-color="#23282C" stop-opacity="0.2"/>
<stop offset="1" stop-color="#23282C" stop-opacity="0.5"/>
</linearGradient>
<clipPath id="clip0_82_3461">
<rect width="96" height="45" fill="white" transform="translate(0 17.7236)"/>
</clipPath>
</defs>
</svg>
