<svg width="96" height="80" viewBox="0 0 96 80" fill="none" xmlns="http://www.w3.org/2000/svg">
<g clip-path="url(#clip0_82_3441)">
<path fill-rule="evenodd" clip-rule="evenodd" d="M17.6145 51.6787C7.92029 51.6668 -0.0124779 44.0765 1.47349e-05 34.8274C0.0125073 25.5185 7.89531 17.9641 17.5895 17.9522C27.3588 17.9402 35.3165 25.5424 35.2915 34.8512C35.279 44.1004 27.3088 51.6787 17.6145 51.6787ZM17.652 25.9601C12.4426 25.9601 8.37005 29.8388 8.37005 34.7916C8.37005 39.7682 12.4301 43.6588 17.627 43.6707C22.8115 43.6707 26.9215 39.7563 26.909 34.8155C26.909 29.8507 22.8489 25.972 17.652 25.9601Z" fill="#23282C"/>
<path fill-rule="evenodd" clip-rule="evenodd" d="M60.6513 51.6787C50.9568 51.6668 43.0241 44.0765 43.0366 34.8274C43.0366 25.5185 50.9195 17.9641 60.626 17.9522C70.3956 17.9402 78.3531 25.5424 78.3282 34.8512C78.3158 44.1004 70.333 51.6787 60.6513 51.6787ZM60.6762 25.9601C55.4793 25.9601 51.4067 29.8388 51.4067 34.7916C51.4067 39.7682 55.4669 43.6588 60.6638 43.6707C65.8353 43.6707 69.9457 39.7563 69.9457 34.8155C69.9457 29.8507 65.8855 25.972 60.6762 25.9601Z" fill="#23282C"/>
<path d="M53.381 49.6026H44.5112L35.629 37.4415H35.3292C35.4791 36.5941 35.5541 35.711 35.5541 34.8159C35.5541 33.7657 35.4541 32.7393 35.2668 31.7368H38.6272C41.1508 31.7368 43.0122 30.2212 43.0122 28.0133C43.0122 25.8771 41.1508 24.3017 38.6272 24.3017H32.4559V25.2565C30.5071 22.5593 27.7587 20.4231 24.5356 19.158V18.1675H39.8265C46.0104 18.1675 50.5578 22.4638 50.5578 27.8104C50.5578 32.1068 47.5594 35.5558 43.312 36.6657L53.381 49.6026Z" fill="url(#paint0_linear_82_3441)"/>
<path fill-rule="evenodd" clip-rule="evenodd" d="M53.743 49.7693H44.4112L35.529 37.6201H35.1168L35.1542 37.4172C35.2917 36.5579 35.3666 35.6868 35.3666 34.8156C35.3791 33.8011 35.2792 32.7748 35.0793 31.7723L35.0418 31.5575H38.6272C41.1007 31.5575 42.8247 30.1015 42.8247 28.013C42.8247 25.9603 41.0632 24.4804 38.6272 24.4804H32.6307V25.817L32.3059 25.3516C30.3446 22.6425 27.6462 20.5659 24.4731 19.3247L24.3481 19.277V18H39.8264C42.8372 18 45.6105 19.0144 47.6343 20.8642C49.6455 22.6902 50.745 25.1487 50.745 27.8101C50.745 31.9752 47.8841 35.5435 43.6117 36.7609L53.743 49.7693ZM44.5986 49.4232H53.0184L42.9996 36.5579L43.2619 36.4864C47.5219 35.3884 50.3825 31.8916 50.3825 27.8101C50.3825 22.4993 45.7479 18.3461 39.8264 18.3461H24.7229V19.0383C27.7336 20.2437 30.3321 22.189 32.2684 24.7071V24.1224H38.6272C41.2631 24.1224 43.1869 25.7574 43.1869 28.013C43.1869 30.2686 41.2631 31.9036 38.6272 31.9036H35.479C35.6539 32.8702 35.7414 33.8369 35.7414 34.8156C35.7289 35.6271 35.6664 36.4506 35.5415 37.2621H35.7289L44.5986 49.4232Z" fill="url(#paint1_linear_82_3441)"/>
<path d="M17.727 36.4627C16.7151 36.4865 15.9406 35.7944 15.9156 34.8516C15.8906 33.9445 16.7276 33.0972 17.6771 33.1688C18.6515 33.2404 19.3261 33.7059 19.376 34.7441C19.426 35.7228 18.7389 36.4388 17.727 36.4627Z" fill="url(#paint2_linear_82_3441)"/>
<path fill-rule="evenodd" clip-rule="evenodd" d="M40.9669 57.2197C40.9669 58.4736 39.9543 59.3933 38.6417 59.3933H37.054V62.4028H35.3413V54.9863H38.6417C39.9543 54.9863 40.9669 55.9896 40.9669 57.2197ZM39.3293 57.2316C39.3293 56.7539 38.9167 56.4195 38.3792 56.4195H37.054V58.0437H38.3792C38.9167 58.0437 39.3293 57.7332 39.3293 57.2316Z" fill="url(#paint3_linear_82_3441)"/>
<path fill-rule="evenodd" clip-rule="evenodd" d="M47.8298 61.1131V62.4029C47.7174 62.4506 47.5674 62.4984 47.3924 62.4984C46.6923 62.4984 46.1298 62.164 45.8048 61.6624C45.3922 62.176 44.7797 62.4984 44.0296 62.4984C42.5919 62.4984 41.4668 61.3639 41.4668 59.9307C41.4668 58.4976 42.5919 57.3511 44.0296 57.3511C44.6296 57.3511 45.1172 57.5541 45.5047 57.8885V57.4585H47.1549V60.6353C47.1549 61.0414 47.3799 61.1131 47.605 61.1131H47.8298ZM45.5798 59.9307C45.5798 59.2739 45.0172 58.7603 44.3421 58.7603C43.6545 58.7603 43.117 59.2739 43.117 59.9307C43.117 60.5876 43.6545 61.1011 44.3421 61.1011C45.0172 61.1011 45.5798 60.5876 45.5798 59.9307Z" fill="url(#paint4_linear_82_3441)"/>
<path d="M52.38 57.4108V58.8081C52.2553 58.7842 52.0924 58.7603 51.8928 58.7603C51.0799 58.7603 50.5049 59.2261 50.5049 60.0382V62.4029H48.8423V57.4585H50.5049V58.1393C50.8301 57.6497 51.3426 57.3511 51.9549 57.3511C52.1053 57.3511 52.2553 57.375 52.38 57.4108Z" fill="url(#paint5_linear_82_3441)"/>
<path d="M55.3687 58.6769V60.4444C55.3687 60.8624 55.606 61.1132 55.9561 61.1132H56.5813V62.3433C56.4562 62.4269 56.1061 62.4985 55.7565 62.4985C54.6561 62.4985 53.7185 61.6864 53.7185 60.6355V58.6769H52.856V57.4587H53.7185V55.5479H55.3687V57.4587H56.5937V58.6769H55.3687Z" fill="url(#paint6_linear_82_3441)"/>
<path d="M62.6571 59.2739V62.4029H61.007V59.5366C61.007 59.0828 60.6693 58.7603 60.1941 58.7603C59.7064 58.7603 59.3191 59.0828 59.3191 59.5366V62.4029H57.6689V57.4585H59.3191V58.0677C59.6816 57.6258 60.2065 57.3511 60.7944 57.3511C61.8194 57.3511 62.6571 58.1871 62.6571 59.2739Z" fill="url(#paint7_linear_82_3441)"/>
<path fill-rule="evenodd" clip-rule="evenodd" d="M69.395 60.1932H65.4323C65.4949 60.8978 65.8822 61.3277 66.6321 61.3277C67.2071 61.3277 67.5825 61.0889 67.7201 60.6948H69.3201C69.0574 61.7696 68.095 62.4982 66.6574 62.4982C64.9322 62.4982 63.7568 61.4711 63.7568 59.9305C63.7568 58.3779 64.9447 57.3389 66.6072 57.3389C68.2827 57.3389 69.395 58.366 69.395 59.9185V60.1932ZM65.5321 59.2378H67.6823C67.5199 58.8078 67.1947 58.5571 66.6321 58.5571C66.057 58.5571 65.7074 58.8198 65.5321 59.2378Z" fill="url(#paint8_linear_82_3441)"/>
<path d="M74.1329 57.4108V58.8081C74.0077 58.7842 73.8454 58.7603 73.6452 58.7603C72.8328 58.7603 72.2578 59.2261 72.2578 60.0382V62.4029H70.5947V57.4585H72.2578V58.1393C72.5825 57.6497 73.095 57.3511 73.7078 57.3511C73.8578 57.3511 74.0077 57.375 74.1329 57.4108Z" fill="url(#paint9_linear_82_3441)"/>
<path d="M74.395 61.316L75.6206 60.7309C75.8455 61.1489 76.208 61.2563 76.4831 61.2563C76.7578 61.2563 76.933 61.1369 76.933 60.9459C76.933 60.7667 76.7831 60.6473 76.3079 60.4681C75.7204 60.2651 74.6825 59.9307 74.6825 58.9395C74.6825 58.1035 75.4329 57.3511 76.6078 57.3511C77.3333 57.3511 77.9704 57.6377 78.3582 58.0079L77.5329 58.9036C77.3705 58.7126 77.0706 58.5454 76.7329 58.5454C76.4454 58.5454 76.3079 58.6648 76.3079 58.832C76.3079 59.0111 76.4956 59.0828 76.8705 59.238C77.6079 59.5127 78.4581 59.9068 78.4581 60.898C78.4581 61.8176 77.7455 62.4984 76.583 62.4984C75.6702 62.4984 74.7079 62.0804 74.395 61.316Z" fill="url(#paint10_linear_82_3441)"/>
<g style="mix-blend-mode:multiply">
<path fill-rule="evenodd" clip-rule="evenodd" d="M85.6274 59.4768C85.3022 60.4203 85.115 61.4355 85.115 62.4984H81.8018C81.8018 60.8503 82.127 59.2738 82.7269 57.8288C83.8894 58.0437 84.9148 58.6408 85.6274 59.4768ZM88.4277 51.523C87.365 52.1202 86.3897 52.8486 85.5396 53.6846C85.1312 54.0906 84.752 54.5206 84.4024 54.9745C85.4775 55.3089 86.4647 55.8582 87.29 56.5748C87.6401 56.1608 88.0193 55.7746 88.4277 55.4163C89.2778 54.6878 90.2526 54.1026 91.3277 53.6846C92.4778 53.2427 93.7406 52.992 95.066 52.992V49.8271C92.6531 49.8271 90.3902 50.4482 88.4277 51.523Z" fill="url(#paint11_linear_82_3441)"/>
<path d="M88.4277 57.7449C87.3898 59.0705 86.7775 60.7187 86.7775 62.4981C86.7775 61.3517 86.34 60.2887 85.6274 59.4766C84.9148 58.6406 83.8894 58.0435 82.7269 57.8285C82.427 57.7728 82.1184 57.7449 81.8018 57.7449V54.5801C82.7021 54.5801 83.577 54.7115 84.4024 54.9742C85.4775 55.3086 86.4647 55.858 87.29 56.5746C87.7151 56.9209 88.1024 57.315 88.4277 57.7449Z" fill="url(#paint12_linear_82_3441)"/>
<path fill-rule="evenodd" clip-rule="evenodd" d="M95.0658 54.5801V57.7449C94.7406 57.7449 94.4282 57.7688 94.1278 57.8285C93.7027 56.8014 93.1406 55.846 92.4652 54.9742C93.2905 54.7115 94.1655 54.5801 95.0658 54.5801ZM89.5776 56.5746C89.1525 56.9209 88.7647 57.315 88.4275 57.7449C87.3896 59.0705 86.7773 60.7187 86.7773 62.4981H90.0901C90.0901 61.3517 90.5151 60.2887 91.2277 59.4766C90.8528 58.4017 90.2902 57.4225 89.5776 56.5746Z" fill="url(#paint13_linear_82_3441)"/>
<path fill-rule="evenodd" clip-rule="evenodd" d="M95.066 62.4984H91.7528C91.7528 61.4355 91.5656 60.4203 91.2279 59.4768C90.853 58.402 90.2903 57.4227 89.5778 56.5748C89.2277 56.1608 88.8441 55.7746 88.4277 55.4163C89.2778 54.6878 90.2526 54.1026 91.3277 53.6846C91.7361 54.0906 92.1153 54.5206 92.4654 54.9745C93.1407 55.8463 93.7029 56.8017 94.128 57.8288C94.7283 59.2738 95.066 60.8503 95.066 62.4984ZM88.4277 51.523C87.365 52.1202 86.3897 52.8486 85.5396 53.6846C84.3895 53.2427 83.1271 52.992 81.8018 52.992V49.8271C84.2147 49.8271 86.4776 50.4482 88.4277 51.523Z" fill="url(#paint14_linear_82_3441)"/>
</g>
</g>
<defs>
<linearGradient id="paint0_linear_82_3441" x1="17.9021" y1="24.1824" x2="33.6265" y2="7.71001" gradientUnits="userSpaceOnUse">
<stop stop-color="#C39625"/>
<stop offset="0.3" stop-color="#FEC821"/>
<stop offset="0.5" stop-color="#EBEC7E"/>
<stop offset="0.6" stop-color="#FEC821"/>
<stop offset="1" stop-color="#C39625"/>
</linearGradient>
<linearGradient id="paint1_linear_82_3441" x1="35.1792" y1="7.6529" x2="65.0797" y2="38.9396" gradientUnits="userSpaceOnUse">
<stop stop-color="#C39625"/>
<stop offset="0.3" stop-color="#FEC821"/>
<stop offset="0.5" stop-color="#C39625"/>
<stop offset="0.6" stop-color="#FEC821"/>
<stop offset="1" stop-color="#C39625"/>
</linearGradient>
<linearGradient id="paint2_linear_82_3441" x1="14.9287" y1="34.5532" x2="17.2416" y2="32.1322" gradientUnits="userSpaceOnUse">
<stop stop-color="#C39625"/>
<stop offset="0.5" stop-color="#FEC821"/>
<stop offset="1" stop-color="#C39625"/>
</linearGradient>
<linearGradient id="paint3_linear_82_3441" x1="35.0913" y1="62.4028" x2="35.0913" y2="54.9863" gradientUnits="userSpaceOnUse">
<stop stop-color="#C39625"/>
<stop offset="0.9" stop-color="#FEC821"/>
<stop offset="1" stop-color="#FEC821"/>
</linearGradient>
<linearGradient id="paint4_linear_82_3441" x1="41.2168" y1="62.4984" x2="41.2168" y2="57.3511" gradientUnits="userSpaceOnUse">
<stop stop-color="#C39625"/>
<stop offset="0.9" stop-color="#FEC821"/>
<stop offset="1" stop-color="#FEC821"/>
</linearGradient>
<linearGradient id="paint5_linear_82_3441" x1="48.592" y1="62.4029" x2="48.592" y2="57.3511" gradientUnits="userSpaceOnUse">
<stop stop-color="#C39625"/>
<stop offset="0.9" stop-color="#FEC821"/>
<stop offset="1" stop-color="#FEC821"/>
</linearGradient>
<linearGradient id="paint6_linear_82_3441" x1="52.6062" y1="62.4985" x2="52.6062" y2="55.5479" gradientUnits="userSpaceOnUse">
<stop stop-color="#C39625"/>
<stop offset="0.9" stop-color="#FEC821"/>
<stop offset="1" stop-color="#FEC821"/>
</linearGradient>
<linearGradient id="paint7_linear_82_3441" x1="57.4187" y1="62.4029" x2="57.4187" y2="57.3511" gradientUnits="userSpaceOnUse">
<stop stop-color="#C39625"/>
<stop offset="0.9" stop-color="#FEC821"/>
<stop offset="1" stop-color="#FEC821"/>
</linearGradient>
<linearGradient id="paint8_linear_82_3441" x1="63.507" y1="62.4982" x2="63.507" y2="57.3389" gradientUnits="userSpaceOnUse">
<stop stop-color="#C39625"/>
<stop offset="0.9" stop-color="#FEC821"/>
<stop offset="1" stop-color="#FEC821"/>
</linearGradient>
<linearGradient id="paint9_linear_82_3441" x1="70.3449" y1="62.4029" x2="70.3449" y2="57.3511" gradientUnits="userSpaceOnUse">
<stop stop-color="#C39625"/>
<stop offset="0.9" stop-color="#FEC821"/>
<stop offset="1" stop-color="#FEC821"/>
</linearGradient>
<linearGradient id="paint10_linear_82_3441" x1="74.1452" y1="62.4984" x2="74.1452" y2="57.3511" gradientUnits="userSpaceOnUse">
<stop stop-color="#C39625"/>
<stop offset="0.9" stop-color="#FEC821"/>
<stop offset="1" stop-color="#FEC821"/>
</linearGradient>
<linearGradient id="paint11_linear_82_3441" x1="95.066" y1="62.7372" x2="81.8018" y2="62.7372" gradientUnits="userSpaceOnUse">
<stop stop-color="#23282C" stop-opacity="0.1"/>
<stop offset="1" stop-color="#23282C" stop-opacity="0.5"/>
</linearGradient>
<linearGradient id="paint12_linear_82_3441" x1="83.7022" y1="52.7528" x2="90.0369" y2="59.3841" gradientUnits="userSpaceOnUse">
<stop stop-color="#23282C" stop-opacity="0.2"/>
<stop offset="1" stop-color="#23282C" stop-opacity="0.5"/>
</linearGradient>
<linearGradient id="paint13_linear_82_3441" x1="95.3156" y1="54.5801" x2="95.3156" y2="62.4981" gradientUnits="userSpaceOnUse">
<stop stop-color="#23282C" stop-opacity="0.1"/>
<stop offset="1" stop-color="#23282C" stop-opacity="0.5"/>
</linearGradient>
<linearGradient id="paint14_linear_82_3441" x1="87.7901" y1="46.519" x2="96.2465" y2="61.8421" gradientUnits="userSpaceOnUse">
<stop stop-color="#23282C" stop-opacity="0.2"/>
<stop offset="1" stop-color="#23282C" stop-opacity="0.5"/>
</linearGradient>
<clipPath id="clip0_82_3441">
<rect width="96" height="44.9965" fill="white" transform="translate(0 17.502)"/>
</clipPath>
</defs>
</svg>
