<?xml version="1.0" encoding="UTF-8" standalone="no"?>
<!-- Created with Inkscape (http://www.inkscape.org/) -->

<svg
   version="1.1"
   id="svg2"
   width="2560"
   height="1440"
   viewBox="0 0 2560 1440"
   sodipodi:docname="logo oro ventures lab.ai"
   xmlns:inkscape="http://www.inkscape.org/namespaces/inkscape"
   xmlns:sodipodi="http://sodipodi.sourceforge.net/DTD/sodipodi-0.dtd"
   xmlns="http://www.w3.org/2000/svg"
   xmlns:svg="http://www.w3.org/2000/svg">
  <defs
     id="defs6">
    <clipPath
       clipPathUnits="userSpaceOnUse"
       id="clipPath18">
      <path
         d="M 0,1080 H 1920 V 0 H 0 Z"
         id="path16" />
    </clipPath>
    <clipPath
       clipPathUnits="userSpaceOnUse"
       id="clipPath34">
      <path
         d="M 0,1080 H 1920 V 0 H 0 Z"
         id="path32" />
    </clipPath>
    <clipPath
       clipPathUnits="userSpaceOnUse"
       id="clipPath54">
      <path
         d="M 460.03,840.734 H 734.534 V 633.063 H 460.03 Z"
         id="path52" />
    </clipPath>
    <clipPath
       clipPathUnits="userSpaceOnUse"
       id="clipPath70">
      <path
         d="M 529.784,680.227 H 667.128 V 542.883 H 529.784 Z"
         id="path68" />
    </clipPath>
    <clipPath
       clipPathUnits="userSpaceOnUse"
       id="clipPath74">
      <path
         d="m 561.746,574.7 73.567,0.147 -0.146,73.563 -73.568,-0.147 z"
         id="path72" />
    </clipPath>
    <clipPath
       clipPathUnits="userSpaceOnUse"
       id="clipPath78">
      <path
         d="m 635.159,648.41 c -13.388,-0.027 -25.942,-3.651 -36.757,-9.946 v 0 c -5.913,-3.45 -11.306,-7.69 -16.021,-12.598 v 0 c -2.269,-2.338 -4.38,-4.835 -6.319,-7.471 v 0 c 5.994,-1.965 11.45,-5.139 16.077,-9.233 v 0 c 1.915,2.406 4.025,4.651 6.309,6.703 v 0 c 4.682,4.216 10.099,7.651 16.024,10.065 v 0 c 6.398,2.625 13.395,4.074 20.729,4.09 v 0 l -0.037,18.39 z m -73.411,-73.71 18.391,0.037 c -0.012,6.139 0.986,12.049 2.828,17.566 v 0 c -4.021,4.845 -9.672,8.293 -16.1,9.5 v 0 c -3.318,-8.4 -5.138,-17.54 -5.119,-27.103"
         id="path76" />
    </clipPath>
    <clipPath
       clipPathUnits="userSpaceOnUse"
       id="clipPath82">
      <path
         d="m 561.601,648.41 h 73.711 V 574.7 h -73.711 z"
         id="path80" />
    </clipPath>
    <clipPath
       clipPathUnits="userSpaceOnUse"
       id="clipPath86">
      <path
         d="m 561.601,648.41 h 73.711 V 574.7 h -73.711 z"
         id="path84" />
    </clipPath>
    <clipPath
       clipPathUnits="userSpaceOnUse"
       id="clipPath90">
      <path
         d="m 635.312,574.847 -73.564,-0.147 -0.147,73.563 73.563,0.147 z"
         id="path88" />
    </clipPath>
    <linearGradient
       x1="0"
       y1="0"
       x2="1"
       y2="0"
       gradientUnits="userSpaceOnUse"
       gradientTransform="matrix(-73.56382,-0.1470744,0.1470744,-73.56382,635.23779,611.62842)"
       spreadMethod="pad"
       id="linearGradient98">
      <stop
         style="stop-opacity:1;stop-color:#343433"
         offset="0"
         id="stop92" />
      <stop
         style="stop-opacity:1;stop-color:#343433"
         offset="0.23709547"
         id="stop94" />
      <stop
         style="stop-opacity:1;stop-color:#9d9c9c"
         offset="1"
         id="stop96" />
    </linearGradient>
    <mask
       maskUnits="userSpaceOnUse"
       x="0"
       y="0"
       width="1"
       height="1"
       id="mask100">
      <g
         id="g124">
        <g
           clip-path="url(#clipPath82)"
           id="g122">
          <path
             d="m 561.601,648.41 h 73.711 v -73.709 h -73.711 z"
             style="fill:#000000;fill-opacity:1;fill-rule:nonzero;stroke:none"
             id="path102" />
          <g
             id="g120">
            <g
               id="g104" />
            <g
               id="g118">
              <g
                 clip-path="url(#clipPath86)"
                 id="g116">
                <g
                   id="g114">
                  <g
                     clip-path="url(#clipPath90)"
                     id="g112">
                    <g
                       id="g110">
                      <g
                         id="g108">
                        <path
                           d="m 635.312,574.847 -73.564,-0.147 -0.147,73.563 73.563,0.147 z"
                           style="fill:url(#linearGradient98);stroke:none"
                           id="path106" />
                      </g>
                    </g>
                  </g>
                </g>
              </g>
            </g>
          </g>
        </g>
      </g>
    </mask>
    <clipPath
       clipPathUnits="userSpaceOnUse"
       id="clipPath128">
      <path
         d="m 561.601,648.41 h 73.711 V 574.7 h -73.711 z"
         id="path126" />
    </clipPath>
    <clipPath
       clipPathUnits="userSpaceOnUse"
       id="clipPath132">
      <path
         d="m 561.746,574.7 73.567,0.147 -0.146,73.563 -73.568,-0.147 z"
         id="path130" />
    </clipPath>
    <clipPath
       clipPathUnits="userSpaceOnUse"
       id="clipPath136">
      <path
         d="m 561.656,620.677 0.037,-18.391 c 1.769,0.004 3.504,-0.166 5.174,-0.483 v 0 c 6.428,-1.207 12.079,-4.655 16.1,-9.5 v 0 c 3.963,-4.761 6.355,-10.882 6.368,-17.548 v 0 0 c -0.02,10.323 3.375,19.879 9.14,27.569 v 0 c -1.869,2.489 -3.999,4.784 -6.336,6.838 v 0 c -4.627,4.094 -10.083,7.268 -16.077,9.233 v 0 c -4.503,1.486 -9.324,2.282 -14.314,2.282 v 0 c -0.03,0 -0.062,0 -0.092,0"
         id="path134" />
    </clipPath>
    <clipPath
       clipPathUnits="userSpaceOnUse"
       id="clipPath140">
      <path
         d="m 538.714,639.104 h 82.758 v -82.758 h -82.758 z"
         id="path138" />
    </clipPath>
    <clipPath
       clipPathUnits="userSpaceOnUse"
       id="clipPath144">
      <path
         d="m 538.713,639.104 h 82.759 v -82.758 h -82.759 z"
         id="path142" />
    </clipPath>
    <clipPath
       clipPathUnits="userSpaceOnUse"
       id="clipPath148">
      <path
         d="m 580.01,639.104 41.462,-41.296 -41.297,-41.462 -41.462,41.297 z"
         id="path146" />
    </clipPath>
    <linearGradient
       x1="0"
       y1="0"
       x2="1"
       y2="0"
       gradientUnits="userSpaceOnUse"
       gradientTransform="matrix(36.855171,-36.708099,36.708099,36.855171,559.36182,618.37354)"
       spreadMethod="pad"
       id="linearGradient156">
      <stop
         style="stop-opacity:1;stop-color:#5a5a59"
         offset="0"
         id="stop150" />
      <stop
         style="stop-opacity:1;stop-color:#5a5a59"
         offset="0.23709547"
         id="stop152" />
      <stop
         style="stop-opacity:1;stop-color:#9d9c9c"
         offset="1"
         id="stop154" />
    </linearGradient>
    <mask
       maskUnits="userSpaceOnUse"
       x="0"
       y="0"
       width="1"
       height="1"
       id="mask158">
      <g
         id="g182">
        <g
           clip-path="url(#clipPath140)"
           id="g180">
          <path
             d="m 538.713,639.104 h 82.758 v -82.758 h -82.758 z"
             style="fill:#000000;fill-opacity:1;fill-rule:nonzero;stroke:none"
             id="path160" />
          <g
             id="g178">
            <g
               id="g162" />
            <g
               id="g176">
              <g
                 clip-path="url(#clipPath144)"
                 id="g174">
                <g
                   id="g172">
                  <g
                     clip-path="url(#clipPath148)"
                     id="g170">
                    <g
                       id="g168">
                      <g
                         id="g166">
                        <path
                           d="m 580.01,639.104 41.462,-41.296 -41.297,-41.462 -41.462,41.297 z"
                           style="fill:url(#linearGradient156);stroke:none"
                           id="path164" />
                      </g>
                    </g>
                  </g>
                </g>
              </g>
            </g>
          </g>
        </g>
      </g>
    </mask>
    <clipPath
       clipPathUnits="userSpaceOnUse"
       id="clipPath186">
      <path
         d="m 538.714,639.104 h 82.758 v -82.758 h -82.758 z"
         id="path184" />
    </clipPath>
    <clipPath
       clipPathUnits="userSpaceOnUse"
       id="clipPath190">
      <path
         d="m 561.746,574.7 73.567,0.147 -0.146,73.563 -73.568,-0.147 z"
         id="path188" />
    </clipPath>
    <clipPath
       clipPathUnits="userSpaceOnUse"
       id="clipPath194">
      <path
         d="m 620.822,618.484 c 3.756,-5.061 6.884,-10.617 9.264,-16.555 v 0 c 1.664,0.324 3.4,0.5 5.17,0.505 v 0 l -0.036,18.39 c -5.025,-0.01 -9.872,-0.826 -14.398,-2.34 m -22.347,-16.16 c -5.765,-7.69 -9.16,-17.246 -9.14,-27.569 v 0 l 9.415,0.019 8.977,0.018 c -0.014,6.666 2.35,12.797 6.296,17.574 v 0 c -2.093,6.171 -5.244,11.853 -9.239,16.822 v 0 c -2.331,-2.063 -4.452,-4.367 -6.309,-6.864"
         id="path192" />
    </clipPath>
    <clipPath
       clipPathUnits="userSpaceOnUse"
       id="clipPath198">
      <path
         d="m 589.243,620.824 h 46.068 v -46.069 h -46.068 z"
         id="path196" />
    </clipPath>
    <clipPath
       clipPathUnits="userSpaceOnUse"
       id="clipPath202">
      <path
         d="m 589.243,620.824 h 46.069 v -46.069 h -46.069 z"
         id="path200" />
    </clipPath>
    <clipPath
       clipPathUnits="userSpaceOnUse"
       id="clipPath206">
      <path
         d="m 635.219,620.824 0.093,-45.977 -45.977,-0.092 -0.092,45.977 z"
         id="path204" />
    </clipPath>
    <linearGradient
       x1="0"
       y1="0"
       x2="1"
       y2="0"
       gradientUnits="userSpaceOnUse"
       gradientTransform="matrix(0.0919197,-45.976479,45.976479,0.0919197,612.23145,620.77783)"
       spreadMethod="pad"
       id="linearGradient214">
      <stop
         style="stop-opacity:1;stop-color:#343433"
         offset="0"
         id="stop208" />
      <stop
         style="stop-opacity:1;stop-color:#343433"
         offset="0.23709547"
         id="stop210" />
      <stop
         style="stop-opacity:1;stop-color:#9d9c9c"
         offset="1"
         id="stop212" />
    </linearGradient>
    <mask
       maskUnits="userSpaceOnUse"
       x="0"
       y="0"
       width="1"
       height="1"
       id="mask216">
      <g
         id="g240">
        <g
           clip-path="url(#clipPath198)"
           id="g238">
          <path
             d="m 589.243,620.824 h 46.068 v -46.068 h -46.068 z"
             style="fill:#000000;fill-opacity:1;fill-rule:nonzero;stroke:none"
             id="path218" />
          <g
             id="g236">
            <g
               id="g220" />
            <g
               id="g234">
              <g
                 clip-path="url(#clipPath202)"
                 id="g232">
                <g
                   id="g230">
                  <g
                     clip-path="url(#clipPath206)"
                     id="g228">
                    <g
                       id="g226">
                      <g
                         id="g224">
                        <path
                           d="m 635.219,620.824 0.093,-45.977 -45.977,-0.092 -0.092,45.977 z"
                           style="fill:url(#linearGradient214);stroke:none"
                           id="path222" />
                      </g>
                    </g>
                  </g>
                </g>
              </g>
            </g>
          </g>
        </g>
      </g>
    </mask>
    <clipPath
       clipPathUnits="userSpaceOnUse"
       id="clipPath244">
      <path
         d="m 589.243,620.824 h 46.068 v -46.069 h -46.068 z"
         id="path242" />
    </clipPath>
    <clipPath
       clipPathUnits="userSpaceOnUse"
       id="clipPath248">
      <path
         d="m 561.746,574.7 73.567,0.147 -0.146,73.563 -73.568,-0.147 z"
         id="path246" />
    </clipPath>
    <clipPath
       clipPathUnits="userSpaceOnUse"
       id="clipPath252">
      <path
         d="m 561.601,648.263 0.037,-18.391 c 7.332,0.016 14.337,-1.407 20.743,-4.006 v 0 c 4.715,4.908 10.108,9.148 16.021,12.598 v 0 c -10.799,6.228 -23.315,9.799 -36.65,9.799 v 0 c -0.051,0 -0.1,0 -0.151,0 m 36.847,-32.398 c 2.292,-2.042 4.412,-4.28 6.336,-6.677 v 0 c 3.995,-4.969 7.146,-10.651 9.239,-16.822 v 0 c 1.861,-5.511 2.886,-11.418 2.898,-17.556 v 0 l 18.101,0.036 0.29,10e-4 c -0.019,9.563 -1.879,18.696 -5.226,27.082 v 0 c -2.38,5.938 -5.508,11.494 -9.264,16.555 v 0 c -1.949,2.628 -4.068,5.118 -6.35,7.446 v 0 c -5.925,-2.414 -11.342,-5.849 -16.024,-10.065"
         id="path250" />
    </clipPath>
    <clipPath
       clipPathUnits="userSpaceOnUse"
       id="clipPath256">
      <path
         d="M 529.784,680.227 H 667.128 V 542.883 H 529.784 Z"
         id="path254" />
    </clipPath>
    <clipPath
       clipPathUnits="userSpaceOnUse"
       id="clipPath260">
      <path
         d="M 529.784,680.227 H 667.128 V 542.883 H 529.784 Z"
         id="path258" />
    </clipPath>
    <clipPath
       clipPathUnits="userSpaceOnUse"
       id="clipPath264">
      <path
         d="m 616.71,680.227 50.418,-86.925 -86.925,-50.419 -50.419,86.926 z"
         id="path262" />
    </clipPath>
    <linearGradient
       x1="0"
       y1="0"
       x2="1"
       y2="0"
       gradientUnits="userSpaceOnUse"
       gradientTransform="matrix(50.418533,-86.925659,86.925659,50.418533,573.24658,655.01807)"
       spreadMethod="pad"
       id="linearGradient272">
      <stop
         style="stop-opacity:1;stop-color:#5a5a59"
         offset="0"
         id="stop266" />
      <stop
         style="stop-opacity:1;stop-color:#5a5a59"
         offset="0.23709547"
         id="stop268" />
      <stop
         style="stop-opacity:1;stop-color:#9d9c9c"
         offset="1"
         id="stop270" />
    </linearGradient>
    <mask
       maskUnits="userSpaceOnUse"
       x="0"
       y="0"
       width="1"
       height="1"
       id="mask274">
      <g
         id="g298">
        <g
           clip-path="url(#clipPath256)"
           id="g296">
          <path
             d="M 529.784,680.227 H 667.129 V 542.883 H 529.784 Z"
             style="fill:#000000;fill-opacity:1;fill-rule:nonzero;stroke:none"
             id="path276" />
          <g
             id="g294">
            <g
               id="g278" />
            <g
               id="g292">
              <g
                 clip-path="url(#clipPath260)"
                 id="g290">
                <g
                   id="g288">
                  <g
                     clip-path="url(#clipPath264)"
                     id="g286">
                    <g
                       id="g284">
                      <g
                         id="g282">
                        <path
                           d="m 616.71,680.227 50.418,-86.925 -86.925,-50.419 -50.419,86.926 z"
                           style="fill:url(#linearGradient272);stroke:none"
                           id="path280" />
                      </g>
                    </g>
                  </g>
                </g>
              </g>
            </g>
          </g>
        </g>
      </g>
    </mask>
    <clipPath
       clipPathUnits="userSpaceOnUse"
       id="clipPath302">
      <path
         d="M 529.784,680.227 H 667.128 V 542.883 H 529.784 Z"
         id="path300" />
    </clipPath>
  </defs>
  <sodipodi:namedview
     id="namedview4"
     pagecolor="#ffffff"
     bordercolor="#000000"
     borderopacity="0.25"
     inkscape:showpageshadow="2"
     inkscape:pageopacity="0.0"
     inkscape:pagecheckerboard="0"
     inkscape:deskcolor="#d1d1d1"
     showgrid="false" />
  <g
     id="g10"
     inkscape:groupmode="layer"
     inkscape:label="Page 1"
     transform="matrix(1.3333333,0,0,-1.3333333,0,1440)">
    <g
       id="g12">
      <g
         id="g14"
         clip-path="url(#clipPath18)">
        <g
           id="g20"
           transform="translate(1313.1055,504.8691)">
          <path
             d="m 0,0 c -65.533,0 -118.659,53.125 -118.659,118.659 0,65.534 53.126,118.659 118.659,118.659 65.534,0 118.66,-53.125 118.66,-118.659 C 118.66,53.125 65.534,0 0,0 m 0,324.526 c -113.696,0 -205.866,-92.17 -205.866,-205.867 0,-113.698 92.17,-205.867 205.866,-205.867 113.697,0 205.867,92.169 205.867,205.867 0,113.697 -92.17,205.867 -205.867,205.867"
             style="fill:#3e3e44;fill-opacity:1;fill-rule:nonzero;stroke:none"
             id="path22" />
        </g>
      </g>
    </g>
    <text
       xml:space="preserve"
       transform="matrix(1,0,0,-1,1170.4966,363.7305)"
       style="font-variant:normal;font-weight:bold;font-stretch:normal;font-size:49px;font-family:'Now Alt';-inkscape-font-specification:NowAlt-Bold;writing-mode:lr-tb;fill:#f39223;fill-opacity:1;fill-rule:nonzero;stroke:none"
       id="text26"><tspan
         x="0 30.502501 61.6665 91.997498 111.5975 140.8015 160.9895 192.1535 214.1545 228.85451 252.007 281.94601"
         y="0"
         sodipodi:role="line"
         id="tspan24">Ventures Lab</tspan></text>
    <g
       id="g28">
      <g
         id="g30"
         clip-path="url(#clipPath34)">
        <g
           id="g36"
           transform="translate(830.0713,637.4438)">
          <path
             d="M 0,0 C -0.104,1.083 -0.208,2.167 -0.312,3.25 -0.167,1.854 -0.021,0.458 0.083,-0.958 0.042,-0.646 0.021,-0.312 0,0 m -23.314,81.674 c -0.188,0.375 -0.375,0.729 -0.542,1.104 0.709,-1.375 1.417,-2.771 2.084,-4.188 -0.521,1.021 -1.021,2.063 -1.542,3.084 m -53.69,-276.022 c -0.219,0.655 -0.481,1.311 -0.7,1.967 0.525,-1.53 1.093,-3.016 1.749,-4.459 -0.394,0.831 -0.744,1.661 -1.049,2.492 m 289.219,113.111 -14.496,22.349 c 26.647,9.724 46.95,24.744 60.91,45.048 13.958,20.303 20.936,45.683 20.936,76.138 0,43.144 -13.639,76.138 -40.922,98.979 -27.285,22.842 -66.303,34.263 -117.062,34.263 H -78.281 V -223.22 H 28.945 v 138.11 h -0.35 v 97.333 h 0.35 v 100.834 h 74.236 c 23.258,0 40.179,-4.233 50.758,-12.69 10.569,-8.466 15.863,-21.791 15.863,-39.972 0,-18.619 -5.294,-32.151 -15.863,-40.608 C 143.36,11.321 126.439,7.098 103.181,7.098 H 38.595 V -70.31 h 55.702 l 20.322,-34.733 69.14,-118.177 h 120.553 z"
             style="fill:#3e3e44;fill-opacity:1;fill-rule:nonzero;stroke:none"
             id="path38" />
        </g>
        <g
           id="g40"
           transform="translate(468.4658,669.4307)">
          <path
             d="m 0,0 c -0.656,-1.88 -1.268,-3.672 -1.836,-5.508 -0.393,-1.18 -0.744,-2.317 -1.049,-3.453 -0.044,-0.087 -0.087,-0.175 -0.087,-0.262 -0.394,-1.399 -0.787,-2.754 -1.18,-4.109 -0.35,-1.398 -0.7,-2.753 -1.006,-4.108 -0.131,-0.525 -0.262,-1.05 -0.35,-1.575 -0.306,-1.267 -0.568,-2.534 -0.83,-3.846 -0.35,-1.748 -0.657,-3.497 -0.962,-5.245 -0.175,-1.093 -0.349,-2.229 -0.481,-3.322 -0.044,-0.306 -0.087,-0.569 -0.131,-0.831 -0.218,-1.355 -0.35,-2.71 -0.524,-4.109 7.299,103.989 84.711,188.919 185.202,207.671 -13.55,2.535 -27.494,3.846 -41.787,3.846 -125.494,0 -227.603,-102.108 -227.603,-227.602 0,-125.494 102.109,-227.603 227.603,-227.603 48.781,0 94.022,15.43 131.089,41.701 v 125.799 c -7.169,-15.648 -17.091,-29.81 -29.155,-41.875 -26.096,-26.138 -62.157,-42.268 -101.934,-42.268 -79.554,0 -144.246,64.692 -144.246,144.246 0,71.992 53.021,131.875 122.128,142.541 C 102.108,88.515 91.181,85.717 80.166,81.608 42.836,67.621 13.463,37.547 0,0"
             style="fill:#f39223;fill-opacity:1;fill-rule:nonzero;stroke:none"
             id="path42" />
        </g>
        <g
           id="g44"
           transform="translate(727.2339,807.8628)">
          <path
             d="M 0,0 C -0.043,0 -0.127,0.042 -0.171,0.085 V 0.075 C -0.234,0.138 -0.317,0.2 -0.4,0.242 -0.331,0.207 -0.274,0.16 -0.21,0.121 -0.258,0.167 -0.322,0.227 -0.394,0.262 -0.568,0.394 -0.743,0.481 -0.918,0.568 -1.049,0.7 -1.224,0.787 -1.442,0.875 c -0.744,0.524 -1.53,1.004 -2.317,1.485 -0.874,0.569 -1.749,1.093 -2.623,1.618 -1.617,1.005 -3.234,1.967 -4.895,2.885 -0.744,0.437 -1.486,0.874 -2.273,1.267 -1.006,0.612 -2.055,1.137 -3.104,1.705 0,0 -0.044,0 -0.044,0.044 -0.305,0.131 -0.568,0.306 -0.874,0.48 -0.655,0.35 -1.311,0.656 -1.967,1.006 -0.262,0.131 -0.524,0.262 -0.786,0.393 -0.962,0.525 -1.924,1.006 -2.929,1.487 -0.088,0.043 -0.218,0.13 -0.35,0.174 -0.656,0.306 -1.311,0.656 -1.967,0.962 -0.918,0.437 -1.792,0.874 -2.71,1.267 -0.83,0.394 -1.661,0.744 -2.448,1.137 -1.967,0.874 -3.934,1.749 -5.944,2.579 -0.525,0.219 -1.049,0.437 -1.618,0.656 -1.005,0.393 -2.01,0.83 -3.016,1.224 -0.524,0.174 -1.005,0.349 -1.486,0.568 -0.087,0 -0.219,0.043 -0.306,0.087 -1.267,0.481 -2.535,0.962 -3.803,1.399 -0.524,0.219 -1.093,0.393 -1.661,0.612 -0.524,0.175 -1.093,0.393 -1.661,0.568 -0.219,0.087 -0.393,0.175 -0.611,0.219 -1.356,0.481 -2.711,0.918 -4.066,1.355 -1.748,0.568 -3.497,1.093 -5.289,1.573 -0.088,0.044 -0.218,0.088 -0.306,0.131 -1.355,0.394 -2.754,0.744 -4.153,1.137 -0.306,0.087 -0.611,0.175 -0.917,0.262 -0.132,0.044 -0.263,0.044 -0.393,0.088 -1.093,0.306 -2.186,0.568 -3.323,0.83 -0.524,0.132 -1.049,0.262 -1.573,0.394 -1.355,0.349 -2.754,0.655 -4.109,0.961 -0.087,0 -0.175,0.044 -0.263,0.044 -0.874,0.218 -1.748,0.393 -2.622,0.568 -1.355,0.306 -2.754,0.568 -4.109,0.831 h -0.044 C -182.493,14.119 -259.905,-70.812 -267.204,-174.8 c 0.174,1.399 0.306,2.754 0.524,4.109 0.044,0.262 0.087,0.524 0.131,0.831 0.132,1.092 0.306,2.229 0.481,3.322 0.305,1.748 0.612,3.496 0.962,5.245 0.262,1.312 0.524,2.579 0.83,3.846 0.088,0.525 0.219,1.05 0.35,1.574 0.306,1.355 0.655,2.71 1.006,4.109 0.393,1.355 0.786,2.71 1.18,4.109 0,0.087 0.043,0.175 0.087,0.262 0.305,1.136 0.655,2.273 1.049,3.453 0.568,1.836 1.18,3.628 1.836,5.508 13.463,37.547 42.836,67.62 80.165,81.608 11.016,4.109 21.943,6.907 32.696,8.48 1.268,0.219 2.491,0.393 3.759,0.524 1.049,0.175 2.142,0.306 3.234,0.394 0.219,0 0.438,0.044 0.657,0.044 0.699,0.087 1.442,0.174 2.142,0.218 0.655,0.044 1.311,0.131 1.967,0.131 0.262,0.044 0.524,0.044 0.786,0.088 0.306,0 0.612,0.043 0.918,0.043 0.612,0.044 1.224,0.044 1.836,0.088 0.456,0.026 0.912,0.035 1.368,0.055 -0.453,-0.016 -0.905,-0.024 -1.359,-0.045 0.84,0.039 1.684,0.065 2.529,0.092 0.993,0.031 1.987,0.05 2.981,0.058 0.427,0.004 0.854,0.017 1.282,0.017 0.75,0 1.5,0 2.25,-0.042 0.201,0 0.4,-0.008 0.6,-0.012 1.109,-0.011 2.215,-0.042 3.288,-0.08 h 0.218 c 0.485,-0.032 0.967,-0.064 1.449,-0.097 0.81,-0.044 1.623,-0.081 2.425,-0.144 -0.392,0.02 -0.805,0.041 -1.197,0.062 0.406,-0.028 0.815,-0.055 1.213,-0.083 0.568,0 1.093,-0.044 1.661,-0.087 0.262,-0.044 0.525,-0.044 0.787,-0.088 1.704,-0.131 3.453,-0.306 5.158,-0.568 0.219,0 0.481,-0.044 0.699,-0.087 0.131,0 0.218,-0.044 0.35,-0.044 0.393,-0.044 0.743,-0.088 1.093,-0.131 0.102,-0.015 0.199,-0.029 0.3,-0.044 -0.097,0.016 -0.195,0.033 -0.292,0.049 0.601,-0.084 1.201,-0.174 1.796,-0.27 0.288,-0.043 0.576,-0.086 0.863,-0.129 0.611,-0.131 1.267,-0.218 1.922,-0.349 0.219,0 0.393,-0.044 0.612,-0.088 0.087,0 0.218,0 0.306,-0.044 0.438,-0.043 0.918,-0.13 1.355,-0.262 0.132,0 0.306,-0.043 0.437,-0.087 1.793,-0.306 3.541,-0.655 5.246,-1.093 0.568,-0.131 1.137,-0.262 1.704,-0.393 0.087,-0.029 0.189,-0.058 0.289,-0.086 0.961,-0.228 1.921,-0.458 2.864,-0.741 0.262,-0.068 0.52,-0.143 0.78,-0.213 -0.05,0.014 -0.101,0.034 -0.152,0.046 0.076,-0.021 0.15,-0.045 0.226,-0.066 1.423,-0.382 2.838,-0.783 4.227,-1.231 0.124,-0.04 0.253,-0.073 0.377,-0.113 0.328,-0.106 0.648,-0.207 0.972,-0.31 0.898,-0.285 1.786,-0.573 2.667,-0.886 0.559,-0.19 1.123,-0.365 1.679,-0.562 0.471,-0.164 0.937,-0.334 1.414,-0.515 0.938,-0.338 1.875,-0.699 2.81,-1.065 0.835,-0.326 1.66,-0.671 2.487,-1.012 0.404,-0.169 0.814,-0.33 1.216,-0.502 0.548,-0.215 1.082,-0.443 1.611,-0.677 0.109,-0.047 0.215,-0.097 0.323,-0.145 0.332,-0.148 0.664,-0.296 0.995,-0.446 0.42,-0.188 0.83,-0.394 1.248,-0.587 0.948,-0.438 1.898,-0.874 2.835,-1.332 0.62,-0.303 1.231,-0.622 1.845,-0.934 0.882,-0.447 1.767,-0.89 2.639,-1.354 0.468,-0.25 0.926,-0.515 1.391,-0.769 2.421,-1.327 4.812,-2.702 7.146,-4.162 -0.426,0.263 -0.861,0.511 -1.288,0.77 0.423,-0.258 0.854,-0.505 1.275,-0.768 1.529,-0.961 2.972,-1.879 4.458,-2.884 0.962,-0.656 1.923,-1.312 2.885,-2.011 2.623,-1.88 5.245,-3.847 7.737,-5.945 0.83,-0.612 1.573,-1.267 2.36,-1.923 0.044,-0.087 0.131,-0.131 0.175,-0.175 0.83,-0.699 1.661,-1.399 2.491,-2.185 0.219,-0.219 0.437,-0.438 0.7,-0.656 0.35,-0.306 0.699,-0.612 1.049,-0.918 0.48,-0.481 1.005,-0.962 1.486,-1.442 0.568,-0.525 1.093,-1.049 1.661,-1.574 0.568,-0.525 1.093,-1.093 1.617,-1.661 1.749,-1.749 3.409,-3.541 5.027,-5.377 0.437,-0.437 0.875,-0.917 1.268,-1.398 0.306,-0.306 0.568,-0.612 0.83,-0.918 1.224,-1.442 2.448,-2.929 3.585,-4.415 0.962,-1.224 1.879,-2.448 2.797,-3.672 0.612,-0.83 1.18,-1.617 1.749,-2.448 0.699,-0.961 1.355,-1.967 2.011,-2.928 0.567,-0.831 1.135,-1.705 1.66,-2.536 0.612,-0.961 1.181,-1.879 1.748,-2.797 0.788,-1.355 1.618,-2.667 2.361,-4.021 0.043,-0.131 0.087,-0.219 0.175,-0.35 0.743,-1.312 1.442,-2.623 2.141,-3.978 0.657,-1.267 1.312,-2.491 1.88,-3.759 0.175,-0.306 0.306,-0.612 0.437,-0.918 0.219,-0.48 0.482,-0.961 0.7,-1.442 V -4.983 C 6.731,-4.546 6.163,-4.152 5.551,-3.759 3.716,-2.492 1.879,-1.224 0,0"
             style="fill:#f39223;fill-opacity:1;fill-rule:nonzero;stroke:none"
             id="path46" />
        </g>
        <g
           id="g48">
          <g
             id="g50" />
          <g
             id="g62">
            <g
               clip-path="url(#clipPath54)"
               id="g60">
              <g
                 transform="translate(727.2339,807.8628)"
                 id="g58">
                <path
                   d="M 0,0 C -0.043,0 -0.127,0.042 -0.171,0.085 V 0.075 C -0.234,0.138 -0.317,0.2 -0.4,0.242 -0.331,0.207 -0.274,0.16 -0.21,0.121 -0.258,0.167 -0.322,0.227 -0.394,0.262 -0.568,0.394 -0.743,0.481 -0.918,0.568 -1.049,0.7 -1.224,0.787 -1.442,0.875 c -0.744,0.524 -1.53,1.004 -2.317,1.485 -0.874,0.569 -1.749,1.093 -2.623,1.618 -1.617,1.005 -3.234,1.967 -4.895,2.885 -0.744,0.437 -1.486,0.874 -2.273,1.267 -1.006,0.612 -2.055,1.137 -3.104,1.705 0,0 -0.044,0 -0.044,0.044 -0.305,0.131 -0.568,0.306 -0.874,0.48 -0.655,0.35 -1.311,0.656 -1.967,1.006 -0.262,0.131 -0.524,0.262 -0.786,0.393 -0.962,0.525 -1.924,1.006 -2.929,1.487 -0.088,0.043 -0.218,0.13 -0.35,0.174 -0.656,0.306 -1.311,0.656 -1.967,0.962 -0.918,0.437 -1.792,0.874 -2.71,1.267 -0.83,0.394 -1.661,0.744 -2.448,1.137 -1.967,0.874 -3.934,1.749 -5.944,2.579 -0.525,0.219 -1.049,0.437 -1.618,0.656 -1.005,0.393 -2.01,0.83 -3.016,1.224 -0.524,0.174 -1.005,0.349 -1.486,0.568 -0.087,0 -0.219,0.043 -0.306,0.087 -1.267,0.481 -2.535,0.962 -3.803,1.399 -0.524,0.219 -1.093,0.393 -1.661,0.612 -0.524,0.175 -1.093,0.393 -1.661,0.568 -0.219,0.087 -0.393,0.175 -0.611,0.219 -1.356,0.481 -2.711,0.918 -4.066,1.355 -1.748,0.568 -3.497,1.093 -5.289,1.573 -0.088,0.044 -0.218,0.088 -0.306,0.131 -1.355,0.394 -2.754,0.744 -4.153,1.137 -0.306,0.087 -0.611,0.175 -0.917,0.262 -0.132,0.044 -0.263,0.044 -0.393,0.088 -1.093,0.306 -2.186,0.568 -3.323,0.83 -0.524,0.132 -1.049,0.262 -1.573,0.394 -1.355,0.349 -2.754,0.655 -4.109,0.961 -0.087,0 -0.175,0.044 -0.263,0.044 -0.874,0.218 -1.748,0.393 -2.622,0.568 -1.355,0.306 -2.754,0.568 -4.109,0.831 h -0.044 C -182.493,14.119 -259.905,-70.812 -267.204,-174.8 c 0.174,1.399 0.306,2.754 0.524,4.109 0.044,0.262 0.087,0.524 0.131,0.831 0.132,1.092 0.306,2.229 0.481,3.322 0.305,1.748 0.612,3.496 0.962,5.245 0.262,1.312 0.524,2.579 0.83,3.846 0.088,0.525 0.219,1.05 0.35,1.574 0.306,1.355 0.655,2.71 1.006,4.109 0.393,1.355 0.786,2.71 1.18,4.109 0,0.087 0.043,0.175 0.087,0.262 0.305,1.136 0.655,2.273 1.049,3.453 0.568,1.836 1.18,3.628 1.836,5.508 13.463,37.547 42.836,67.62 80.165,81.608 11.016,4.109 21.943,6.907 32.696,8.48 1.268,0.219 2.491,0.393 3.759,0.524 1.049,0.175 2.142,0.306 3.234,0.394 0.219,0 0.438,0.044 0.657,0.044 0.699,0.087 1.442,0.174 2.142,0.218 0.655,0.044 1.311,0.131 1.967,0.131 0.262,0.044 0.524,0.044 0.786,0.088 0.306,0 0.612,0.043 0.918,0.043 0.612,0.044 1.224,0.044 1.836,0.088 0.456,0.026 0.912,0.035 1.368,0.055 -0.453,-0.016 -0.905,-0.024 -1.359,-0.045 0.84,0.039 1.684,0.065 2.529,0.092 0.993,0.031 1.987,0.05 2.981,0.058 0.427,0.004 0.854,0.017 1.282,0.017 0.75,0 1.5,0 2.25,-0.042 0.201,0 0.4,-0.008 0.6,-0.012 1.109,-0.011 2.215,-0.042 3.288,-0.08 h 0.218 c 0.485,-0.032 0.967,-0.064 1.449,-0.097 0.81,-0.044 1.623,-0.081 2.425,-0.144 -0.392,0.02 -0.805,0.041 -1.197,0.062 0.406,-0.028 0.815,-0.055 1.213,-0.083 0.568,0 1.093,-0.044 1.661,-0.087 0.262,-0.044 0.525,-0.044 0.787,-0.088 1.704,-0.131 3.453,-0.306 5.158,-0.568 0.219,0 0.481,-0.044 0.699,-0.087 0.131,0 0.218,-0.044 0.35,-0.044 0.393,-0.044 0.743,-0.088 1.093,-0.131 0.102,-0.015 0.199,-0.029 0.3,-0.044 -0.097,0.016 -0.195,0.033 -0.292,0.049 0.601,-0.084 1.201,-0.174 1.796,-0.27 0.288,-0.043 0.576,-0.086 0.863,-0.129 0.611,-0.131 1.267,-0.218 1.922,-0.349 0.219,0 0.393,-0.044 0.612,-0.088 0.087,0 0.218,0 0.306,-0.044 0.438,-0.043 0.918,-0.13 1.355,-0.262 0.132,0 0.306,-0.043 0.437,-0.087 1.793,-0.306 3.541,-0.655 5.246,-1.093 0.568,-0.131 1.137,-0.262 1.704,-0.393 0.087,-0.029 0.189,-0.058 0.289,-0.086 0.961,-0.228 1.921,-0.458 2.864,-0.741 0.262,-0.068 0.52,-0.143 0.78,-0.213 -0.05,0.014 -0.101,0.034 -0.152,0.046 0.076,-0.021 0.15,-0.045 0.226,-0.066 1.423,-0.382 2.838,-0.783 4.227,-1.231 0.124,-0.04 0.253,-0.073 0.377,-0.113 0.328,-0.106 0.648,-0.207 0.972,-0.31 0.898,-0.285 1.786,-0.573 2.667,-0.886 0.559,-0.19 1.123,-0.365 1.679,-0.562 0.471,-0.164 0.937,-0.334 1.414,-0.515 0.938,-0.338 1.875,-0.699 2.81,-1.065 0.835,-0.326 1.66,-0.671 2.487,-1.012 0.404,-0.169 0.814,-0.33 1.216,-0.502 0.548,-0.215 1.082,-0.443 1.611,-0.677 0.109,-0.047 0.215,-0.097 0.323,-0.145 0.332,-0.148 0.664,-0.296 0.995,-0.446 0.42,-0.188 0.83,-0.394 1.248,-0.587 0.948,-0.438 1.898,-0.874 2.835,-1.332 0.62,-0.303 1.231,-0.622 1.845,-0.934 0.882,-0.447 1.767,-0.89 2.639,-1.354 0.468,-0.25 0.926,-0.515 1.391,-0.769 2.421,-1.327 4.812,-2.702 7.146,-4.162 -0.426,0.263 -0.861,0.511 -1.288,0.77 0.423,-0.258 0.854,-0.505 1.275,-0.768 1.529,-0.961 2.972,-1.879 4.458,-2.884 0.962,-0.656 1.923,-1.312 2.885,-2.011 2.623,-1.88 5.245,-3.847 7.737,-5.945 0.83,-0.612 1.573,-1.267 2.36,-1.923 0.044,-0.087 0.131,-0.131 0.175,-0.175 0.83,-0.699 1.661,-1.399 2.491,-2.185 0.219,-0.219 0.437,-0.438 0.7,-0.656 0.35,-0.306 0.699,-0.612 1.049,-0.918 0.48,-0.481 1.005,-0.962 1.486,-1.442 0.568,-0.525 1.093,-1.049 1.661,-1.574 0.568,-0.525 1.093,-1.093 1.617,-1.661 1.749,-1.749 3.409,-3.541 5.027,-5.377 0.437,-0.437 0.875,-0.917 1.268,-1.398 0.306,-0.306 0.568,-0.612 0.83,-0.918 1.224,-1.442 2.448,-2.929 3.585,-4.415 0.962,-1.224 1.879,-2.448 2.797,-3.672 0.612,-0.83 1.18,-1.617 1.749,-2.448 0.699,-0.961 1.355,-1.967 2.011,-2.928 0.567,-0.831 1.135,-1.705 1.66,-2.536 0.612,-0.961 1.181,-1.879 1.748,-2.797 0.788,-1.355 1.618,-2.667 2.361,-4.021 0.043,-0.131 0.087,-0.219 0.175,-0.35 0.743,-1.312 1.442,-2.623 2.141,-3.978 0.657,-1.267 1.312,-2.491 1.88,-3.759 0.175,-0.306 0.306,-0.612 0.437,-0.918 0.219,-0.48 0.482,-0.961 0.7,-1.442 V -4.983 C 6.731,-4.546 6.163,-4.152 5.551,-3.759 3.716,-2.492 1.879,-1.224 0,0"
                   style="fill:#f39223;fill-opacity:1;fill-rule:nonzero;stroke:none"
                   id="path56" />
              </g>
            </g>
          </g>
        </g>
        <g
           id="g64">
          <g
             id="g66" />
          <g
             id="g418">
            <g
               clip-path="url(#clipPath70)"
               opacity="0.839996"
               id="g416">
              <g
                 id="g310">
                <g
                   clip-path="url(#clipPath74)"
                   id="g308">
                  <g
                     transform="translate(598.4023,638.4634)"
                     id="g306">
                    <path
                       d="m 0,0 c -5.913,-3.45 -11.306,-7.689 -16.021,-12.597 -2.27,-2.338 -4.38,-4.835 -6.319,-7.471 5.994,-1.965 11.449,-5.139 16.077,-9.233 1.915,2.405 4.025,4.651 6.308,6.703 4.683,4.216 10.099,7.651 16.025,10.065 6.397,2.624 13.394,4.075 20.729,4.089 L 36.762,9.947 C 23.372,9.92 10.816,6.296 0,0 m -15.436,-46.16 c -1.841,-5.518 -2.839,-11.428 -2.827,-17.567 l -18.391,-0.036 c -0.02,9.563 1.801,18.703 5.118,27.102 6.428,-1.207 12.079,-4.654 16.1,-9.499"
                       style="fill:#3e3e44;fill-opacity:1;fill-rule:nonzero;stroke:none"
                       id="path304" />
                  </g>
                </g>
              </g>
              <g
                 id="g330">
                <g
                   clip-path="url(#clipPath78)"
                   id="g328">
                  <g
                     id="g326">
                    <g
                       id="g312" />
                    <g
                       mask="url(#mask100)"
                       id="g324">
                      <g
                         id="g314" />
                      <g
                         id="g322">
                        <g
                           clip-path="url(#clipPath128)"
                           id="g320">
                          <g
                             transform="translate(635.3115,574.8472)"
                             id="g318">
                            <path
                               d="m 0,0 -73.563,-0.147 -0.148,73.563 73.564,0.147 z"
                               style="fill:#3e3e44;fill-opacity:1;fill-rule:nonzero;stroke:none"
                               id="path316" />
                          </g>
                        </g>
                      </g>
                    </g>
                  </g>
                </g>
              </g>
              <g
                 id="g338">
                <g
                   clip-path="url(#clipPath132)"
                   id="g336">
                  <g
                     transform="translate(598.4746,602.3237)"
                     id="g334">
                    <path
                       d="m 0,0 c -5.765,-7.689 -9.16,-17.246 -9.14,-27.568 -0.013,6.665 -2.404,12.787 -6.368,17.548 -4.021,4.844 -9.672,8.292 -16.1,9.499 -1.669,0.317 -3.404,0.487 -5.174,0.483 l -0.037,18.391 c 5.022,0.01 9.876,-0.786 14.406,-2.282 5.995,-1.965 11.45,-5.138 16.078,-9.232 C -3.999,4.785 -1.868,2.489 0,0"
                       style="fill:#3e3e44;fill-opacity:1;fill-rule:nonzero;stroke:none"
                       id="path332" />
                  </g>
                </g>
              </g>
              <g
                 id="g358">
                <g
                   clip-path="url(#clipPath136)"
                   id="g356">
                  <g
                     id="g354">
                    <g
                       id="g340" />
                    <g
                       mask="url(#mask158)"
                       id="g352">
                      <g
                         id="g342" />
                      <g
                         id="g350">
                        <g
                           clip-path="url(#clipPath186)"
                           id="g348">
                          <g
                             transform="translate(580.0098,639.1045)"
                             id="g346">
                            <path
                               d="M 0,0 41.462,-41.296 0.166,-82.758 -41.296,-41.462 Z"
                               style="fill:#3e3e44;fill-opacity:1;fill-rule:nonzero;stroke:none"
                               id="path344" />
                          </g>
                        </g>
                      </g>
                    </g>
                  </g>
                </g>
              </g>
              <g
                 id="g366">
                <g
                   clip-path="url(#clipPath190)"
                   id="g364">
                  <g
                     transform="translate(604.7837,609.188)"
                     id="g362">
                    <path
                       d="m 0,0 c -2.331,-2.063 -4.452,-4.368 -6.309,-6.864 -5.765,-7.689 -9.16,-17.246 -9.14,-27.569 l 18.392,0.037 C 2.93,-27.73 5.293,-21.599 9.24,-16.822 7.146,-10.651 3.996,-4.97 0,0 m 30.436,11.636 0.037,-18.39 c -1.771,-0.004 -3.507,-0.181 -5.171,-0.505 -2.38,5.938 -5.508,11.494 -9.264,16.556 4.526,1.513 9.374,2.329 14.398,2.339"
                       style="fill:#3e3e44;fill-opacity:1;fill-rule:nonzero;stroke:none"
                       id="path360" />
                  </g>
                </g>
              </g>
              <g
                 id="g386">
                <g
                   clip-path="url(#clipPath194)"
                   id="g384">
                  <g
                     id="g382">
                    <g
                       id="g368" />
                    <g
                       mask="url(#mask216)"
                       id="g380">
                      <g
                         id="g370" />
                      <g
                         id="g378">
                        <g
                           clip-path="url(#clipPath244)"
                           id="g376">
                          <g
                             transform="translate(635.2192,620.8237)"
                             id="g374">
                            <path
                               d="m 0,0 0.092,-45.977 -45.976,-0.091 -0.092,45.976 z"
                               style="fill:#3e3e44;fill-opacity:1;fill-rule:nonzero;stroke:none"
                               id="path372" />
                          </g>
                        </g>
                      </g>
                    </g>
                  </g>
                </g>
              </g>
              <g
                 id="g394">
                <g
                   clip-path="url(#clipPath248)"
                   id="g392">
                  <g
                     transform="translate(561.6006,648.2627)"
                     id="g390">
                    <path
                       d="m 0,0 0.037,-18.39 c 7.332,0.015 14.338,-1.408 20.744,-4.006 4.715,4.907 10.108,9.147 16.021,12.597 C 25.961,-3.546 13.392,0.027 0,0 m 73.711,-73.416 -18.39,-0.036 c -0.013,6.138 -1.037,12.044 -2.898,17.556 -2.093,6.17 -5.244,11.852 -9.24,16.821 -1.924,2.398 -4.044,4.635 -6.336,6.678 4.682,4.215 10.099,7.65 16.025,10.065 2.281,-2.329 4.401,-4.818 6.349,-7.446 3.756,-5.061 6.884,-10.618 9.264,-16.555 3.348,-8.387 5.207,-17.519 5.226,-27.083"
                       style="fill:#3e3e44;fill-opacity:1;fill-rule:nonzero;stroke:none"
                       id="path388" />
                  </g>
                </g>
              </g>
              <g
                 id="g414">
                <g
                   clip-path="url(#clipPath252)"
                   id="g412">
                  <g
                     id="g410">
                    <g
                       id="g396" />
                    <g
                       mask="url(#mask274)"
                       id="g408">
                      <g
                         id="g398" />
                      <g
                         id="g406">
                        <g
                           clip-path="url(#clipPath302)"
                           id="g404">
                          <g
                             transform="translate(616.71,680.2271)"
                             id="g402">
                            <path
                               d="m 0,0 50.418,-86.925 -86.925,-50.419 -50.419,86.926 z"
                               style="fill:#3e3e44;fill-opacity:1;fill-rule:nonzero;stroke:none"
                               id="path400" />
                          </g>
                        </g>
                      </g>
                    </g>
                  </g>
                </g>
              </g>
            </g>
          </g>
        </g>
      </g>
    </g>
  </g>
</svg>
