<?xml version="1.0" encoding="UTF-8"?>
<svg id="Layer_1" data-name="Layer 1" xmlns="http://www.w3.org/2000/svg" xmlns:xlink="http://www.w3.org/1999/xlink" viewBox="0 0 538.07 240.69">
  <defs>
    <style>
      .cls-1 {
        fill: url(#linear-gradient-2);
      }

      .cls-2 {
        fill: url(#New_Gradient_Swatch_3-2);
      }

      .cls-3 {
        fill: url(#New_Gradient_Swatch_3);
      }

      .cls-4 {
        fill: url(#linear-gradient);
      }

      .cls-5 {
        fill: #2a3f6c;
      }
    </style>
    <linearGradient id="New_Gradient_Swatch_3" data-name="New Gradient Swatch 3" x1="143.38" y1="71.69" x2="0" y2="71.69" gradientUnits="userSpaceOnUse">
      <stop offset="0" stop-color="#e21d36"/>
      <stop offset=".11" stop-color="#d71e38"/>
      <stop offset=".3" stop-color="#bc2340"/>
      <stop offset=".54" stop-color="#902c4d"/>
      <stop offset=".82" stop-color="#53375f"/>
      <stop offset="1" stop-color="#2a3f6c"/>
    </linearGradient>
    <linearGradient id="linear-gradient" x1=".3" y1="53.47" x2="71.99" y2="125.15" gradientUnits="userSpaceOnUse">
      <stop offset="0" stop-color="#e21d36"/>
      <stop offset="1" stop-color="#e21d36"/>
    </linearGradient>
    <linearGradient id="New_Gradient_Swatch_3-2" data-name="New Gradient Swatch 3" x1="98.57" y1="53.77" x2="98.57" y2="143.38" xlink:href="#New_Gradient_Swatch_3"/>
    <linearGradient id="linear-gradient-2" x1="23.26" y1="-13.43" x2="121.19" y2="156.19" xlink:href="#linear-gradient"/>
  </defs>
  <g>
    <g>
      <path class="cls-3" d="m41.42,109.15c-3.61,10.75-5.58,22.27-5.58,34.23H0c0-18.64,3.58-36.45,10.08-52.8,12.52,2.38,23.52,9.12,31.34,18.57Zm30.27-89.9c-11.54,6.7-22.07,14.94-31.28,24.49-4.43,4.55-8.55,9.41-12.34,14.54,11.67,3.86,22.29,10.06,31.3,18.06,3.74-4.68,7.86-9.05,12.32-13.04,9.14-8.2,19.71-14.87,31.27-19.55,12.48-5.09,26.12-7.89,40.42-7.89V0c-26.1,0-50.58,7.01-71.69,19.24Z"/>
      <path class="cls-4" d="m71.69,89.68c-11.27,14.96-17.92,33.58-17.92,53.7,0-12.99-4.64-24.93-12.34-34.23-7.82-9.46-18.82-16.2-31.34-18.57-3.25-.62-6.63-.96-10.08-.96v-35.84c9.79,0,19.24,1.57,28.07,4.5,11.67,3.86,22.29,10.06,31.3,18.06,4.55,4.01,8.69,8.49,12.32,13.35Z"/>
      <path class="cls-2" d="m143.38,53.77v35.84c-3.45,0-6.84.34-10.08.96-4.61-11.58-10.69-22.43-17.99-32.31,8.83-2.93,18.28-4.5,28.07-4.5Zm-59.37,22.56c-4.55,4.01-8.69,8.49-12.32,13.35-11.27,14.96-17.92,33.58-17.92,53.7h35.85c0-12.99,4.63-24.93,12.34-34.23-4.06-12.03-10.17-23.12-17.94-32.82Z"/>
      <path class="cls-1" d="m143.38,143.38h-35.84c0-11.96-1.97-23.48-5.58-34.23-4.06-12.03-10.17-23.12-17.94-32.82-3.74-4.68-7.86-9.05-12.32-13.04,9.14-8.2,19.71-14.87,31.27-19.55,4.44,4.55,8.56,9.41,12.34,14.54,7.3,9.88,13.38,20.72,17.99,32.31,6.49,16.36,10.08,34.16,10.08,52.8ZM0,0v35.84c14.29,0,27.94,2.8,40.41,7.89,9.21-9.55,19.74-17.79,31.28-24.49C50.59,7.01,26.1,0,0,0Z"/>
    </g>
    <g>
      <path class="cls-5" d="m168.87,143.38V0h53.62C261.04,0,279.92,15.66,279.92,47.79s-19.08,49-57.03,49h-16.67v46.59h-37.35Zm53.82-77.31c15.06,0,21.49-5.42,21.49-18.07s-6.23-17.47-21.69-17.47h-16.27v35.54h16.47Z"/>
      <path class="cls-5" d="m330.92,143.38V32.73h-41.37V0h121.29v32.73h-41.37v110.65h-38.56Z"/>
      <path class="cls-5" d="m468.1,84.5c-31.16-5.93-44.54-18.54-44.54-41.68C423.56,15.29,443.25,0,478.42,0s54.29,14.72,57.16,41.68l-35.56,3.63c-2.49-11.47-8.79-16.25-21.79-16.25-11.66,0-18.35,4.01-18.35,11.66,0,6.31,4.59,9.94,15.29,12.04l18.54,3.63c30.4,5.93,44.35,19.12,44.35,42.25,0,28.87-20.65,44.73-57.54,44.73s-57.54-16.25-59.64-48.37h36.51c1.53,13,9.37,18.93,24.47,18.93,12.81,0,19.5-4.59,19.5-13.19,0-7.07-4.97-11.09-15.1-12.81l-18.16-3.44Z"/>
    </g>
  </g>
  <g>
    <path class="cls-5" d="m44.98,168.57v11.58H15.16v18.34h22.85v11.37H15.16v30.22H.82v-71.51h44.15Z"/>
    <path class="cls-5" d="m85.44,168.57v71.51h-14.34v-71.51h14.34Z"/>
    <path class="cls-5" d="m176.73,240.08h-14.34l-32.48-49.07v49.07h-14.34v-71.61h14.34l32.48,49.17v-49.17h14.34v71.61Z"/>
    <path class="cls-5" d="m250.69,226.45h-28.48l-4.71,13.63h-15.06l25.71-71.61h16.7l25.71,71.61h-15.16l-4.71-13.63Zm-3.89-11.47l-10.35-29.92-10.35,29.92h20.7Z"/>
    <path class="cls-5" d="m357.34,240.08h-14.34l-32.48-49.07v49.07h-14.34v-71.61h14.34l32.48,49.17v-49.17h14.34v71.61Z"/>
    <path class="cls-5" d="m388.74,185.32c3.18-5.57,7.51-9.9,13.01-13.01s11.66-4.66,18.49-4.66c7.99,0,14.99,2.05,21,6.15,6.01,4.1,10.21,9.77,12.6,17.01h-16.49c-1.64-3.41-3.95-5.97-6.92-7.68-2.97-1.71-6.4-2.56-10.3-2.56-4.17,0-7.87.97-11.11,2.92-3.25,1.95-5.77,4.7-7.58,8.25s-2.71,7.72-2.71,12.5.91,8.86,2.71,12.45c1.81,3.59,4.34,6.35,7.58,8.3,3.24,1.94,6.95,2.92,11.11,2.92,3.89,0,7.32-.87,10.3-2.61,2.97-1.74,5.28-4.32,6.92-7.74h16.49c-2.39,7.31-6.57,13-12.55,17.06-5.98,4.07-13,6.1-21.05,6.1-6.83,0-13-1.55-18.49-4.66-5.5-3.11-9.83-7.43-13.01-12.96-3.18-5.53-4.76-11.81-4.76-18.85s1.59-13.33,4.76-18.9Z"/>
    <path class="cls-5" d="m496.47,180.15v17.93h24.07v11.37h-24.07v18.95h27.15v11.68h-41.49v-71.61h41.49v11.68h-27.15Z"/>
  </g>
</svg>