<?xml version="1.0" encoding="UTF-8"?>
<svg id="Layer_1" data-name="Layer 1" xmlns="http://www.w3.org/2000/svg" xmlns:xlink="http://www.w3.org/1999/xlink" viewBox="0 0 561.63 247.76">
  <defs>
    <style>
      .cls-1 {
        fill: url(#linear-gradient-2);
      }

      .cls-2 {
        fill: url(#New_Gradient_Swatch_3-2);
      }

      .cls-3 {
        fill: url(#New_Gradient_Swatch_3);
      }

      .cls-4 {
        fill: url(#linear-gradient);
      }

      .cls-5 {
        fill: #2a3f6c;
      }
    </style>
    <linearGradient id="New_Gradient_Swatch_3" data-name="New Gradient Swatch 3" x1="155.52" y1="73.76" x2="8" y2="73.76" gradientUnits="userSpaceOnUse">
      <stop offset="0" stop-color="#e21d36"/>
      <stop offset=".11" stop-color="#d71e38"/>
      <stop offset=".3" stop-color="#bc2340"/>
      <stop offset=".54" stop-color="#902c4d"/>
      <stop offset=".82" stop-color="#53375f"/>
      <stop offset="1" stop-color="#2a3f6c"/>
    </linearGradient>
    <linearGradient id="linear-gradient" x1="8.31" y1="55.01" x2="82.07" y2="128.77" gradientUnits="userSpaceOnUse">
      <stop offset="0" stop-color="#e21d36"/>
      <stop offset="1" stop-color="#e21d36"/>
    </linearGradient>
    <linearGradient id="New_Gradient_Swatch_3-2" data-name="New Gradient Swatch 3" x1="109.42" y1="55.32" x2="109.42" y2="147.52" xlink:href="#New_Gradient_Swatch_3"/>
    <linearGradient id="linear-gradient-2" x1="31.93" y1="-13.82" x2="132.69" y2="160.7" xlink:href="#linear-gradient"/>
  </defs>
  <g>
    <g>
      <path class="cls-3" d="m50.62,112.31c-3.71,11.06-5.74,22.91-5.74,35.22H8c0-19.18,3.69-37.5,10.37-54.33,12.89,2.44,24.2,9.38,32.25,19.11Zm31.14-92.51c-11.87,6.89-22.7,15.37-32.18,25.2-4.56,4.68-8.8,9.68-12.7,14.96,12.01,3.97,22.94,10.35,32.2,18.58,3.85-4.82,8.09-9.31,12.68-13.42,9.41-8.44,20.28-15.3,32.18-20.12,12.84-5.24,26.88-8.12,41.59-8.12V0c-26.85,0-52.05,7.22-73.76,19.8Z"/>
      <path class="cls-4" d="m81.76,92.28c-11.59,15.4-18.44,34.55-18.44,55.25,0-13.37-4.77-25.65-12.7-35.22-8.05-9.73-19.36-16.67-32.25-19.11-3.35-.64-6.82-.99-10.37-.99v-36.88c10.07,0,19.8,1.62,28.88,4.63,12.01,3.97,22.94,10.35,32.2,18.58,4.68,4.13,8.94,8.74,12.68,13.74Z"/>
      <path class="cls-2" d="m155.52,55.32v36.88c-3.55,0-7.03.35-10.37.99-4.75-11.92-11-23.07-18.51-33.24,9.08-3.02,18.81-4.63,28.88-4.63Zm-61.08,23.21c-4.68,4.13-8.95,8.74-12.68,13.74-11.59,15.4-18.44,34.55-18.44,55.25h36.88c0-13.37,4.77-25.65,12.7-35.22-4.17-12.38-10.47-23.79-18.46-33.77Z"/>
      <path class="cls-1" d="m155.52,147.52h-36.88c0-12.31-2.03-24.16-5.74-35.22-4.17-12.38-10.47-23.79-18.46-33.77-3.85-4.82-8.09-9.31-12.68-13.42,9.41-8.44,20.28-15.3,32.18-20.12,4.56,4.68,8.81,9.68,12.7,14.96,7.51,10.17,13.76,21.32,18.51,33.24,6.68,16.83,10.37,35.15,10.37,54.33ZM8,0v36.88c14.7,0,28.75,2.88,41.58,8.12,9.48-9.82,20.31-18.31,32.18-25.2C60.05,7.22,34.85,0,8,0Z"/>
    </g>
    <g>
      <path class="cls-5" d="m181.76,147.52V0h55.17C276.59,0,296.01,16.12,296.01,49.17s-19.63,50.41-58.68,50.41h-17.15v47.94h-38.43Zm55.37-79.55c15.5,0,22.11-5.58,22.11-18.6s-6.41-17.98-22.31-17.98h-16.74v36.57h16.94Z"/>
      <path class="cls-5" d="m348.49,147.52V33.68h-42.56V0h124.8v33.68h-42.56v113.85h-39.67Z"/>
      <path class="cls-5" d="m489.64,86.94c-32.06-6.1-45.83-19.08-45.83-42.88C443.81,15.74,464.07,0,500.26,0s55.86,15.15,58.81,42.88l-36.59,3.74c-2.56-11.8-9.05-16.72-22.42-16.72-12,0-18.88,4.13-18.88,12,0,6.49,4.72,10.23,15.74,12.39l19.08,3.74c31.28,6.1,45.63,19.67,45.63,43.47,0,29.7-21.24,46.03-59.21,46.03s-59.21-16.72-61.37-49.76h37.57c1.57,13.38,9.64,19.47,25.18,19.47,13.18,0,20.06-4.72,20.06-13.57,0-7.28-5.11-11.41-15.54-13.18l-18.69-3.54Z"/>
    </g>
  </g>
  <g>
    <path class="cls-5" d="m13.44,245.13c-4.11-1.76-7.36-4.29-9.75-7.59-2.39-3.3-3.62-7.2-3.69-11.7h15.81c.21,3.02,1.28,5.41,3.21,7.17,1.93,1.76,4.59,2.64,7.96,2.64s6.15-.83,8.12-2.48c1.97-1.65,2.95-3.81,2.95-6.48,0-2.18-.67-3.97-2-5.38-1.34-1.41-3-2.51-5.01-3.32-2-.81-4.76-1.7-8.27-2.69-4.78-1.41-8.66-2.79-11.65-4.16-2.99-1.37-5.55-3.44-7.69-6.22-2.14-2.78-3.21-6.48-3.21-11.12,0-4.36,1.09-8.15,3.27-11.38,2.18-3.23,5.23-5.71,9.17-7.43,3.93-1.72,8.43-2.58,13.49-2.58,7.59,0,13.76,1.85,18.5,5.54,4.74,3.69,7.36,8.84,7.85,15.44h-16.23c-.14-2.53-1.21-4.62-3.21-6.27-2-1.65-4.66-2.48-7.96-2.48-2.88,0-5.18.74-6.9,2.21-1.72,1.48-2.58,3.62-2.58,6.43,0,1.97.65,3.6,1.95,4.9,1.3,1.3,2.92,2.36,4.85,3.16,1.93.81,4.65,1.74,8.17,2.79,4.78,1.41,8.68,2.81,11.7,4.22,3.02,1.41,5.62,3.52,7.8,6.33,2.18,2.81,3.27,6.5,3.27,11.07,0,3.94-1.02,7.59-3.06,10.96-2.04,3.37-5.02,6.06-8.96,8.06-3.94,2-8.61,3-14.02,3-5.13,0-9.75-.88-13.86-2.64Z"/>
    <path class="cls-5" d="m141.04,173.45l-24.88,47.96v25.62h-14.76v-25.62l-24.98-47.96h16.66l15.81,33.63,15.71-33.63h16.44Z"/>
    <path class="cls-5" d="m177.57,245.13c-4.11-1.76-7.36-4.29-9.75-7.59-2.39-3.3-3.62-7.2-3.69-11.7h15.81c.21,3.02,1.28,5.41,3.21,7.17,1.93,1.76,4.59,2.64,7.96,2.64s6.15-.83,8.12-2.48c1.97-1.65,2.95-3.81,2.95-6.48,0-2.18-.67-3.97-2-5.38-1.34-1.41-3-2.51-5.01-3.32-2-.81-4.76-1.7-8.27-2.69-4.78-1.41-8.66-2.79-11.65-4.16-2.99-1.37-5.55-3.44-7.69-6.22-2.14-2.78-3.21-6.48-3.21-11.12,0-4.36,1.09-8.15,3.27-11.38,2.18-3.23,5.23-5.71,9.17-7.43,3.93-1.72,8.43-2.58,13.49-2.58,7.59,0,13.76,1.85,18.5,5.54,4.74,3.69,7.36,8.84,7.85,15.44h-16.23c-.14-2.53-1.21-4.62-3.21-6.27-2-1.65-4.66-2.48-7.96-2.48-2.88,0-5.18.74-6.9,2.21-1.72,1.48-2.58,3.62-2.58,6.43,0,1.97.65,3.6,1.95,4.9,1.3,1.3,2.92,2.36,4.85,3.16,1.93.81,4.65,1.74,8.17,2.79,4.78,1.41,8.68,2.81,11.7,4.22,3.02,1.41,5.62,3.52,7.8,6.33,2.18,2.81,3.27,6.5,3.27,11.07,0,3.94-1.02,7.59-3.06,10.96-2.04,3.37-5.02,6.06-8.96,8.06-3.94,2-8.61,3-14.02,3-5.13,0-9.75-.88-13.86-2.64Z"/>
    <path class="cls-5" d="m296.73,173.45v11.91h-19.61v61.67h-14.76v-61.67h-19.61v-11.91h53.97Z"/>
    <path class="cls-5" d="m338.69,185.36v18.45h24.77v11.7h-24.77v19.5h27.93v12.02h-42.69v-73.68h42.69v12.02h-27.93Z"/>
    <path class="cls-5" d="m476.67,173.45v73.58h-14.76v-47.86l-19.71,47.86h-11.17l-19.82-47.86v47.86h-14.76v-73.58h16.76l23.4,54.71,23.4-54.71h16.66Z"/>
    <path class="cls-5" d="m519.21,245.13c-4.11-1.76-7.36-4.29-9.75-7.59-2.39-3.3-3.62-7.2-3.69-11.7h15.81c.21,3.02,1.28,5.41,3.21,7.17,1.93,1.76,4.59,2.64,7.96,2.64s6.15-.83,8.12-2.48c1.97-1.65,2.95-3.81,2.95-6.48,0-2.18-.67-3.97-2-5.38-1.34-1.41-3-2.51-5.01-3.32-2-.81-4.76-1.7-8.27-2.69-4.78-1.41-8.66-2.79-11.65-4.16-2.99-1.37-5.55-3.44-7.69-6.22-2.15-2.78-3.21-6.48-3.21-11.12,0-4.36,1.09-8.15,3.27-11.38,2.18-3.23,5.23-5.71,9.17-7.43,3.94-1.72,8.43-2.58,13.49-2.58,7.59,0,13.76,1.85,18.5,5.54,4.74,3.69,7.36,8.84,7.85,15.44h-16.23c-.14-2.53-1.21-4.62-3.21-6.27-2-1.65-4.66-2.48-7.96-2.48-2.88,0-5.18.74-6.9,2.21s-2.58,3.62-2.58,6.43c0,1.97.65,3.6,1.95,4.9,1.3,1.3,2.92,2.36,4.85,3.16,1.93.81,4.66,1.74,8.17,2.79,4.78,1.41,8.68,2.81,11.7,4.22,3.02,1.41,5.62,3.52,7.8,6.33,2.18,2.81,3.27,6.5,3.27,11.07,0,3.94-1.02,7.59-3.06,10.96-2.04,3.37-5.03,6.06-8.96,8.06-3.94,2-8.61,3-14.02,3-5.13,0-9.75-.88-13.86-2.64Z"/>
  </g>
</svg>