<svg width="96" height="80" viewBox="0 0 96 80" fill="none" xmlns="http://www.w3.org/2000/svg">
<g clip-path="url(#clip0_82_3484)">
<path d="M0 35.1549C0.613227 35.1549 1.21452 35.2172 1.7925 35.332C4.01877 35.7689 5.97432 37.0094 7.36431 38.7491C8.73407 40.4592 9.55869 42.6561 9.55869 45.0459C9.55869 41.3448 10.7417 37.9205 12.7447 35.1678C12.099 34.2737 11.3623 33.4494 10.5543 32.7111C8.95348 31.2399 7.0656 30.0984 4.99024 29.3892C3.42127 28.8499 1.7403 28.561 0 28.561V35.1549Z" fill="url(#paint0_linear_82_3484)"/>
<path d="M20.4986 29.3892C21.7968 31.2067 22.8767 33.2013 23.6971 35.332C24.2739 35.2172 24.8755 35.1549 25.4891 35.1549V28.561C23.7483 28.561 22.0682 28.8499 20.4986 29.3892ZM12.7446 35.1678C10.7417 37.9205 9.55859 41.3448 9.55859 45.0459H15.9309C15.9309 42.6561 16.7546 40.4592 18.1252 38.7491C17.4042 36.5352 16.3163 34.4959 14.9353 32.7111C14.1262 33.4494 13.3897 34.2737 12.7446 35.1678Z" fill="url(#paint1_linear_82_3484)"/>
<path d="M0 25.2638C2.54069 25.2638 4.96681 25.7791 7.18462 26.7152C8.82199 24.9588 10.6935 23.4423 12.7447 22.2101C8.99319 19.9602 4.64012 18.6699 0 18.6699V25.2638ZM12.7447 30.3123C13.5374 31.0465 14.2702 31.8497 14.9354 32.7109C16.3164 34.4957 17.4043 36.535 18.1253 38.7489C18.7662 40.7265 19.1171 42.8449 19.1171 45.0457H25.4892C25.4892 41.6168 24.8514 38.3409 23.6972 35.3319C22.8768 33.2012 21.7969 31.2066 20.4987 29.389C19.8255 28.4457 19.0928 27.5514 18.3041 26.7152C16.2492 27.5764 14.3699 28.8041 12.7447 30.3123Z" fill="url(#paint2_linear_82_3484)"/>
<path d="M12.7447 22.2101C10.6935 23.4423 8.82199 24.9588 7.18462 26.7152C6.39651 27.5514 5.66384 28.4457 4.99024 29.389C7.0656 30.0982 8.95348 31.2397 10.5543 32.7109C11.2193 31.8497 11.9522 31.0465 12.7447 30.3123C14.3699 28.8041 16.2492 27.5764 18.3041 26.7152C20.5225 25.7791 22.9479 25.2638 25.4892 25.2638V18.6699C20.8493 18.6699 16.4966 19.9602 12.7447 22.2101ZM0 45.0457H6.37251C6.37251 42.8449 6.7225 40.7265 7.36431 38.7489C5.97432 37.0092 4.01877 35.7687 1.7925 35.3319C0.637317 38.3409 0 41.6168 0 45.0457Z" fill="url(#paint3_linear_82_3484)"/>
<path d="M39.5887 30.8234C42.2661 30.8234 43.4087 29.8259 43.4087 27.4987C43.4087 25.1715 42.3018 24.2849 39.5531 24.2849H36.6615V30.8234H39.5887ZM30.0215 45.0456V18.6699H39.5531C46.4072 18.6699 49.7631 21.5513 49.7631 27.4618C49.7631 33.4832 46.3716 36.4753 39.6244 36.4753H36.6615V45.0456H30.0215Z" fill="#293E6B"/>
<path d="M58.8299 45.0456V24.6913H51.4761V18.6699H73.0379V24.6913H65.6841V45.0456H58.8299Z" fill="#293E6B"/>
<path d="M83.217 34.214C77.6773 33.1238 75.2982 30.8027 75.2982 26.5474C75.2982 21.4834 78.799 18.6699 85.0521 18.6699C91.1358 18.6699 94.7038 21.3779 95.2137 26.3366L88.8925 27.0047C88.4507 24.8946 87.329 24.0154 85.018 24.0154C82.945 24.0154 81.7557 24.754 81.7557 26.1607C81.7557 27.3211 82.5713 27.9894 84.4744 28.3762L87.7709 29.0443C93.1747 30.1346 95.6556 32.5611 95.6556 36.8164C95.6556 42.1267 91.985 45.0456 85.4262 45.0456C78.799 45.0456 75.1965 42.0563 74.8228 36.1482H81.3138C81.5858 38.5396 82.9791 39.6298 85.6638 39.6298C87.9411 39.6298 89.1304 38.7857 89.1304 37.2033C89.1304 35.902 88.2468 35.1635 86.4457 34.8469L83.217 34.214Z" fill="#293E6B"/>
<path d="M7.20669 53.22C7.20669 52.5002 7.01621 51.9501 6.63562 51.5696C6.25473 51.1895 5.63135 50.999 4.76505 50.999H2.77625V55.4205H4.76505C6.39258 55.4205 7.20669 54.6871 7.20669 53.22ZM2.77625 57.723V63.0612H0V48.6763H5.0604C6.70122 48.6763 7.93826 49.0838 8.77199 49.8988C9.6055 50.7138 10.0224 51.821 10.0224 53.22C10.0224 54.5922 9.59225 55.6854 8.73264 56.5004C7.87279 57.3155 6.64858 57.723 5.0604 57.723H2.77625Z" fill="#293E6B"/>
<path d="M14.6103 55.4817H16.8945C18.4826 55.4817 19.277 54.7552 19.277 53.3015C19.277 52.6088 19.0832 52.0688 18.6961 51.6817C18.3088 51.2945 17.7082 51.101 16.8945 51.101H14.6103V55.4817ZM19.0801 63.0612L15.8311 57.4581H14.6103V63.0612H11.834V48.6763H17.1307C18.7453 48.6763 19.976 49.0838 20.8227 49.8988C21.6693 50.7138 22.0927 51.787 22.0927 53.1181C22.0927 54.205 21.8004 55.1149 21.2165 55.8484C20.6323 56.582 19.789 57.071 18.6862 57.3155L22.1518 63.0612H19.0801Z" fill="#293E6B"/>
<path d="M28.3347 51.692C27.7176 52.0724 27.2352 52.6191 26.8874 53.3321C26.5395 54.0453 26.3656 54.8776 26.3656 55.8282C26.3656 56.7792 26.5395 57.6111 26.8874 58.3242C27.2352 59.0374 27.7176 59.5843 28.3347 59.9645C28.9516 60.3449 29.6669 60.5349 30.481 60.5349C31.2948 60.5349 32.0101 60.3449 32.6272 59.9645C33.2441 59.5843 33.7265 59.0374 34.0745 58.3242C34.4221 57.6111 34.5964 56.7792 34.5964 55.8282C34.5964 54.8776 34.4221 54.0453 34.0745 53.3321C33.7265 52.6191 33.2441 52.0724 32.6272 51.692C32.0101 51.3119 31.2948 51.1215 30.481 51.1215C29.6669 51.1215 28.9516 51.3119 28.3347 51.692ZM34.0155 49.41C35.0719 50.035 35.9057 50.9075 36.5161 52.0282C37.1265 53.1489 37.4317 54.4157 37.4317 55.8282C37.4317 57.2411 37.1265 58.5111 36.5161 59.6384C35.9057 60.7661 35.0719 61.6421 34.0155 62.267C32.9587 62.8919 31.7806 63.2043 30.481 63.2043C29.1814 63.2043 28.003 62.8919 26.9465 62.267C25.8897 61.6421 25.0562 60.7661 24.4459 59.6384C23.8354 58.5111 23.5303 57.2411 23.5303 55.8282C23.5303 54.4157 23.8354 53.1489 24.4459 52.0282C25.0562 50.9075 25.8897 50.035 26.9465 49.41C28.003 48.7853 29.1814 48.4727 30.481 48.4727C31.7806 48.4727 32.9587 48.7853 34.0155 49.41Z" fill="#293E6B"/>
<path d="M47.4146 48.6763V58.8233C47.4146 60.2087 47.0434 61.2857 46.302 62.0528C45.5603 62.8204 44.533 63.2041 43.2202 63.2041C41.8027 63.2041 40.6804 62.783 39.8533 61.9407C39.0264 61.0985 38.6128 59.8965 38.6128 58.3342H41.3498C41.3498 59.0678 41.4975 59.6315 41.7929 60.0254C42.0883 60.4196 42.5244 60.6163 43.1024 60.6163C43.6272 60.6163 44.0144 60.4567 44.2639 60.1375C44.5133 59.8185 44.638 59.3804 44.638 58.8233V48.6763H47.4146Z" fill="#293E6B"/>
<path d="M52.6126 50.9583V54.6871H57.5352V56.8876H52.6126V60.7589H58.126V63.0612H49.8359V48.6763H58.126V50.9583H52.6126Z" fill="#293E6B"/>
<path d="M70.7667 49.9196C71.9088 50.8435 72.6633 52.0998 73.0313 53.6891H70.1168C69.8149 52.9148 69.3456 52.3036 68.7093 51.8553C68.0721 51.407 67.3078 51.1829 66.4151 51.1829C65.6799 51.1829 65.0174 51.3733 64.4266 51.7534C63.8358 52.1339 63.3759 52.6774 63.0481 53.3835C62.7199 54.09 62.5558 54.9187 62.5558 55.8692C62.5558 56.8065 62.7199 57.6285 63.0481 58.3348C63.3759 59.0411 63.8358 59.5846 64.4266 59.9648C65.0174 60.3452 65.6799 60.5353 66.4151 60.5353C67.3078 60.5353 68.0721 60.3111 68.7093 59.8629C69.3456 59.4146 69.8149 58.8033 70.1168 58.0291H73.0313C72.6633 59.6183 71.9088 60.875 70.7667 61.7985C69.625 62.7223 68.1874 63.1842 66.4545 63.1842C65.1285 63.1842 63.9568 62.8751 62.9398 62.257C61.9224 61.6389 61.1347 60.7732 60.5772 59.6591C60.0188 58.5454 59.7402 57.2823 59.7402 55.8692C59.7402 54.443 60.0188 53.173 60.5772 52.059C61.1347 50.9455 61.9191 50.0795 62.93 49.4612C63.9408 48.8432 65.1154 48.5342 66.4545 48.5342C68.1874 48.5342 69.625 48.9961 70.7667 49.9196Z" fill="#293E6B"/>
<path d="M84.5699 48.6763V50.9583H80.7303V63.0612H77.9537V50.9583H74.1338V48.6763H84.5699Z" fill="#293E6B"/>
<path d="M95.1238 61.1563C94.7694 61.7748 94.2443 62.2703 93.5485 62.6438C92.8527 63.0174 92.0059 63.2042 91.0086 63.2042C90.0239 63.2042 89.1444 63.031 88.3702 62.6846C87.5952 62.3382 86.9753 61.8389 86.5093 61.1869C86.0432 60.5348 85.7774 59.7742 85.7117 58.9048H88.6652C88.7308 59.489 88.9573 59.9746 89.3446 60.3617C89.7318 60.7488 90.2471 60.9423 90.8904 60.9423C91.4681 60.9423 91.9111 60.7829 92.2196 60.4635C92.5277 60.1445 92.6824 59.7335 92.6824 59.2308C92.6824 58.7826 92.5573 58.4126 92.3083 58.1204C92.0588 57.8284 91.7437 57.5941 91.363 57.4174C90.9819 57.2411 90.4572 57.0373 89.7876 56.8062C88.9216 56.5076 88.2127 56.2121 87.6613 55.9198C87.1099 55.6279 86.6402 55.2035 86.2533 54.6464C85.866 54.0895 85.6724 53.3628 85.6724 52.4662C85.6724 51.2303 86.1023 50.2555 86.9622 49.5423C87.8217 48.8292 88.961 48.4727 90.3784 48.4727C91.8484 48.4727 93.0201 48.8393 93.8931 49.5729C94.7661 50.3064 95.2617 51.2844 95.3799 52.5069H92.387C92.3083 51.9909 92.0982 51.5665 91.7569 51.2334C91.4151 50.9008 90.9495 50.7344 90.3587 50.7344C89.8467 50.7344 89.4332 50.8738 89.1185 51.1519C88.803 51.4306 88.6459 51.8345 88.6459 52.3644C88.6459 52.7855 88.7669 53.1354 89.0102 53.4137C89.2527 53.6922 89.5612 53.9199 89.9353 54.0963C90.3095 54.2729 90.8182 54.4699 91.4615 54.6872C92.3538 55.0131 93.0791 55.3188 93.6371 55.6041C94.195 55.8893 94.6709 56.3172 95.0648 56.8877C95.4586 57.4582 95.6555 58.2054 95.6555 59.129C95.6555 59.8625 95.4783 60.5384 95.1238 61.1563Z" fill="#293E6B"/>
</g>
<defs>
<linearGradient id="paint0_linear_82_3484" x1="0.0538177" y1="28.5055" x2="13.234" y2="41.2425" gradientUnits="userSpaceOnUse">
<stop stop-color="#E20735"/>
<stop offset="0.237095" stop-color="#E20735"/>
<stop offset="1" stop-color="#E20735"/>
</linearGradient>
<linearGradient id="paint1_linear_82_3484" x1="17.5238" y1="28.5611" x2="17.5238" y2="45.0457" gradientUnits="userSpaceOnUse">
<stop stop-color="#E20735"/>
<stop offset="0.237095" stop-color="#E20735"/>
<stop offset="1" stop-color="#293E6B"/>
</linearGradient>
<linearGradient id="paint2_linear_82_3484" x1="4.13563" y1="16.1992" x2="22.4532" y2="46.8594" gradientUnits="userSpaceOnUse">
<stop stop-color="#E20735"/>
<stop offset="0.237095" stop-color="#E20735"/>
<stop offset="1" stop-color="#E20735"/>
</linearGradient>
<linearGradient id="paint3_linear_82_3484" x1="25.4892" y1="31.8577" x2="5.46938e-05" y2="31.8577" gradientUnits="userSpaceOnUse">
<stop stop-color="#E20735"/>
<stop offset="0.237095" stop-color="#E20735"/>
<stop offset="1" stop-color="#293E6B"/>
</linearGradient>
<clipPath id="clip0_82_3484">
<rect width="96" height="45" fill="white" transform="translate(0 18.437)"/>
</clipPath>
</defs>
</svg>
